mtllib track_switch_large_right_active.mtl
usemtl Mat_1
# Blender v2.69 (sub 0) OBJ File: 'large_switch_sketch.blend'
# www.blender.org
o Cube_1
v 1.066350 -0.025278 -0.538347
v 1.066350 0.054722 -0.538347
v 1.094404 0.054722 -0.527718
v 1.094404 -0.025278 -0.527718
v 1.055722 -0.025278 -0.510294
v 1.055722 0.054722 -0.510294
v 1.083776 -0.025278 -0.499664
v 1.083776 0.054722 -0.499664
v 0.499907 0.054722 -0.752953
v 0.527962 0.054722 -0.742324
v 0.527962 -0.025278 -0.742324
v 0.499907 -0.025278 -0.752953
v 0.517333 0.054722 -0.714270
v 0.517333 -0.025278 -0.714270
v 0.489279 0.054722 -0.724899
v 0.489279 -0.025278 -0.724899
v 0.377128 -0.029999 -0.858286
v 0.377128 0.030001 -0.858286
v 1.256155 0.030001 -0.525251
v 1.256155 -0.029999 -0.525251
v 0.327528 -0.029999 -0.727367
v 0.327528 0.030001 -0.727367
v 1.206555 -0.029999 -0.394332
v 1.206555 0.030001 -0.394332
v 1.173292 -0.025278 -0.792392
v 1.173292 0.054722 -0.792392
v 1.200591 0.054722 -0.779951
v 1.200591 -0.025278 -0.779951
v 1.160852 -0.025278 -0.765093
v 1.160852 0.054722 -0.765093
v 1.188150 -0.025278 -0.752652
v 1.188150 0.054722 -0.752652
v 0.622098 0.054722 -1.043585
v 0.649397 0.054722 -1.031144
v 0.649397 -0.025278 -1.031144
v 0.622098 -0.025278 -1.043585
v 0.636956 0.054722 -1.003846
v 0.636956 -0.025278 -1.003846
v 0.609657 0.054722 -1.016286
v 0.609657 -0.025278 -1.016286
v 0.506471 -0.029999 -1.156722
v 0.506471 0.030001 -1.156722
v 1.361835 0.030001 -0.766910
v 1.361835 -0.029999 -0.766910
v 0.448414 -0.029999 -1.029327
v 0.448414 0.030001 -1.029327
v 1.303778 -0.029999 -0.639515
v 1.303778 0.030001 -0.639515
v 1.296621 -0.025278 -1.038899
v 1.296621 0.054722 -1.038899
v 1.323047 0.054722 -1.024698
v 1.323047 -0.025278 -1.024698
v 1.282421 -0.025278 -1.012472
v 1.282421 0.054722 -1.012472
v 1.308848 -0.025278 -0.998273
v 1.308848 0.054722 -0.998273
v 0.763036 0.054722 -1.325603
v 0.789462 0.054722 -1.311405
v 0.789462 -0.025278 -1.311405
v 0.763036 -0.025278 -1.325603
v 0.775263 0.054722 -1.284978
v 0.775263 -0.025278 -1.284978
v 0.748836 0.054722 -1.299177
v 0.748836 -0.025278 -1.299177
v 0.655055 -0.029999 -1.446061
v 0.655055 0.030001 -1.446061
v 1.483093 0.030001 -1.001140
v 1.483093 -0.029999 -1.001140
v 0.588791 -0.029999 -1.322735
v 0.588791 0.030001 -1.322735
v 1.416828 -0.029999 -0.877815
v 1.416828 0.030001 -0.877815
v 1.435807 -0.025278 -1.276810
v 1.435807 0.054722 -1.276810
v 1.461249 0.054722 -1.260913
v 1.461249 -0.025278 -1.260913
v 1.419910 -0.025278 -1.251369
v 1.419910 0.054722 -1.251369
v 1.445351 -0.025278 -1.235471
v 1.445351 0.054722 -1.235471
v 0.922116 0.054722 -1.597800
v 0.947557 0.054722 -1.581904
v 0.947557 -0.025278 -1.581904
v 0.922116 -0.025278 -1.597800
v 0.931660 0.054722 -1.556461
v 0.931660 -0.025278 -1.556461
v 0.906218 0.054722 -1.572359
v 0.906218 -0.025278 -1.572359
v 0.822245 -0.029999 -1.725062
v 0.822245 0.030001 -1.725062
v 1.619411 0.030001 -1.226937
v 1.619411 -0.029999 -1.226937
v 0.748057 -0.029999 -1.606335
v 0.748057 0.030001 -1.606335
v 1.545222 -0.029999 -1.108210
v 1.545222 0.030001 -1.108210
v 1.590256 -0.025278 -1.505110
v 1.590256 0.054722 -1.505110
v 1.614603 0.054722 -1.487583
v 1.614603 -0.025278 -1.487583
v 1.572729 -0.025278 -1.480764
v 1.572729 0.054722 -1.480764
v 1.597076 -0.025278 -1.463235
v 1.597076 0.054722 -1.463235
v 1.098658 0.054722 -1.859011
v 1.123006 0.054722 -1.841482
v 1.123006 -0.025278 -1.841482
v 1.098658 -0.025278 -1.859011
v 1.105478 0.054722 -1.817135
v 1.105478 -0.025278 -1.817135
v 1.081131 0.054722 -1.834663
v 1.081131 -0.025278 -1.834663
v 1.007325 -0.029999 -1.992530
v 1.007325 0.030001 -1.992530
v 1.770204 0.030001 -1.443335
v 1.770204 -0.029999 -1.443335
v 0.925530 -0.029999 -1.878910
v 0.925530 0.030001 -1.878910
v 1.688409 -0.029999 -1.329715
v 1.688409 0.030001 -1.329715
v 1.759306 -0.025278 -1.722820
v 1.759306 0.054722 -1.722820
v 1.782454 0.054722 -1.703737
v 1.782454 -0.025278 -1.703737
v 1.740223 -0.025278 -1.699671
v 1.740223 0.054722 -1.699671
v 1.763372 -0.025278 -1.680588
v 1.763372 0.054722 -1.680588
v 1.291907 0.054722 -2.108114
v 1.315055 0.054722 -2.089032
v 1.315055 -0.025278 -2.089032
v 1.291907 -0.025278 -2.108114
v 1.295973 0.054722 -2.065883
v 1.295973 -0.025278 -2.065883
v 1.272824 0.054722 -2.084966
v 1.272824 -0.025278 -2.084966
v 1.209501 -0.029999 -2.247321
v 1.209501 0.030001 -2.247321
v 1.934828 0.030001 -1.649408
v 1.934828 -0.029999 -1.649408
v 1.120450 -0.029999 -2.139294
v 1.120450 0.030001 -2.139294
v 1.845777 -0.029999 -1.541381
v 1.845777 0.030001 -1.541381
v 1.942232 -0.025278 -1.929007
v 1.942232 0.054722 -1.929007
v 1.964083 0.054722 -1.908451
v 1.964083 -0.025278 -1.908451
v 1.921677 -0.025278 -1.907155
v 1.921677 0.054722 -1.907155
v 1.943528 -0.025278 -1.886600
v 1.943528 0.054722 -1.886600
v 1.501033 0.054722 -2.344045
v 1.522885 0.054722 -2.323490
v 1.522885 -0.025278 -2.323490
v 1.501033 -0.025278 -2.344045
v 1.502329 0.054722 -2.301638
v 1.502329 -0.025278 -2.301638
v 1.480478 0.054722 -2.322194
v 1.480478 -0.025278 -2.322194
v 1.427909 -0.029999 -2.488345
v 1.427909 0.030001 -2.488345
v 2.112578 0.030001 -1.844272
v 2.112578 -0.029999 -1.844272
v 1.331983 -0.029999 -2.386372
v 1.331983 0.030001 -2.386372
v 2.016652 -0.029999 -1.742300
v 2.016652 0.030001 -1.742300
v 2.138252 -0.025278 -2.122789
v 2.138252 0.054722 -2.122789
v 2.158712 0.054722 -2.100849
v 2.158712 -0.025278 -2.100849
v 2.116312 -0.025278 -2.102328
v 2.116312 0.054722 -2.102328
v 2.136772 -0.025278 -2.080388
v 2.136772 0.054722 -2.080388
v 1.725143 0.054722 -2.565795
v 1.745603 0.054722 -2.543854
v 1.745603 -0.025278 -2.543854
v 1.725143 -0.025278 -2.565795
v 1.723662 0.054722 -2.523393
v 1.723662 -0.025278 -2.523393
v 1.703202 0.054722 -2.545335
v 1.703202 -0.025278 -2.545335
v 1.661613 -0.029999 -2.714568
v 1.661613 0.030001 -2.714568
v 2.302691 0.030001 -2.027094
v 2.302691 -0.029999 -2.027094
v 1.559223 -0.029999 -2.619088
v 1.559223 0.030001 -2.619088
v 2.200302 -0.029999 -1.931615
v 2.200302 0.030001 -1.931615
v 2.346527 -0.025278 -2.303336
v 2.346527 0.054722 -2.303336
v 2.365508 0.054722 -2.280104
v 2.365508 -0.025278 -2.280104
v 2.323295 -0.025278 -2.284353
v 2.323295 0.054722 -2.284353
v 2.342276 -0.025278 -2.261123
v 2.342276 0.054722 -2.261123
v 1.963276 0.054722 -2.772410
v 1.982257 0.054722 -2.749178
v 1.982257 -0.025278 -2.749178
v 1.963276 -0.025278 -2.772410
v 1.959025 0.054722 -2.730198
v 1.959025 -0.025278 -2.730198
v 1.940044 0.054722 -2.753429
v 1.940044 -0.025278 -2.753429
v 1.909612 -0.029999 -2.925021
v 1.909612 0.030001 -2.925021
v 2.504355 0.030000 -2.197091
v 2.504355 -0.030000 -2.197091
v 1.801197 -0.029999 -2.836442
v 1.801197 0.030001 -2.836442
v 2.395940 -0.029999 -2.108512
v 2.395940 0.030001 -2.108512
v 2.566164 -0.025279 -2.469874
v 2.566164 0.054721 -2.469874
v 2.583585 0.054721 -2.445449
v 2.583585 -0.025279 -2.445449
v 2.541740 -0.025279 -2.452452
v 2.541740 0.054721 -2.452452
v 2.559161 -0.025279 -2.428028
v 2.559161 0.054721 -2.428028
v 2.214412 0.054722 -2.963011
v 2.231833 0.054722 -2.938587
v 2.231833 -0.025278 -2.938587
v 2.214412 -0.025278 -2.963011
v 2.207410 0.054722 -2.921166
v 2.207410 -0.025278 -2.921166
v 2.189989 0.054722 -2.945590
v 2.189989 -0.025278 -2.945590
v 2.170844 -0.029999 -3.118803
v 2.170844 0.030001 -3.118803
v 2.716705 0.030000 -2.353535
v 2.716705 -0.030000 -2.353535
v 2.056868 -0.029999 -3.037505
v 2.056868 0.030001 -3.037505
v 2.602729 -0.030000 -2.272235
v 2.602729 0.030000 -2.272235
v 2.796222 -0.025279 -2.621690
v 2.796222 0.054721 -2.621690
v 2.812009 0.054721 -2.596179
v 2.812009 -0.025279 -2.596179
v 2.770712 -0.025279 -2.605904
v 2.770712 0.054721 -2.605904
v 2.786498 -0.025279 -2.580392
v 2.786498 0.054721 -2.580392
v 2.477477 0.054721 -3.136777
v 2.493263 0.054721 -3.111266
v 2.493263 -0.025279 -3.111266
v 2.477477 -0.025279 -3.136777
v 2.467753 0.054721 -3.095480
v 2.467753 -0.025279 -3.095480
v 2.451966 0.054721 -3.120991
v 2.451966 -0.025279 -3.120991
v 2.444191 -0.030000 -3.295086
v 2.444191 0.030000 -3.295086
v 2.938833 0.030000 -2.495754
v 2.938833 -0.030000 -2.495754
v 2.325142 -0.029999 -3.221416
v 2.325142 0.030001 -3.221416
v 2.819783 -0.030000 -2.422084
v 2.819783 0.030000 -2.422084
v 3.035717 -0.025279 -2.758134
v 3.035717 0.054721 -2.758134
v 3.049802 0.054721 -2.731646
v 3.049802 -0.025279 -2.731646
v 3.009229 -0.025279 -2.744051
v 3.009229 0.054721 -2.744051
v 3.023313 -0.025279 -2.717562
v 3.023313 0.054721 -2.717562
v 2.751343 0.054721 -3.292965
v 2.765427 0.054721 -3.266478
v 2.765427 -0.025279 -3.266478
v 2.751343 -0.025279 -3.292965
v 2.738938 0.054721 -3.252393
v 2.738938 -0.025279 -3.252393
v 2.724854 0.054721 -3.278882
v 2.724854 -0.025279 -3.278882
v 2.728483 -0.030000 -3.453113
v 2.728483 0.030000 -3.453113
v 3.169786 0.030000 -2.623142
v 3.169786 -0.030000 -2.623142
v 2.604870 -0.030000 -3.387387
v 2.604870 0.030000 -3.387387
v 3.046173 -0.030000 -2.557416
v 3.046173 0.030000 -2.557416
v 3.283624 -0.025279 -2.878624
v 3.283624 0.054721 -2.878624
v 3.295945 0.054721 -2.851271
v 3.295945 -0.025279 -2.851271
v 3.256271 -0.025279 -2.866302
v 3.256271 0.054721 -2.866302
v 3.268593 -0.025279 -2.838949
v 3.268593 0.054721 -2.838949
v 3.034838 0.054721 -3.430909
v 3.047159 0.054721 -3.403555
v 3.047159 -0.025279 -3.403555
v 3.034838 -0.025279 -3.430909
v 3.019806 0.054721 -3.391234
v 3.019806 -0.025279 -3.391234
v 3.007485 0.054721 -3.418587
v 3.007485 -0.025279 -3.418587
v 3.022501 -0.030000 -3.592208
v 3.022501 0.030000 -3.592208
v 3.408576 0.030000 -2.735151
v 3.408576 -0.030000 -2.735151
v 2.894854 -0.030000 -3.534707
v 2.894854 0.030000 -3.534707
v 3.280930 -0.030000 -2.677651
v 3.280930 0.030000 -2.677651
v 3.538880 -0.025279 -2.982641
v 3.538880 0.054721 -2.982641
v 3.549386 0.054721 -2.954541
v 3.549386 -0.025279 -2.954541
v 3.510780 -0.025279 -2.972135
v 3.510780 0.054721 -2.972135
v 3.521286 -0.025279 -2.944035
v 3.521286 0.054721 -2.944035
v 3.326748 0.054721 -3.550015
v 3.337254 0.054721 -3.521915
v 3.337254 -0.025279 -3.521915
v 3.326748 -0.025279 -3.550015
v 3.309154 0.054721 -3.511409
v 3.309154 -0.025279 -3.511409
v 3.298647 0.054721 -3.539509
v 3.298647 -0.025279 -3.539509
v 3.324986 -0.030000 -3.711775
v 3.324986 0.030000 -3.711775
v 3.654181 0.030000 -2.831303
v 3.654181 -0.030000 -2.831303
v 3.193852 -0.030000 -3.662746
v 3.193852 0.030000 -3.662746
v 3.523047 -0.030000 -2.782274
v 3.523047 0.030000 -2.782274
v 3.800393 -0.025279 -3.069741
v 3.800393 0.054721 -3.069741
v 3.809038 0.054721 -3.041014
v 3.809038 -0.025279 -3.041014
v 3.771665 -0.025279 -3.061095
v 3.771665 0.054721 -3.061095
v 3.780311 -0.025279 -3.032368
v 3.780311 0.054721 -3.032368
v 3.625822 0.054721 -3.649774
v 3.634468 0.054721 -3.621047
v 3.634468 -0.025279 -3.621047
v 3.625822 -0.025279 -3.649774
v 3.605741 0.054721 -3.612401
v 3.605741 -0.025279 -3.612401
v 3.597095 0.054721 -3.641128
v 3.597095 -0.025279 -3.641128
v 3.634645 -0.030000 -3.811303
v 3.634645 0.030000 -3.811303
v 3.905549 0.030000 -2.911186
v 3.905549 -0.030000 -2.911186
v 3.500585 -0.030000 -3.770956
v 3.500585 0.030000 -3.770956
v 3.771489 -0.030000 -2.870839
v 3.771489 0.030000 -2.870839
v 4.067042 -0.025279 -3.139551
v 4.067042 0.054721 -3.139551
v 4.073790 0.054721 -3.110320
v 4.073790 -0.025279 -3.110320
v 4.037811 -0.025279 -3.132802
v 4.037811 0.054721 -3.132802
v 4.044559 -0.025279 -3.103571
v 4.044559 0.054721 -3.103571
v 3.930781 0.054721 -3.729759
v 3.937530 0.054721 -3.700528
v 3.937530 -0.025279 -3.700528
v 3.930781 -0.025279 -3.729759
v 3.908299 0.054721 -3.693780
v 3.908299 -0.025279 -3.693780
v 3.901550 0.054721 -3.723011
v 3.901550 -0.025279 -3.723011
v 3.950149 -0.030000 -3.890366
v 3.950149 0.030000 -3.890366
v 4.161603 0.030000 -2.974458
v 4.161603 -0.030000 -2.974458
v 3.813737 -0.030000 -3.858872
v 3.813737 0.030000 -3.858872
v 4.025191 -0.030000 -2.942965
v 4.025191 0.030000 -2.942965
v 4.337686 -0.025279 -3.191771
v 4.337686 0.054721 -3.191771
v 4.342508 0.054721 -3.162160
v 4.342508 -0.025279 -3.162160
v 4.308076 -0.025279 -3.186949
v 4.308076 0.054721 -3.186949
v 4.312898 -0.025279 -3.157339
v 4.312898 0.054721 -3.157339
v 4.240319 0.054721 -3.789628
v 4.245141 0.054721 -3.760017
v 4.245141 -0.025279 -3.760017
v 4.240319 -0.025279 -3.789628
v 4.215531 0.054721 -3.755196
v 4.215531 -0.025279 -3.755196
v 4.210709 0.054721 -3.784806
v 4.210709 -0.025279 -3.784806
v 4.270149 -0.030000 -3.948624
v 4.270149 0.030000 -3.948624
v 4.421247 0.030000 -3.020846
v 4.421247 -0.030000 -3.020846
v 4.131970 -0.030000 -3.926120
v 4.131970 0.030000 -3.926120
v 4.283068 -0.030000 -2.998343
v 4.283068 0.030000 -2.998343
v 4.611166 -0.025279 -3.226179
v 4.611166 0.054721 -3.226179
v 4.614041 0.054721 -3.196317
v 4.614041 -0.025279 -3.196317
v 4.581304 -0.025279 -3.223304
v 4.581304 0.054721 -3.223304
v 4.584179 -0.025279 -3.193441
v 4.584179 0.054721 -3.193441
v 4.553109 0.054721 -3.829124
v 4.555984 0.054721 -3.799262
v 4.555984 -0.025279 -3.799262
v 4.553109 -0.025279 -3.829124
v 4.526122 0.054721 -3.796387
v 4.526122 -0.025279 -3.796387
v 4.523247 0.054721 -3.826249
v 4.523247 -0.025279 -3.826249
v 4.593274 -0.030000 -3.985828
v 4.593274 0.030000 -3.985828
v 4.683369 0.030000 -3.050156
v 4.683369 -0.030000 -3.050156
v 4.453919 -0.030000 -3.972410
v 4.453919 0.030000 -3.972410
v 4.544014 -0.030000 -3.036737
v 4.544014 0.030000 -3.036737
v 4.886311 -0.025279 -3.242627
v 4.886311 0.054721 -3.242627
v 4.887227 0.054721 -3.212641
v 4.887227 -0.025279 -3.212641
v 4.856325 -0.025279 -3.241711
v 4.856325 0.054721 -3.241711
v 4.857241 -0.025279 -3.211724
v 4.857241 0.054721 -3.211724
v 4.867813 0.054721 -3.848078
v 4.868729 0.054721 -3.818091
v 4.868729 -0.025279 -3.818091
v 4.867813 -0.025279 -3.848078
v 4.838743 0.054721 -3.817175
v 4.838743 -0.025279 -3.817175
v 4.837827 0.054721 -3.847162
v 4.837827 -0.025279 -3.847162
v 4.918141 -0.030000 -4.001820
v 4.918141 0.030000 -4.001820
v 4.946847 0.030000 -3.062258
v 4.946847 -0.030000 -3.062258
v 4.778206 -0.030000 -3.997544
v 4.778206 0.030000 -3.997544
v 4.806912 -0.030000 -3.057983
v 4.806912 0.030000 -3.057983
v 0.199473 0.025804 0.997601
v 0.199473 0.025804 0.488000
v 0.199473 0.041290 0.488000
v 0.199473 0.041290 0.997601
v 0.818172 0.071585 0.493000
v 0.818172 0.071585 1.000000
v 0.808538 0.071585 1.000000
v 0.808538 0.071585 0.493000
v 0.800427 0.041290 0.493000
v 0.800427 0.041290 1.000000
v 0.818172 0.041290 1.000000
v 0.818172 0.041290 0.493000
v 0.842682 0.071585 0.493000
v 0.842682 0.071585 1.000000
v 0.842682 0.041290 1.000000
v 0.842682 0.041290 0.493000
v 0.191362 0.085804 0.997601
v 0.191362 0.085804 0.488000
v 0.147584 0.085804 0.488000
v 0.147584 0.085804 0.997601
v 5.040299 0.085803 -3.840780
v 4.501304 0.085803 -3.838690
v 4.501304 0.071584 -3.838690
v 5.040299 0.071584 -3.840780
v 0.157218 0.041290 0.997601
v 0.157218 0.041290 0.488000
v 0.139473 0.041290 0.488000
v 0.139473 0.041290 0.997601
v 0.860427 0.041290 1.000000
v 0.860427 0.041290 0.493000
v 0.139473 0.025804 0.997601
v 0.139473 0.025804 0.488000
v 0.808538 0.085804 0.493000
v 0.808538 0.085804 1.000000
v 0.852316 0.085804 1.000000
v 0.852316 0.085804 0.493000
v 0.808074 0.085804 0.497107
v 0.913916 0.085804 0.034051
v 0.913916 0.071585 0.034051
v 0.808074 0.071585 0.497107
v 1.019758 0.071585 -0.429007
v 1.029150 0.071585 -0.426862
v 0.923308 0.071585 0.036197
v 0.923308 0.041290 0.036197
v 1.029150 0.041290 -0.426862
v 1.011851 0.041290 -0.430816
v 0.906009 0.041290 0.032243
v 0.947202 0.041290 0.041658
v 1.053044 0.041290 -0.421399
v 1.053044 0.071585 -0.421399
v 0.947202 0.071585 0.041658
v 0.850752 0.071585 0.506862
v 0.956594 0.071585 0.043805
v 0.956594 0.085804 0.043805
v 0.850752 0.085804 0.506862
v 0.858659 0.025804 0.508670
v 0.964501 0.025804 0.045613
v 0.964501 0.041290 0.045613
v 0.858659 0.041290 0.508670
v 0.841360 0.071585 0.504716
v 1.070343 0.041290 -0.417446
v 0.800168 0.041290 0.495300
v 0.906009 0.025804 0.032243
v 0.800168 0.025804 0.495300
v 1.019758 0.085804 -0.429007
v 1.062436 0.085804 -0.419252
v 0.817466 0.041290 0.499254
v 0.817466 0.071585 0.499254
v 0.841360 0.041290 0.504716
v 1.062436 0.071585 -0.419252
v 1.070343 0.025804 -0.417446
v 1.011851 0.025804 -0.430816
v 1.018391 0.085804 -0.425107
v 1.224752 0.085804 -0.852938
v 1.224752 0.071585 -0.852938
v 1.018391 0.071585 -0.425107
v 1.431114 0.071585 -1.280770
v 1.439792 0.071585 -1.276584
v 1.233430 0.071585 -0.848754
v 1.233430 0.041290 -0.848754
v 1.439792 0.041290 -1.276584
v 1.423809 0.041290 -1.284293
v 1.217447 0.041290 -0.856462
v 1.255506 0.041290 -0.838104
v 1.461868 0.041290 -1.265936
v 1.461868 0.071585 -1.265936
v 1.255506 0.071585 -0.838104
v 1.057822 0.071585 -0.406087
v 1.264184 0.071585 -0.833919
v 1.264184 0.085804 -0.833919
v 1.057822 0.085804 -0.406087
v 1.065128 0.025804 -0.402563
v 1.271489 0.025804 -0.830396
v 1.271489 0.041290 -0.830396
v 1.065128 0.041290 -0.402563
v 1.049145 0.071585 -0.410273
v 1.477851 0.041290 -1.258227
v 1.011086 0.041290 -0.428630
v 1.217447 0.025804 -0.856462
v 1.011086 0.025804 -0.428630
v 1.431114 0.085804 -1.280770
v 1.470545 0.085804 -1.261751
v 1.027069 0.041290 -0.420921
v 1.027069 0.071585 -0.420921
v 1.049145 0.041290 -0.410273
v 1.470545 0.071585 -1.261751
v 1.477851 0.025804 -1.258227
v 1.423809 0.025804 -1.284293
v 1.428912 0.085804 -1.277273
v 1.725417 0.085804 -1.648365
v 1.725417 0.071585 -1.648365
v 1.428912 0.071585 -1.277273
v 2.021922 0.071585 -2.019457
v 2.029448 0.071585 -2.013445
v 1.732944 0.071585 -1.642351
v 1.732944 0.041290 -1.642351
v 2.029448 0.041290 -2.013445
v 2.015585 0.041290 -2.024520
v 1.719080 0.041290 -1.653427
v 1.752092 0.041290 -1.627051
v 2.048597 0.041290 -1.998144
v 2.048597 0.071585 -1.998144
v 1.752092 0.071585 -1.627051
v 1.463114 0.071585 -1.249945
v 1.759619 0.071585 -1.621037
v 1.759619 0.085804 -1.621037
v 1.463114 0.085804 -1.249945
v 1.469451 0.025804 -1.244881
v 1.765955 0.025804 -1.615975
v 1.765955 0.041290 -1.615975
v 1.469451 0.041290 -1.244881
v 1.455587 0.071585 -1.255958
v 2.062460 0.041290 -1.987068
v 1.422576 0.041290 -1.282335
v 1.719080 0.025804 -1.653427
v 1.422576 0.025804 -1.282335
v 2.021922 0.085804 -2.019457
v 2.056124 0.085804 -1.992130
v 1.436439 0.041290 -1.271258
v 1.436439 0.071585 -1.271258
v 1.455587 0.041290 -1.255958
v 2.056124 0.071585 -1.992130
v 2.062460 0.025804 -1.987068
v 2.015585 0.025804 -2.024520
v 2.018996 0.085804 -2.016538
v 2.390735 0.085804 -2.312232
v 2.390735 0.071585 -2.312232
v 2.018996 0.071585 -2.016538
v 2.762473 0.071584 -2.607928
v 2.768471 0.071584 -2.600388
v 2.396732 0.071585 -2.304692
v 2.396732 0.041290 -2.304692
v 2.768471 0.041289 -2.600388
v 2.757424 0.041289 -2.614275
v 2.385686 0.041290 -2.318580
v 2.411990 0.041290 -2.285511
v 2.783729 0.041289 -2.581205
v 2.783729 0.071584 -2.581205
v 2.411990 0.071585 -2.285511
v 2.046249 0.071585 -1.982277
v 2.417987 0.071585 -2.277971
v 2.417987 0.085804 -2.277971
v 2.046249 0.085804 -1.982277
v 2.051298 0.025804 -1.975929
v 2.423036 0.025804 -2.271623
v 2.423036 0.041290 -2.271623
v 2.051298 0.041290 -1.975929
v 2.040251 0.071585 -1.989817
v 2.794775 0.041289 -2.567319
v 2.013947 0.041290 -2.022885
v 2.385686 0.025804 -2.318580
v 2.013947 0.025804 -2.022885
v 2.762473 0.085803 -2.607928
v 2.789726 0.085803 -2.573666
v 2.024993 0.041290 -2.008998
v 2.024993 0.071585 -2.008998
v 2.040251 0.041290 -1.989817
v 2.789726 0.071584 -2.573666
v 2.794775 0.025803 -2.567319
v 2.757424 0.025803 -2.614275
v 2.758971 0.085803 -2.605733
v 3.187251 0.085803 -2.811161
v 3.187251 0.071584 -2.811161
v 2.758971 0.071584 -2.605733
v 3.615532 0.071584 -3.016589
v 3.619699 0.071584 -3.007902
v 3.191418 0.071584 -2.802475
v 3.191418 0.041289 -2.802475
v 3.619699 0.041289 -3.007902
v 3.612025 0.041289 -3.023902
v 3.183744 0.041289 -2.818474
v 3.202018 0.041289 -2.780375
v 3.630299 0.041289 -2.985803
v 3.630299 0.071584 -2.985803
v 3.202018 0.071584 -2.780375
v 2.777904 0.071584 -2.566261
v 3.206185 0.071584 -2.771689
v 3.206185 0.085803 -2.771689
v 2.777904 0.085803 -2.566261
v 2.781412 0.025803 -2.558948
v 3.209692 0.025803 -2.764376
v 3.209692 0.041289 -2.764376
v 2.781412 0.041289 -2.558948
v 2.773737 0.071584 -2.574947
v 3.637973 0.041289 -2.969802
v 2.755463 0.041289 -2.613047
v 3.183744 0.025803 -2.818474
v 2.755463 0.025803 -2.613047
v 3.615532 0.085803 -3.016589
v 3.634466 0.085803 -2.977116
v 2.763137 0.041289 -2.597046
v 2.763137 0.071584 -2.597046
v 2.773737 0.041289 -2.574947
v 3.634466 0.071584 -2.977116
v 3.637973 0.025803 -2.969802
v 3.612025 0.025803 -3.023902
v 3.611628 0.085803 -3.015230
v 4.074916 0.085803 -3.120061
v 4.074916 0.071584 -3.120061
v 3.611628 0.071584 -3.015230
v 4.538204 0.071584 -3.224893
v 4.540330 0.071584 -3.215496
v 4.077042 0.071584 -3.110664
v 4.077042 0.041289 -3.110664
v 4.540330 0.041289 -3.215496
v 4.536414 0.041289 -3.232804
v 4.073126 0.041289 -3.127972
v 4.082452 0.041289 -3.086759
v 4.545739 0.041289 -3.191591
v 4.545739 0.071584 -3.191591
v 4.082452 0.071584 -3.086759
v 3.621290 0.071584 -2.972530
v 4.084578 0.071584 -3.077363
v 4.084578 0.085803 -3.077363
v 3.621290 0.085803 -2.972530
v 3.623080 0.025803 -2.964621
v 4.086368 0.025803 -3.069452
v 4.086368 0.041289 -3.069452
v 3.623080 0.041289 -2.964621
v 3.619164 0.071584 -2.981927
v 4.549656 0.041289 -3.174283
v 3.609838 0.041289 -3.023141
v 4.073126 0.025803 -3.127972
v 3.609838 0.025803 -3.023141
v 4.538204 0.085803 -3.224893
v 4.547866 0.085803 -3.182194
v 3.613755 0.041289 -3.005834
v 3.613755 0.071584 -3.005834
v 3.619164 0.041289 -2.981927
v 4.547866 0.071584 -3.182194
v 4.549656 0.025803 -3.174283
v 4.536414 0.025803 -3.232804
v 4.534095 0.085803 -3.224439
v 5.041094 0.085803 -3.223332
v 5.041094 0.071584 -3.223332
v 4.534095 0.071584 -3.224439
v 5.041073 0.071584 -3.213698
v 4.534074 0.071584 -3.214804
v 4.534074 0.041289 -3.214804
v 5.041073 0.041289 -3.213698
v 5.041112 0.041289 -3.231443
v 4.534113 0.041289 -3.232549
v 0.157218 0.071585 0.997601
v 0.157218 0.071585 0.488000
v 5.040167 0.071584 -3.874925
v 4.501171 0.071584 -3.872834
v 4.501134 0.071584 -3.882468
v 5.040130 0.071584 -3.884559
v 4.533982 0.025803 -3.172549
v 5.040981 0.025803 -3.171443
v 5.040981 0.041289 -3.171443
v 4.533982 0.041289 -3.172549
v 0.800427 0.025804 1.000000
v 0.800427 0.025804 0.493000
v 0.860427 0.025804 0.493000
v 0.860427 0.025804 1.000000
v 5.041020 0.041289 -3.189188
v 4.534021 0.041289 -3.190294
v 5.041112 0.025803 -3.231443
v 4.534113 0.025803 -3.232549
v 5.040262 0.071584 -3.850415
v 4.501266 0.071584 -3.848324
v 4.501266 0.041289 -3.848324
v 5.040262 0.041289 -3.850415
v 0.191362 0.071585 0.997601
v 0.191362 0.071585 0.488000
v 4.534000 0.085803 -3.180660
v 5.040999 0.085803 -3.179554
v 4.501134 0.085803 -3.882468
v 5.040130 0.085803 -3.884559
v 0.147584 0.071585 0.488000
v 0.147584 0.071585 0.997601
v 0.852316 0.071585 1.000000
v 0.852316 0.071585 0.493000
v 0.181728 0.071585 0.997601
v 0.181728 0.071585 0.488000
v 0.181728 0.041290 0.488000
v 0.181728 0.041290 0.997601
v 0.376719 0.085804 -0.438644
v 0.283304 0.085804 0.032178
v 0.283304 0.071585 0.032178
v 0.376719 0.071585 -0.438644
v 0.180438 0.071585 0.501125
v 0.273853 0.071585 0.030303
v 0.189889 0.071585 0.503001
v 0.197844 0.041290 0.504579
v 0.291259 0.041290 0.033756
v 0.273853 0.041290 0.030303
v 0.180438 0.041290 0.501125
v 0.156397 0.071585 0.496356
v 0.249812 0.071585 0.025534
v 0.249812 0.041290 0.025534
v 0.156397 0.041290 0.496356
v 0.333777 0.071585 -0.447164
v 0.240362 0.071585 0.023658
v 0.240362 0.085804 0.023658
v 0.333777 0.085804 -0.447164
v 0.343227 0.071585 -0.445289
v 0.232406 0.041290 0.022080
v 0.138991 0.041290 0.492901
v 0.232406 0.025804 0.022080
v 0.138991 0.025804 0.492901
v 0.197844 0.025804 0.504579
v 0.291259 0.025804 0.033756
v 0.189889 0.085804 0.503001
v 0.146947 0.085804 0.494481
v 0.367269 0.071585 -0.440519
v 0.367269 0.041290 -0.440519
v 0.384674 0.041290 -0.437065
v 0.343227 0.041290 -0.445289
v 0.146947 0.071585 0.494481
v 0.325822 0.041290 -0.448742
v 0.325822 0.025804 -0.448742
v 0.384674 0.025804 -0.437065
v 0.738870 0.085804 -1.311498
v 0.555612 0.085804 -0.867858
v 0.555612 0.071585 -0.867858
v 0.738870 0.071585 -1.311498
v 0.363449 0.071585 -0.427897
v 0.546707 0.071585 -0.871536
v 0.372354 0.071585 -0.424218
v 0.379850 0.041290 -0.421121
v 0.563108 0.041290 -0.864761
v 0.546707 0.041290 -0.871536
v 0.363449 0.041290 -0.427897
v 0.340796 0.071585 -0.437254
v 0.524054 0.071585 -0.880893
v 0.524054 0.041290 -0.880893
v 0.340796 0.041290 -0.437254
v 0.698407 0.071585 -1.328212
v 0.515150 0.071585 -0.884572
v 0.515150 0.085804 -0.884572
v 0.698407 0.085804 -1.328212
v 0.707312 0.071585 -1.324534
v 0.507653 0.041290 -0.887668
v 0.324395 0.041290 -0.444028
v 0.507653 0.025804 -0.887668
v 0.324395 0.025804 -0.444028
v 0.379850 0.025804 -0.421121
v 0.563108 0.025804 -0.864761
v 0.372354 0.085804 -0.424218
v 0.331892 0.085804 -0.440931
v 0.729965 0.071585 -1.315176
v 0.729965 0.041290 -1.315176
v 0.746366 0.041290 -1.308401
v 0.707312 0.041290 -1.324534
v 0.331892 0.071585 -0.440931
v 0.690911 0.041290 -1.331308
v 0.690911 0.025804 -1.331308
v 0.746366 0.025804 -1.308401
v 1.263967 0.085804 -2.097182
v 0.997874 0.085804 -1.697689
v 0.997874 0.071585 -1.697689
v 1.263967 0.071585 -2.097182
v 0.723763 0.071585 -1.303537
v 0.989856 0.071585 -1.703030
v 0.731781 0.071585 -1.298196
v 0.738531 0.041290 -1.293701
v 1.004624 0.041290 -1.693194
v 0.989856 0.041290 -1.703030
v 0.723763 0.041290 -1.303537
v 0.703364 0.071585 -1.317125
v 0.969457 0.071585 -1.716618
v 0.969457 0.041290 -1.716618
v 0.703364 0.041290 -1.317125
v 1.227531 0.071585 -2.121451
v 0.961438 0.071585 -1.721958
v 0.961438 0.085804 -1.721958
v 1.227531 0.085804 -2.121451
v 1.235549 0.071585 -2.116110
v 0.954688 0.041290 -1.726456
v 0.688595 0.041290 -1.326962
v 0.954688 0.025804 -1.726456
v 0.688595 0.025804 -1.326962
v 0.738531 0.025804 -1.293701
v 1.004624 0.025804 -1.693194
v 0.731781 0.085804 -1.298196
v 0.695345 0.085804 -1.322466
v 1.255949 0.071585 -2.102523
v 1.255949 0.041290 -2.102523
v 1.270717 0.041290 -2.092686
v 1.235549 0.041290 -2.116110
v 0.695345 0.071585 -1.322466
v 1.220781 0.041290 -2.125949
v 1.220781 0.025804 -2.125949
v 1.270717 0.025804 -2.092686
v 1.931930 0.085804 -2.765654
v 1.593178 0.085804 -2.425584
v 1.593178 0.071585 -2.425584
v 1.931930 0.071585 -2.765654
v 1.247599 0.071585 -2.092314
v 1.586352 0.071585 -2.432383
v 1.254425 0.071585 -2.085515
v 1.260171 0.041290 -2.079791
v 1.598924 0.041290 -2.419860
v 1.586352 0.041290 -2.432383
v 1.247599 0.041290 -2.092314
v 1.230235 0.071585 -2.109613
v 1.568987 0.071585 -2.449681
v 1.568987 0.041290 -2.449681
v 1.230235 0.041290 -2.109613
v 1.900914 0.071585 -2.796550
v 1.562161 0.071585 -2.456480
v 1.562161 0.085804 -2.456480
v 1.900914 0.085804 -2.796550
v 1.907739 0.071585 -2.789750
v 1.556415 0.041290 -2.462205
v 1.217663 0.041290 -2.122135
v 1.556415 0.025804 -2.462205
v 1.217663 0.025804 -2.122135
v 1.260171 0.025804 -2.079791
v 1.598924 0.025804 -2.419860
v 1.254425 0.085804 -2.085515
v 1.223409 0.085804 -2.116412
v 1.925104 0.071585 -2.772452
v 1.925104 0.041290 -2.772452
v 1.937676 0.041290 -2.759930
v 1.907739 0.041290 -2.789750
v 1.223409 0.071585 -2.116412
v 1.895168 0.041290 -2.802274
v 1.895168 0.025804 -2.802274
v 1.937676 0.025804 -2.759930
v 2.717216 0.085803 -3.291347
v 2.318758 0.085804 -3.023707
v 2.318758 0.071585 -3.023707
v 2.717216 0.071584 -3.291347
v 1.914928 0.071585 -2.764063
v 2.313386 0.071585 -3.031705
v 1.920300 0.071585 -2.756067
v 1.924822 0.041290 -2.749333
v 2.323280 0.041290 -3.016974
v 2.313386 0.041290 -3.031705
v 1.914928 0.041290 -2.764063
v 1.901262 0.071585 -2.784410
v 2.299719 0.071585 -3.052051
v 2.299719 0.041290 -3.052051
v 1.901262 0.041290 -2.784410
v 2.692805 0.071584 -3.327689
v 2.294347 0.071585 -3.060049
v 2.294347 0.085804 -3.060049
v 2.692805 0.085803 -3.327689
v 2.698177 0.071584 -3.319691
v 2.289825 0.041290 -3.066781
v 1.891367 0.041290 -2.799141
v 2.289825 0.025804 -3.066781
v 1.891367 0.025804 -2.799141
v 1.924822 0.025804 -2.749333
v 2.323280 0.025804 -3.016974
v 1.920300 0.085804 -2.756067
v 1.895890 0.085804 -2.792408
v 2.711844 0.071584 -3.299345
v 2.711844 0.041289 -3.299345
v 2.721738 0.041289 -3.284615
v 2.698177 0.041289 -3.319691
v 1.895890 0.071585 -2.792408
v 2.688283 0.041289 -3.334422
v 2.688283 0.025803 -3.334422
v 2.721738 0.025803 -3.284615
v 3.589794 0.085803 -3.654161
v 3.146868 0.085803 -3.469184
v 3.146868 0.071584 -3.469184
v 3.589794 0.071584 -3.654161
v 2.700229 0.071584 -3.293097
v 3.143155 0.071584 -3.478074
v 2.703942 0.071584 -3.284206
v 2.707068 0.041289 -3.276723
v 3.149994 0.041289 -3.461700
v 3.143155 0.041289 -3.478074
v 2.700229 0.041289 -3.293097
v 2.690784 0.071584 -3.315713
v 3.133710 0.071584 -3.500691
v 3.133710 0.041289 -3.500691
v 2.690784 0.041289 -3.315713
v 3.572923 0.071584 -3.694559
v 3.129997 0.071584 -3.509582
v 3.129997 0.085803 -3.509582
v 3.572923 0.085803 -3.694559
v 3.576636 0.071584 -3.685669
v 3.126871 0.041289 -3.517066
v 2.683946 0.041289 -3.332089
v 3.126871 0.025803 -3.517066
v 2.683946 0.025803 -3.332089
v 2.707068 0.025803 -3.276723
v 3.149994 0.025803 -3.461700
v 2.703942 0.085803 -3.284206
v 2.687071 0.085803 -3.324604
v 3.586081 0.071584 -3.663052
v 3.586081 0.041289 -3.663052
v 3.592920 0.041289 -3.646677
v 3.576636 0.041289 -3.685669
v 2.687071 0.071584 -3.324604
v 3.569797 0.041289 -3.702043
v 3.569797 0.025803 -3.702043
v 3.592920 0.025803 -3.646677
v 4.516298 0.085803 -3.840221
v 4.045841 0.085803 -3.744981
v 4.045841 0.071584 -3.744981
v 4.516298 0.071584 -3.840221
v 3.573473 0.071584 -3.659184
v 4.043930 0.071584 -3.754424
v 3.575385 0.071584 -3.649741
v 3.576994 0.041289 -3.641790
v 4.047450 0.041289 -3.737032
v 4.043930 0.041289 -3.754424
v 3.573473 0.041289 -3.659184
v 3.568610 0.071584 -3.683206
v 4.039066 0.071584 -3.778447
v 4.039066 0.041289 -3.778447
v 3.568610 0.041289 -3.683206
v 4.507611 0.071584 -3.883130
v 4.037155 0.071584 -3.787890
v 4.037155 0.085803 -3.787890
v 4.507611 0.085803 -3.883130
v 4.509522 0.071584 -3.873687
v 4.035545 0.041289 -3.795838
v 3.565089 0.041289 -3.700598
v 4.035545 0.025803 -3.795838
v 3.565089 0.025803 -3.700598
v 3.576994 0.025803 -3.641790
v 4.047450 0.025803 -3.737032
v 3.575385 0.085803 -3.649741
v 3.566698 0.085803 -3.692648
v 4.514386 0.071584 -3.849665
v 4.514386 0.041289 -3.849665
v 4.517907 0.041289 -3.832272
v 4.509522 0.041289 -3.873687
v 3.566698 0.071584 -3.692648
v 4.506001 0.041289 -3.891079
v 4.506001 0.025803 -3.891079
v 4.517907 0.025803 -3.832272
v 5.041020 0.071584 -3.189188
v 4.534021 0.071584 -3.190294
v 4.501335 0.041289 -3.830579
v 5.040331 0.041289 -3.832670
v 5.040167 0.041289 -3.874925
v 4.501171 0.041289 -3.872834
v 4.534000 0.071584 -3.180660
v 5.040999 0.071584 -3.179554
v 5.040098 0.041289 -3.892669
v 4.501101 0.041289 -3.890579
v 5.040098 0.025803 -3.892669
v 4.501101 0.025803 -3.890579
v 4.501335 0.025803 -3.830579
v 5.040331 0.025803 -3.832670
vt 0.999050 0.183297
vt 0.999050 0.342604
vt 0.939310 0.342604
vt 0.939310 0.183297
vt 0.985655 0.132863
vt 0.985655 0.179437
vt 0.939081 0.179437
vt 0.939081 0.132863
vt 0.979692 0.781451
vt 0.979692 0.844034
vt -0.000781 0.844034
vt -0.000781 0.781451
vt 0.145247 0.656284
vt 0.145247 0.718868
vt -0.000781 0.718868
vt -0.000781 0.656284
vt 0.979692 0.718868
vt 0.302823 0.656284
vt 0.302823 0.718868
vt 0.156795 0.718868
vt 0.156795 0.656284
vt 1.000000 0.851064
vt 1.000000 1.000000
vt 0.000000 1.000000
vt 0.000000 0.851064
vt 0.426123 0.034093
vt 0.887757 0.034093
vt 0.887757 0.048121
vt 0.426123 0.048121
vt 0.023159 0.330358
vt 0.482438 0.330358
vt 0.482438 0.321630
vt 0.023159 0.321630
vt 0.883428 0.296828
vt 0.424149 0.296828
vt 0.424149 0.312903
vt 0.883428 0.312903
vt 0.022647 0.089593
vt 0.481925 0.089593
vt 0.481925 0.062150
vt 0.022647 0.062150
vt 0.426323 0.219937
vt 0.887957 0.219937
vt 0.887957 0.259595
vt 0.426323 0.259595
vt 0.506384 0.025761
vt 0.018117 0.025761
vt 0.018117 0.012881
vt 0.506384 0.012881
vt 0.426323 0.281378
vt 0.887957 0.281378
vt 0.887957 0.297453
vt 0.426323 0.297453
vt 0.883428 0.281378
vt 0.424149 0.281378
vt 0.424149 0.297453
vt 0.883428 0.297453
vt 0.479630 0.210448
vt 0.017996 0.210448
vt 0.017996 0.156096
vt 0.479630 0.156096
vt 0.883428 0.219937
vt 0.424149 0.219937
vt 0.424149 0.259595
vt 0.883428 0.259595
vt 0.479751 0.062150
vt 0.018117 0.062150
vt 0.018117 0.048121
vt 0.479751 0.048121
vt 0.423949 0.025761
vt 0.883228 0.025761
vt 0.883228 0.012881
vt 0.423949 0.012881
vt 0.022647 0.025761
vt 0.452937 0.025761
vt 0.452937 0.012881
vt 0.022647 0.012881
vt 0.453450 0.321630
vt 0.453450 0.330358
vt 0.453137 0.312903
vt 0.453137 0.296828
vt 0.452937 0.062150
vt 0.452937 0.089593
vt 0.883228 0.000000
vt 0.452937 0.000000
vt 0.883228 0.048121
vt 0.452937 0.048121
vt 0.883228 0.062150
vt 0.883740 0.312903
vt 0.453450 0.312903
vt 0.883740 0.321630
vt 0.453137 0.297453
vt 0.453137 0.281378
vt 0.022647 0.048121
vt 0.452937 0.034093
vt 0.022647 0.034093
vt 0.453137 0.219937
vt 0.453137 0.259595
vt 0.883106 0.156096
vt 0.452816 0.156096
vt 0.452816 0.210448
vt 0.883106 0.210448
vt 0.452937 0.093759
vt 0.022647 0.093759
vt 0.022647 0.121202
vt 0.452937 0.121202
vt 0.883740 0.330358
vt 0.022847 0.296828
vt 0.022847 0.312903
vt 0.883228 0.089593
vt 0.022647 0.000000
vt 0.023159 0.312903
vt 0.022847 0.297453
vt 0.022847 0.281378
vt 0.883228 0.034093
vt 0.022847 0.219937
vt 0.022847 0.259595
vt 0.022525 0.210448
vt 0.022525 0.156096
vt 0.883228 0.121202
vt 0.883228 0.093759
vt 0.481925 0.025761
vt 0.481925 0.012881
vt 0.424462 0.321630
vt 0.424462 0.330358
vt 0.482125 0.312903
vt 0.482125 0.296828
vt 0.479751 0.089593
vt 0.018117 0.089593
vt 0.400003 0.312903
vt 0.888269 0.312903
vt 0.888269 0.321630
vt 0.400003 0.321630
vt 0.423949 0.048121
vt 0.423949 0.062150
vt 0.481804 0.156096
vt 0.481804 0.210448
vt 0.482125 0.297453
vt 0.482125 0.281378
vt 0.481925 0.048121
vt 0.481925 0.034093
vt 0.506384 0.121202
vt 0.018117 0.121202
vt 0.018117 0.093759
vt 0.506384 0.093759
vt 0.423828 0.156096
vt 0.423828 0.210448
vt 0.481925 0.121202
vt 0.481925 0.093759
vt 0.887757 0.025761
vt 0.426123 0.025761
vt 0.426123 0.012881
vt 0.887757 0.012881
vt 0.482125 0.219937
vt 0.482125 0.259595
vt 0.399491 0.000000
vt 0.887757 0.000000
vt 0.399491 0.012881
vt 0.423949 0.034093
vt 0.018117 0.000000
vt 0.479751 0.000000
vt 0.479751 0.012881
vt 0.018630 0.312903
vt 0.480263 0.312903
vt 0.480263 0.321630
vt 0.018630 0.321630
vt 0.481925 0.000000
vt 0.480263 0.330358
vt 0.018630 0.330358
vt 0.482438 0.312903
vt 0.426323 0.296828
vt 0.887957 0.296828
vt 0.887957 0.312903
vt 0.426323 0.312903
vt 0.887757 0.121202
vt 0.426123 0.121202
vt 0.426123 0.093759
vt 0.887757 0.093759
vt 0.888269 0.330358
vt 0.018317 0.296828
vt 0.018317 0.312903
vt 0.887757 0.089593
vt 0.887757 0.062150
vt 0.018317 0.281378
vt 0.018317 0.297453
vt 0.018117 0.034093
vt 0.018317 0.219937
vt 0.018317 0.259595
vt 0.887636 0.210448
vt 0.887636 0.156096
vt 0.423949 0.089593
vt 0.400003 0.330358
vt 0.506584 0.296828
vt 0.506584 0.312903
vt 0.399491 0.089593
vt 0.399491 0.062150
vt 0.423949 0.000000
vt 0.423949 0.121202
vt 0.423949 0.093759
vt 0.506584 0.281378
vt 0.506584 0.297453
vt 0.399491 0.048121
vt 0.506384 0.034093
vt 0.506384 0.048121
vt 0.506584 0.219937
vt 0.506584 0.259595
vt 0.399369 0.210448
vt 0.399369 0.156096
vt 0.424462 0.312903
s off
f 1/1 2/2 3/3 4/4
f 5/1 6/2 2/3 1/4
f 7/1 8/2 6/3 5/4
f 4/1 3/2 8/3 7/4
f 2/5 6/6 8/7 3/8
f 9/3 10/2 11/1 12/4
f 10/3 13/2 14/1 11/4
f 13/3 15/2 16/1 14/4
f 15/3 9/2 12/1 16/4
f 15/7 13/6 10/5 9/8
f 17/9 18/10 19/11 20/12
f 21/13 22/14 18/15 17/16
f 23/17 24/9 22/12 21/15
f 20/18 19/19 24/20 23/21
f 18/22 22/23 24/24 19/25
f 25/1 26/2 27/3 28/4
f 29/1 30/2 26/3 25/4
f 31/1 32/2 30/3 29/4
f 28/1 27/2 32/3 31/4
f 26/5 30/6 32/7 27/8
f 33/3 34/2 35/1 36/4
f 34/3 37/2 38/1 35/4
f 37/3 39/2 40/1 38/4
f 39/3 33/2 36/1 40/4
f 39/7 37/6 34/5 33/8
f 41/9 42/10 43/11 44/12
f 45/13 46/14 42/15 41/16
f 47/17 48/9 46/12 45/15
f 44/18 43/19 48/20 47/21
f 42/22 46/23 48/24 43/25
f 49/1 50/2 51/3 52/4
f 53/1 54/2 50/3 49/4
f 55/1 56/2 54/3 53/4
f 52/1 51/2 56/3 55/4
f 50/5 54/6 56/7 51/8
f 57/3 58/2 59/1 60/4
f 58/3 61/2 62/1 59/4
f 61/3 63/2 64/1 62/4
f 63/3 57/2 60/1 64/4
f 63/7 61/6 58/5 57/8
f 65/9 66/10 67/11 68/12
f 69/13 70/14 66/15 65/16
f 71/17 72/9 70/12 69/15
f 68/18 67/19 72/20 71/21
f 66/22 70/23 72/24 67/25
f 73/1 74/2 75/3 76/4
f 77/1 78/2 74/3 73/4
f 79/1 80/2 78/3 77/4
f 76/1 75/2 80/3 79/4
f 74/5 78/6 80/7 75/8
f 81/3 82/2 83/1 84/4
f 82/3 85/2 86/1 83/4
f 85/3 87/2 88/1 86/4
f 87/3 81/2 84/1 88/4
f 87/7 85/6 82/5 81/8
f 89/9 90/10 91/11 92/12
f 93/13 94/14 90/15 89/16
f 95/17 96/9 94/12 93/15
f 92/18 91/19 96/20 95/21
f 90/22 94/23 96/24 91/25
f 97/1 98/2 99/3 100/4
f 101/1 102/2 98/3 97/4
f 103/1 104/2 102/3 101/4
f 100/1 99/2 104/3 103/4
f 98/5 102/6 104/7 99/8
f 105/3 106/2 107/1 108/4
f 106/3 109/2 110/1 107/4
f 109/3 111/2 112/1 110/4
f 111/3 105/2 108/1 112/4
f 111/7 109/6 106/5 105/8
f 113/9 114/10 115/11 116/12
f 117/13 118/14 114/15 113/16
f 119/17 120/9 118/12 117/15
f 116/18 115/19 120/20 119/21
f 114/22 118/23 120/24 115/25
f 121/1 122/2 123/3 124/4
f 125/1 126/2 122/3 121/4
f 127/1 128/2 126/3 125/4
f 124/1 123/2 128/3 127/4
f 122/5 126/6 128/7 123/8
f 129/3 130/2 131/1 132/4
f 130/3 133/2 134/1 131/4
f 133/3 135/2 136/1 134/4
f 135/3 129/2 132/1 136/4
f 135/7 133/6 130/5 129/8
f 137/9 138/10 139/11 140/12
f 141/13 142/14 138/15 137/16
f 143/17 144/9 142/12 141/15
f 140/18 139/19 144/20 143/21
f 138/22 142/23 144/24 139/25
f 145/1 146/2 147/3 148/4
f 149/1 150/2 146/3 145/4
f 151/1 152/2 150/3 149/4
f 148/1 147/2 152/3 151/4
f 146/5 150/6 152/7 147/8
f 153/3 154/2 155/1 156/4
f 154/3 157/2 158/1 155/4
f 157/3 159/2 160/1 158/4
f 159/3 153/2 156/1 160/4
f 159/7 157/6 154/5 153/8
f 161/9 162/10 163/11 164/12
f 165/13 166/14 162/15 161/16
f 167/17 168/9 166/12 165/15
f 164/18 163/19 168/20 167/21
f 162/22 166/23 168/24 163/25
f 169/1 170/2 171/3 172/4
f 173/1 174/2 170/3 169/4
f 175/1 176/2 174/3 173/4
f 172/1 171/2 176/3 175/4
f 170/5 174/6 176/7 171/8
f 177/3 178/2 179/1 180/4
f 178/3 181/2 182/1 179/4
f 181/3 183/2 184/1 182/4
f 183/3 177/2 180/1 184/4
f 183/7 181/6 178/5 177/8
f 185/9 186/10 187/11 188/12
f 189/13 190/14 186/15 185/16
f 191/17 192/9 190/12 189/15
f 188/18 187/19 192/20 191/21
f 186/22 190/23 192/24 187/25
f 193/1 194/2 195/3 196/4
f 197/1 198/2 194/3 193/4
f 199/1 200/2 198/3 197/4
f 196/1 195/2 200/3 199/4
f 194/5 198/6 200/7 195/8
f 201/3 202/2 203/1 204/4
f 202/3 205/2 206/1 203/4
f 205/3 207/2 208/1 206/4
f 207/3 201/2 204/1 208/4
f 207/7 205/6 202/5 201/8
f 209/9 210/10 211/11 212/12
f 213/13 214/14 210/15 209/16
f 215/17 216/9 214/12 213/15
f 212/18 211/19 216/20 215/21
f 210/22 214/23 216/24 211/25
f 217/1 218/2 219/3 220/4
f 221/1 222/2 218/3 217/4
f 223/1 224/2 222/3 221/4
f 220/1 219/2 224/3 223/4
f 218/5 222/6 224/7 219/8
f 225/3 226/2 227/1 228/4
f 226/3 229/2 230/1 227/4
f 229/3 231/2 232/1 230/4
f 231/3 225/2 228/1 232/4
f 231/7 229/6 226/5 225/8
f 233/9 234/10 235/11 236/12
f 237/13 238/14 234/15 233/16
f 239/17 240/9 238/12 237/15
f 236/18 235/19 240/20 239/21
f 234/22 238/23 240/24 235/25
f 241/1 242/2 243/3 244/4
f 245/1 246/2 242/3 241/4
f 247/1 248/2 246/3 245/4
f 244/1 243/2 248/3 247/4
f 242/5 246/6 248/7 243/8
f 249/3 250/2 251/1 252/4
f 250/3 253/2 254/1 251/4
f 253/3 255/2 256/1 254/4
f 255/3 249/2 252/1 256/4
f 255/7 253/6 250/5 249/8
f 257/9 258/10 259/11 260/12
f 261/13 262/14 258/15 257/16
f 263/17 264/9 262/12 261/15
f 260/18 259/19 264/20 263/21
f 258/22 262/23 264/24 259/25
f 265/1 266/2 267/3 268/4
f 269/1 270/2 266/3 265/4
f 271/1 272/2 270/3 269/4
f 268/1 267/2 272/3 271/4
f 266/5 270/6 272/7 267/8
f 273/3 274/2 275/1 276/4
f 274/3 277/2 278/1 275/4
f 277/3 279/2 280/1 278/4
f 279/3 273/2 276/1 280/4
f 279/7 277/6 274/5 273/8
f 281/9 282/10 283/11 284/12
f 285/13 286/14 282/15 281/16
f 287/17 288/9 286/12 285/15
f 284/18 283/19 288/20 287/21
f 282/22 286/23 288/24 283/25
f 289/1 290/2 291/3 292/4
f 293/1 294/2 290/3 289/4
f 295/1 296/2 294/3 293/4
f 292/1 291/2 296/3 295/4
f 290/5 294/6 296/7 291/8
f 297/3 298/2 299/1 300/4
f 298/3 301/2 302/1 299/4
f 301/3 303/2 304/1 302/4
f 303/3 297/2 300/1 304/4
f 303/7 301/6 298/5 297/8
f 305/9 306/10 307/11 308/12
f 309/13 310/14 306/15 305/16
f 311/17 312/9 310/12 309/15
f 308/18 307/19 312/20 311/21
f 306/22 310/23 312/24 307/25
f 313/1 314/2 315/3 316/4
f 317/1 318/2 314/3 313/4
f 319/1 320/2 318/3 317/4
f 316/1 315/2 320/3 319/4
f 314/5 318/6 320/7 315/8
f 321/3 322/2 323/1 324/4
f 322/3 325/2 326/1 323/4
f 325/3 327/2 328/1 326/4
f 327/3 321/2 324/1 328/4
f 327/7 325/6 322/5 321/8
f 329/9 330/10 331/11 332/12
f 333/13 334/14 330/15 329/16
f 335/17 336/9 334/12 333/15
f 332/18 331/19 336/20 335/21
f 330/22 334/23 336/24 331/25
f 337/1 338/2 339/3 340/4
f 341/1 342/2 338/3 337/4
f 343/1 344/2 342/3 341/4
f 340/1 339/2 344/3 343/4
f 338/5 342/6 344/7 339/8
f 345/3 346/2 347/1 348/4
f 346/3 349/2 350/1 347/4
f 349/3 351/2 352/1 350/4
f 351/3 345/2 348/1 352/4
f 351/7 349/6 346/5 345/8
f 353/9 354/10 355/11 356/12
f 357/13 358/14 354/15 353/16
f 359/17 360/9 358/12 357/15
f 356/18 355/19 360/20 359/21
f 354/22 358/23 360/24 355/25
f 361/1 362/2 363/3 364/4
f 365/1 366/2 362/3 361/4
f 367/1 368/2 366/3 365/4
f 364/1 363/2 368/3 367/4
f 362/5 366/6 368/7 363/8
f 369/3 370/2 371/1 372/4
f 370/3 373/2 374/1 371/4
f 373/3 375/2 376/1 374/4
f 375/3 369/2 372/1 376/4
f 375/7 373/6 370/5 369/8
f 377/9 378/10 379/11 380/12
f 381/13 382/14 378/15 377/16
f 383/17 384/9 382/12 381/15
f 380/18 379/19 384/20 383/21
f 378/22 382/23 384/24 379/25
f 385/1 386/2 387/3 388/4
f 389/1 390/2 386/3 385/4
f 391/1 392/2 390/3 389/4
f 388/1 387/2 392/3 391/4
f 386/5 390/6 392/7 387/8
f 393/3 394/2 395/1 396/4
f 394/3 397/2 398/1 395/4
f 397/3 399/2 400/1 398/4
f 399/3 393/2 396/1 400/4
f 399/7 397/6 394/5 393/8
f 401/9 402/10 403/11 404/12
f 405/13 406/14 402/15 401/16
f 407/17 408/9 406/12 405/15
f 404/18 403/19 408/20 407/21
f 402/22 406/23 408/24 403/25
f 409/1 410/2 411/3 412/4
f 413/1 414/2 410/3 409/4
f 415/1 416/2 414/3 413/4
f 412/1 411/2 416/3 415/4
f 410/5 414/6 416/7 411/8
f 417/3 418/2 419/1 420/4
f 418/3 421/2 422/1 419/4
f 421/3 423/2 424/1 422/4
f 423/3 417/2 420/1 424/4
f 423/7 421/6 418/5 417/8
f 425/9 426/10 427/11 428/12
f 429/13 430/14 426/15 425/16
f 431/17 432/9 430/12 429/15
f 428/18 427/19 432/20 431/21
f 426/22 430/23 432/24 427/25
f 433/1 434/2 435/3 436/4
f 437/1 438/2 434/3 433/4
f 439/1 440/2 438/3 437/4
f 436/1 435/2 440/3 439/4
f 434/5 438/6 440/7 435/8
f 441/3 442/2 443/1 444/4
f 442/3 445/2 446/1 443/4
f 445/3 447/2 448/1 446/4
f 447/3 441/2 444/1 448/4
f 447/7 445/6 442/5 441/8
f 449/9 450/10 451/11 452/12
f 453/13 454/14 450/15 449/16
f 455/17 456/9 454/12 453/15
f 452/18 451/19 456/20 455/21
f 450/22 454/23 456/24 451/25
f 457/26 458/27 459/28 460/29
f 461/30 462/31 463/32 464/33
f 465/34 466/35 467/36 468/37
f 469/38 470/39 471/40 472/41
f 473/42 474/43 475/44 476/45
f 477/46 478/47 479/48 480/49
f 481/50 482/51 483/52 484/53
f 472/54 471/55 485/56 486/57
f 487/58 488/59 458/60 457/61
f 489/62 490/63 491/64 492/65
f 484/66 483/67 488/68 487/69
f 490/70 489/71 464/72 463/73
f 493/74 494/75 495/76 496/77
f 495/78 497/33 498/30 499/79
f 500/80 501/37 502/34 503/81
f 504/82 505/41 506/38 507/83
f 508/84 509/85 510/76 511/72
f 512/86 513/87 514/82 515/88
f 516/89 507/90 509/78 508/91
f 514/92 517/57 505/54 504/93
f 518/94 503/87 519/95 520/96
f 521/62 494/97 510/98 522/65
f 520/99 519/100 513/101 512/102
f 500/103 523/104 524/105 499/106
f 494/75 521/71 497/72 495/76
f 496/91 495/78 499/79 524/107
f 503/81 518/108 523/109 500/80
f 507/83 516/110 525/88 504/82
f 509/85 526/111 522/77 510/76
f 513/87 527/94 517/41 514/82
f 507/90 506/112 526/33 509/78
f 515/113 514/92 504/93 525/114
f 503/87 502/86 528/115 519/95
f 494/97 493/116 511/117 510/98
f 527/118 513/101 519/100 528/119
f 499/106 498/120 501/121 500/103
f 529/74 530/75 531/76 532/77
f 531/78 533/33 534/30 535/79
f 536/80 537/37 538/34 539/81
f 540/82 541/41 542/38 543/83
f 544/84 545/85 546/76 547/72
f 548/86 549/87 550/82 551/88
f 552/89 543/90 545/78 544/91
f 550/92 553/57 541/54 540/93
f 554/94 539/87 555/95 556/96
f 557/62 530/97 546/98 558/65
f 556/99 555/100 549/101 548/102
f 536/103 559/104 560/105 535/106
f 530/75 557/71 533/72 531/76
f 532/91 531/78 535/79 560/107
f 539/81 554/108 559/109 536/80
f 543/83 552/110 561/88 540/82
f 545/85 562/111 558/77 546/76
f 549/87 563/94 553/41 550/82
f 543/90 542/112 562/33 545/78
f 551/113 550/92 540/93 561/114
f 539/87 538/86 564/115 555/95
f 530/97 529/116 547/117 546/98
f 563/118 549/101 555/100 564/119
f 535/106 534/120 537/121 536/103
f 565/74 566/75 567/76 568/77
f 567/78 569/33 570/30 571/79
f 572/80 573/37 574/34 575/81
f 576/82 577/41 578/38 579/83
f 580/84 581/85 582/76 583/72
f 584/86 585/87 586/82 587/88
f 588/89 579/90 581/78 580/91
f 586/92 589/57 577/54 576/93
f 590/94 575/87 591/95 592/96
f 593/62 566/97 582/98 594/65
f 592/99 591/100 585/101 584/102
f 572/103 595/104 596/105 571/106
f 566/75 593/71 569/72 567/76
f 568/91 567/78 571/79 596/107
f 575/81 590/108 595/109 572/80
f 579/83 588/110 597/88 576/82
f 581/85 598/111 594/77 582/76
f 585/87 599/94 589/41 586/82
f 579/90 578/112 598/33 581/78
f 587/113 586/92 576/93 597/114
f 575/87 574/86 600/115 591/95
f 566/97 565/116 583/117 582/98
f 599/118 585/101 591/100 600/119
f 571/106 570/120 573/121 572/103
f 601/74 602/75 603/76 604/77
f 603/78 605/33 606/30 607/79
f 608/80 609/37 610/34 611/81
f 612/82 613/41 614/38 615/83
f 616/84 617/85 618/76 619/72
f 620/86 621/87 622/82 623/88
f 624/89 615/90 617/78 616/91
f 622/92 625/57 613/54 612/93
f 626/94 611/87 627/95 628/96
f 629/62 602/97 618/98 630/65
f 628/99 627/100 621/101 620/102
f 608/103 631/104 632/105 607/106
f 602/75 629/71 605/72 603/76
f 604/91 603/78 607/79 632/107
f 611/81 626/108 631/109 608/80
f 615/83 624/110 633/88 612/82
f 617/85 634/111 630/77 618/76
f 621/87 635/94 625/41 622/82
f 615/90 614/112 634/33 617/78
f 623/113 622/92 612/93 633/114
f 611/87 610/86 636/115 627/95
f 602/97 601/116 619/117 618/98
f 635/118 621/101 627/100 636/119
f 607/106 606/120 609/121 608/103
f 637/74 638/75 639/76 640/77
f 639/78 641/33 642/30 643/79
f 644/80 645/37 646/34 647/81
f 648/82 649/41 650/38 651/83
f 652/84 653/85 654/76 655/72
f 656/86 657/87 658/82 659/88
f 660/89 651/90 653/78 652/91
f 658/92 661/57 649/54 648/93
f 662/94 647/87 663/95 664/96
f 665/62 638/97 654/98 666/65
f 664/99 663/100 657/101 656/102
f 644/103 667/104 668/105 643/106
f 638/75 665/71 641/72 639/76
f 640/91 639/78 643/79 668/107
f 647/81 662/108 667/109 644/80
f 651/83 660/110 669/88 648/82
f 653/85 670/111 666/77 654/76
f 657/87 671/94 661/41 658/82
f 651/90 650/112 670/33 653/78
f 659/113 658/92 648/93 669/114
f 647/87 646/86 672/115 663/95
f 638/97 637/116 655/117 654/98
f 671/118 657/101 663/100 672/119
f 643/106 642/120 645/121 644/103
f 673/74 674/75 675/76 676/77
f 675/78 677/33 678/30 679/79
f 680/80 681/37 682/34 683/81
f 684/82 685/41 686/38 687/83
f 688/84 689/85 690/76 691/72
f 692/86 693/87 694/82 695/88
f 696/89 687/90 689/78 688/91
f 694/92 697/57 685/54 684/93
f 698/94 683/87 699/95 700/96
f 701/62 674/97 690/98 702/65
f 700/99 699/100 693/101 692/102
f 680/103 703/104 704/105 679/106
f 674/75 701/71 677/72 675/76
f 676/91 675/78 679/79 704/107
f 683/81 698/108 703/109 680/80
f 687/83 696/110 705/88 684/82
f 689/85 706/111 702/77 690/76
f 693/87 707/94 697/41 694/82
f 687/90 686/112 706/33 689/78
f 695/113 694/92 684/93 705/114
f 683/87 682/86 708/115 699/95
f 674/97 673/116 691/117 690/98
f 707/118 693/101 699/100 708/119
f 679/106 678/120 681/121 680/103
f 709/74 710/122 711/123 712/77
f 712/91 711/124 713/125 714/107
f 715/109 716/126 717/127 718/108
f 719/128 720/129 482/67 481/66
f 721/130 722/131 723/132 724/133
f 725/86 726/134 727/135 728/88
f 729/136 730/119 731/118 732/137
f 728/113 727/138 733/139 734/114
f 718/94 717/140 735/141 736/96
f 737/142 738/143 739/144 740/145
f 736/99 735/146 726/147 725/102
f 714/105 713/148 716/149 715/104
f 474/150 473/151 741/152 742/153
f 710/154 709/116 743/117 744/155
f 724/156 723/157 745/153 746/158
f 466/134 465/86 730/115 729/159
f 747/160 748/161 476/162 475/48
f 720/163 719/164 748/165 747/166
f 749/167 750/111 492/77 491/123
f 732/140 731/94 486/41 485/40
f 751/168 752/169 742/166 741/165
f 470/170 469/112 750/33 749/32
f 460/171 459/172 753/173 754/174
f 752/175 751/176 754/177 753/178
f 755/150 756/75 757/76 758/153
f 759/179 760/79 757/78 761/132
f 762/180 763/81 764/80 765/181
f 766/182 767/83 768/82 769/183
f 770/160 771/85 772/76 773/48
f 774/163 767/90 771/78 770/166
f 769/184 768/93 775/92 776/185
f 776/183 775/82 777/87 778/28
f 779/186 780/95 763/87 762/68
f 781/187 756/97 772/98 782/188
f 778/189 777/101 780/100 779/190
f 783/175 760/106 764/103 784/178
f 756/75 781/47 761/48 757/76
f 760/79 783/169 758/166 757/78
f 763/81 785/172 784/173 764/80
f 767/83 774/129 786/67 768/82
f 782/153 772/76 771/85 787/157
f 767/90 766/131 787/132 771/78
f 768/93 786/51 788/52 775/92
f 789/68 777/87 775/82 788/67
f 785/28 763/87 780/95 790/27
f 756/97 755/43 773/44 772/98
f 777/101 789/59 790/60 780/100
f 765/144 764/103 760/106 759/143
f 791/150 792/75 793/76 794/153
f 795/179 796/79 793/78 797/132
f 798/180 799/81 800/80 801/181
f 802/182 803/83 804/82 805/183
f 806/160 807/85 808/76 809/48
f 810/163 803/90 807/78 806/166
f 805/184 804/93 811/92 812/185
f 812/183 811/82 813/87 814/28
f 815/186 816/95 799/87 798/68
f 817/187 792/97 808/98 818/188
f 814/189 813/101 816/100 815/190
f 819/175 796/106 800/103 820/178
f 792/75 817/47 797/48 793/76
f 796/79 819/169 794/166 793/78
f 799/81 821/172 820/173 800/80
f 803/83 810/129 822/67 804/82
f 818/153 808/76 807/85 823/157
f 803/90 802/131 823/132 807/78
f 804/93 822/51 824/52 811/92
f 825/68 813/87 811/82 824/67
f 821/28 799/87 816/95 826/27
f 792/97 791/43 809/44 808/98
f 813/101 825/59 826/60 816/100
f 801/144 800/103 796/106 795/143
f 827/150 828/75 829/76 830/153
f 831/179 832/79 829/78 833/132
f 834/180 835/81 836/80 837/181
f 838/182 839/83 840/82 841/183
f 842/160 843/85 844/76 845/48
f 846/163 839/90 843/78 842/166
f 841/184 840/93 847/92 848/185
f 848/183 847/82 849/87 850/28
f 851/186 852/95 835/87 834/68
f 853/187 828/97 844/98 854/188
f 850/189 849/101 852/100 851/190
f 855/175 832/106 836/103 856/178
f 828/75 853/47 833/48 829/76
f 832/79 855/169 830/166 829/78
f 835/81 857/172 856/173 836/80
f 839/83 846/129 858/67 840/82
f 854/153 844/76 843/85 859/157
f 839/90 838/131 859/132 843/78
f 840/93 858/51 860/52 847/92
f 861/68 849/87 847/82 860/67
f 857/28 835/87 852/95 862/27
f 828/97 827/43 845/44 844/98
f 849/101 861/59 862/60 852/100
f 837/144 836/103 832/106 831/143
f 863/150 864/75 865/76 866/153
f 867/179 868/79 865/78 869/132
f 870/180 871/81 872/80 873/181
f 874/182 875/83 876/82 877/183
f 878/160 879/85 880/76 881/48
f 882/163 875/90 879/78 878/166
f 877/184 876/93 883/92 884/185
f 884/183 883/82 885/87 886/28
f 887/186 888/95 871/87 870/68
f 889/187 864/97 880/98 890/188
f 886/189 885/101 888/100 887/190
f 891/175 868/106 872/103 892/178
f 864/75 889/47 869/48 865/76
f 868/79 891/169 866/166 865/78
f 871/81 893/172 892/173 872/80
f 875/83 882/129 894/67 876/82
f 890/153 880/76 879/85 895/157
f 875/90 874/131 895/132 879/78
f 876/93 894/51 896/52 883/92
f 897/68 885/87 883/82 896/67
f 893/28 871/87 888/95 898/27
f 864/97 863/43 881/44 880/98
f 885/101 897/59 898/60 888/100
f 873/144 872/103 868/106 867/143
f 899/150 900/75 901/76 902/153
f 903/179 904/79 901/78 905/132
f 906/180 907/81 908/80 909/181
f 910/182 911/83 912/82 913/183
f 914/160 915/85 916/76 917/48
f 918/163 911/90 915/78 914/166
f 913/184 912/93 919/92 920/185
f 920/183 919/82 921/87 922/28
f 923/186 924/95 907/87 906/68
f 925/187 900/97 916/98 926/188
f 922/189 921/101 924/100 923/190
f 927/175 904/106 908/103 928/178
f 900/75 925/47 905/48 901/76
f 904/79 927/169 902/166 901/78
f 907/81 929/172 928/173 908/80
f 911/83 918/129 930/67 912/82
f 926/153 916/76 915/85 931/157
f 911/90 910/131 931/132 915/78
f 912/93 930/51 932/52 919/92
f 933/68 921/87 919/82 932/67
f 929/28 907/87 924/95 934/27
f 900/97 899/43 917/44 916/98
f 921/101 933/59 934/60 924/100
f 909/144 908/103 904/106 903/143
f 935/150 936/75 937/76 938/153
f 939/179 940/79 937/78 941/132
f 942/180 943/81 944/80 945/181
f 946/182 947/83 948/82 949/183
f 950/160 951/85 952/76 953/48
f 954/163 947/90 951/78 950/166
f 949/184 948/93 955/92 956/185
f 956/183 955/82 957/87 958/28
f 959/186 960/95 943/87 942/68
f 961/187 936/97 952/98 962/188
f 958/189 957/101 960/100 959/190
f 963/175 940/106 944/103 964/178
f 936/75 961/47 941/48 937/76
f 940/79 963/169 938/166 937/78
f 943/81 965/172 964/173 944/80
f 947/83 954/129 966/67 948/82
f 962/153 952/76 951/85 967/157
f 947/90 946/131 967/132 951/78
f 948/93 966/51 968/52 955/92
f 969/68 957/87 955/82 968/67
f 965/28 943/87 960/95 970/27
f 936/97 935/43 953/44 952/98
f 957/101 969/59 970/60 960/100
f 945/144 944/103 940/106 939/143
f 971/150 972/75 973/76 974/153
f 975/179 976/79 973/78 977/132
f 978/180 979/81 980/80 981/181
f 982/182 983/83 984/82 985/183
f 986/160 987/85 988/76 989/48
f 990/163 983/90 987/78 986/166
f 985/184 984/93 991/92 992/185
f 992/183 991/82 993/87 994/28
f 995/186 996/95 979/87 978/68
f 997/187 972/97 988/98 998/188
f 994/189 993/101 996/100 995/190
f 999/175 976/106 980/103 1000/178
f 972/75 997/47 977/48 973/76
f 976/79 999/169 974/166 973/78
f 979/81 1001/172 1000/173 980/80
f 983/83 990/129 1002/67 984/82
f 998/153 988/76 987/85 1003/157
f 983/90 982/131 1003/132 987/78
f 984/93 1002/51 1004/52 991/92
f 1005/68 993/87 991/82 1004/67
f 1001/28 979/87 996/95 1006/27
f 972/97 971/43 989/44 988/98
f 993/101 1005/59 1006/60 996/100
f 981/144 980/103 976/106 975/143
f 1007/191 1008/110 734/88 733/135
f 738/179 737/192 480/133 479/132
f 1009/180 1010/193 740/194 739/181
f 722/182 721/195 1011/196 1012/183
f 744/73 743/72 1013/84 1014/197
f 462/198 461/120 468/121 467/199
f 1012/184 1011/200 1015/201 1016/185
f 1016/183 1015/196 1017/202 1018/28
f 1019/186 1020/203 1010/204 1009/68
f 478/187 477/205 746/206 745/188
f 1018/189 1017/207 1020/208 1019/190
f 1014/124 1013/91 1008/89 1007/209
o Track3
v 0.842732 0.071584 -2.002584
v 0.808588 0.085803 -2.002584
v 0.808588 0.071584 -2.002584
v 0.818222 0.071584 -2.002584
v 0.852366 0.071584 -2.002584
v 0.852366 0.085803 -2.002584
v 0.818222 0.041289 -2.002584
v 0.800477 0.025803 -2.002584
v 0.860477 0.025803 -2.002584
v 0.842732 0.041289 -2.002584
v 0.860477 0.041289 -2.002584
v 0.860477 0.025803 -3.002584
v 0.860477 0.041289 -3.002584
v 0.818222 0.041289 -3.002584
v 0.842732 0.041289 -3.002584
v 0.800477 0.025803 -3.002584
v 0.818222 0.071584 -3.002584
v 0.808588 0.085803 -3.002584
v 0.852366 0.085803 -3.002584
v 0.842732 0.071584 -3.002584
v 0.800477 0.041289 -3.002584
v 0.800477 0.041289 -2.002584
v 0.808588 0.071584 -3.002584
v 0.852366 0.071584 -3.002584
v 0.191412 0.071584 -2.002584
v 0.191412 0.085803 -2.002584
v 0.157268 0.071584 -2.002584
v 0.181778 0.071584 -2.002584
v 0.147634 0.085803 -2.002584
v 0.147634 0.071584 -2.002584
v 0.139523 0.041289 -2.002584
v 0.139523 0.025803 -2.002584
v 0.181778 0.041289 -2.002584
v 0.157268 0.041289 -2.002584
v 0.199523 0.025803 -2.002584
v 0.199523 0.041289 -2.002584
v 0.139523 0.025803 -3.002584
v 0.139523 0.041289 -3.002584
v 0.199523 0.025803 -3.002584
v 0.181778 0.041289 -3.002584
v 0.199523 0.041289 -3.002584
v 0.157268 0.041289 -3.002584
v 0.147634 0.071584 -3.002584
v 0.147634 0.085803 -3.002584
v 0.181778 0.071584 -3.002584
v 0.157268 0.071584 -3.002584
v 0.191412 0.085803 -3.002584
v 0.191412 0.071584 -3.002584
v 0.212133 -0.025279 -2.112584
v 0.212133 0.054721 -2.112584
v 0.182133 0.054721 -2.112584
v 0.182133 -0.025279 -2.112584
v 0.212133 -0.025279 -2.142584
v 0.212133 0.054721 -2.142584
v 0.182133 -0.025279 -2.142584
v 0.182133 0.054721 -2.142584
v 0.817867 0.054721 -2.112584
v 0.787867 0.054721 -2.112584
v 0.787867 -0.025279 -2.112584
v 0.817867 -0.025279 -2.112584
v 0.787867 0.054721 -2.142584
v 0.787867 -0.025279 -2.142584
v 0.817867 0.054721 -2.142584
v 0.817867 -0.025279 -2.142584
v 0.212133 -0.025279 -2.362584
v 0.212133 0.054721 -2.362584
v 0.182133 0.054721 -2.362584
v 0.182133 -0.025279 -2.362584
v 0.212133 -0.025279 -2.392584
v 0.212133 0.054721 -2.392584
v 0.182133 -0.025279 -2.392584
v 0.182133 0.054721 -2.392584
v 0.817867 0.054721 -2.362584
v 0.787867 0.054721 -2.362584
v 0.787867 -0.025279 -2.362584
v 0.817867 -0.025279 -2.362584
v 0.787867 0.054721 -2.392584
v 0.787867 -0.025279 -2.392584
v 0.817867 0.054721 -2.392584
v 0.817867 -0.025279 -2.392584
v 0.212133 -0.025279 -2.612584
v 0.212133 0.054721 -2.612584
v 0.182133 0.054721 -2.612584
v 0.182133 -0.025279 -2.612584
v 0.212133 -0.025279 -2.642584
v 0.212133 0.054721 -2.642584
v 0.182133 -0.025279 -2.642584
v 0.182133 0.054721 -2.642584
v 0.817867 0.054721 -2.612584
v 0.787867 0.054721 -2.612584
v 0.787867 -0.025279 -2.612584
v 0.817867 -0.025279 -2.612584
v 0.787867 0.054721 -2.642584
v 0.787867 -0.025279 -2.642584
v 0.817867 0.054721 -2.642584
v 0.817867 -0.025279 -2.642584
v 0.212133 -0.025279 -2.862584
v 0.212133 0.054721 -2.862584
v 0.182133 0.054721 -2.862584
v 0.182133 -0.025279 -2.862584
v 0.212133 -0.025279 -2.892584
v 0.212133 0.054721 -2.892584
v 0.182133 -0.025279 -2.892584
v 0.182133 0.054721 -2.892584
v 0.817867 0.054721 -2.862584
v 0.787867 0.054721 -2.862584
v 0.787867 -0.025279 -2.862584
v 0.817867 -0.025279 -2.862584
v 0.787867 0.054721 -2.892584
v 0.787867 -0.025279 -2.892584
v 0.817867 0.054721 -2.892584
v 0.817867 -0.025279 -2.892584
v 0.970000 -0.030000 -2.807584
v 0.970000 0.030000 -2.807584
v 0.030000 0.030000 -2.807584
v 0.030000 -0.030000 -2.807584
v 0.970000 -0.030000 -2.947584
v 0.970000 0.030000 -2.947584
v 0.030000 -0.030000 -2.947584
v 0.030000 0.030000 -2.947584
v 0.970000 -0.030000 -2.557584
v 0.970000 0.030000 -2.557584
v 0.030000 0.030000 -2.557584
v 0.030000 -0.030000 -2.557584
v 0.970000 -0.030000 -2.697584
v 0.970000 0.030000 -2.697584
v 0.030000 -0.030000 -2.697584
v 0.030000 0.030000 -2.697584
v 0.970000 -0.030000 -2.307584
v 0.970000 0.030000 -2.307584
v 0.030000 0.030000 -2.307584
v 0.030000 -0.030000 -2.307584
v 0.970000 -0.030000 -2.447584
v 0.970000 0.030000 -2.447584
v 0.030000 -0.030000 -2.447584
v 0.030000 0.030000 -2.447584
v 0.970000 -0.030000 -2.057584
v 0.970000 0.030000 -2.057584
v 0.030000 0.030000 -2.057584
v 0.030000 -0.030000 -2.057584
v 0.970000 -0.030000 -2.197584
v 0.970000 0.030000 -2.197584
v 0.030000 -0.030000 -2.197584
v 0.030000 0.030000 -2.197584
vt 0.980127 0.103062
vt 0.949641 0.115757
vt 0.949641 0.103062
vt 0.958243 0.103062
vt 0.988729 0.103062
vt 0.988729 0.115757
vt 0.958243 0.076013
vt 0.942399 0.062186
vt 0.995971 0.062186
vt 0.980127 0.076013
vt 0.000000 0.062150
vt 0.000000 0.048121
vt 0.905875 0.048121
vt 0.905875 0.062150
vt 0.980908 0.014240
vt 0.959024 0.014240
vt 0.943180 0.000413
vt 0.996752 0.000413
vt 0.980908 0.041289
vt 0.989510 0.053985
vt 0.950422 0.053985
vt 0.959024 0.041289
vt 0.000000 0.034093
vt 0.905875 0.034093
vt 0.000200 0.259595
vt 0.000200 0.219937
vt 0.906075 0.219937
vt 0.906075 0.259595
vt 0.905753 0.210448
vt -0.000122 0.210448
vt -0.000122 0.156096
vt 0.905753 0.156096
vt 0.905875 0.121202
vt 0.000000 0.121202
vt 0.000000 0.093759
vt 0.905875 0.093759
vt 0.905875 0.025761
vt 0.000000 0.025761
vt 0.000000 0.012881
vt 0.905875 0.012881
vt 0.906387 0.330358
vt 0.000512 0.330358
vt 0.000512 0.321630
vt 0.906387 0.321630
vt 0.000200 0.296828
vt 0.906075 0.296828
vt 0.906075 0.312903
vt 0.000200 0.312903
vt 0.905875 0.089593
vt 0.000000 0.089593
vt 0.000000 0.000000
vt 0.905875 0.000000
vt 0.000512 0.312903
vt 0.906387 0.312903
vt 0.000200 0.281378
vt 0.906075 0.281378
vt 0.906075 0.297453
vt 0.000200 0.297453
vt 0.995971 0.076013
vt 0.942399 0.076013
vt 0.996752 0.014240
vt 0.943180 0.014240
vt 0.950422 0.041289
vt 0.989510 0.041289
vt 0.999050 0.183297
vt 0.999050 0.342604
vt 0.939310 0.342604
vt 0.939310 0.183297
vt 0.985655 0.132863
vt 0.985655 0.179437
vt 0.939081 0.179437
vt 0.939081 0.132863
vt 0.979692 0.781451
vt 0.979692 0.844034
vt -0.000781 0.844034
vt -0.000781 0.781451
vt 0.146184 0.656284
vt 0.146184 0.718868
vt 0.000156 0.718868
vt 0.000156 0.656284
vt 0.980629 0.718868
vt 0.980629 0.781451
vt 0.000156 0.781451
vt 0.302823 0.656284
vt 0.302823 0.718868
vt 0.156795 0.718868
vt 0.156795 0.656284
vt 0.999534 0.505675
vt 0.999534 0.654611
vt -0.000466 0.654611
vt -0.000466 0.505675
vt 0.145247 0.656284
vt 0.145247 0.718868
vt -0.000781 0.718868
vt -0.000781 0.656284
vt 0.979692 0.718868
vt 1.000000 0.851064
vt 1.000000 1.000000
vt 0.000000 1.000000
vt 0.000000 0.851064
vt 0.999897 0.349106
vt 0.999897 0.498042
vt -0.000103 0.498042
vt -0.000103 0.349106
s off
f 1021/210 1022/211 1023/212 1024/213
f 1022/211 1021/210 1025/214 1026/215
f 1027/216 1028/217 1029/218 1030/219
f 1030/219 1021/210 1024/213 1027/216
f 1031/220 1029/221 1032/222 1033/223
f 1034/224 1035/225 1032/226 1036/227
f 1037/228 1038/229 1039/230 1040/231
f 1035/225 1034/224 1037/228 1040/231
f 1041/221 1036/232 1028/233 1042/222
f 1039/234 1038/235 1022/236 1026/237
f 1032/238 1029/239 1028/240 1036/241
f 1024/242 1037/243 1034/244 1027/245
f 1022/246 1038/247 1043/248 1023/249
f 1037/250 1024/251 1023/252 1043/253
f 1041/254 1042/255 1027/256 1034/257
f 1040/258 1021/259 1030/220 1035/223
f 1039/249 1026/248 1025/260 1044/261
f 1021/262 1040/263 1044/253 1025/252
f 1035/264 1030/265 1031/266 1033/267
f 1045/212 1046/211 1047/210 1048/213
f 1049/215 1050/214 1047/210 1046/211
f 1051/268 1052/218 1053/216 1054/219
f 1055/217 1056/269 1053/216 1052/218
f 1053/216 1048/213 1047/210 1054/219
f 1057/222 1052/221 1051/220 1058/223
f 1059/227 1057/226 1060/224 1061/270
f 1058/271 1062/225 1060/224 1057/226
f 1063/272 1064/230 1065/228 1066/231
f 1067/229 1068/273 1065/228 1064/230
f 1066/231 1065/228 1060/224 1062/225
f 1055/233 1059/232 1061/221 1056/222
f 1046/236 1067/235 1064/234 1049/237
f 1055/240 1052/239 1057/238 1059/241
f 1060/244 1065/243 1048/242 1053/245
f 1068/248 1067/247 1046/246 1045/249
f 1045/252 1048/251 1065/250 1068/253
f 1053/256 1056/255 1061/254 1060/257
f 1054/220 1047/259 1066/258 1062/223
f 1050/260 1049/248 1064/249 1063/261
f 1047/262 1050/252 1063/253 1066/263
f 1051/266 1054/265 1062/264 1058/267
f 1069/274 1070/275 1071/276 1072/277
f 1073/274 1074/275 1070/276 1069/277
f 1075/274 1076/275 1074/276 1073/277
f 1072/274 1071/275 1076/276 1075/277
f 1070/278 1074/279 1076/280 1071/281
f 1077/276 1078/275 1079/274 1080/277
f 1078/276 1081/275 1082/274 1079/277
f 1081/276 1083/275 1084/274 1082/277
f 1083/276 1077/275 1080/274 1084/277
f 1083/280 1081/279 1078/278 1077/281
f 1085/274 1086/275 1087/276 1088/277
f 1089/274 1090/275 1086/276 1085/277
f 1091/274 1092/275 1090/276 1089/277
f 1088/274 1087/275 1092/276 1091/277
f 1086/278 1090/279 1092/280 1087/281
f 1093/276 1094/275 1095/274 1096/277
f 1094/276 1097/275 1098/274 1095/277
f 1097/276 1099/275 1100/274 1098/277
f 1099/276 1093/275 1096/274 1100/277
f 1099/280 1097/279 1094/278 1093/281
f 1101/274 1102/275 1103/276 1104/277
f 1105/274 1106/275 1102/276 1101/277
f 1107/274 1108/275 1106/276 1105/277
f 1104/274 1103/275 1108/276 1107/277
f 1102/278 1106/279 1108/280 1103/281
f 1109/276 1110/275 1111/274 1112/277
f 1110/276 1113/275 1114/274 1111/277
f 1113/276 1115/275 1116/274 1114/277
f 1115/276 1109/275 1112/274 1116/277
f 1115/280 1113/279 1110/278 1109/281
f 1117/274 1118/275 1119/276 1120/277
f 1121/274 1122/275 1118/276 1117/277
f 1123/274 1124/275 1122/276 1121/277
f 1120/274 1119/275 1124/276 1123/277
f 1118/278 1122/279 1124/280 1119/281
f 1125/276 1126/275 1127/274 1128/277
f 1126/276 1129/275 1130/274 1127/277
f 1129/276 1131/275 1132/274 1130/277
f 1131/276 1125/275 1128/274 1132/277
f 1131/280 1129/279 1126/278 1125/281
f 1133/282 1134/283 1135/284 1136/285
f 1137/286 1138/287 1134/288 1133/289
f 1139/290 1140/291 1138/292 1137/288
f 1136/293 1135/294 1140/295 1139/296
f 1134/297 1138/298 1140/299 1135/300
f 1141/282 1142/283 1143/284 1144/285
f 1145/301 1146/302 1142/303 1141/304
f 1147/305 1148/282 1146/285 1145/303
f 1144/293 1143/294 1148/295 1147/296
f 1142/306 1146/307 1148/308 1143/309
f 1149/282 1150/283 1151/284 1152/285
f 1153/301 1154/302 1150/303 1149/304
f 1155/305 1156/282 1154/285 1153/303
f 1152/293 1151/294 1156/295 1155/296
f 1150/310 1154/311 1156/312 1151/313
f 1157/282 1158/283 1159/284 1160/285
f 1161/301 1162/302 1158/303 1157/304
f 1163/305 1164/282 1162/285 1161/303
f 1160/293 1159/294 1164/295 1163/296
f 1158/306 1162/307 1164/308 1159/309
o Track2
v 0.842732 0.071584 -1.001848
v 0.808588 0.085803 -1.001848
v 0.808588 0.071584 -1.001848
v 0.818222 0.071584 -1.001848
v 0.852366 0.071584 -1.001848
v 0.852366 0.085803 -1.001848
v 0.818222 0.041289 -1.001848
v 0.800477 0.025803 -1.001848
v 0.860477 0.025803 -1.001848
v 0.842732 0.041289 -1.001848
v 0.860477 0.041289 -1.001848
v 0.860477 0.025803 -2.001848
v 0.860477 0.041289 -2.001848
v 0.818222 0.041289 -2.001848
v 0.842732 0.041289 -2.001848
v 0.800477 0.025803 -2.001848
v 0.818222 0.071584 -2.001848
v 0.808588 0.085803 -2.001848
v 0.852366 0.085803 -2.001848
v 0.842732 0.071584 -2.001848
v 0.800477 0.041289 -2.001848
v 0.800477 0.041289 -1.001848
v 0.808588 0.071584 -2.001848
v 0.852366 0.071584 -2.001848
v 0.191412 0.071584 -1.001848
v 0.191412 0.085803 -1.001848
v 0.157268 0.071584 -1.001848
v 0.181778 0.071584 -1.001848
v 0.147634 0.085803 -1.001848
v 0.147634 0.071584 -1.001848
v 0.139523 0.041289 -1.001848
v 0.139523 0.025803 -1.001848
v 0.181778 0.041289 -1.001848
v 0.157268 0.041289 -1.001848
v 0.199523 0.025803 -1.001848
v 0.199523 0.041289 -1.001848
v 0.139523 0.025803 -2.001848
v 0.139523 0.041289 -2.001848
v 0.199523 0.025803 -2.001848
v 0.181778 0.041289 -2.001848
v 0.199523 0.041289 -2.001848
v 0.157268 0.041289 -2.001848
v 0.147634 0.071584 -2.001848
v 0.147634 0.085803 -2.001848
v 0.181778 0.071584 -2.001848
v 0.157268 0.071584 -2.001848
v 0.191412 0.085803 -2.001848
v 0.191412 0.071584 -2.001848
v 0.212133 -0.025279 -1.111848
v 0.212133 0.054721 -1.111848
v 0.182133 0.054721 -1.111848
v 0.182133 -0.025279 -1.111848
v 0.212133 -0.025279 -1.141848
v 0.212133 0.054721 -1.141848
v 0.182133 -0.025279 -1.141848
v 0.182133 0.054721 -1.141848
v 0.817867 0.054721 -1.111848
v 0.787867 0.054721 -1.111848
v 0.787867 -0.025279 -1.111848
v 0.817867 -0.025279 -1.111848
v 0.787867 0.054721 -1.141848
v 0.787867 -0.025279 -1.141848
v 0.817867 0.054721 -1.141848
v 0.817867 -0.025279 -1.141848
v 0.212133 -0.025279 -1.361848
v 0.212133 0.054721 -1.361848
v 0.182133 0.054721 -1.361848
v 0.182133 -0.025279 -1.361848
v 0.212133 -0.025279 -1.391848
v 0.212133 0.054721 -1.391848
v 0.182133 -0.025279 -1.391848
v 0.182133 0.054721 -1.391848
v 0.817867 0.054721 -1.361848
v 0.787867 0.054721 -1.361848
v 0.787867 -0.025279 -1.361848
v 0.817867 -0.025279 -1.361848
v 0.787867 0.054721 -1.391848
v 0.787867 -0.025279 -1.391848
v 0.817867 0.054721 -1.391848
v 0.817867 -0.025279 -1.391848
v 0.212133 -0.025279 -1.611848
v 0.212133 0.054721 -1.611848
v 0.182133 0.054721 -1.611848
v 0.182133 -0.025279 -1.611848
v 0.212133 -0.025279 -1.641848
v 0.212133 0.054721 -1.641848
v 0.182133 -0.025279 -1.641848
v 0.182133 0.054721 -1.641848
v 0.817867 0.054721 -1.611848
v 0.787867 0.054721 -1.611848
v 0.787867 -0.025279 -1.611848
v 0.817867 -0.025279 -1.611848
v 0.787867 0.054721 -1.641848
v 0.787867 -0.025279 -1.641848
v 0.817867 0.054721 -1.641848
v 0.817867 -0.025279 -1.641848
v 0.212133 -0.025279 -1.861848
v 0.212133 0.054721 -1.861848
v 0.182133 0.054721 -1.861848
v 0.182133 -0.025279 -1.861848
v 0.212133 -0.025279 -1.891848
v 0.212133 0.054721 -1.891848
v 0.182133 -0.025279 -1.891848
v 0.182133 0.054721 -1.891848
v 0.817867 0.054721 -1.861848
v 0.787867 0.054721 -1.861848
v 0.787867 -0.025279 -1.861848
v 0.817867 -0.025279 -1.861848
v 0.787867 0.054721 -1.891848
v 0.787867 -0.025279 -1.891848
v 0.817867 0.054721 -1.891848
v 0.817867 -0.025279 -1.891848
v 0.970000 -0.030000 -1.806848
v 0.970000 0.030000 -1.806848
v 0.030000 0.030000 -1.806848
v 0.030000 -0.030000 -1.806848
v 0.970000 -0.030000 -1.946848
v 0.970000 0.030000 -1.946848
v 0.030000 -0.030000 -1.946848
v 0.030000 0.030000 -1.946848
v 0.970000 -0.030000 -1.556848
v 0.970000 0.030000 -1.556848
v 0.030000 0.030000 -1.556848
v 0.030000 -0.030000 -1.556848
v 0.970000 -0.030000 -1.696848
v 0.970000 0.030000 -1.696848
v 0.030000 -0.030000 -1.696848
v 0.030000 0.030000 -1.696848
v 0.970000 -0.030000 -1.306848
v 0.970000 0.030000 -1.306848
v 0.030000 0.030000 -1.306848
v 0.030000 -0.030000 -1.306848
v 0.970000 -0.030000 -1.446848
v 0.970000 0.030000 -1.446848
v 0.030000 -0.030000 -1.446848
v 0.030000 0.030000 -1.446848
v 0.970000 -0.030000 -1.056848
v 0.970000 0.030000 -1.056848
v 0.030000 0.030000 -1.056848
v 0.030000 -0.030000 -1.056848
v 0.970000 -0.030000 -1.196848
v 0.970000 0.030000 -1.196848
v 0.030000 -0.030000 -1.196848
v 0.030000 0.030000 -1.196848
vt 0.980127 0.103062
vt 0.949641 0.115757
vt 0.949641 0.103062
vt 0.958243 0.103062
vt 0.988729 0.103062
vt 0.988729 0.115757
vt 0.958243 0.076013
vt 0.942399 0.062186
vt 0.995971 0.062186
vt 0.980127 0.076013
vt 0.000000 0.062150
vt 0.000000 0.048121
vt 0.905875 0.048121
vt 0.905875 0.062150
vt 0.980908 0.014240
vt 0.959024 0.014240
vt 0.943180 0.000413
vt 0.996752 0.000413
vt 0.980908 0.041289
vt 0.989510 0.053985
vt 0.950422 0.053985
vt 0.959024 0.041289
vt 0.000000 0.034093
vt 0.905875 0.034093
vt 0.000200 0.259595
vt 0.000200 0.219937
vt 0.906075 0.219937
vt 0.906075 0.259595
vt 0.905753 0.210448
vt -0.000122 0.210448
vt -0.000122 0.156096
vt 0.905753 0.156096
vt 0.905875 0.121202
vt 0.000000 0.121202
vt 0.000000 0.093759
vt 0.905875 0.093759
vt 0.905875 0.025761
vt 0.000000 0.025761
vt 0.000000 0.012881
vt 0.905875 0.012881
vt 0.906387 0.330358
vt 0.000512 0.330358
vt 0.000512 0.321630
vt 0.906387 0.321630
vt 0.000200 0.296828
vt 0.906075 0.296828
vt 0.906075 0.312903
vt 0.000200 0.312903
vt 0.905875 0.089593
vt 0.000000 0.089593
vt 0.000000 0.000000
vt 0.905875 0.000000
vt 0.000512 0.312903
vt 0.906387 0.312903
vt 0.000200 0.281378
vt 0.906075 0.281378
vt 0.906075 0.297453
vt 0.000200 0.297453
vt 0.995971 0.076013
vt 0.942399 0.076013
vt 0.996752 0.014240
vt 0.943180 0.014240
vt 0.950422 0.041289
vt 0.989510 0.041289
vt 0.999050 0.183297
vt 0.999050 0.342604
vt 0.939310 0.342604
vt 0.939310 0.183297
vt 0.985655 0.132863
vt 0.985655 0.179437
vt 0.939081 0.179437
vt 0.939081 0.132863
vt 0.979692 0.781451
vt 0.979692 0.844034
vt -0.000781 0.844034
vt -0.000781 0.781451
vt 0.146184 0.656284
vt 0.146184 0.718868
vt 0.000156 0.718868
vt 0.000156 0.656284
vt 0.980629 0.718868
vt 0.980629 0.781451
vt 0.000156 0.781451
vt 0.302823 0.656284
vt 0.302823 0.718868
vt 0.156795 0.718868
vt 0.156795 0.656284
vt 0.999534 0.505675
vt 0.999534 0.654611
vt -0.000466 0.654611
vt -0.000466 0.505675
vt 0.145247 0.656284
vt 0.145247 0.718868
vt -0.000781 0.718868
vt -0.000781 0.656284
vt 0.979692 0.718868
vt 1.000000 0.851064
vt 1.000000 1.000000
vt 0.000000 1.000000
vt 0.000000 0.851064
vt 0.999897 0.349106
vt 0.999897 0.498042
vt -0.000103 0.498042
vt -0.000103 0.349106
s off
f 1165/314 1166/315 1167/316 1168/317
f 1166/315 1165/314 1169/318 1170/319
f 1171/320 1172/321 1173/322 1174/323
f 1174/323 1165/314 1168/317 1171/320
f 1175/324 1173/325 1176/326 1177/327
f 1178/328 1179/329 1176/330 1180/331
f 1181/332 1182/333 1183/334 1184/335
f 1179/329 1178/328 1181/332 1184/335
f 1185/325 1180/336 1172/337 1186/326
f 1183/338 1182/339 1166/340 1170/341
f 1176/342 1173/343 1172/344 1180/345
f 1168/346 1181/347 1178/348 1171/349
f 1166/350 1182/351 1187/352 1167/353
f 1181/354 1168/355 1167/356 1187/357
f 1185/358 1186/359 1171/360 1178/361
f 1184/362 1165/363 1174/324 1179/327
f 1183/353 1170/352 1169/364 1188/365
f 1165/366 1184/367 1188/357 1169/356
f 1179/368 1174/369 1175/370 1177/371
f 1189/316 1190/315 1191/314 1192/317
f 1193/319 1194/318 1191/314 1190/315
f 1195/372 1196/322 1197/320 1198/323
f 1199/321 1200/373 1197/320 1196/322
f 1197/320 1192/317 1191/314 1198/323
f 1201/326 1196/325 1195/324 1202/327
f 1203/331 1201/330 1204/328 1205/374
f 1202/375 1206/329 1204/328 1201/330
f 1207/376 1208/334 1209/332 1210/335
f 1211/333 1212/377 1209/332 1208/334
f 1210/335 1209/332 1204/328 1206/329
f 1199/337 1203/336 1205/325 1200/326
f 1190/340 1211/339 1208/338 1193/341
f 1199/344 1196/343 1201/342 1203/345
f 1204/348 1209/347 1192/346 1197/349
f 1212/352 1211/351 1190/350 1189/353
f 1189/356 1192/355 1209/354 1212/357
f 1197/360 1200/359 1205/358 1204/361
f 1198/324 1191/363 1210/362 1206/327
f 1194/364 1193/352 1208/353 1207/365
f 1191/366 1194/356 1207/357 1210/367
f 1195/370 1198/369 1206/368 1202/371
f 1213/378 1214/379 1215/380 1216/381
f 1217/378 1218/379 1214/380 1213/381
f 1219/378 1220/379 1218/380 1217/381
f 1216/378 1215/379 1220/380 1219/381
f 1214/382 1218/383 1220/384 1215/385
f 1221/380 1222/379 1223/378 1224/381
f 1222/380 1225/379 1226/378 1223/381
f 1225/380 1227/379 1228/378 1226/381
f 1227/380 1221/379 1224/378 1228/381
f 1227/384 1225/383 1222/382 1221/385
f 1229/378 1230/379 1231/380 1232/381
f 1233/378 1234/379 1230/380 1229/381
f 1235/378 1236/379 1234/380 1233/381
f 1232/378 1231/379 1236/380 1235/381
f 1230/382 1234/383 1236/384 1231/385
f 1237/380 1238/379 1239/378 1240/381
f 1238/380 1241/379 1242/378 1239/381
f 1241/380 1243/379 1244/378 1242/381
f 1243/380 1237/379 1240/378 1244/381
f 1243/384 1241/383 1238/382 1237/385
f 1245/378 1246/379 1247/380 1248/381
f 1249/378 1250/379 1246/380 1245/381
f 1251/378 1252/379 1250/380 1249/381
f 1248/378 1247/379 1252/380 1251/381
f 1246/382 1250/383 1252/384 1247/385
f 1253/380 1254/379 1255/378 1256/381
f 1254/380 1257/379 1258/378 1255/381
f 1257/380 1259/379 1260/378 1258/381
f 1259/380 1253/379 1256/378 1260/381
f 1259/384 1257/383 1254/382 1253/385
f 1261/378 1262/379 1263/380 1264/381
f 1265/378 1266/379 1262/380 1261/381
f 1267/378 1268/379 1266/380 1265/381
f 1264/378 1263/379 1268/380 1267/381
f 1262/382 1266/383 1268/384 1263/385
f 1269/380 1270/379 1271/378 1272/381
f 1270/380 1273/379 1274/378 1271/381
f 1273/380 1275/379 1276/378 1274/381
f 1275/380 1269/379 1272/378 1276/381
f 1275/384 1273/383 1270/382 1269/385
f 1277/386 1278/387 1279/388 1280/389
f 1281/390 1282/391 1278/392 1277/393
f 1283/394 1284/395 1282/396 1281/392
f 1280/397 1279/398 1284/399 1283/400
f 1278/401 1282/402 1284/403 1279/404
f 1285/386 1286/387 1287/388 1288/389
f 1289/405 1290/406 1286/407 1285/408
f 1291/409 1292/386 1290/389 1289/407
f 1288/397 1287/398 1292/399 1291/400
f 1286/410 1290/411 1292/412 1287/413
f 1293/386 1294/387 1295/388 1296/389
f 1297/405 1298/406 1294/407 1293/408
f 1299/409 1300/386 1298/389 1297/407
f 1296/397 1295/398 1300/399 1299/400
f 1294/414 1298/415 1300/416 1295/417
f 1301/386 1302/387 1303/388 1304/389
f 1305/405 1306/406 1302/407 1301/408
f 1307/409 1308/386 1306/389 1305/407
f 1304/397 1303/398 1308/399 1307/400
f 1302/410 1306/411 1308/412 1303/413
o Track1
v 0.842732 0.071584 -0.001791
v 0.808588 0.085803 -0.001791
v 0.808588 0.071584 -0.001791
v 0.818222 0.071584 -0.001791
v 0.852366 0.071584 -0.001791
v 0.852366 0.085803 -0.001791
v 0.818222 0.041289 -0.001791
v 0.800477 0.025803 -0.001791
v 0.860477 0.025803 -0.001791
v 0.842732 0.041289 -0.001791
v 0.860477 0.041289 -0.001791
v 0.860477 0.025803 -1.001791
v 0.860477 0.041289 -1.001791
v 0.818222 0.041289 -1.001791
v 0.842732 0.041289 -1.001791
v 0.800477 0.025803 -1.001791
v 0.818222 0.071584 -1.001791
v 0.808588 0.085803 -1.001791
v 0.852366 0.085803 -1.001791
v 0.842732 0.071584 -1.001791
v 0.800477 0.041289 -1.001791
v 0.800477 0.041289 -0.001791
v 0.808588 0.071584 -1.001791
v 0.852366 0.071584 -1.001791
v 0.191412 0.071584 -0.001791
v 0.191412 0.085803 -0.001791
v 0.157268 0.071584 -0.001791
v 0.181778 0.071584 -0.001791
v 0.147634 0.085803 -0.001791
v 0.147634 0.071584 -0.001791
v 0.139523 0.041289 -0.001791
v 0.139523 0.025803 -0.001791
v 0.181778 0.041289 -0.001791
v 0.157268 0.041289 -0.001791
v 0.199523 0.025803 -0.001791
v 0.199523 0.041289 -0.001791
v 0.139523 0.025803 -1.001791
v 0.139523 0.041289 -1.001791
v 0.199523 0.025803 -1.001791
v 0.181778 0.041289 -1.001791
v 0.199523 0.041289 -1.001791
v 0.157268 0.041289 -1.001791
v 0.147634 0.071584 -1.001791
v 0.147634 0.085803 -1.001791
v 0.181778 0.071584 -1.001791
v 0.157268 0.071584 -1.001791
v 0.191412 0.085803 -1.001791
v 0.191412 0.071584 -1.001791
v 0.212133 -0.025279 -0.111791
v 0.212133 0.054721 -0.111791
v 0.182133 0.054721 -0.111791
v 0.182133 -0.025279 -0.111791
v 0.212133 -0.025279 -0.141791
v 0.212133 0.054721 -0.141791
v 0.182133 -0.025279 -0.141791
v 0.182133 0.054721 -0.141791
v 0.817867 0.054721 -0.111791
v 0.787867 0.054721 -0.111791
v 0.787867 -0.025279 -0.111791
v 0.817867 -0.025279 -0.111791
v 0.787867 0.054721 -0.141791
v 0.787867 -0.025279 -0.141791
v 0.817867 0.054721 -0.141791
v 0.817867 -0.025279 -0.141791
v 0.212133 -0.025279 -0.361791
v 0.212133 0.054721 -0.361791
v 0.182133 0.054721 -0.361791
v 0.182133 -0.025279 -0.361791
v 0.212133 -0.025279 -0.391791
v 0.212133 0.054721 -0.391791
v 0.182133 -0.025279 -0.391791
v 0.182133 0.054721 -0.391791
v 0.817867 0.054721 -0.361791
v 0.787867 0.054721 -0.361791
v 0.787867 -0.025279 -0.361791
v 0.817867 -0.025279 -0.361791
v 0.787867 0.054721 -0.391791
v 0.787867 -0.025279 -0.391791
v 0.817867 0.054721 -0.391791
v 0.817867 -0.025279 -0.391791
v 0.212133 -0.025279 -0.611791
v 0.212133 0.054721 -0.611791
v 0.182133 0.054721 -0.611791
v 0.182133 -0.025279 -0.611791
v 0.212133 -0.025279 -0.641791
v 0.212133 0.054721 -0.641791
v 0.182133 -0.025279 -0.641791
v 0.182133 0.054721 -0.641791
v 0.817867 0.054721 -0.611791
v 0.787867 0.054721 -0.611791
v 0.787867 -0.025279 -0.611791
v 0.817867 -0.025279 -0.611791
v 0.787867 0.054721 -0.641791
v 0.787867 -0.025279 -0.641791
v 0.817867 0.054721 -0.641791
v 0.817867 -0.025279 -0.641791
v 0.212133 -0.025279 -0.861791
v 0.212133 0.054721 -0.861791
v 0.182133 0.054721 -0.861791
v 0.182133 -0.025279 -0.861791
v 0.212133 -0.025279 -0.891791
v 0.212133 0.054721 -0.891791
v 0.182133 -0.025279 -0.891791
v 0.182133 0.054721 -0.891791
v 0.817867 0.054721 -0.861791
v 0.787867 0.054721 -0.861791
v 0.787867 -0.025279 -0.861791
v 0.817867 -0.025279 -0.861791
v 0.787867 0.054721 -0.891791
v 0.787867 -0.025279 -0.891791
v 0.817867 0.054721 -0.891791
v 0.817867 -0.025279 -0.891791
v 0.970000 -0.030000 -0.806791
v 0.970000 0.030000 -0.806791
v 0.030000 0.030000 -0.806791
v 0.030000 -0.030000 -0.806791
v 0.970000 -0.030000 -0.946791
v 0.970000 0.030000 -0.946791
v 0.030000 -0.030000 -0.946791
v 0.030000 0.030000 -0.946791
v 0.970000 -0.030000 -0.556791
v 0.970000 0.030000 -0.556791
v 0.030000 0.030000 -0.556791
v 0.030000 -0.030000 -0.556791
v 0.970000 -0.030000 -0.696791
v 0.970000 0.030000 -0.696791
v 0.030000 -0.030000 -0.696791
v 0.030000 0.030000 -0.696791
v 0.970000 -0.030000 -0.306791
v 0.970000 0.030000 -0.306791
v 0.030000 0.030000 -0.306791
v 0.030000 -0.030000 -0.306791
v 0.970000 -0.030000 -0.446791
v 0.970000 0.030000 -0.446791
v 0.030000 -0.030000 -0.446791
v 0.030000 0.030000 -0.446791
v 0.970000 -0.030000 -0.056791
v 0.970000 0.030000 -0.056791
v 0.030000 0.030000 -0.056791
v 0.030000 -0.030000 -0.056791
v 0.970000 -0.030000 -0.196791
v 0.970000 0.030000 -0.196791
v 0.030000 -0.030000 -0.196791
v 0.030000 0.030000 -0.196791
vt 0.980127 0.103062
vt 0.949641 0.115757
vt 0.949641 0.103062
vt 0.958243 0.103062
vt 0.988729 0.103062
vt 0.988729 0.115757
vt 0.958243 0.076013
vt 0.942399 0.062186
vt 0.995971 0.062186
vt 0.980127 0.076013
vt 0.000000 0.062150
vt 0.000000 0.048121
vt 0.905875 0.048121
vt 0.905875 0.062150
vt 0.980908 0.014240
vt 0.959024 0.014240
vt 0.943180 0.000413
vt 0.996752 0.000413
vt 0.980908 0.041289
vt 0.989510 0.053985
vt 0.950422 0.053985
vt 0.959024 0.041289
vt 0.000000 0.034093
vt 0.905875 0.034093
vt 0.000200 0.259595
vt 0.000200 0.219937
vt 0.906075 0.219937
vt 0.906075 0.259595
vt 0.905753 0.210448
vt -0.000122 0.210448
vt -0.000122 0.156096
vt 0.905753 0.156096
vt 0.905875 0.121202
vt 0.000000 0.121202
vt 0.000000 0.093759
vt 0.905875 0.093759
vt 0.905875 0.025761
vt 0.000000 0.025761
vt 0.000000 0.012881
vt 0.905875 0.012881
vt 0.906387 0.330358
vt 0.000512 0.330358
vt 0.000512 0.321630
vt 0.906387 0.321630
vt 0.000200 0.296828
vt 0.906075 0.296828
vt 0.906075 0.312903
vt 0.000200 0.312903
vt 0.905875 0.089593
vt 0.000000 0.089593
vt 0.000000 0.000000
vt 0.905875 0.000000
vt 0.000512 0.312903
vt 0.906387 0.312903
vt 0.000200 0.281378
vt 0.906075 0.281378
vt 0.906075 0.297453
vt 0.000200 0.297453
vt 0.995971 0.076013
vt 0.942399 0.076013
vt 0.996752 0.014240
vt 0.943180 0.014240
vt 0.950422 0.041289
vt 0.989510 0.041289
vt 0.999050 0.183297
vt 0.999050 0.342604
vt 0.939310 0.342604
vt 0.939310 0.183297
vt 0.985655 0.132863
vt 0.985655 0.179437
vt 0.939081 0.179437
vt 0.939081 0.132863
vt 0.979692 0.781451
vt 0.979692 0.844034
vt -0.000781 0.844034
vt -0.000781 0.781451
vt 0.146184 0.656284
vt 0.146184 0.718868
vt 0.000156 0.718868
vt 0.000156 0.656284
vt 0.980629 0.718868
vt 0.980629 0.781451
vt 0.000156 0.781451
vt 0.302823 0.656284
vt 0.302823 0.718868
vt 0.156795 0.718868
vt 0.156795 0.656284
vt 0.999534 0.505675
vt 0.999534 0.654611
vt -0.000466 0.654611
vt -0.000466 0.505675
vt 0.145247 0.656284
vt 0.145247 0.718868
vt -0.000781 0.718868
vt -0.000781 0.656284
vt 0.979692 0.718868
vt 1.000000 0.851064
vt 1.000000 1.000000
vt 0.000000 1.000000
vt 0.000000 0.851064
vt 0.999897 0.349106
vt 0.999897 0.498042
vt -0.000103 0.498042
vt -0.000103 0.349106
s off
f 1309/418 1310/419 1311/420 1312/421
f 1310/419 1309/418 1313/422 1314/423
f 1315/424 1316/425 1317/426 1318/427
f 1318/427 1309/418 1312/421 1315/424
f 1319/428 1317/429 1320/430 1321/431
f 1322/432 1323/433 1320/434 1324/435
f 1325/436 1326/437 1327/438 1328/439
f 1323/433 1322/432 1325/436 1328/439
f 1329/429 1324/440 1316/441 1330/430
f 1327/442 1326/443 1310/444 1314/445
f 1320/446 1317/447 1316/448 1324/449
f 1312/450 1325/451 1322/452 1315/453
f 1310/454 1326/455 1331/456 1311/457
f 1325/458 1312/459 1311/460 1331/461
f 1329/462 1330/463 1315/464 1322/465
f 1328/466 1309/467 1318/428 1323/431
f 1327/457 1314/456 1313/468 1332/469
f 1309/470 1328/471 1332/461 1313/460
f 1323/472 1318/473 1319/474 1321/475
f 1333/420 1334/419 1335/418 1336/421
f 1337/423 1338/422 1335/418 1334/419
f 1339/476 1340/426 1341/424 1342/427
f 1343/425 1344/477 1341/424 1340/426
f 1341/424 1336/421 1335/418 1342/427
f 1345/430 1340/429 1339/428 1346/431
f 1347/435 1345/434 1348/432 1349/478
f 1346/479 1350/433 1348/432 1345/434
f 1351/480 1352/438 1353/436 1354/439
f 1355/437 1356/481 1353/436 1352/438
f 1354/439 1353/436 1348/432 1350/433
f 1343/441 1347/440 1349/429 1344/430
f 1334/444 1355/443 1352/442 1337/445
f 1343/448 1340/447 1345/446 1347/449
f 1348/452 1353/451 1336/450 1341/453
f 1356/456 1355/455 1334/454 1333/457
f 1333/460 1336/459 1353/458 1356/461
f 1341/464 1344/463 1349/462 1348/465
f 1342/428 1335/467 1354/466 1350/431
f 1338/468 1337/456 1352/457 1351/469
f 1335/470 1338/460 1351/461 1354/471
f 1339/474 1342/473 1350/472 1346/475
f 1357/482 1358/483 1359/484 1360/485
f 1361/482 1362/483 1358/484 1357/485
f 1363/482 1364/483 1362/484 1361/485
f 1360/482 1359/483 1364/484 1363/485
f 1358/486 1362/487 1364/488 1359/489
f 1365/484 1366/483 1367/482 1368/485
f 1366/484 1369/483 1370/482 1367/485
f 1369/484 1371/483 1372/482 1370/485
f 1371/484 1365/483 1368/482 1372/485
f 1371/488 1369/487 1366/486 1365/489
f 1373/482 1374/483 1375/484 1376/485
f 1377/482 1378/483 1374/484 1373/485
f 1379/482 1380/483 1378/484 1377/485
f 1376/482 1375/483 1380/484 1379/485
f 1374/486 1378/487 1380/488 1375/489
f 1381/484 1382/483 1383/482 1384/485
f 1382/484 1385/483 1386/482 1383/485
f 1385/484 1387/483 1388/482 1386/485
f 1387/484 1381/483 1384/482 1388/485
f 1387/488 1385/487 1382/486 1381/489
f 1389/482 1390/483 1391/484 1392/485
f 1393/482 1394/483 1390/484 1389/485
f 1395/482 1396/483 1394/484 1393/485
f 1392/482 1391/483 1396/484 1395/485
f 1390/486 1394/487 1396/488 1391/489
f 1397/484 1398/483 1399/482 1400/485
f 1398/484 1401/483 1402/482 1399/485
f 1401/484 1403/483 1404/482 1402/485
f 1403/484 1397/483 1400/482 1404/485
f 1403/488 1401/487 1398/486 1397/489
f 1405/482 1406/483 1407/484 1408/485
f 1409/482 1410/483 1406/484 1405/485
f 1411/482 1412/483 1410/484 1409/485
f 1408/482 1407/483 1412/484 1411/485
f 1406/486 1410/487 1412/488 1407/489
f 1413/484 1414/483 1415/482 1416/485
f 1414/484 1417/483 1418/482 1415/485
f 1417/484 1419/483 1420/482 1418/485
f 1419/484 1413/483 1416/482 1420/485
f 1419/488 1417/487 1414/486 1413/489
f 1421/490 1422/491 1423/492 1424/493
f 1425/494 1426/495 1422/496 1421/497
f 1427/498 1428/499 1426/500 1425/496
f 1424/501 1423/502 1428/503 1427/504
f 1422/505 1426/506 1428/507 1423/508
f 1429/490 1430/491 1431/492 1432/493
f 1433/509 1434/510 1430/511 1429/512
f 1435/513 1436/490 1434/493 1433/511
f 1432/501 1431/502 1436/503 1435/504
f 1430/514 1434/515 1436/516 1431/517
f 1437/490 1438/491 1439/492 1440/493
f 1441/509 1442/510 1438/511 1437/512
f 1443/513 1444/490 1442/493 1441/511
f 1440/501 1439/502 1444/503 1443/504
f 1438/518 1442/519 1444/520 1439/521
f 1445/490 1446/491 1447/492 1448/493
f 1449/509 1450/510 1446/511 1445/512
f 1451/513 1452/490 1450/493 1449/511
f 1448/501 1447/502 1452/503 1451/504
f 1446/514 1450/515 1452/516 1447/517
o Track
v 0.842732 0.071584 0.997553
v 0.808588 0.085803 0.997553
v 0.808588 0.071584 0.997553
v 0.818222 0.071584 0.997553
v 0.852366 0.071584 0.997553
v 0.852366 0.085803 0.997553
v 0.818222 0.041289 0.997553
v 0.800477 0.025803 0.997553
v 0.860477 0.025803 0.997553
v 0.842732 0.041289 0.997553
v 0.860477 0.041289 0.997553
v 0.860477 0.025803 -0.002447
v 0.860477 0.041289 -0.002447
v 0.818222 0.041289 -0.002447
v 0.842732 0.041289 -0.002447
v 0.800477 0.025803 -0.002447
v 0.818222 0.071584 -0.002447
v 0.808588 0.085803 -0.002447
v 0.852366 0.085803 -0.002447
v 0.842732 0.071584 -0.002447
v 0.800477 0.041289 -0.002447
v 0.800477 0.041289 0.997553
v 0.808588 0.071584 -0.002447
v 0.852366 0.071584 -0.002447
v 0.191412 0.071584 0.997553
v 0.191412 0.085803 0.997553
v 0.157268 0.071584 0.997553
v 0.181778 0.071584 0.997553
v 0.147634 0.085803 0.997553
v 0.147634 0.071584 0.997553
v 0.139523 0.041289 0.997553
v 0.139523 0.025803 0.997553
v 0.181778 0.041289 0.997553
v 0.157268 0.041289 0.997553
v 0.199523 0.025803 0.997553
v 0.199523 0.041289 0.997553
v 0.139523 0.025803 -0.002447
v 0.139523 0.041289 -0.002447
v 0.199523 0.025803 -0.002447
v 0.181778 0.041289 -0.002447
v 0.199523 0.041289 -0.002447
v 0.157268 0.041289 -0.002447
v 0.147634 0.071584 -0.002447
v 0.147634 0.085803 -0.002447
v 0.181778 0.071584 -0.002447
v 0.157268 0.071584 -0.002447
v 0.191412 0.085803 -0.002447
v 0.191412 0.071584 -0.002447
v 0.212133 -0.025279 0.887553
v 0.212133 0.054721 0.887553
v 0.182133 0.054721 0.887553
v 0.182133 -0.025279 0.887553
v 0.212133 -0.025279 0.857553
v 0.212133 0.054721 0.857553
v 0.182133 -0.025279 0.857553
v 0.182133 0.054721 0.857553
v 0.817867 0.054721 0.887553
v 0.787867 0.054721 0.887553
v 0.787867 -0.025279 0.887553
v 0.817867 -0.025279 0.887553
v 0.787867 0.054721 0.857553
v 0.787867 -0.025279 0.857553
v 0.817867 0.054721 0.857553
v 0.817867 -0.025279 0.857553
v 0.212133 -0.025279 0.637553
v 0.212133 0.054721 0.637553
v 0.182133 0.054721 0.637553
v 0.182133 -0.025279 0.637553
v 0.212133 -0.025279 0.607553
v 0.212133 0.054721 0.607553
v 0.182133 -0.025279 0.607553
v 0.182133 0.054721 0.607553
v 0.817867 0.054721 0.637553
v 0.787867 0.054721 0.637553
v 0.787867 -0.025279 0.637553
v 0.817867 -0.025279 0.637553
v 0.787867 0.054721 0.607553
v 0.787867 -0.025279 0.607553
v 0.817867 0.054721 0.607553
v 0.817867 -0.025279 0.607553
v 0.212133 -0.025279 0.387553
v 0.212133 0.054721 0.387553
v 0.182133 0.054721 0.387553
v 0.182133 -0.025279 0.387553
v 0.212133 -0.025279 0.357553
v 0.212133 0.054721 0.357553
v 0.182133 -0.025279 0.357553
v 0.182133 0.054721 0.357553
v 0.817867 0.054721 0.387553
v 0.787867 0.054721 0.387553
v 0.787867 -0.025279 0.387553
v 0.817867 -0.025279 0.387553
v 0.787867 0.054721 0.357553
v 0.787867 -0.025279 0.357553
v 0.817867 0.054721 0.357553
v 0.817867 -0.025279 0.357553
v 0.212133 -0.025279 0.137553
v 0.212133 0.054721 0.137553
v 0.182133 0.054721 0.137553
v 0.182133 -0.025279 0.137553
v 0.212133 -0.025279 0.107553
v 0.212133 0.054721 0.107553
v 0.182133 -0.025279 0.107553
v 0.182133 0.054721 0.107553
v 0.817867 0.054721 0.137553
v 0.787867 0.054721 0.137553
v 0.787867 -0.025279 0.137553
v 0.817867 -0.025279 0.137553
v 0.787867 0.054721 0.107553
v 0.787867 -0.025279 0.107553
v 0.817867 0.054721 0.107553
v 0.817867 -0.025279 0.107553
v 0.970000 -0.030000 0.192553
v 0.970000 0.030000 0.192553
v 0.030000 0.030000 0.192553
v 0.030000 -0.030000 0.192553
v 0.970000 -0.030000 0.052553
v 0.970000 0.030000 0.052553
v 0.030000 -0.030000 0.052553
v 0.030000 0.030000 0.052553
v 0.970000 -0.030000 0.442553
v 0.970000 0.030000 0.442553
v 0.030000 0.030000 0.442553
v 0.030000 -0.030000 0.442553
v 0.970000 -0.030000 0.302553
v 0.970000 0.030000 0.302553
v 0.030000 -0.030000 0.302553
v 0.030000 0.030000 0.302553
v 0.970000 -0.030000 0.692553
v 0.970000 0.030000 0.692553
v 0.030000 0.030000 0.692553
v 0.030000 -0.030000 0.692553
v 0.970000 -0.030000 0.552553
v 0.970000 0.030000 0.552553
v 0.030000 -0.030000 0.552553
v 0.030000 0.030000 0.552553
v 0.970000 -0.030000 0.942553
v 0.970000 0.030000 0.942553
v 0.030000 0.030000 0.942553
v 0.030000 -0.030000 0.942553
v 0.970000 -0.030000 0.802553
v 0.970000 0.030000 0.802553
v 0.030000 -0.030000 0.802553
v 0.030000 0.030000 0.802553
vt 0.980127 0.103062
vt 0.949641 0.115757
vt 0.949641 0.103062
vt 0.958243 0.103062
vt 0.988729 0.103062
vt 0.988729 0.115757
vt 0.958243 0.076013
vt 0.942399 0.062186
vt 0.995971 0.062186
vt 0.980127 0.076013
vt 0.000000 0.062150
vt 0.000000 0.048121
vt 0.905875 0.048121
vt 0.905875 0.062150
vt 0.980908 0.014240
vt 0.959024 0.014240
vt 0.943180 0.000413
vt 0.996752 0.000413
vt 0.980908 0.041289
vt 0.989510 0.053985
vt 0.950422 0.053985
vt 0.959024 0.041289
vt 0.000000 0.034093
vt 0.905875 0.034093
vt 0.000200 0.259595
vt 0.000200 0.219937
vt 0.906075 0.219937
vt 0.906075 0.259595
vt 0.905753 0.210448
vt -0.000122 0.210448
vt -0.000122 0.156096
vt 0.905753 0.156096
vt 0.905875 0.121202
vt 0.000000 0.121202
vt 0.000000 0.093759
vt 0.905875 0.093759
vt 0.905875 0.025761
vt 0.000000 0.025761
vt 0.000000 0.012881
vt 0.905875 0.012881
vt 0.906387 0.330358
vt 0.000512 0.330358
vt 0.000512 0.321630
vt 0.906387 0.321630
vt 0.000200 0.296828
vt 0.906075 0.296828
vt 0.906075 0.312903
vt 0.000200 0.312903
vt 0.905875 0.089593
vt 0.000000 0.089593
vt 0.000000 0.000000
vt 0.905875 0.000000
vt 0.000512 0.312903
vt 0.906387 0.312903
vt 0.000200 0.281378
vt 0.906075 0.281378
vt 0.906075 0.297453
vt 0.000200 0.297453
vt 0.995971 0.076013
vt 0.942399 0.076013
vt 0.996752 0.014240
vt 0.943180 0.014240
vt 0.950422 0.041289
vt 0.989510 0.041289
vt 0.999050 0.183297
vt 0.999050 0.342604
vt 0.939310 0.342604
vt 0.939310 0.183297
vt 0.985655 0.132863
vt 0.985655 0.179437
vt 0.939081 0.179437
vt 0.939081 0.132863
vt 0.979692 0.781451
vt 0.979692 0.844034
vt -0.000781 0.844034
vt -0.000781 0.781451
vt 0.146184 0.656284
vt 0.146184 0.718868
vt 0.000156 0.718868
vt 0.000156 0.656284
vt 0.980629 0.718868
vt 0.980629 0.781451
vt 0.000156 0.781451
vt 0.302823 0.656284
vt 0.302823 0.718868
vt 0.156795 0.718868
vt 0.156795 0.656284
vt 0.999534 0.505675
vt 0.999534 0.654611
vt -0.000466 0.654611
vt -0.000466 0.505675
vt 0.145247 0.656284
vt 0.145247 0.718868
vt -0.000781 0.718868
vt -0.000781 0.656284
vt 0.979692 0.718868
vt 1.000000 0.851064
vt 1.000000 1.000000
vt 0.000000 1.000000
vt 0.000000 0.851064
vt 0.999897 0.349106
vt 0.999897 0.498042
vt -0.000103 0.498042
vt -0.000103 0.349106
s off
f 1453/522 1454/523 1455/524 1456/525
f 1454/523 1453/522 1457/526 1458/527
f 1459/528 1460/529 1461/530 1462/531
f 1462/531 1453/522 1456/525 1459/528
f 1463/532 1461/533 1464/534 1465/535
f 1466/536 1467/537 1464/538 1468/539
f 1469/540 1470/541 1471/542 1472/543
f 1467/537 1466/536 1469/540 1472/543
f 1473/533 1468/544 1460/545 1474/534
f 1471/546 1470/547 1454/548 1458/549
f 1464/550 1461/551 1460/552 1468/553
f 1456/554 1469/555 1466/556 1459/557
f 1454/558 1470/559 1475/560 1455/561
f 1469/562 1456/563 1455/564 1475/565
f 1473/566 1474/567 1459/568 1466/569
f 1472/570 1453/571 1462/532 1467/535
f 1471/561 1458/560 1457/572 1476/573
f 1453/574 1472/575 1476/565 1457/564
f 1467/576 1462/577 1463/578 1465/579
f 1477/524 1478/523 1479/522 1480/525
f 1481/527 1482/526 1479/522 1478/523
f 1483/580 1484/530 1485/528 1486/531
f 1487/529 1488/581 1485/528 1484/530
f 1485/528 1480/525 1479/522 1486/531
f 1489/534 1484/533 1483/532 1490/535
f 1491/539 1489/538 1492/536 1493/582
f 1490/583 1494/537 1492/536 1489/538
f 1495/584 1496/542 1497/540 1498/543
f 1499/541 1500/585 1497/540 1496/542
f 1498/543 1497/540 1492/536 1494/537
f 1487/545 1491/544 1493/533 1488/534
f 1478/548 1499/547 1496/546 1481/549
f 1487/552 1484/551 1489/550 1491/553
f 1492/556 1497/555 1480/554 1485/557
f 1500/560 1499/559 1478/558 1477/561
f 1477/564 1480/563 1497/562 1500/565
f 1485/568 1488/567 1493/566 1492/569
f 1486/532 1479/571 1498/570 1494/535
f 1482/572 1481/560 1496/561 1495/573
f 1479/574 1482/564 1495/565 1498/575
f 1483/578 1486/577 1494/576 1490/579
f 1501/586 1502/587 1503/588 1504/589
f 1505/586 1506/587 1502/588 1501/589
f 1507/586 1508/587 1506/588 1505/589
f 1504/586 1503/587 1508/588 1507/589
f 1502/590 1506/591 1508/592 1503/593
f 1509/588 1510/587 1511/586 1512/589
f 1510/588 1513/587 1514/586 1511/589
f 1513/588 1515/587 1516/586 1514/589
f 1515/588 1509/587 1512/586 1516/589
f 1515/592 1513/591 1510/590 1509/593
f 1517/586 1518/587 1519/588 1520/589
f 1521/586 1522/587 1518/588 1517/589
f 1523/586 1524/587 1522/588 1521/589
f 1520/586 1519/587 1524/588 1523/589
f 1518/590 1522/591 1524/592 1519/593
f 1525/588 1526/587 1527/586 1528/589
f 1526/588 1529/587 1530/586 1527/589
f 1529/588 1531/587 1532/586 1530/589
f 1531/588 1525/587 1528/586 1532/589
f 1531/592 1529/591 1526/590 1525/593
f 1533/586 1534/587 1535/588 1536/589
f 1537/586 1538/587 1534/588 1533/589
f 1539/586 1540/587 1538/588 1537/589
f 1536/586 1535/587 1540/588 1539/589
f 1534/590 1538/591 1540/592 1535/593
f 1541/588 1542/587 1543/586 1544/589
f 1542/588 1545/587 1546/586 1543/589
f 1545/588 1547/587 1548/586 1546/589
f 1547/588 1541/587 1544/586 1548/589
f 1547/592 1545/591 1542/590 1541/593
f 1549/586 1550/587 1551/588 1552/589
f 1553/586 1554/587 1550/588 1549/589
f 1555/586 1556/587 1554/588 1553/589
f 1552/586 1551/587 1556/588 1555/589
f 1550/590 1554/591 1556/592 1551/593
f 1557/588 1558/587 1559/586 1560/589
f 1558/588 1561/587 1562/586 1559/589
f 1561/588 1563/587 1564/586 1562/589
f 1563/588 1557/587 1560/586 1564/589
f 1563/592 1561/591 1558/590 1557/593
f 1565/594 1566/595 1567/596 1568/597
f 1569/598 1570/599 1566/600 1565/601
f 1571/602 1572/603 1570/604 1569/600
f 1568/605 1567/606 1572/607 1571/608
f 1566/609 1570/610 1572/611 1567/612
f 1573/594 1574/595 1575/596 1576/597
f 1577/613 1578/614 1574/615 1573/616
f 1579/617 1580/594 1578/597 1577/615
f 1576/605 1575/606 1580/607 1579/608
f 1574/618 1578/619 1580/620 1575/621
f 1581/594 1582/595 1583/596 1584/597
f 1585/613 1586/614 1582/615 1581/616
f 1587/617 1588/594 1586/597 1585/615
f 1584/605 1583/606 1588/607 1587/608
f 1582/622 1586/623 1588/624 1583/625
f 1589/594 1590/595 1591/596 1592/597
f 1593/613 1594/614 1590/615 1589/616
f 1595/617 1596/594 1594/597 1593/615
f 1592/605 1591/606 1596/607 1595/608
f 1590/618 1594/619 1596/620 1591/621
