mtllib track_switch_large_left_inactive.mtl
usemtl Mat_1
# Blender v2.69 (sub 0) OBJ File: 'large_switch_sketch.blend'
# www.blender.org
o Cube_1
v -0.066350 -0.025278 -0.538347
v -0.066350 0.054722 -0.538347
v -0.094404 0.054722 -0.527718
v -0.094404 -0.025278 -0.527718
v -0.055722 -0.025278 -0.510294
v -0.055722 0.054722 -0.510294
v -0.083776 -0.025278 -0.499664
v -0.083776 0.054722 -0.499664
v 0.500093 0.054722 -0.752953
v 0.472038 0.054722 -0.742324
v 0.472038 -0.025278 -0.742324
v 0.500093 -0.025278 -0.752953
v 0.482667 0.054722 -0.714270
v 0.482667 -0.025278 -0.714270
v 0.510721 0.054722 -0.724899
v 0.510721 -0.025278 -0.724899
v 0.622872 -0.029999 -0.858286
v 0.622872 0.030001 -0.858286
v -0.256155 0.030001 -0.525251
v -0.256155 -0.029999 -0.525251
v 0.672472 -0.029999 -0.727367
v 0.672472 0.030001 -0.727367
v -0.206555 -0.029999 -0.394332
v -0.206555 0.030001 -0.394332
v -0.173292 -0.025278 -0.792392
v -0.173292 0.054722 -0.792392
v -0.200591 0.054722 -0.779951
v -0.200591 -0.025278 -0.779951
v -0.160852 -0.025278 -0.765093
v -0.160852 0.054722 -0.765093
v -0.188150 -0.025278 -0.752652
v -0.188150 0.054722 -0.752652
v 0.377902 0.054722 -1.043585
v 0.350603 0.054722 -1.031144
v 0.350603 -0.025278 -1.031144
v 0.377902 -0.025278 -1.043585
v 0.363044 0.054722 -1.003846
v 0.363044 -0.025278 -1.003846
v 0.390343 0.054722 -1.016286
v 0.390343 -0.025278 -1.016286
v 0.493529 -0.029999 -1.156722
v 0.493529 0.030001 -1.156722
v -0.361835 0.030001 -0.766910
v -0.361835 -0.029999 -0.766910
v 0.551586 -0.029999 -1.029327
v 0.551586 0.030001 -1.029327
v -0.303778 -0.029999 -0.639515
v -0.303778 0.030001 -0.639515
v -0.296621 -0.025278 -1.038899
v -0.296621 0.054722 -1.038899
v -0.323047 0.054722 -1.024698
v -0.323047 -0.025278 -1.024698
v -0.282421 -0.025278 -1.012472
v -0.282421 0.054722 -1.012472
v -0.308848 -0.025278 -0.998273
v -0.308848 0.054722 -0.998273
v 0.236964 0.054722 -1.325603
v 0.210538 0.054722 -1.311405
v 0.210538 -0.025278 -1.311405
v 0.236964 -0.025278 -1.325603
v 0.224737 0.054722 -1.284978
v 0.224737 -0.025278 -1.284978
v 0.251164 0.054722 -1.299177
v 0.251164 -0.025278 -1.299177
v 0.344945 -0.029999 -1.446061
v 0.344945 0.030001 -1.446061
v -0.483093 0.030001 -1.001140
v -0.483093 -0.029999 -1.001140
v 0.411209 -0.029999 -1.322735
v 0.411209 0.030001 -1.322735
v -0.416828 -0.029999 -0.877815
v -0.416828 0.030001 -0.877815
v -0.435807 -0.025278 -1.276810
v -0.435807 0.054722 -1.276810
v -0.461249 0.054722 -1.260913
v -0.461249 -0.025278 -1.260913
v -0.419910 -0.025278 -1.251369
v -0.419910 0.054722 -1.251369
v -0.445351 -0.025278 -1.235471
v -0.445351 0.054722 -1.235471
v 0.077884 0.054722 -1.597800
v 0.052443 0.054722 -1.581904
v 0.052443 -0.025278 -1.581904
v 0.077884 -0.025278 -1.597800
v 0.068340 0.054722 -1.556461
v 0.068340 -0.025278 -1.556461
v 0.093782 0.054722 -1.572359
v 0.093782 -0.025278 -1.572359
v 0.177755 -0.029999 -1.725062
v 0.177755 0.030001 -1.725062
v -0.619411 0.030001 -1.226937
v -0.619411 -0.029999 -1.226937
v 0.251943 -0.029999 -1.606335
v 0.251943 0.030001 -1.606335
v -0.545222 -0.029999 -1.108210
v -0.545222 0.030001 -1.108210
v -0.590256 -0.025278 -1.505110
v -0.590256 0.054722 -1.505110
v -0.614603 0.054722 -1.487583
v -0.614603 -0.025278 -1.487583
v -0.572729 -0.025278 -1.480764
v -0.572729 0.054722 -1.480764
v -0.597076 -0.025278 -1.463235
v -0.597076 0.054722 -1.463235
v -0.098658 0.054722 -1.859011
v -0.123006 0.054722 -1.841482
v -0.123006 -0.025278 -1.841482
v -0.098658 -0.025278 -1.859011
v -0.105478 0.054722 -1.817135
v -0.105478 -0.025278 -1.817135
v -0.081131 0.054722 -1.834663
v -0.081131 -0.025278 -1.834663
v -0.007325 -0.029999 -1.992530
v -0.007325 0.030001 -1.992530
v -0.770204 0.030001 -1.443335
v -0.770204 -0.029999 -1.443335
v 0.074470 -0.029999 -1.878910
v 0.074470 0.030001 -1.878910
v -0.688409 -0.029999 -1.329715
v -0.688409 0.030001 -1.329715
v -0.759306 -0.025278 -1.722820
v -0.759306 0.054722 -1.722820
v -0.782454 0.054722 -1.703737
v -0.782454 -0.025278 -1.703737
v -0.740223 -0.025278 -1.699671
v -0.740223 0.054722 -1.699671
v -0.763372 -0.025278 -1.680588
v -0.763372 0.054722 -1.680588
v -0.291907 0.054722 -2.108114
v -0.315055 0.054722 -2.089032
v -0.315055 -0.025278 -2.089032
v -0.291907 -0.025278 -2.108114
v -0.295973 0.054722 -2.065883
v -0.295973 -0.025278 -2.065883
v -0.272824 0.054722 -2.084966
v -0.272824 -0.025278 -2.084966
v -0.209501 -0.029999 -2.247321
v -0.209501 0.030001 -2.247321
v -0.934828 0.030001 -1.649408
v -0.934828 -0.029999 -1.649408
v -0.120450 -0.029999 -2.139294
v -0.120450 0.030001 -2.139294
v -0.845777 -0.029999 -1.541381
v -0.845777 0.030001 -1.541381
v -0.942232 -0.025278 -1.929007
v -0.942232 0.054722 -1.929007
v -0.964083 0.054722 -1.908451
v -0.964083 -0.025278 -1.908451
v -0.921677 -0.025278 -1.907155
v -0.921677 0.054722 -1.907155
v -0.943528 -0.025278 -1.886600
v -0.943528 0.054722 -1.886600
v -0.501033 0.054722 -2.344045
v -0.522885 0.054722 -2.323490
v -0.522885 -0.025278 -2.323490
v -0.501033 -0.025278 -2.344045
v -0.502329 0.054722 -2.301638
v -0.502329 -0.025278 -2.301638
v -0.480478 0.054722 -2.322194
v -0.480478 -0.025278 -2.322194
v -0.427909 -0.029999 -2.488345
v -0.427909 0.030001 -2.488345
v -1.112578 0.030001 -1.844272
v -1.112578 -0.029999 -1.844272
v -0.331983 -0.029999 -2.386372
v -0.331983 0.030001 -2.386372
v -1.016652 -0.029999 -1.742300
v -1.016652 0.030001 -1.742300
v -1.138252 -0.025278 -2.122789
v -1.138252 0.054722 -2.122789
v -1.158712 0.054722 -2.100849
v -1.158712 -0.025278 -2.100849
v -1.116312 -0.025278 -2.102328
v -1.116312 0.054722 -2.102328
v -1.136772 -0.025278 -2.080388
v -1.136772 0.054722 -2.080388
v -0.725143 0.054722 -2.565795
v -0.745603 0.054722 -2.543854
v -0.745603 -0.025278 -2.543854
v -0.725143 -0.025278 -2.565795
v -0.723662 0.054722 -2.523393
v -0.723662 -0.025278 -2.523393
v -0.703202 0.054722 -2.545335
v -0.703202 -0.025278 -2.545335
v -0.661613 -0.029999 -2.714568
v -0.661613 0.030001 -2.714568
v -1.302691 0.030001 -2.027094
v -1.302691 -0.029999 -2.027094
v -0.559223 -0.029999 -2.619088
v -0.559223 0.030001 -2.619088
v -1.200302 -0.029999 -1.931615
v -1.200302 0.030001 -1.931615
v -1.346527 -0.025278 -2.303336
v -1.346527 0.054722 -2.303336
v -1.365508 0.054722 -2.280104
v -1.365508 -0.025278 -2.280104
v -1.323295 -0.025278 -2.284353
v -1.323295 0.054722 -2.284353
v -1.342276 -0.025278 -2.261123
v -1.342276 0.054722 -2.261123
v -0.963276 0.054722 -2.772410
v -0.982257 0.054722 -2.749178
v -0.982257 -0.025278 -2.749178
v -0.963276 -0.025278 -2.772410
v -0.959025 0.054722 -2.730198
v -0.959025 -0.025278 -2.730198
v -0.940044 0.054722 -2.753429
v -0.940044 -0.025278 -2.753429
v -0.909612 -0.029999 -2.925021
v -0.909612 0.030001 -2.925021
v -1.504355 0.030000 -2.197091
v -1.504355 -0.030000 -2.197091
v -0.801197 -0.029999 -2.836442
v -0.801197 0.030001 -2.836442
v -1.395940 -0.029999 -2.108512
v -1.395940 0.030001 -2.108512
v -1.566164 -0.025279 -2.469874
v -1.566164 0.054721 -2.469874
v -1.583585 0.054721 -2.445449
v -1.583585 -0.025279 -2.445449
v -1.541740 -0.025279 -2.452452
v -1.541740 0.054721 -2.452452
v -1.559161 -0.025279 -2.428028
v -1.559161 0.054721 -2.428028
v -1.214412 0.054722 -2.963011
v -1.231833 0.054722 -2.938587
v -1.231833 -0.025278 -2.938587
v -1.214412 -0.025278 -2.963011
v -1.207410 0.054722 -2.921166
v -1.207410 -0.025278 -2.921166
v -1.189989 0.054722 -2.945590
v -1.189989 -0.025278 -2.945590
v -1.170844 -0.029999 -3.118803
v -1.170844 0.030001 -3.118803
v -1.716705 0.030000 -2.353535
v -1.716705 -0.030000 -2.353535
v -1.056868 -0.029999 -3.037505
v -1.056868 0.030001 -3.037505
v -1.602729 -0.030000 -2.272235
v -1.602729 0.030000 -2.272235
v -1.796222 -0.025279 -2.621690
v -1.796222 0.054721 -2.621690
v -1.812009 0.054721 -2.596179
v -1.812009 -0.025279 -2.596179
v -1.770712 -0.025279 -2.605904
v -1.770712 0.054721 -2.605904
v -1.786498 -0.025279 -2.580392
v -1.786498 0.054721 -2.580392
v -1.477477 0.054721 -3.136777
v -1.493263 0.054721 -3.111266
v -1.493263 -0.025279 -3.111266
v -1.477477 -0.025279 -3.136777
v -1.467753 0.054721 -3.095480
v -1.467753 -0.025279 -3.095480
v -1.451966 0.054721 -3.120991
v -1.451966 -0.025279 -3.120991
v -1.444191 -0.030000 -3.295086
v -1.444191 0.030000 -3.295086
v -1.938833 0.030000 -2.495754
v -1.938833 -0.030000 -2.495754
v -1.325142 -0.029999 -3.221416
v -1.325142 0.030001 -3.221416
v -1.819783 -0.030000 -2.422084
v -1.819783 0.030000 -2.422084
v -2.035717 -0.025279 -2.758134
v -2.035717 0.054721 -2.758134
v -2.049802 0.054721 -2.731646
v -2.049802 -0.025279 -2.731646
v -2.009229 -0.025279 -2.744051
v -2.009229 0.054721 -2.744051
v -2.023313 -0.025279 -2.717562
v -2.023313 0.054721 -2.717562
v -1.751343 0.054721 -3.292965
v -1.765427 0.054721 -3.266478
v -1.765427 -0.025279 -3.266478
v -1.751343 -0.025279 -3.292965
v -1.738938 0.054721 -3.252393
v -1.738938 -0.025279 -3.252393
v -1.724854 0.054721 -3.278882
v -1.724854 -0.025279 -3.278882
v -1.728483 -0.030000 -3.453113
v -1.728483 0.030000 -3.453113
v -2.169786 0.030000 -2.623142
v -2.169786 -0.030000 -2.623142
v -1.604870 -0.030000 -3.387387
v -1.604870 0.030000 -3.387387
v -2.046173 -0.030000 -2.557416
v -2.046173 0.030000 -2.557416
v -2.283624 -0.025279 -2.878624
v -2.283624 0.054721 -2.878624
v -2.295945 0.054721 -2.851271
v -2.295945 -0.025279 -2.851271
v -2.256271 -0.025279 -2.866302
v -2.256271 0.054721 -2.866302
v -2.268593 -0.025279 -2.838949
v -2.268593 0.054721 -2.838949
v -2.034838 0.054721 -3.430909
v -2.047159 0.054721 -3.403555
v -2.047159 -0.025279 -3.403555
v -2.034838 -0.025279 -3.430909
v -2.019806 0.054721 -3.391234
v -2.019806 -0.025279 -3.391234
v -2.007485 0.054721 -3.418587
v -2.007485 -0.025279 -3.418587
v -2.022501 -0.030000 -3.592208
v -2.022501 0.030000 -3.592208
v -2.408576 0.030000 -2.735151
v -2.408576 -0.030000 -2.735151
v -1.894854 -0.030000 -3.534707
v -1.894854 0.030000 -3.534707
v -2.280930 -0.030000 -2.677651
v -2.280930 0.030000 -2.677651
v -2.538880 -0.025279 -2.982641
v -2.538880 0.054721 -2.982641
v -2.549386 0.054721 -2.954541
v -2.549386 -0.025279 -2.954541
v -2.510780 -0.025279 -2.972135
v -2.510780 0.054721 -2.972135
v -2.521286 -0.025279 -2.944035
v -2.521286 0.054721 -2.944035
v -2.326748 0.054721 -3.550015
v -2.337254 0.054721 -3.521915
v -2.337254 -0.025279 -3.521915
v -2.326748 -0.025279 -3.550015
v -2.309154 0.054721 -3.511409
v -2.309154 -0.025279 -3.511409
v -2.298647 0.054721 -3.539509
v -2.298647 -0.025279 -3.539509
v -2.324986 -0.030000 -3.711775
v -2.324986 0.030000 -3.711775
v -2.654181 0.030000 -2.831303
v -2.654181 -0.030000 -2.831303
v -2.193852 -0.030000 -3.662746
v -2.193852 0.030000 -3.662746
v -2.523047 -0.030000 -2.782274
v -2.523047 0.030000 -2.782274
v -2.800393 -0.025279 -3.069741
v -2.800393 0.054721 -3.069741
v -2.809038 0.054721 -3.041014
v -2.809038 -0.025279 -3.041014
v -2.771665 -0.025279 -3.061095
v -2.771665 0.054721 -3.061095
v -2.780311 -0.025279 -3.032368
v -2.780311 0.054721 -3.032368
v -2.625822 0.054721 -3.649774
v -2.634468 0.054721 -3.621047
v -2.634468 -0.025279 -3.621047
v -2.625822 -0.025279 -3.649774
v -2.605741 0.054721 -3.612401
v -2.605741 -0.025279 -3.612401
v -2.597095 0.054721 -3.641128
v -2.597095 -0.025279 -3.641128
v -2.634645 -0.030000 -3.811303
v -2.634645 0.030000 -3.811303
v -2.905549 0.030000 -2.911186
v -2.905549 -0.030000 -2.911186
v -2.500585 -0.030000 -3.770956
v -2.500585 0.030000 -3.770956
v -2.771489 -0.030000 -2.870839
v -2.771489 0.030000 -2.870839
v -3.067042 -0.025279 -3.139551
v -3.067042 0.054721 -3.139551
v -3.073790 0.054721 -3.110320
v -3.073790 -0.025279 -3.110320
v -3.037811 -0.025279 -3.132802
v -3.037811 0.054721 -3.132802
v -3.044559 -0.025279 -3.103571
v -3.044559 0.054721 -3.103571
v -2.930781 0.054721 -3.729759
v -2.937530 0.054721 -3.700528
v -2.937530 -0.025279 -3.700528
v -2.930781 -0.025279 -3.729759
v -2.908299 0.054721 -3.693780
v -2.908299 -0.025279 -3.693780
v -2.901550 0.054721 -3.723011
v -2.901550 -0.025279 -3.723011
v -2.950149 -0.030000 -3.890366
v -2.950149 0.030000 -3.890366
v -3.161603 0.030000 -2.974458
v -3.161603 -0.030000 -2.974458
v -2.813737 -0.030000 -3.858872
v -2.813737 0.030000 -3.858872
v -3.025191 -0.030000 -2.942965
v -3.025191 0.030000 -2.942965
v -3.337686 -0.025279 -3.191771
v -3.337686 0.054721 -3.191771
v -3.342508 0.054721 -3.162160
v -3.342508 -0.025279 -3.162160
v -3.308076 -0.025279 -3.186949
v -3.308076 0.054721 -3.186949
v -3.312898 -0.025279 -3.157339
v -3.312898 0.054721 -3.157339
v -3.240319 0.054721 -3.789628
v -3.245141 0.054721 -3.760017
v -3.245141 -0.025279 -3.760017
v -3.240319 -0.025279 -3.789628
v -3.215531 0.054721 -3.755196
v -3.215531 -0.025279 -3.755196
v -3.210709 0.054721 -3.784806
v -3.210709 -0.025279 -3.784806
v -3.270149 -0.030000 -3.948624
v -3.270149 0.030000 -3.948624
v -3.421247 0.030000 -3.020846
v -3.421247 -0.030000 -3.020846
v -3.131970 -0.030000 -3.926120
v -3.131970 0.030000 -3.926120
v -3.283068 -0.030000 -2.998343
v -3.283068 0.030000 -2.998343
v -3.611166 -0.025279 -3.226179
v -3.611166 0.054721 -3.226179
v -3.614041 0.054721 -3.196317
v -3.614041 -0.025279 -3.196317
v -3.581304 -0.025279 -3.223304
v -3.581304 0.054721 -3.223304
v -3.584179 -0.025279 -3.193441
v -3.584179 0.054721 -3.193441
v -3.553109 0.054721 -3.829124
v -3.555984 0.054721 -3.799262
v -3.555984 -0.025279 -3.799262
v -3.553109 -0.025279 -3.829124
v -3.526122 0.054721 -3.796387
v -3.526122 -0.025279 -3.796387
v -3.523247 0.054721 -3.826249
v -3.523247 -0.025279 -3.826249
v -3.593274 -0.030000 -3.985828
v -3.593274 0.030000 -3.985828
v -3.683369 0.030000 -3.050156
v -3.683369 -0.030000 -3.050156
v -3.453919 -0.030000 -3.972410
v -3.453919 0.030000 -3.972410
v -3.544014 -0.030000 -3.036737
v -3.544014 0.030000 -3.036737
v -3.886311 -0.025279 -3.242627
v -3.886311 0.054721 -3.242627
v -3.887227 0.054721 -3.212641
v -3.887227 -0.025279 -3.212641
v -3.856325 -0.025279 -3.241711
v -3.856325 0.054721 -3.241711
v -3.857241 -0.025279 -3.211724
v -3.857241 0.054721 -3.211724
v -3.867813 0.054721 -3.848078
v -3.868729 0.054721 -3.818091
v -3.868729 -0.025279 -3.818091
v -3.867813 -0.025279 -3.848078
v -3.838743 0.054721 -3.817175
v -3.838743 -0.025279 -3.817175
v -3.837827 0.054721 -3.847162
v -3.837827 -0.025279 -3.847162
v -3.918141 -0.030000 -4.001820
v -3.918141 0.030000 -4.001820
v -3.946847 0.030000 -3.062258
v -3.946847 -0.030000 -3.062258
v -3.778206 -0.030000 -3.997544
v -3.778206 0.030000 -3.997544
v -3.806912 -0.030000 -3.057983
v -3.806912 0.030000 -3.057983
v 0.800527 0.025804 0.997601
v 0.800527 0.025804 0.488000
v 0.800527 0.041290 0.488000
v 0.800527 0.041290 0.997601
v 0.181828 0.071585 0.493000
v 0.181828 0.071585 1.000000
v 0.191462 0.071585 1.000000
v 0.191462 0.071585 0.493000
v 0.199573 0.041290 0.493000
v 0.199573 0.041290 1.000000
v 0.181828 0.041290 1.000000
v 0.181828 0.041290 0.493000
v 0.157318 0.071585 0.493000
v 0.157318 0.071585 1.000000
v 0.157318 0.041290 1.000000
v 0.157318 0.041290 0.493000
v 0.808638 0.085804 0.997601
v 0.808638 0.085804 0.488000
v 0.852416 0.085804 0.488000
v 0.852416 0.085804 0.997601
v -4.040299 0.085803 -3.840780
v -3.501304 0.085803 -3.838690
v -3.501304 0.071584 -3.838690
v -4.040299 0.071584 -3.840780
v 0.842782 0.041290 0.997601
v 0.842782 0.041290 0.488000
v 0.860527 0.041290 0.488000
v 0.860527 0.041290 0.997601
v 0.139573 0.041290 1.000000
v 0.139573 0.041290 0.493000
v 0.860527 0.025804 0.997601
v 0.860527 0.025804 0.488000
v 0.191462 0.085804 0.493000
v 0.191462 0.085804 1.000000
v 0.147684 0.085804 1.000000
v 0.147684 0.085804 0.493000
v 0.191926 0.085804 0.497107
v 0.086084 0.085804 0.034051
v 0.086084 0.071585 0.034051
v 0.191926 0.071585 0.497107
v -0.019758 0.071585 -0.429007
v -0.029150 0.071585 -0.426862
v 0.076692 0.071585 0.036197
v 0.076692 0.041290 0.036197
v -0.029150 0.041290 -0.426862
v -0.011851 0.041290 -0.430816
v 0.093991 0.041290 0.032243
v 0.052798 0.041290 0.041658
v -0.053044 0.041290 -0.421399
v -0.053044 0.071585 -0.421399
v 0.052798 0.071585 0.041658
v 0.149248 0.071585 0.506862
v 0.043406 0.071585 0.043805
v 0.043406 0.085804 0.043805
v 0.149248 0.085804 0.506862
v 0.141341 0.025804 0.508670
v 0.035499 0.025804 0.045613
v 0.035499 0.041290 0.045613
v 0.141341 0.041290 0.508670
v 0.158640 0.071585 0.504716
v -0.070343 0.041290 -0.417446
v 0.199832 0.041290 0.495300
v 0.093991 0.025804 0.032243
v 0.199832 0.025804 0.495300
v -0.019758 0.085804 -0.429007
v -0.062436 0.085804 -0.419252
v 0.182534 0.041290 0.499254
v 0.182534 0.071585 0.499254
v 0.158640 0.041290 0.504716
v -0.062436 0.071585 -0.419252
v -0.070343 0.025804 -0.417446
v -0.011851 0.025804 -0.430816
v -0.018391 0.085804 -0.425107
v -0.224752 0.085804 -0.852938
v -0.224752 0.071585 -0.852938
v -0.018391 0.071585 -0.425107
v -0.431114 0.071585 -1.280770
v -0.439792 0.071585 -1.276584
v -0.233430 0.071585 -0.848754
v -0.233430 0.041290 -0.848754
v -0.439792 0.041290 -1.276584
v -0.423809 0.041290 -1.284293
v -0.217447 0.041290 -0.856462
v -0.255506 0.041290 -0.838104
v -0.461868 0.041290 -1.265936
v -0.461868 0.071585 -1.265936
v -0.255506 0.071585 -0.838104
v -0.057822 0.071585 -0.406087
v -0.264184 0.071585 -0.833919
v -0.264184 0.085804 -0.833919
v -0.057822 0.085804 -0.406087
v -0.065128 0.025804 -0.402563
v -0.271489 0.025804 -0.830396
v -0.271489 0.041290 -0.830396
v -0.065128 0.041290 -0.402563
v -0.049145 0.071585 -0.410273
v -0.477851 0.041290 -1.258227
v -0.011086 0.041290 -0.428630
v -0.217447 0.025804 -0.856462
v -0.011086 0.025804 -0.428630
v -0.431114 0.085804 -1.280770
v -0.470545 0.085804 -1.261751
v -0.027069 0.041290 -0.420921
v -0.027069 0.071585 -0.420921
v -0.049145 0.041290 -0.410273
v -0.470545 0.071585 -1.261751
v -0.477851 0.025804 -1.258227
v -0.423809 0.025804 -1.284293
v -0.428912 0.085804 -1.277273
v -0.725417 0.085804 -1.648365
v -0.725417 0.071585 -1.648365
v -0.428912 0.071585 -1.277273
v -1.021922 0.071585 -2.019457
v -1.029448 0.071585 -2.013445
v -0.732944 0.071585 -1.642351
v -0.732944 0.041290 -1.642351
v -1.029448 0.041290 -2.013445
v -1.015585 0.041290 -2.024520
v -0.719080 0.041290 -1.653427
v -0.752092 0.041290 -1.627051
v -1.048597 0.041290 -1.998144
v -1.048597 0.071585 -1.998144
v -0.752092 0.071585 -1.627051
v -0.463114 0.071585 -1.249945
v -0.759619 0.071585 -1.621037
v -0.759619 0.085804 -1.621037
v -0.463114 0.085804 -1.249945
v -0.469451 0.025804 -1.244881
v -0.765955 0.025804 -1.615975
v -0.765955 0.041290 -1.615975
v -0.469451 0.041290 -1.244881
v -0.455587 0.071585 -1.255958
v -1.062460 0.041290 -1.987068
v -0.422576 0.041290 -1.282335
v -0.719080 0.025804 -1.653427
v -0.422576 0.025804 -1.282335
v -1.021922 0.085804 -2.019457
v -1.056124 0.085804 -1.992130
v -0.436439 0.041290 -1.271258
v -0.436439 0.071585 -1.271258
v -0.455587 0.041290 -1.255958
v -1.056124 0.071585 -1.992130
v -1.062460 0.025804 -1.987068
v -1.015585 0.025804 -2.024520
v -1.018996 0.085804 -2.016538
v -1.390735 0.085804 -2.312232
v -1.390735 0.071585 -2.312232
v -1.018996 0.071585 -2.016538
v -1.762473 0.071584 -2.607928
v -1.768471 0.071584 -2.600388
v -1.396732 0.071585 -2.304692
v -1.396732 0.041290 -2.304692
v -1.768471 0.041289 -2.600388
v -1.757424 0.041289 -2.614275
v -1.385686 0.041290 -2.318580
v -1.411990 0.041290 -2.285511
v -1.783729 0.041289 -2.581205
v -1.783729 0.071584 -2.581205
v -1.411990 0.071585 -2.285511
v -1.046249 0.071585 -1.982277
v -1.417987 0.071585 -2.277971
v -1.417987 0.085804 -2.277971
v -1.046249 0.085804 -1.982277
v -1.051298 0.025804 -1.975929
v -1.423036 0.025804 -2.271623
v -1.423036 0.041290 -2.271623
v -1.051298 0.041290 -1.975929
v -1.040251 0.071585 -1.989817
v -1.794775 0.041289 -2.567319
v -1.013947 0.041290 -2.022885
v -1.385686 0.025804 -2.318580
v -1.013947 0.025804 -2.022885
v -1.762473 0.085803 -2.607928
v -1.789726 0.085803 -2.573666
v -1.024993 0.041290 -2.008998
v -1.024993 0.071585 -2.008998
v -1.040251 0.041290 -1.989817
v -1.789726 0.071584 -2.573666
v -1.794775 0.025803 -2.567319
v -1.757424 0.025803 -2.614275
v -1.758971 0.085803 -2.605733
v -2.187251 0.085803 -2.811161
v -2.187251 0.071584 -2.811161
v -1.758971 0.071584 -2.605733
v -2.615532 0.071584 -3.016589
v -2.619699 0.071584 -3.007902
v -2.191418 0.071584 -2.802475
v -2.191418 0.041289 -2.802475
v -2.619699 0.041289 -3.007902
v -2.612025 0.041289 -3.023902
v -2.183744 0.041289 -2.818474
v -2.202018 0.041289 -2.780375
v -2.630299 0.041289 -2.985803
v -2.630299 0.071584 -2.985803
v -2.202018 0.071584 -2.780375
v -1.777904 0.071584 -2.566261
v -2.206185 0.071584 -2.771689
v -2.206185 0.085803 -2.771689
v -1.777904 0.085803 -2.566261
v -1.781412 0.025803 -2.558948
v -2.209692 0.025803 -2.764376
v -2.209692 0.041289 -2.764376
v -1.781412 0.041289 -2.558948
v -1.773737 0.071584 -2.574947
v -2.637973 0.041289 -2.969802
v -1.755463 0.041289 -2.613047
v -2.183744 0.025803 -2.818474
v -1.755463 0.025803 -2.613047
v -2.615532 0.085803 -3.016589
v -2.634466 0.085803 -2.977116
v -1.763137 0.041289 -2.597046
v -1.763137 0.071584 -2.597046
v -1.773737 0.041289 -2.574947
v -2.634466 0.071584 -2.977116
v -2.637973 0.025803 -2.969802
v -2.612025 0.025803 -3.023902
v -2.611628 0.085803 -3.015230
v -3.074916 0.085803 -3.120061
v -3.074916 0.071584 -3.120061
v -2.611628 0.071584 -3.015230
v -3.538204 0.071584 -3.224893
v -3.540330 0.071584 -3.215496
v -3.077042 0.071584 -3.110664
v -3.077042 0.041289 -3.110664
v -3.540330 0.041289 -3.215496
v -3.536414 0.041289 -3.232804
v -3.073126 0.041289 -3.127972
v -3.082452 0.041289 -3.086759
v -3.545739 0.041289 -3.191591
v -3.545739 0.071584 -3.191591
v -3.082452 0.071584 -3.086759
v -2.621290 0.071584 -2.972530
v -3.084578 0.071584 -3.077363
v -3.084578 0.085803 -3.077363
v -2.621290 0.085803 -2.972530
v -2.623080 0.025803 -2.964621
v -3.086368 0.025803 -3.069452
v -3.086368 0.041289 -3.069452
v -2.623080 0.041289 -2.964621
v -2.619164 0.071584 -2.981927
v -3.549656 0.041289 -3.174283
v -2.609838 0.041289 -3.023141
v -3.073126 0.025803 -3.127972
v -2.609838 0.025803 -3.023141
v -3.538204 0.085803 -3.224893
v -3.547866 0.085803 -3.182194
v -2.613755 0.041289 -3.005834
v -2.613755 0.071584 -3.005834
v -2.619164 0.041289 -2.981927
v -3.547866 0.071584 -3.182194
v -3.549656 0.025803 -3.174283
v -3.536414 0.025803 -3.232804
v -3.534095 0.085803 -3.224439
v -4.041094 0.085803 -3.223332
v -4.041094 0.071584 -3.223332
v -3.534095 0.071584 -3.224439
v -4.041073 0.071584 -3.213698
v -3.534074 0.071584 -3.214804
v -3.534074 0.041289 -3.214804
v -4.041073 0.041289 -3.213698
v -4.041112 0.041289 -3.231443
v -3.534113 0.041289 -3.232549
v 0.842782 0.071585 0.997601
v 0.842782 0.071585 0.488000
v -4.040167 0.071584 -3.874925
v -3.501171 0.071584 -3.872834
v -3.501134 0.071584 -3.882468
v -4.040130 0.071584 -3.884559
v -3.533982 0.025803 -3.172549
v -4.040981 0.025803 -3.171443
v -4.040981 0.041289 -3.171443
v -3.533982 0.041289 -3.172549
v 0.199573 0.025804 1.000000
v 0.199573 0.025804 0.493000
v 0.139573 0.025804 0.493000
v 0.139573 0.025804 1.000000
v -4.041020 0.041289 -3.189188
v -3.534021 0.041289 -3.190294
v -4.041112 0.025803 -3.231443
v -3.534113 0.025803 -3.232549
v -4.040262 0.071584 -3.850415
v -3.501266 0.071584 -3.848324
v -3.501266 0.041289 -3.848324
v -4.040262 0.041289 -3.850415
v 0.808638 0.071585 0.997601
v 0.808638 0.071585 0.488000
v -3.534000 0.085803 -3.180660
v -4.040999 0.085803 -3.179554
v -3.501134 0.085803 -3.882468
v -4.040130 0.085803 -3.884559
v 0.852416 0.071585 0.488000
v 0.852416 0.071585 0.997601
v 0.147684 0.071585 1.000000
v 0.147684 0.071585 0.493000
v 0.818272 0.071585 0.997601
v 0.818272 0.071585 0.488000
v 0.818272 0.041290 0.488000
v 0.818272 0.041290 0.997601
v 0.261130 0.085804 -1.311498
v 0.444388 0.085804 -0.867858
v 0.444388 0.071585 -0.867858
v 0.261130 0.071585 -1.311498
v 0.636551 0.071585 -0.427897
v 0.453293 0.071585 -0.871536
v 0.627646 0.071585 -0.424218
v 0.620150 0.041290 -0.421121
v 0.436892 0.041290 -0.864761
v 0.453293 0.041290 -0.871536
v 0.636551 0.041290 -0.427897
v 0.659204 0.071585 -0.437254
v 0.475946 0.071585 -0.880893
v 0.475946 0.041290 -0.880893
v 0.659204 0.041290 -0.437254
v 0.301593 0.071585 -1.328212
v 0.484850 0.071585 -0.884572
v 0.484850 0.085804 -0.884572
v 0.301593 0.085804 -1.328212
v 0.292688 0.071585 -1.324534
v 0.492347 0.041290 -0.887668
v 0.675605 0.041290 -0.444028
v 0.492347 0.025804 -0.887668
v 0.675605 0.025804 -0.444028
v 0.620150 0.025804 -0.421121
v 0.436892 0.025804 -0.864761
v 0.627646 0.085804 -0.424218
v 0.668108 0.085804 -0.440931
v 0.270035 0.071585 -1.315176
v 0.270035 0.041290 -1.315176
v 0.253634 0.041290 -1.308401
v 0.292688 0.041290 -1.324534
v 0.668108 0.071585 -0.440931
v 0.309089 0.041290 -1.331308
v 0.309089 0.025804 -1.331308
v 0.253634 0.025804 -1.308401
v -0.263967 0.085804 -2.097182
v 0.002126 0.085804 -1.697689
v 0.002126 0.071585 -1.697689
v -0.263967 0.071585 -2.097182
v 0.276237 0.071585 -1.303537
v 0.010144 0.071585 -1.703030
v 0.268219 0.071585 -1.298196
v 0.261469 0.041290 -1.293701
v -0.004624 0.041290 -1.693194
v 0.010144 0.041290 -1.703030
v 0.276237 0.041290 -1.303537
v 0.296636 0.071585 -1.317125
v 0.030543 0.071585 -1.716618
v 0.030543 0.041290 -1.716618
v 0.296636 0.041290 -1.317125
v -0.227531 0.071585 -2.121451
v 0.038562 0.071585 -1.721958
v 0.038562 0.085804 -1.721958
v -0.227531 0.085804 -2.121451
v -0.235549 0.071585 -2.116110
v 0.045312 0.041290 -1.726456
v 0.311405 0.041290 -1.326962
v 0.045312 0.025804 -1.726456
v 0.311405 0.025804 -1.326962
v 0.261469 0.025804 -1.293701
v -0.004624 0.025804 -1.693194
v 0.268219 0.085804 -1.298196
v 0.304655 0.085804 -1.322466
v -0.255949 0.071585 -2.102523
v -0.255949 0.041290 -2.102523
v -0.270717 0.041290 -2.092686
v -0.235549 0.041290 -2.116110
v 0.304655 0.071585 -1.322466
v -0.220781 0.041290 -2.125949
v -0.220781 0.025804 -2.125949
v -0.270717 0.025804 -2.092686
v -0.931930 0.085804 -2.765654
v -0.593178 0.085804 -2.425584
v -0.593178 0.071585 -2.425584
v -0.931930 0.071585 -2.765654
v -0.247599 0.071585 -2.092314
v -0.586352 0.071585 -2.432383
v -0.254425 0.071585 -2.085515
v -0.260171 0.041290 -2.079791
v -0.598924 0.041290 -2.419860
v -0.586352 0.041290 -2.432383
v -0.247599 0.041290 -2.092314
v -0.230235 0.071585 -2.109613
v -0.568987 0.071585 -2.449681
v -0.568987 0.041290 -2.449681
v -0.230235 0.041290 -2.109613
v -0.900914 0.071585 -2.796550
v -0.562161 0.071585 -2.456480
v -0.562161 0.085804 -2.456480
v -0.900914 0.085804 -2.796550
v -0.907739 0.071585 -2.789750
v -0.556415 0.041290 -2.462205
v -0.217663 0.041290 -2.122135
v -0.556415 0.025804 -2.462205
v -0.217663 0.025804 -2.122135
v -0.260171 0.025804 -2.079791
v -0.598924 0.025804 -2.419860
v -0.254425 0.085804 -2.085515
v -0.223409 0.085804 -2.116412
v -0.925104 0.071585 -2.772452
v -0.925104 0.041290 -2.772452
v -0.937676 0.041290 -2.759930
v -0.907739 0.041290 -2.789750
v -0.223409 0.071585 -2.116412
v -0.895168 0.041290 -2.802274
v -0.895168 0.025804 -2.802274
v -0.937676 0.025804 -2.759930
v -1.717216 0.085803 -3.291347
v -1.318758 0.085804 -3.023707
v -1.318758 0.071585 -3.023707
v -1.717216 0.071584 -3.291347
v -0.914928 0.071585 -2.764063
v -1.313386 0.071585 -3.031705
v -0.920300 0.071585 -2.756067
v -0.924822 0.041290 -2.749333
v -1.323280 0.041290 -3.016974
v -1.313386 0.041290 -3.031705
v -0.914928 0.041290 -2.764063
v -0.901262 0.071585 -2.784410
v -1.299719 0.071585 -3.052051
v -1.299719 0.041290 -3.052051
v -0.901262 0.041290 -2.784410
v -1.692805 0.071584 -3.327689
v -1.294347 0.071585 -3.060049
v -1.294347 0.085804 -3.060049
v -1.692805 0.085803 -3.327689
v -1.698177 0.071584 -3.319691
v -1.289825 0.041290 -3.066781
v -0.891367 0.041290 -2.799141
v -1.289825 0.025804 -3.066781
v -0.891367 0.025804 -2.799141
v -0.924822 0.025804 -2.749333
v -1.323280 0.025804 -3.016974
v -0.920300 0.085804 -2.756067
v -0.895890 0.085804 -2.792408
v -1.711844 0.071584 -3.299345
v -1.711844 0.041289 -3.299345
v -1.721738 0.041289 -3.284615
v -1.698177 0.041289 -3.319691
v -0.895890 0.071585 -2.792408
v -1.688283 0.041289 -3.334422
v -1.688283 0.025803 -3.334422
v -1.721738 0.025803 -3.284615
v -2.589794 0.085803 -3.654161
v -2.146868 0.085803 -3.469184
v -2.146868 0.071584 -3.469184
v -2.589794 0.071584 -3.654161
v -1.700229 0.071584 -3.293097
v -2.143155 0.071584 -3.478074
v -1.703942 0.071584 -3.284206
v -1.707068 0.041289 -3.276723
v -2.149994 0.041289 -3.461700
v -2.143155 0.041289 -3.478074
v -1.700229 0.041289 -3.293097
v -1.690784 0.071584 -3.315713
v -2.133710 0.071584 -3.500691
v -2.133710 0.041289 -3.500691
v -1.690784 0.041289 -3.315713
v -2.572923 0.071584 -3.694559
v -2.129997 0.071584 -3.509582
v -2.129997 0.085803 -3.509582
v -2.572923 0.085803 -3.694559
v -2.576636 0.071584 -3.685669
v -2.126871 0.041289 -3.517066
v -1.683946 0.041289 -3.332089
v -2.126871 0.025803 -3.517066
v -1.683946 0.025803 -3.332089
v -1.707068 0.025803 -3.276723
v -2.149994 0.025803 -3.461700
v -1.703942 0.085803 -3.284206
v -1.687071 0.085803 -3.324604
v -2.586081 0.071584 -3.663052
v -2.586081 0.041289 -3.663052
v -2.592920 0.041289 -3.646677
v -2.576636 0.041289 -3.685669
v -1.687071 0.071584 -3.324604
v -2.569797 0.041289 -3.702043
v -2.569797 0.025803 -3.702043
v -2.592920 0.025803 -3.646677
v -3.516298 0.085803 -3.840221
v -3.045841 0.085803 -3.744981
v -3.045841 0.071584 -3.744981
v -3.516298 0.071584 -3.840221
v -2.573473 0.071584 -3.659184
v -3.043930 0.071584 -3.754424
v -2.575385 0.071584 -3.649741
v -2.576994 0.041289 -3.641790
v -3.047450 0.041289 -3.737032
v -3.043930 0.041289 -3.754424
v -2.573473 0.041289 -3.659184
v -2.568610 0.071584 -3.683206
v -3.039066 0.071584 -3.778447
v -3.039066 0.041289 -3.778447
v -2.568610 0.041289 -3.683206
v -3.507611 0.071584 -3.883130
v -3.037155 0.071584 -3.787890
v -3.037155 0.085803 -3.787890
v -3.507611 0.085803 -3.883130
v -3.509522 0.071584 -3.873687
v -3.035545 0.041289 -3.795838
v -2.565089 0.041289 -3.700598
v -3.035545 0.025803 -3.795838
v -2.565089 0.025803 -3.700598
v -2.576994 0.025803 -3.641790
v -3.047450 0.025803 -3.737032
v -2.575385 0.085803 -3.649741
v -2.566698 0.085803 -3.692648
v -3.514386 0.071584 -3.849665
v -3.514386 0.041289 -3.849665
v -3.517907 0.041289 -3.832272
v -3.509522 0.041289 -3.873687
v -2.566698 0.071584 -3.692648
v -3.506001 0.041289 -3.891079
v -3.506001 0.025803 -3.891079
v -3.517907 0.025803 -3.832272
v -4.041020 0.071584 -3.189188
v -3.534021 0.071584 -3.190294
v -3.501335 0.041289 -3.830579
v -4.040331 0.041289 -3.832670
v -4.040167 0.041289 -3.874925
v -3.501171 0.041289 -3.872834
v -3.534000 0.071584 -3.180660
v -4.040999 0.071584 -3.179554
v -4.040098 0.041289 -3.892669
v -3.501101 0.041289 -3.890579
v -4.040098 0.025803 -3.892669
v -3.501101 0.025803 -3.890579
v -3.501335 0.025803 -3.830579
v -4.040331 0.025803 -3.832670
v 0.620941 0.085804 -0.440660
v 0.660033 0.085804 0.037747
v 0.660033 0.071585 0.037747
v 0.620941 0.071585 -0.440660
v 0.708726 0.071585 0.515367
v 0.669636 0.071585 0.036962
v 0.699123 0.071585 0.516152
v 0.691041 0.041290 0.516812
v 0.651949 0.041290 0.038407
v 0.669636 0.041290 0.036962
v 0.708726 0.041290 0.515367
v 0.733155 0.071585 0.513371
v 0.694064 0.071585 0.034966
v 0.694064 0.041290 0.034966
v 0.733155 0.041290 0.513371
v 0.664575 0.071585 -0.444225
v 0.703666 0.071585 0.034181
v 0.703666 0.085804 0.034181
v 0.664575 0.085804 -0.444225
v 0.654973 0.071585 -0.443441
v 0.711750 0.041290 0.033520
v 0.750842 0.041290 0.511925
v 0.711750 0.025804 0.033520
v 0.750842 0.025804 0.511925
v 0.691041 0.025804 0.516812
v 0.651949 0.025804 0.038407
v 0.699123 0.085804 0.516152
v 0.742757 0.085804 0.512586
v 0.630544 0.071585 -0.441444
v 0.630544 0.041290 -0.441444
v 0.612858 0.041290 -0.439999
v 0.654973 0.041290 -0.443441
v 0.742757 0.071585 0.512586
v 0.672658 0.041290 -0.444885
v 0.672658 0.025804 -0.444885
v 0.612858 0.025804 -0.439999
vt 0.999050 0.183297
vt 0.999050 0.342604
vt 0.939310 0.342604
vt 0.939310 0.183297
vt 0.985655 0.132863
vt 0.985655 0.179437
vt 0.939081 0.179437
vt 0.939081 0.132863
vt 0.979692 0.781451
vt 0.979692 0.844034
vt -0.000781 0.844034
vt -0.000781 0.781451
vt 0.145247 0.656284
vt 0.145247 0.718868
vt -0.000781 0.718868
vt -0.000781 0.656284
vt 0.979692 0.718868
vt 0.302823 0.656284
vt 0.302823 0.718868
vt 0.156795 0.718868
vt 0.156795 0.656284
vt 1.000000 0.851064
vt 1.000000 1.000000
vt 0.000000 1.000000
vt 0.000000 0.851064
vt 0.426123 0.034093
vt 0.887757 0.034093
vt 0.887757 0.048121
vt 0.426123 0.048121
vt 0.023159 0.330358
vt 0.482438 0.330358
vt 0.482438 0.321630
vt 0.023159 0.321630
vt 0.883428 0.296828
vt 0.424149 0.296828
vt 0.424149 0.312903
vt 0.883428 0.312903
vt 0.022647 0.089593
vt 0.481925 0.089593
vt 0.481925 0.062150
vt 0.022647 0.062150
vt 0.426323 0.219937
vt 0.887957 0.219937
vt 0.887957 0.259595
vt 0.426323 0.259595
vt 0.506384 0.025761
vt 0.018117 0.025761
vt 0.018117 0.012881
vt 0.506384 0.012881
vt 0.426323 0.281378
vt 0.887957 0.281378
vt 0.887957 0.297453
vt 0.426323 0.297453
vt 0.883428 0.281378
vt 0.424149 0.281378
vt 0.424149 0.297453
vt 0.883428 0.297453
vt 0.479630 0.210448
vt 0.017996 0.210448
vt 0.017996 0.156096
vt 0.479630 0.156096
vt 0.883428 0.219937
vt 0.424149 0.219937
vt 0.424149 0.259595
vt 0.883428 0.259595
vt 0.479751 0.062150
vt 0.018117 0.062150
vt 0.018117 0.048121
vt 0.479751 0.048121
vt 0.423949 0.025761
vt 0.883228 0.025761
vt 0.883228 0.012881
vt 0.423949 0.012881
vt 0.022647 0.025761
vt 0.452937 0.025761
vt 0.452937 0.012881
vt 0.022647 0.012881
vt 0.453450 0.321630
vt 0.453450 0.330358
vt 0.453137 0.312903
vt 0.453137 0.296828
vt 0.452937 0.062150
vt 0.452937 0.089593
vt 0.883228 0.000000
vt 0.452937 0.000000
vt 0.883228 0.048121
vt 0.452937 0.048121
vt 0.883228 0.062150
vt 0.883740 0.312903
vt 0.453450 0.312903
vt 0.883740 0.321630
vt 0.453137 0.297453
vt 0.453137 0.281378
vt 0.022647 0.048121
vt 0.452937 0.034093
vt 0.022647 0.034093
vt 0.453137 0.219937
vt 0.453137 0.259595
vt 0.883106 0.156096
vt 0.452816 0.156096
vt 0.452816 0.210448
vt 0.883106 0.210448
vt 0.452937 0.093759
vt 0.022647 0.093759
vt 0.022647 0.121202
vt 0.452937 0.121202
vt 0.883740 0.330358
vt 0.022847 0.296828
vt 0.022847 0.312903
vt 0.883228 0.089593
vt 0.022647 0.000000
vt 0.023159 0.312903
vt 0.022847 0.297453
vt 0.022847 0.281378
vt 0.883228 0.034093
vt 0.022847 0.219937
vt 0.022847 0.259595
vt 0.022525 0.210448
vt 0.022525 0.156096
vt 0.883228 0.121202
vt 0.883228 0.093759
vt 0.481925 0.025761
vt 0.481925 0.012881
vt 0.424462 0.321630
vt 0.424462 0.330358
vt 0.482125 0.312903
vt 0.482125 0.296828
vt 0.479751 0.089593
vt 0.018117 0.089593
vt 0.400003 0.312903
vt 0.888269 0.312903
vt 0.888269 0.321630
vt 0.400003 0.321630
vt 0.423949 0.048121
vt 0.423949 0.062150
vt 0.481804 0.156096
vt 0.481804 0.210448
vt 0.482125 0.297453
vt 0.482125 0.281378
vt 0.481925 0.048121
vt 0.481925 0.034093
vt 0.506384 0.121202
vt 0.018117 0.121202
vt 0.018117 0.093759
vt 0.506384 0.093759
vt 0.423828 0.156096
vt 0.423828 0.210448
vt 0.481925 0.121202
vt 0.481925 0.093759
vt 0.887757 0.025761
vt 0.426123 0.025761
vt 0.426123 0.012881
vt 0.887757 0.012881
vt 0.482125 0.219937
vt 0.482125 0.259595
vt 0.399491 0.000000
vt 0.887757 0.000000
vt 0.399491 0.012881
vt 0.423949 0.034093
vt 0.018117 0.000000
vt 0.479751 0.000000
vt 0.479751 0.012881
vt 0.018630 0.312903
vt 0.480263 0.312903
vt 0.480263 0.321630
vt 0.018630 0.321630
vt 0.481925 0.000000
vt 0.480263 0.330358
vt 0.018630 0.330358
vt 0.482438 0.312903
vt 0.426323 0.296828
vt 0.887957 0.296828
vt 0.887957 0.312903
vt 0.426323 0.312903
vt 0.887757 0.121202
vt 0.426123 0.121202
vt 0.426123 0.093759
vt 0.887757 0.093759
vt 0.888269 0.330358
vt 0.018317 0.296828
vt 0.018317 0.312903
vt 0.887757 0.089593
vt 0.887757 0.062150
vt 0.018317 0.281378
vt 0.018317 0.297453
vt 0.018117 0.034093
vt 0.018317 0.219937
vt 0.018317 0.259595
vt 0.887636 0.210448
vt 0.887636 0.156096
vt 0.423949 0.089593
vt 0.400003 0.330358
vt 0.506584 0.296828
vt 0.506584 0.312903
vt 0.399491 0.089593
vt 0.399491 0.062150
vt 0.423949 0.000000
vt 0.423949 0.121202
vt 0.423949 0.093759
vt 0.506584 0.281378
vt 0.506584 0.297453
vt 0.399491 0.048121
vt 0.506384 0.034093
vt 0.506384 0.048121
vt 0.506584 0.219937
vt 0.506584 0.259595
vt 0.399369 0.210448
vt 0.399369 0.156096
vt 0.424462 0.312903
s off
f 4/4 3/3 2/2 1/1
f 1/4 2/3 6/2 5/1
f 5/4 6/3 8/2 7/1
f 7/4 8/3 3/2 4/1
f 3/8 8/7 6/6 2/5
f 12/4 11/1 10/2 9/3
f 11/4 14/1 13/2 10/3
f 14/4 16/1 15/2 13/3
f 16/4 12/1 9/2 15/3
f 9/8 10/5 13/6 15/7
f 20/12 19/11 18/10 17/9
f 17/16 18/15 22/14 21/13
f 21/15 22/12 24/9 23/17
f 23/21 24/20 19/19 20/18
f 19/25 24/24 22/23 18/22
f 28/4 27/3 26/2 25/1
f 25/4 26/3 30/2 29/1
f 29/4 30/3 32/2 31/1
f 31/4 32/3 27/2 28/1
f 27/8 32/7 30/6 26/5
f 36/4 35/1 34/2 33/3
f 35/4 38/1 37/2 34/3
f 38/4 40/1 39/2 37/3
f 40/4 36/1 33/2 39/3
f 33/8 34/5 37/6 39/7
f 44/12 43/11 42/10 41/9
f 41/16 42/15 46/14 45/13
f 45/15 46/12 48/9 47/17
f 47/21 48/20 43/19 44/18
f 43/25 48/24 46/23 42/22
f 52/4 51/3 50/2 49/1
f 49/4 50/3 54/2 53/1
f 53/4 54/3 56/2 55/1
f 55/4 56/3 51/2 52/1
f 51/8 56/7 54/6 50/5
f 60/4 59/1 58/2 57/3
f 59/4 62/1 61/2 58/3
f 62/4 64/1 63/2 61/3
f 64/4 60/1 57/2 63/3
f 57/8 58/5 61/6 63/7
f 68/12 67/11 66/10 65/9
f 65/16 66/15 70/14 69/13
f 69/15 70/12 72/9 71/17
f 71/21 72/20 67/19 68/18
f 67/25 72/24 70/23 66/22
f 76/4 75/3 74/2 73/1
f 73/4 74/3 78/2 77/1
f 77/4 78/3 80/2 79/1
f 79/4 80/3 75/2 76/1
f 75/8 80/7 78/6 74/5
f 84/4 83/1 82/2 81/3
f 83/4 86/1 85/2 82/3
f 86/4 88/1 87/2 85/3
f 88/4 84/1 81/2 87/3
f 81/8 82/5 85/6 87/7
f 92/12 91/11 90/10 89/9
f 89/16 90/15 94/14 93/13
f 93/15 94/12 96/9 95/17
f 95/21 96/20 91/19 92/18
f 91/25 96/24 94/23 90/22
f 100/4 99/3 98/2 97/1
f 97/4 98/3 102/2 101/1
f 101/4 102/3 104/2 103/1
f 103/4 104/3 99/2 100/1
f 99/8 104/7 102/6 98/5
f 108/4 107/1 106/2 105/3
f 107/4 110/1 109/2 106/3
f 110/4 112/1 111/2 109/3
f 112/4 108/1 105/2 111/3
f 105/8 106/5 109/6 111/7
f 116/12 115/11 114/10 113/9
f 113/16 114/15 118/14 117/13
f 117/15 118/12 120/9 119/17
f 119/21 120/20 115/19 116/18
f 115/25 120/24 118/23 114/22
f 124/4 123/3 122/2 121/1
f 121/4 122/3 126/2 125/1
f 125/4 126/3 128/2 127/1
f 127/4 128/3 123/2 124/1
f 123/8 128/7 126/6 122/5
f 132/4 131/1 130/2 129/3
f 131/4 134/1 133/2 130/3
f 134/4 136/1 135/2 133/3
f 136/4 132/1 129/2 135/3
f 129/8 130/5 133/6 135/7
f 140/12 139/11 138/10 137/9
f 137/16 138/15 142/14 141/13
f 141/15 142/12 144/9 143/17
f 143/21 144/20 139/19 140/18
f 139/25 144/24 142/23 138/22
f 148/4 147/3 146/2 145/1
f 145/4 146/3 150/2 149/1
f 149/4 150/3 152/2 151/1
f 151/4 152/3 147/2 148/1
f 147/8 152/7 150/6 146/5
f 156/4 155/1 154/2 153/3
f 155/4 158/1 157/2 154/3
f 158/4 160/1 159/2 157/3
f 160/4 156/1 153/2 159/3
f 153/8 154/5 157/6 159/7
f 164/12 163/11 162/10 161/9
f 161/16 162/15 166/14 165/13
f 165/15 166/12 168/9 167/17
f 167/21 168/20 163/19 164/18
f 163/25 168/24 166/23 162/22
f 172/4 171/3 170/2 169/1
f 169/4 170/3 174/2 173/1
f 173/4 174/3 176/2 175/1
f 175/4 176/3 171/2 172/1
f 171/8 176/7 174/6 170/5
f 180/4 179/1 178/2 177/3
f 179/4 182/1 181/2 178/3
f 182/4 184/1 183/2 181/3
f 184/4 180/1 177/2 183/3
f 177/8 178/5 181/6 183/7
f 188/12 187/11 186/10 185/9
f 185/16 186/15 190/14 189/13
f 189/15 190/12 192/9 191/17
f 191/21 192/20 187/19 188/18
f 187/25 192/24 190/23 186/22
f 196/4 195/3 194/2 193/1
f 193/4 194/3 198/2 197/1
f 197/4 198/3 200/2 199/1
f 199/4 200/3 195/2 196/1
f 195/8 200/7 198/6 194/5
f 204/4 203/1 202/2 201/3
f 203/4 206/1 205/2 202/3
f 206/4 208/1 207/2 205/3
f 208/4 204/1 201/2 207/3
f 201/8 202/5 205/6 207/7
f 212/12 211/11 210/10 209/9
f 209/16 210/15 214/14 213/13
f 213/15 214/12 216/9 215/17
f 215/21 216/20 211/19 212/18
f 211/25 216/24 214/23 210/22
f 220/4 219/3 218/2 217/1
f 217/4 218/3 222/2 221/1
f 221/4 222/3 224/2 223/1
f 223/4 224/3 219/2 220/1
f 219/8 224/7 222/6 218/5
f 228/4 227/1 226/2 225/3
f 227/4 230/1 229/2 226/3
f 230/4 232/1 231/2 229/3
f 232/4 228/1 225/2 231/3
f 225/8 226/5 229/6 231/7
f 236/12 235/11 234/10 233/9
f 233/16 234/15 238/14 237/13
f 237/15 238/12 240/9 239/17
f 239/21 240/20 235/19 236/18
f 235/25 240/24 238/23 234/22
f 244/4 243/3 242/2 241/1
f 241/4 242/3 246/2 245/1
f 245/4 246/3 248/2 247/1
f 247/4 248/3 243/2 244/1
f 243/8 248/7 246/6 242/5
f 252/4 251/1 250/2 249/3
f 251/4 254/1 253/2 250/3
f 254/4 256/1 255/2 253/3
f 256/4 252/1 249/2 255/3
f 249/8 250/5 253/6 255/7
f 260/12 259/11 258/10 257/9
f 257/16 258/15 262/14 261/13
f 261/15 262/12 264/9 263/17
f 263/21 264/20 259/19 260/18
f 259/25 264/24 262/23 258/22
f 268/4 267/3 266/2 265/1
f 265/4 266/3 270/2 269/1
f 269/4 270/3 272/2 271/1
f 271/4 272/3 267/2 268/1
f 267/8 272/7 270/6 266/5
f 276/4 275/1 274/2 273/3
f 275/4 278/1 277/2 274/3
f 278/4 280/1 279/2 277/3
f 280/4 276/1 273/2 279/3
f 273/8 274/5 277/6 279/7
f 284/12 283/11 282/10 281/9
f 281/16 282/15 286/14 285/13
f 285/15 286/12 288/9 287/17
f 287/21 288/20 283/19 284/18
f 283/25 288/24 286/23 282/22
f 292/4 291/3 290/2 289/1
f 289/4 290/3 294/2 293/1
f 293/4 294/3 296/2 295/1
f 295/4 296/3 291/2 292/1
f 291/8 296/7 294/6 290/5
f 300/4 299/1 298/2 297/3
f 299/4 302/1 301/2 298/3
f 302/4 304/1 303/2 301/3
f 304/4 300/1 297/2 303/3
f 297/8 298/5 301/6 303/7
f 308/12 307/11 306/10 305/9
f 305/16 306/15 310/14 309/13
f 309/15 310/12 312/9 311/17
f 311/21 312/20 307/19 308/18
f 307/25 312/24 310/23 306/22
f 316/4 315/3 314/2 313/1
f 313/4 314/3 318/2 317/1
f 317/4 318/3 320/2 319/1
f 319/4 320/3 315/2 316/1
f 315/8 320/7 318/6 314/5
f 324/4 323/1 322/2 321/3
f 323/4 326/1 325/2 322/3
f 326/4 328/1 327/2 325/3
f 328/4 324/1 321/2 327/3
f 321/8 322/5 325/6 327/7
f 332/12 331/11 330/10 329/9
f 329/16 330/15 334/14 333/13
f 333/15 334/12 336/9 335/17
f 335/21 336/20 331/19 332/18
f 331/25 336/24 334/23 330/22
f 340/4 339/3 338/2 337/1
f 337/4 338/3 342/2 341/1
f 341/4 342/3 344/2 343/1
f 343/4 344/3 339/2 340/1
f 339/8 344/7 342/6 338/5
f 348/4 347/1 346/2 345/3
f 347/4 350/1 349/2 346/3
f 350/4 352/1 351/2 349/3
f 352/4 348/1 345/2 351/3
f 345/8 346/5 349/6 351/7
f 356/12 355/11 354/10 353/9
f 353/16 354/15 358/14 357/13
f 357/15 358/12 360/9 359/17
f 359/21 360/20 355/19 356/18
f 355/25 360/24 358/23 354/22
f 364/4 363/3 362/2 361/1
f 361/4 362/3 366/2 365/1
f 365/4 366/3 368/2 367/1
f 367/4 368/3 363/2 364/1
f 363/8 368/7 366/6 362/5
f 372/4 371/1 370/2 369/3
f 371/4 374/1 373/2 370/3
f 374/4 376/1 375/2 373/3
f 376/4 372/1 369/2 375/3
f 369/8 370/5 373/6 375/7
f 380/12 379/11 378/10 377/9
f 377/16 378/15 382/14 381/13
f 381/15 382/12 384/9 383/17
f 383/21 384/20 379/19 380/18
f 379/25 384/24 382/23 378/22
f 388/4 387/3 386/2 385/1
f 385/4 386/3 390/2 389/1
f 389/4 390/3 392/2 391/1
f 391/4 392/3 387/2 388/1
f 387/8 392/7 390/6 386/5
f 396/4 395/1 394/2 393/3
f 395/4 398/1 397/2 394/3
f 398/4 400/1 399/2 397/3
f 400/4 396/1 393/2 399/3
f 393/8 394/5 397/6 399/7
f 404/12 403/11 402/10 401/9
f 401/16 402/15 406/14 405/13
f 405/15 406/12 408/9 407/17
f 407/21 408/20 403/19 404/18
f 403/25 408/24 406/23 402/22
f 412/4 411/3 410/2 409/1
f 409/4 410/3 414/2 413/1
f 413/4 414/3 416/2 415/1
f 415/4 416/3 411/2 412/1
f 411/8 416/7 414/6 410/5
f 420/4 419/1 418/2 417/3
f 419/4 422/1 421/2 418/3
f 422/4 424/1 423/2 421/3
f 424/4 420/1 417/2 423/3
f 417/8 418/5 421/6 423/7
f 428/12 427/11 426/10 425/9
f 425/16 426/15 430/14 429/13
f 429/15 430/12 432/9 431/17
f 431/21 432/20 427/19 428/18
f 427/25 432/24 430/23 426/22
f 436/4 435/3 434/2 433/1
f 433/4 434/3 438/2 437/1
f 437/4 438/3 440/2 439/1
f 439/4 440/3 435/2 436/1
f 435/8 440/7 438/6 434/5
f 444/4 443/1 442/2 441/3
f 443/4 446/1 445/2 442/3
f 446/4 448/1 447/2 445/3
f 448/4 444/1 441/2 447/3
f 441/8 442/5 445/6 447/7
f 452/12 451/11 450/10 449/9
f 449/16 450/15 454/14 453/13
f 453/15 454/12 456/9 455/17
f 455/21 456/20 451/19 452/18
f 451/25 456/24 454/23 450/22
f 460/29 459/28 458/27 457/26
f 464/33 463/32 462/31 461/30
f 468/37 467/36 466/35 465/34
f 472/41 471/40 470/39 469/38
f 476/45 475/44 474/43 473/42
f 480/49 479/48 478/47 477/46
f 484/53 483/52 482/51 481/50
f 486/57 485/56 471/55 472/54
f 457/61 458/60 488/59 487/58
f 492/65 491/64 490/63 489/62
f 487/69 488/68 483/67 484/66
f 463/73 464/72 489/71 490/70
f 496/77 495/76 494/75 493/74
f 499/79 498/30 497/33 495/78
f 503/81 502/34 501/37 500/80
f 507/83 506/38 505/41 504/82
f 511/72 510/76 509/85 508/84
f 515/88 514/82 513/87 512/86
f 508/91 509/78 507/90 516/89
f 504/93 505/54 517/57 514/92
f 520/96 519/95 503/87 518/94
f 522/65 510/98 494/97 521/62
f 512/102 513/101 519/100 520/99
f 499/106 524/105 523/104 500/103
f 495/76 497/72 521/71 494/75
f 524/107 499/79 495/78 496/91
f 500/80 523/109 518/108 503/81
f 504/82 525/88 516/110 507/83
f 510/76 522/77 526/111 509/85
f 514/82 517/41 527/94 513/87
f 509/78 526/33 506/112 507/90
f 525/114 504/93 514/92 515/113
f 519/95 528/115 502/86 503/87
f 510/98 511/117 493/116 494/97
f 528/119 519/100 513/101 527/118
f 500/103 501/121 498/120 499/106
f 532/77 531/76 530/75 529/74
f 535/79 534/30 533/33 531/78
f 539/81 538/34 537/37 536/80
f 543/83 542/38 541/41 540/82
f 547/72 546/76 545/85 544/84
f 551/88 550/82 549/87 548/86
f 544/91 545/78 543/90 552/89
f 540/93 541/54 553/57 550/92
f 556/96 555/95 539/87 554/94
f 558/65 546/98 530/97 557/62
f 548/102 549/101 555/100 556/99
f 535/106 560/105 559/104 536/103
f 531/76 533/72 557/71 530/75
f 560/107 535/79 531/78 532/91
f 536/80 559/109 554/108 539/81
f 540/82 561/88 552/110 543/83
f 546/76 558/77 562/111 545/85
f 550/82 553/41 563/94 549/87
f 545/78 562/33 542/112 543/90
f 561/114 540/93 550/92 551/113
f 555/95 564/115 538/86 539/87
f 546/98 547/117 529/116 530/97
f 564/119 555/100 549/101 563/118
f 536/103 537/121 534/120 535/106
f 568/77 567/76 566/75 565/74
f 571/79 570/30 569/33 567/78
f 575/81 574/34 573/37 572/80
f 579/83 578/38 577/41 576/82
f 583/72 582/76 581/85 580/84
f 587/88 586/82 585/87 584/86
f 580/91 581/78 579/90 588/89
f 576/93 577/54 589/57 586/92
f 592/96 591/95 575/87 590/94
f 594/65 582/98 566/97 593/62
f 584/102 585/101 591/100 592/99
f 571/106 596/105 595/104 572/103
f 567/76 569/72 593/71 566/75
f 596/107 571/79 567/78 568/91
f 572/80 595/109 590/108 575/81
f 576/82 597/88 588/110 579/83
f 582/76 594/77 598/111 581/85
f 586/82 589/41 599/94 585/87
f 581/78 598/33 578/112 579/90
f 597/114 576/93 586/92 587/113
f 591/95 600/115 574/86 575/87
f 582/98 583/117 565/116 566/97
f 600/119 591/100 585/101 599/118
f 572/103 573/121 570/120 571/106
f 604/77 603/76 602/75 601/74
f 607/79 606/30 605/33 603/78
f 611/81 610/34 609/37 608/80
f 615/83 614/38 613/41 612/82
f 619/72 618/76 617/85 616/84
f 623/88 622/82 621/87 620/86
f 616/91 617/78 615/90 624/89
f 612/93 613/54 625/57 622/92
f 628/96 627/95 611/87 626/94
f 630/65 618/98 602/97 629/62
f 620/102 621/101 627/100 628/99
f 607/106 632/105 631/104 608/103
f 603/76 605/72 629/71 602/75
f 632/107 607/79 603/78 604/91
f 608/80 631/109 626/108 611/81
f 612/82 633/88 624/110 615/83
f 618/76 630/77 634/111 617/85
f 622/82 625/41 635/94 621/87
f 617/78 634/33 614/112 615/90
f 633/114 612/93 622/92 623/113
f 627/95 636/115 610/86 611/87
f 618/98 619/117 601/116 602/97
f 636/119 627/100 621/101 635/118
f 608/103 609/121 606/120 607/106
f 640/77 639/76 638/75 637/74
f 643/79 642/30 641/33 639/78
f 647/81 646/34 645/37 644/80
f 651/83 650/38 649/41 648/82
f 655/72 654/76 653/85 652/84
f 659/88 658/82 657/87 656/86
f 652/91 653/78 651/90 660/89
f 648/93 649/54 661/57 658/92
f 664/96 663/95 647/87 662/94
f 666/65 654/98 638/97 665/62
f 656/102 657/101 663/100 664/99
f 643/106 668/105 667/104 644/103
f 639/76 641/72 665/71 638/75
f 668/107 643/79 639/78 640/91
f 644/80 667/109 662/108 647/81
f 648/82 669/88 660/110 651/83
f 654/76 666/77 670/111 653/85
f 658/82 661/41 671/94 657/87
f 653/78 670/33 650/112 651/90
f 669/114 648/93 658/92 659/113
f 663/95 672/115 646/86 647/87
f 654/98 655/117 637/116 638/97
f 672/119 663/100 657/101 671/118
f 644/103 645/121 642/120 643/106
f 676/77 675/76 674/75 673/74
f 679/79 678/30 677/33 675/78
f 683/81 682/34 681/37 680/80
f 687/83 686/38 685/41 684/82
f 691/72 690/76 689/85 688/84
f 695/88 694/82 693/87 692/86
f 688/91 689/78 687/90 696/89
f 684/93 685/54 697/57 694/92
f 700/96 699/95 683/87 698/94
f 702/65 690/98 674/97 701/62
f 692/102 693/101 699/100 700/99
f 679/106 704/105 703/104 680/103
f 675/76 677/72 701/71 674/75
f 704/107 679/79 675/78 676/91
f 680/80 703/109 698/108 683/81
f 684/82 705/88 696/110 687/83
f 690/76 702/77 706/111 689/85
f 694/82 697/41 707/94 693/87
f 689/78 706/33 686/112 687/90
f 705/114 684/93 694/92 695/113
f 699/95 708/115 682/86 683/87
f 690/98 691/117 673/116 674/97
f 708/119 699/100 693/101 707/118
f 680/103 681/121 678/120 679/106
f 712/77 711/123 710/122 709/74
f 714/107 713/125 711/124 712/91
f 718/108 717/127 716/126 715/109
f 481/66 482/67 720/129 719/128
f 724/133 723/132 722/131 721/130
f 728/88 727/135 726/134 725/86
f 732/137 731/118 730/119 729/136
f 734/114 733/139 727/138 728/113
f 736/96 735/141 717/140 718/94
f 740/145 739/144 738/143 737/142
f 725/102 726/147 735/146 736/99
f 715/104 716/149 713/148 714/105
f 742/153 741/152 473/151 474/150
f 744/155 743/117 709/116 710/154
f 746/158 745/153 723/157 724/156
f 729/159 730/115 465/86 466/134
f 475/48 476/162 748/161 747/160
f 747/166 748/165 719/164 720/163
f 491/123 492/77 750/111 749/167
f 485/40 486/41 731/94 732/140
f 741/165 742/166 752/169 751/168
f 749/32 750/33 469/112 470/170
f 754/174 753/173 459/172 460/171
f 753/178 754/177 751/176 752/175
f 758/153 757/76 756/75 755/150
f 761/132 757/78 760/79 759/179
f 765/181 764/80 763/81 762/180
f 769/183 768/82 767/83 766/182
f 773/48 772/76 771/85 770/160
f 770/166 771/78 767/90 774/163
f 776/185 775/92 768/93 769/184
f 778/28 777/87 775/82 776/183
f 762/68 763/87 780/95 779/186
f 782/188 772/98 756/97 781/187
f 779/190 780/100 777/101 778/189
f 784/178 764/103 760/106 783/175
f 757/76 761/48 781/47 756/75
f 757/78 758/166 783/169 760/79
f 764/80 784/173 785/172 763/81
f 768/82 786/67 774/129 767/83
f 787/157 771/85 772/76 782/153
f 771/78 787/132 766/131 767/90
f 775/92 788/52 786/51 768/93
f 788/67 775/82 777/87 789/68
f 790/27 780/95 763/87 785/28
f 772/98 773/44 755/43 756/97
f 780/100 790/60 789/59 777/101
f 759/143 760/106 764/103 765/144
f 794/153 793/76 792/75 791/150
f 797/132 793/78 796/79 795/179
f 801/181 800/80 799/81 798/180
f 805/183 804/82 803/83 802/182
f 809/48 808/76 807/85 806/160
f 806/166 807/78 803/90 810/163
f 812/185 811/92 804/93 805/184
f 814/28 813/87 811/82 812/183
f 798/68 799/87 816/95 815/186
f 818/188 808/98 792/97 817/187
f 815/190 816/100 813/101 814/189
f 820/178 800/103 796/106 819/175
f 793/76 797/48 817/47 792/75
f 793/78 794/166 819/169 796/79
f 800/80 820/173 821/172 799/81
f 804/82 822/67 810/129 803/83
f 823/157 807/85 808/76 818/153
f 807/78 823/132 802/131 803/90
f 811/92 824/52 822/51 804/93
f 824/67 811/82 813/87 825/68
f 826/27 816/95 799/87 821/28
f 808/98 809/44 791/43 792/97
f 816/100 826/60 825/59 813/101
f 795/143 796/106 800/103 801/144
f 830/153 829/76 828/75 827/150
f 833/132 829/78 832/79 831/179
f 837/181 836/80 835/81 834/180
f 841/183 840/82 839/83 838/182
f 845/48 844/76 843/85 842/160
f 842/166 843/78 839/90 846/163
f 848/185 847/92 840/93 841/184
f 850/28 849/87 847/82 848/183
f 834/68 835/87 852/95 851/186
f 854/188 844/98 828/97 853/187
f 851/190 852/100 849/101 850/189
f 856/178 836/103 832/106 855/175
f 829/76 833/48 853/47 828/75
f 829/78 830/166 855/169 832/79
f 836/80 856/173 857/172 835/81
f 840/82 858/67 846/129 839/83
f 859/157 843/85 844/76 854/153
f 843/78 859/132 838/131 839/90
f 847/92 860/52 858/51 840/93
f 860/67 847/82 849/87 861/68
f 862/27 852/95 835/87 857/28
f 844/98 845/44 827/43 828/97
f 852/100 862/60 861/59 849/101
f 831/143 832/106 836/103 837/144
f 866/153 865/76 864/75 863/150
f 869/132 865/78 868/79 867/179
f 873/181 872/80 871/81 870/180
f 877/183 876/82 875/83 874/182
f 881/48 880/76 879/85 878/160
f 878/166 879/78 875/90 882/163
f 884/185 883/92 876/93 877/184
f 886/28 885/87 883/82 884/183
f 870/68 871/87 888/95 887/186
f 890/188 880/98 864/97 889/187
f 887/190 888/100 885/101 886/189
f 892/178 872/103 868/106 891/175
f 865/76 869/48 889/47 864/75
f 865/78 866/166 891/169 868/79
f 872/80 892/173 893/172 871/81
f 876/82 894/67 882/129 875/83
f 895/157 879/85 880/76 890/153
f 879/78 895/132 874/131 875/90
f 883/92 896/52 894/51 876/93
f 896/67 883/82 885/87 897/68
f 898/27 888/95 871/87 893/28
f 880/98 881/44 863/43 864/97
f 888/100 898/60 897/59 885/101
f 867/143 868/106 872/103 873/144
f 902/153 901/76 900/75 899/150
f 905/132 901/78 904/79 903/179
f 909/181 908/80 907/81 906/180
f 913/183 912/82 911/83 910/182
f 917/48 916/76 915/85 914/160
f 914/166 915/78 911/90 918/163
f 920/185 919/92 912/93 913/184
f 922/28 921/87 919/82 920/183
f 906/68 907/87 924/95 923/186
f 926/188 916/98 900/97 925/187
f 923/190 924/100 921/101 922/189
f 928/178 908/103 904/106 927/175
f 901/76 905/48 925/47 900/75
f 901/78 902/166 927/169 904/79
f 908/80 928/173 929/172 907/81
f 912/82 930/67 918/129 911/83
f 931/157 915/85 916/76 926/153
f 915/78 931/132 910/131 911/90
f 919/92 932/52 930/51 912/93
f 932/67 919/82 921/87 933/68
f 934/27 924/95 907/87 929/28
f 916/98 917/44 899/43 900/97
f 924/100 934/60 933/59 921/101
f 903/143 904/106 908/103 909/144
f 938/153 937/76 936/75 935/150
f 941/132 937/78 940/79 939/179
f 945/181 944/80 943/81 942/180
f 949/183 948/82 947/83 946/182
f 953/48 952/76 951/85 950/160
f 950/166 951/78 947/90 954/163
f 956/185 955/92 948/93 949/184
f 958/28 957/87 955/82 956/183
f 942/68 943/87 960/95 959/186
f 962/188 952/98 936/97 961/187
f 959/190 960/100 957/101 958/189
f 964/178 944/103 940/106 963/175
f 937/76 941/48 961/47 936/75
f 937/78 938/166 963/169 940/79
f 944/80 964/173 965/172 943/81
f 948/82 966/67 954/129 947/83
f 967/157 951/85 952/76 962/153
f 951/78 967/132 946/131 947/90
f 955/92 968/52 966/51 948/93
f 968/67 955/82 957/87 969/68
f 970/27 960/95 943/87 965/28
f 952/98 953/44 935/43 936/97
f 960/100 970/60 969/59 957/101
f 939/143 940/106 944/103 945/144
f 733/135 734/88 972/110 971/191
f 479/132 480/133 737/192 738/179
f 739/181 740/194 974/193 973/180
f 976/183 975/196 721/195 722/182
f 978/197 977/84 743/72 744/73
f 467/199 468/121 461/120 462/198
f 980/185 979/201 975/200 976/184
f 982/28 981/202 979/196 980/183
f 973/68 974/204 984/203 983/186
f 745/188 746/206 477/205 478/187
f 983/190 984/208 981/207 982/189
f 971/209 972/89 977/91 978/124
f 988/153 987/76 986/75 985/150
f 991/132 987/78 990/79 989/179
f 995/181 994/80 993/81 992/180
f 999/183 998/82 997/83 996/182
f 1003/48 1002/76 1001/85 1000/160
f 1000/166 1001/78 997/90 1004/163
f 1006/185 1005/92 998/93 999/184
f 1008/28 1007/87 1005/82 1006/183
f 992/68 993/87 1010/95 1009/186
f 1012/188 1002/98 986/97 1011/187
f 1009/190 1010/100 1007/101 1008/189
f 1014/178 994/103 990/106 1013/175
f 987/76 991/48 1011/47 986/75
f 987/78 988/166 1013/169 990/79
f 994/80 1014/173 1015/172 993/81
f 998/82 1016/67 1004/129 997/83
f 1017/157 1001/85 1002/76 1012/153
f 1001/78 1017/132 996/131 997/90
f 1005/92 1018/52 1016/51 998/93
f 1018/67 1005/82 1007/87 1019/68
f 1020/27 1010/95 993/87 1015/28
f 1002/98 1003/44 985/43 986/97
f 1010/100 1020/60 1019/59 1007/101
f 989/143 990/106 994/103 995/144
o Track3
v 0.157268 0.071584 -2.002584
v 0.191412 0.085803 -2.002584
v 0.191412 0.071584 -2.002584
v 0.181778 0.071584 -2.002584
v 0.147634 0.071584 -2.002584
v 0.147634 0.085803 -2.002584
v 0.181778 0.041289 -2.002584
v 0.199523 0.025803 -2.002584
v 0.139523 0.025803 -2.002584
v 0.157268 0.041289 -2.002584
v 0.139523 0.041289 -2.002584
v 0.139523 0.025803 -3.002584
v 0.139523 0.041289 -3.002584
v 0.181778 0.041289 -3.002584
v 0.157268 0.041289 -3.002584
v 0.199523 0.025803 -3.002584
v 0.181778 0.071584 -3.002584
v 0.191412 0.085803 -3.002584
v 0.147634 0.085803 -3.002584
v 0.157268 0.071584 -3.002584
v 0.199523 0.041289 -3.002584
v 0.199523 0.041289 -2.002584
v 0.191412 0.071584 -3.002584
v 0.147634 0.071584 -3.002584
v 0.808588 0.071584 -2.002584
v 0.808588 0.085803 -2.002584
v 0.842732 0.071584 -2.002584
v 0.818222 0.071584 -2.002584
v 0.852366 0.085803 -2.002584
v 0.852366 0.071584 -2.002584
v 0.860477 0.041289 -2.002584
v 0.860477 0.025803 -2.002584
v 0.818222 0.041289 -2.002584
v 0.842732 0.041289 -2.002584
v 0.800477 0.025803 -2.002584
v 0.800477 0.041289 -2.002584
v 0.860477 0.025803 -3.002584
v 0.860477 0.041289 -3.002584
v 0.800477 0.025803 -3.002584
v 0.818222 0.041289 -3.002584
v 0.800477 0.041289 -3.002584
v 0.842732 0.041289 -3.002584
v 0.852366 0.071584 -3.002584
v 0.852366 0.085803 -3.002584
v 0.818222 0.071584 -3.002584
v 0.842732 0.071584 -3.002584
v 0.808588 0.085803 -3.002584
v 0.808588 0.071584 -3.002584
v 0.787867 -0.025279 -2.112584
v 0.787867 0.054721 -2.112584
v 0.817867 0.054721 -2.112584
v 0.817867 -0.025279 -2.112584
v 0.787867 -0.025279 -2.142584
v 0.787867 0.054721 -2.142584
v 0.817867 -0.025279 -2.142584
v 0.817867 0.054721 -2.142584
v 0.182133 0.054721 -2.112584
v 0.212133 0.054721 -2.112584
v 0.212133 -0.025279 -2.112584
v 0.182133 -0.025279 -2.112584
v 0.212133 0.054721 -2.142584
v 0.212133 -0.025279 -2.142584
v 0.182133 0.054721 -2.142584
v 0.182133 -0.025279 -2.142584
v 0.787867 -0.025279 -2.362584
v 0.787867 0.054721 -2.362584
v 0.817867 0.054721 -2.362584
v 0.817867 -0.025279 -2.362584
v 0.787867 -0.025279 -2.392584
v 0.787867 0.054721 -2.392584
v 0.817867 -0.025279 -2.392584
v 0.817867 0.054721 -2.392584
v 0.182133 0.054721 -2.362584
v 0.212133 0.054721 -2.362584
v 0.212133 -0.025279 -2.362584
v 0.182133 -0.025279 -2.362584
v 0.212133 0.054721 -2.392584
v 0.212133 -0.025279 -2.392584
v 0.182133 0.054721 -2.392584
v 0.182133 -0.025279 -2.392584
v 0.787867 -0.025279 -2.612584
v 0.787867 0.054721 -2.612584
v 0.817867 0.054721 -2.612584
v 0.817867 -0.025279 -2.612584
v 0.787867 -0.025279 -2.642584
v 0.787867 0.054721 -2.642584
v 0.817867 -0.025279 -2.642584
v 0.817867 0.054721 -2.642584
v 0.182133 0.054721 -2.612584
v 0.212133 0.054721 -2.612584
v 0.212133 -0.025279 -2.612584
v 0.182133 -0.025279 -2.612584
v 0.212133 0.054721 -2.642584
v 0.212133 -0.025279 -2.642584
v 0.182133 0.054721 -2.642584
v 0.182133 -0.025279 -2.642584
v 0.787867 -0.025279 -2.862584
v 0.787867 0.054721 -2.862584
v 0.817867 0.054721 -2.862584
v 0.817867 -0.025279 -2.862584
v 0.787867 -0.025279 -2.892584
v 0.787867 0.054721 -2.892584
v 0.817867 -0.025279 -2.892584
v 0.817867 0.054721 -2.892584
v 0.182133 0.054721 -2.862584
v 0.212133 0.054721 -2.862584
v 0.212133 -0.025279 -2.862584
v 0.182133 -0.025279 -2.862584
v 0.212133 0.054721 -2.892584
v 0.212133 -0.025279 -2.892584
v 0.182133 0.054721 -2.892584
v 0.182133 -0.025279 -2.892584
v 0.030000 -0.030000 -2.807584
v 0.030000 0.030000 -2.807584
v 0.970000 0.030000 -2.807584
v 0.970000 -0.030000 -2.807584
v 0.030000 -0.030000 -2.947584
v 0.030000 0.030000 -2.947584
v 0.970000 -0.030000 -2.947584
v 0.970000 0.030000 -2.947584
v 0.030000 -0.030000 -2.557584
v 0.030000 0.030000 -2.557584
v 0.970000 0.030000 -2.557584
v 0.970000 -0.030000 -2.557584
v 0.030000 -0.030000 -2.697584
v 0.030000 0.030000 -2.697584
v 0.970000 -0.030000 -2.697584
v 0.970000 0.030000 -2.697584
v 0.030000 -0.030000 -2.307584
v 0.030000 0.030000 -2.307584
v 0.970000 0.030000 -2.307584
v 0.970000 -0.030000 -2.307584
v 0.030000 -0.030000 -2.447584
v 0.030000 0.030000 -2.447584
v 0.970000 -0.030000 -2.447584
v 0.970000 0.030000 -2.447584
v 0.030000 -0.030000 -2.057584
v 0.030000 0.030000 -2.057584
v 0.970000 0.030000 -2.057584
v 0.970000 -0.030000 -2.057584
v 0.030000 -0.030000 -2.197584
v 0.030000 0.030000 -2.197584
v 0.970000 -0.030000 -2.197584
v 0.970000 0.030000 -2.197584
vt 0.980127 0.103062
vt 0.949641 0.115757
vt 0.949641 0.103062
vt 0.958243 0.103062
vt 0.988729 0.103062
vt 0.988729 0.115757
vt 0.958243 0.076013
vt 0.942399 0.062186
vt 0.995971 0.062186
vt 0.980127 0.076013
vt 0.000000 0.062150
vt 0.000000 0.048121
vt 0.905875 0.048121
vt 0.905875 0.062150
vt 0.980908 0.014240
vt 0.959024 0.014240
vt 0.943180 0.000413
vt 0.996752 0.000413
vt 0.980908 0.041289
vt 0.989510 0.053985
vt 0.950422 0.053985
vt 0.959024 0.041289
vt 0.000000 0.034093
vt 0.905875 0.034093
vt 0.000200 0.259595
vt 0.000200 0.219937
vt 0.906075 0.219937
vt 0.906075 0.259595
vt 0.905753 0.210448
vt -0.000122 0.210448
vt -0.000122 0.156096
vt 0.905753 0.156096
vt 0.905875 0.121202
vt 0.000000 0.121202
vt 0.000000 0.093759
vt 0.905875 0.093759
vt 0.905875 0.025761
vt 0.000000 0.025761
vt 0.000000 0.012881
vt 0.905875 0.012881
vt 0.906387 0.330358
vt 0.000512 0.330358
vt 0.000512 0.321630
vt 0.906387 0.321630
vt 0.000200 0.296828
vt 0.906075 0.296828
vt 0.906075 0.312903
vt 0.000200 0.312903
vt 0.905875 0.089593
vt 0.000000 0.089593
vt 0.000000 0.000000
vt 0.905875 0.000000
vt 0.000512 0.312903
vt 0.906387 0.312903
vt 0.000200 0.281378
vt 0.906075 0.281378
vt 0.906075 0.297453
vt 0.000200 0.297453
vt 0.995971 0.076013
vt 0.942399 0.076013
vt 0.996752 0.014240
vt 0.943180 0.014240
vt 0.950422 0.041289
vt 0.989510 0.041289
vt 0.999050 0.183297
vt 0.999050 0.342604
vt 0.939310 0.342604
vt 0.939310 0.183297
vt 0.985655 0.132863
vt 0.985655 0.179437
vt 0.939081 0.179437
vt 0.939081 0.132863
vt 0.979692 0.781451
vt 0.979692 0.844034
vt -0.000781 0.844034
vt -0.000781 0.781451
vt 0.146184 0.656284
vt 0.146184 0.718868
vt 0.000156 0.718868
vt 0.000156 0.656284
vt 0.980629 0.718868
vt 0.980629 0.781451
vt 0.000156 0.781451
vt 0.302823 0.656284
vt 0.302823 0.718868
vt 0.156795 0.718868
vt 0.156795 0.656284
vt 0.999534 0.505675
vt 0.999534 0.654611
vt -0.000466 0.654611
vt -0.000466 0.505675
vt 0.145247 0.656284
vt 0.145247 0.718868
vt -0.000781 0.718868
vt -0.000781 0.656284
vt 0.979692 0.718868
vt 1.000000 0.851064
vt 1.000000 1.000000
vt 0.000000 1.000000
vt 0.000000 0.851064
vt 0.999897 0.349106
vt 0.999897 0.498042
vt -0.000103 0.498042
vt -0.000103 0.349106
s off
f 1024/213 1023/212 1022/211 1021/210
f 1026/215 1025/214 1021/210 1022/211
f 1030/219 1029/218 1028/217 1027/216
f 1027/216 1024/213 1021/210 1030/219
f 1033/223 1032/222 1029/221 1031/220
f 1036/227 1032/226 1035/225 1034/224
f 1040/231 1039/230 1038/229 1037/228
f 1040/231 1037/228 1034/224 1035/225
f 1042/222 1028/233 1036/232 1041/221
f 1026/237 1022/236 1038/235 1039/234
f 1036/241 1028/240 1029/239 1032/238
f 1027/245 1034/244 1037/243 1024/242
f 1023/249 1043/248 1038/247 1022/246
f 1043/253 1023/252 1024/251 1037/250
f 1034/257 1027/256 1042/255 1041/254
f 1035/223 1030/220 1021/259 1040/258
f 1044/261 1025/260 1026/248 1039/249
f 1025/252 1044/253 1040/263 1021/262
f 1033/267 1031/266 1030/265 1035/264
f 1048/213 1047/210 1046/211 1045/212
f 1046/211 1047/210 1050/214 1049/215
f 1054/219 1053/216 1052/218 1051/268
f 1052/218 1053/216 1056/269 1055/217
f 1054/219 1047/210 1048/213 1053/216
f 1058/223 1051/220 1052/221 1057/222
f 1061/270 1060/224 1057/226 1059/227
f 1057/226 1060/224 1062/225 1058/271
f 1066/231 1065/228 1064/230 1063/272
f 1064/230 1065/228 1068/273 1067/229
f 1062/225 1060/224 1065/228 1066/231
f 1056/222 1061/221 1059/232 1055/233
f 1049/237 1064/234 1067/235 1046/236
f 1059/241 1057/238 1052/239 1055/240
f 1053/245 1048/242 1065/243 1060/244
f 1045/249 1046/246 1067/247 1068/248
f 1068/253 1065/250 1048/251 1045/252
f 1060/257 1061/254 1056/255 1053/256
f 1062/223 1066/258 1047/259 1054/220
f 1063/261 1064/249 1049/248 1050/260
f 1066/263 1063/253 1050/252 1047/262
f 1058/267 1062/264 1054/265 1051/266
f 1072/277 1071/276 1070/275 1069/274
f 1069/277 1070/276 1074/275 1073/274
f 1073/277 1074/276 1076/275 1075/274
f 1075/277 1076/276 1071/275 1072/274
f 1071/281 1076/280 1074/279 1070/278
f 1080/277 1079/274 1078/275 1077/276
f 1079/277 1082/274 1081/275 1078/276
f 1082/277 1084/274 1083/275 1081/276
f 1084/277 1080/274 1077/275 1083/276
f 1077/281 1078/278 1081/279 1083/280
f 1088/277 1087/276 1086/275 1085/274
f 1085/277 1086/276 1090/275 1089/274
f 1089/277 1090/276 1092/275 1091/274
f 1091/277 1092/276 1087/275 1088/274
f 1087/281 1092/280 1090/279 1086/278
f 1096/277 1095/274 1094/275 1093/276
f 1095/277 1098/274 1097/275 1094/276
f 1098/277 1100/274 1099/275 1097/276
f 1100/277 1096/274 1093/275 1099/276
f 1093/281 1094/278 1097/279 1099/280
f 1104/277 1103/276 1102/275 1101/274
f 1101/277 1102/276 1106/275 1105/274
f 1105/277 1106/276 1108/275 1107/274
f 1107/277 1108/276 1103/275 1104/274
f 1103/281 1108/280 1106/279 1102/278
f 1112/277 1111/274 1110/275 1109/276
f 1111/277 1114/274 1113/275 1110/276
f 1114/277 1116/274 1115/275 1113/276
f 1116/277 1112/274 1109/275 1115/276
f 1109/281 1110/278 1113/279 1115/280
f 1120/277 1119/276 1118/275 1117/274
f 1117/277 1118/276 1122/275 1121/274
f 1121/277 1122/276 1124/275 1123/274
f 1123/277 1124/276 1119/275 1120/274
f 1119/281 1124/280 1122/279 1118/278
f 1128/277 1127/274 1126/275 1125/276
f 1127/277 1130/274 1129/275 1126/276
f 1130/277 1132/274 1131/275 1129/276
f 1132/277 1128/274 1125/275 1131/276
f 1125/281 1126/278 1129/279 1131/280
f 1136/285 1135/284 1134/283 1133/282
f 1133/289 1134/288 1138/287 1137/286
f 1137/288 1138/292 1140/291 1139/290
f 1139/296 1140/295 1135/294 1136/293
f 1135/300 1140/299 1138/298 1134/297
f 1144/285 1143/284 1142/283 1141/282
f 1141/304 1142/303 1146/302 1145/301
f 1145/303 1146/285 1148/282 1147/305
f 1147/296 1148/295 1143/294 1144/293
f 1143/309 1148/308 1146/307 1142/306
f 1152/285 1151/284 1150/283 1149/282
f 1149/304 1150/303 1154/302 1153/301
f 1153/303 1154/285 1156/282 1155/305
f 1155/296 1156/295 1151/294 1152/293
f 1151/313 1156/312 1154/311 1150/310
f 1160/285 1159/284 1158/283 1157/282
f 1157/304 1158/303 1162/302 1161/301
f 1161/303 1162/285 1164/282 1163/305
f 1163/296 1164/295 1159/294 1160/293
f 1159/309 1164/308 1162/307 1158/306
o Track2
v 0.157268 0.071584 -1.001848
v 0.191412 0.085803 -1.001848
v 0.191412 0.071584 -1.001848
v 0.181778 0.071584 -1.001848
v 0.147634 0.071584 -1.001848
v 0.147634 0.085803 -1.001848
v 0.181778 0.041289 -1.001848
v 0.199523 0.025803 -1.001848
v 0.139523 0.025803 -1.001848
v 0.157268 0.041289 -1.001848
v 0.139523 0.041289 -1.001848
v 0.139523 0.025803 -2.001848
v 0.139523 0.041289 -2.001848
v 0.181778 0.041289 -2.001848
v 0.157268 0.041289 -2.001848
v 0.199523 0.025803 -2.001848
v 0.181778 0.071584 -2.001848
v 0.191412 0.085803 -2.001848
v 0.147634 0.085803 -2.001848
v 0.157268 0.071584 -2.001848
v 0.199523 0.041289 -2.001848
v 0.199523 0.041289 -1.001848
v 0.191412 0.071584 -2.001848
v 0.147634 0.071584 -2.001848
v 0.808588 0.071584 -1.001848
v 0.808588 0.085803 -1.001848
v 0.842732 0.071584 -1.001848
v 0.818222 0.071584 -1.001848
v 0.852366 0.085803 -1.001848
v 0.852366 0.071584 -1.001848
v 0.860477 0.041289 -1.001848
v 0.860477 0.025803 -1.001848
v 0.818222 0.041289 -1.001848
v 0.842732 0.041289 -1.001848
v 0.800477 0.025803 -1.001848
v 0.800477 0.041289 -1.001848
v 0.860477 0.025803 -2.001848
v 0.860477 0.041289 -2.001848
v 0.800477 0.025803 -2.001848
v 0.818222 0.041289 -2.001848
v 0.800477 0.041289 -2.001848
v 0.842732 0.041289 -2.001848
v 0.852366 0.071584 -2.001848
v 0.852366 0.085803 -2.001848
v 0.818222 0.071584 -2.001848
v 0.842732 0.071584 -2.001848
v 0.808588 0.085803 -2.001848
v 0.808588 0.071584 -2.001848
v 0.787867 -0.025279 -1.111848
v 0.787867 0.054721 -1.111848
v 0.817867 0.054721 -1.111848
v 0.817867 -0.025279 -1.111848
v 0.787867 -0.025279 -1.141848
v 0.787867 0.054721 -1.141848
v 0.817867 -0.025279 -1.141848
v 0.817867 0.054721 -1.141848
v 0.182133 0.054721 -1.111848
v 0.212133 0.054721 -1.111848
v 0.212133 -0.025279 -1.111848
v 0.182133 -0.025279 -1.111848
v 0.212133 0.054721 -1.141848
v 0.212133 -0.025279 -1.141848
v 0.182133 0.054721 -1.141848
v 0.182133 -0.025279 -1.141848
v 0.787867 -0.025279 -1.361848
v 0.787867 0.054721 -1.361848
v 0.817867 0.054721 -1.361848
v 0.817867 -0.025279 -1.361848
v 0.787867 -0.025279 -1.391848
v 0.787867 0.054721 -1.391848
v 0.817867 -0.025279 -1.391848
v 0.817867 0.054721 -1.391848
v 0.182133 0.054721 -1.361848
v 0.212133 0.054721 -1.361848
v 0.212133 -0.025279 -1.361848
v 0.182133 -0.025279 -1.361848
v 0.212133 0.054721 -1.391848
v 0.212133 -0.025279 -1.391848
v 0.182133 0.054721 -1.391848
v 0.182133 -0.025279 -1.391848
v 0.787867 -0.025279 -1.611848
v 0.787867 0.054721 -1.611848
v 0.817867 0.054721 -1.611848
v 0.817867 -0.025279 -1.611848
v 0.787867 -0.025279 -1.641848
v 0.787867 0.054721 -1.641848
v 0.817867 -0.025279 -1.641848
v 0.817867 0.054721 -1.641848
v 0.182133 0.054721 -1.611848
v 0.212133 0.054721 -1.611848
v 0.212133 -0.025279 -1.611848
v 0.182133 -0.025279 -1.611848
v 0.212133 0.054721 -1.641848
v 0.212133 -0.025279 -1.641848
v 0.182133 0.054721 -1.641848
v 0.182133 -0.025279 -1.641848
v 0.787867 -0.025279 -1.861848
v 0.787867 0.054721 -1.861848
v 0.817867 0.054721 -1.861848
v 0.817867 -0.025279 -1.861848
v 0.787867 -0.025279 -1.891848
v 0.787867 0.054721 -1.891848
v 0.817867 -0.025279 -1.891848
v 0.817867 0.054721 -1.891848
v 0.182133 0.054721 -1.861848
v 0.212133 0.054721 -1.861848
v 0.212133 -0.025279 -1.861848
v 0.182133 -0.025279 -1.861848
v 0.212133 0.054721 -1.891848
v 0.212133 -0.025279 -1.891848
v 0.182133 0.054721 -1.891848
v 0.182133 -0.025279 -1.891848
v 0.030000 -0.030000 -1.806848
v 0.030000 0.030000 -1.806848
v 0.970000 0.030000 -1.806848
v 0.970000 -0.030000 -1.806848
v 0.030000 -0.030000 -1.946848
v 0.030000 0.030000 -1.946848
v 0.970000 -0.030000 -1.946848
v 0.970000 0.030000 -1.946848
v 0.030000 -0.030000 -1.556848
v 0.030000 0.030000 -1.556848
v 0.970000 0.030000 -1.556848
v 0.970000 -0.030000 -1.556848
v 0.030000 -0.030000 -1.696848
v 0.030000 0.030000 -1.696848
v 0.970000 -0.030000 -1.696848
v 0.970000 0.030000 -1.696848
v 0.030000 -0.030000 -1.306848
v 0.030000 0.030000 -1.306848
v 0.970000 0.030000 -1.306848
v 0.970000 -0.030000 -1.306848
v 0.030000 -0.030000 -1.446848
v 0.030000 0.030000 -1.446848
v 0.970000 -0.030000 -1.446848
v 0.970000 0.030000 -1.446848
v 0.030000 -0.030000 -1.056848
v 0.030000 0.030000 -1.056848
v 0.970000 0.030000 -1.056848
v 0.970000 -0.030000 -1.056848
v 0.030000 -0.030000 -1.196848
v 0.030000 0.030000 -1.196848
v 0.970000 -0.030000 -1.196848
v 0.970000 0.030000 -1.196848
vt 0.980127 0.103062
vt 0.949641 0.115757
vt 0.949641 0.103062
vt 0.958243 0.103062
vt 0.988729 0.103062
vt 0.988729 0.115757
vt 0.958243 0.076013
vt 0.942399 0.062186
vt 0.995971 0.062186
vt 0.980127 0.076013
vt 0.000000 0.062150
vt 0.000000 0.048121
vt 0.905875 0.048121
vt 0.905875 0.062150
vt 0.980908 0.014240
vt 0.959024 0.014240
vt 0.943180 0.000413
vt 0.996752 0.000413
vt 0.980908 0.041289
vt 0.989510 0.053985
vt 0.950422 0.053985
vt 0.959024 0.041289
vt 0.000000 0.034093
vt 0.905875 0.034093
vt 0.000200 0.259595
vt 0.000200 0.219937
vt 0.906075 0.219937
vt 0.906075 0.259595
vt 0.905753 0.210448
vt -0.000122 0.210448
vt -0.000122 0.156096
vt 0.905753 0.156096
vt 0.905875 0.121202
vt 0.000000 0.121202
vt 0.000000 0.093759
vt 0.905875 0.093759
vt 0.905875 0.025761
vt 0.000000 0.025761
vt 0.000000 0.012881
vt 0.905875 0.012881
vt 0.906387 0.330358
vt 0.000512 0.330358
vt 0.000512 0.321630
vt 0.906387 0.321630
vt 0.000200 0.296828
vt 0.906075 0.296828
vt 0.906075 0.312903
vt 0.000200 0.312903
vt 0.905875 0.089593
vt 0.000000 0.089593
vt 0.000000 0.000000
vt 0.905875 0.000000
vt 0.000512 0.312903
vt 0.906387 0.312903
vt 0.000200 0.281378
vt 0.906075 0.281378
vt 0.906075 0.297453
vt 0.000200 0.297453
vt 0.995971 0.076013
vt 0.942399 0.076013
vt 0.996752 0.014240
vt 0.943180 0.014240
vt 0.950422 0.041289
vt 0.989510 0.041289
vt 0.999050 0.183297
vt 0.999050 0.342604
vt 0.939310 0.342604
vt 0.939310 0.183297
vt 0.985655 0.132863
vt 0.985655 0.179437
vt 0.939081 0.179437
vt 0.939081 0.132863
vt 0.979692 0.781451
vt 0.979692 0.844034
vt -0.000781 0.844034
vt -0.000781 0.781451
vt 0.146184 0.656284
vt 0.146184 0.718868
vt 0.000156 0.718868
vt 0.000156 0.656284
vt 0.980629 0.718868
vt 0.980629 0.781451
vt 0.000156 0.781451
vt 0.302823 0.656284
vt 0.302823 0.718868
vt 0.156795 0.718868
vt 0.156795 0.656284
vt 0.999534 0.505675
vt 0.999534 0.654611
vt -0.000466 0.654611
vt -0.000466 0.505675
vt 0.145247 0.656284
vt 0.145247 0.718868
vt -0.000781 0.718868
vt -0.000781 0.656284
vt 0.979692 0.718868
vt 1.000000 0.851064
vt 1.000000 1.000000
vt 0.000000 1.000000
vt 0.000000 0.851064
vt 0.999897 0.349106
vt 0.999897 0.498042
vt -0.000103 0.498042
vt -0.000103 0.349106
s off
f 1168/317 1167/316 1166/315 1165/314
f 1170/319 1169/318 1165/314 1166/315
f 1174/323 1173/322 1172/321 1171/320
f 1171/320 1168/317 1165/314 1174/323
f 1177/327 1176/326 1173/325 1175/324
f 1180/331 1176/330 1179/329 1178/328
f 1184/335 1183/334 1182/333 1181/332
f 1184/335 1181/332 1178/328 1179/329
f 1186/326 1172/337 1180/336 1185/325
f 1170/341 1166/340 1182/339 1183/338
f 1180/345 1172/344 1173/343 1176/342
f 1171/349 1178/348 1181/347 1168/346
f 1167/353 1187/352 1182/351 1166/350
f 1187/357 1167/356 1168/355 1181/354
f 1178/361 1171/360 1186/359 1185/358
f 1179/327 1174/324 1165/363 1184/362
f 1188/365 1169/364 1170/352 1183/353
f 1169/356 1188/357 1184/367 1165/366
f 1177/371 1175/370 1174/369 1179/368
f 1192/317 1191/314 1190/315 1189/316
f 1190/315 1191/314 1194/318 1193/319
f 1198/323 1197/320 1196/322 1195/372
f 1196/322 1197/320 1200/373 1199/321
f 1198/323 1191/314 1192/317 1197/320
f 1202/327 1195/324 1196/325 1201/326
f 1205/374 1204/328 1201/330 1203/331
f 1201/330 1204/328 1206/329 1202/375
f 1210/335 1209/332 1208/334 1207/376
f 1208/334 1209/332 1212/377 1211/333
f 1206/329 1204/328 1209/332 1210/335
f 1200/326 1205/325 1203/336 1199/337
f 1193/341 1208/338 1211/339 1190/340
f 1203/345 1201/342 1196/343 1199/344
f 1197/349 1192/346 1209/347 1204/348
f 1189/353 1190/350 1211/351 1212/352
f 1212/357 1209/354 1192/355 1189/356
f 1204/361 1205/358 1200/359 1197/360
f 1206/327 1210/362 1191/363 1198/324
f 1207/365 1208/353 1193/352 1194/364
f 1210/367 1207/357 1194/356 1191/366
f 1202/371 1206/368 1198/369 1195/370
f 1216/381 1215/380 1214/379 1213/378
f 1213/381 1214/380 1218/379 1217/378
f 1217/381 1218/380 1220/379 1219/378
f 1219/381 1220/380 1215/379 1216/378
f 1215/385 1220/384 1218/383 1214/382
f 1224/381 1223/378 1222/379 1221/380
f 1223/381 1226/378 1225/379 1222/380
f 1226/381 1228/378 1227/379 1225/380
f 1228/381 1224/378 1221/379 1227/380
f 1221/385 1222/382 1225/383 1227/384
f 1232/381 1231/380 1230/379 1229/378
f 1229/381 1230/380 1234/379 1233/378
f 1233/381 1234/380 1236/379 1235/378
f 1235/381 1236/380 1231/379 1232/378
f 1231/385 1236/384 1234/383 1230/382
f 1240/381 1239/378 1238/379 1237/380
f 1239/381 1242/378 1241/379 1238/380
f 1242/381 1244/378 1243/379 1241/380
f 1244/381 1240/378 1237/379 1243/380
f 1237/385 1238/382 1241/383 1243/384
f 1248/381 1247/380 1246/379 1245/378
f 1245/381 1246/380 1250/379 1249/378
f 1249/381 1250/380 1252/379 1251/378
f 1251/381 1252/380 1247/379 1248/378
f 1247/385 1252/384 1250/383 1246/382
f 1256/381 1255/378 1254/379 1253/380
f 1255/381 1258/378 1257/379 1254/380
f 1258/381 1260/378 1259/379 1257/380
f 1260/381 1256/378 1253/379 1259/380
f 1253/385 1254/382 1257/383 1259/384
f 1264/381 1263/380 1262/379 1261/378
f 1261/381 1262/380 1266/379 1265/378
f 1265/381 1266/380 1268/379 1267/378
f 1267/381 1268/380 1263/379 1264/378
f 1263/385 1268/384 1266/383 1262/382
f 1272/381 1271/378 1270/379 1269/380
f 1271/381 1274/378 1273/379 1270/380
f 1274/381 1276/378 1275/379 1273/380
f 1276/381 1272/378 1269/379 1275/380
f 1269/385 1270/382 1273/383 1275/384
f 1280/389 1279/388 1278/387 1277/386
f 1277/393 1278/392 1282/391 1281/390
f 1281/392 1282/396 1284/395 1283/394
f 1283/400 1284/399 1279/398 1280/397
f 1279/404 1284/403 1282/402 1278/401
f 1288/389 1287/388 1286/387 1285/386
f 1285/408 1286/407 1290/406 1289/405
f 1289/407 1290/389 1292/386 1291/409
f 1291/400 1292/399 1287/398 1288/397
f 1287/413 1292/412 1290/411 1286/410
f 1296/389 1295/388 1294/387 1293/386
f 1293/408 1294/407 1298/406 1297/405
f 1297/407 1298/389 1300/386 1299/409
f 1299/400 1300/399 1295/398 1296/397
f 1295/417 1300/416 1298/415 1294/414
f 1304/389 1303/388 1302/387 1301/386
f 1301/408 1302/407 1306/406 1305/405
f 1305/407 1306/389 1308/386 1307/409
f 1307/400 1308/399 1303/398 1304/397
f 1303/413 1308/412 1306/411 1302/410
o Track1
v 0.157268 0.071584 -0.001791
v 0.191412 0.085803 -0.001791
v 0.191412 0.071584 -0.001791
v 0.181778 0.071584 -0.001791
v 0.147634 0.071584 -0.001791
v 0.147634 0.085803 -0.001791
v 0.181778 0.041289 -0.001791
v 0.199523 0.025803 -0.001791
v 0.139523 0.025803 -0.001791
v 0.157268 0.041289 -0.001791
v 0.139523 0.041289 -0.001791
v 0.139523 0.025803 -1.001791
v 0.139523 0.041289 -1.001791
v 0.181778 0.041289 -1.001791
v 0.157268 0.041289 -1.001791
v 0.199523 0.025803 -1.001791
v 0.181778 0.071584 -1.001791
v 0.191412 0.085803 -1.001791
v 0.147634 0.085803 -1.001791
v 0.157268 0.071584 -1.001791
v 0.199523 0.041289 -1.001791
v 0.199523 0.041289 -0.001791
v 0.191412 0.071584 -1.001791
v 0.147634 0.071584 -1.001791
v 0.808588 0.071584 -0.001791
v 0.808588 0.085803 -0.001791
v 0.842732 0.071584 -0.001791
v 0.818222 0.071584 -0.001791
v 0.852366 0.085803 -0.001791
v 0.852366 0.071584 -0.001791
v 0.860477 0.041289 -0.001791
v 0.860477 0.025803 -0.001791
v 0.818222 0.041289 -0.001791
v 0.842732 0.041289 -0.001791
v 0.800477 0.025803 -0.001791
v 0.800477 0.041289 -0.001791
v 0.860477 0.025803 -1.001791
v 0.860477 0.041289 -1.001791
v 0.800477 0.025803 -1.001791
v 0.818222 0.041289 -1.001791
v 0.800477 0.041289 -1.001791
v 0.842732 0.041289 -1.001791
v 0.852366 0.071584 -1.001791
v 0.852366 0.085803 -1.001791
v 0.818222 0.071584 -1.001791
v 0.842732 0.071584 -1.001791
v 0.808588 0.085803 -1.001791
v 0.808588 0.071584 -1.001791
v 0.787867 -0.025279 -0.111791
v 0.787867 0.054721 -0.111791
v 0.817867 0.054721 -0.111791
v 0.817867 -0.025279 -0.111791
v 0.787867 -0.025279 -0.141791
v 0.787867 0.054721 -0.141791
v 0.817867 -0.025279 -0.141791
v 0.817867 0.054721 -0.141791
v 0.182133 0.054721 -0.111791
v 0.212133 0.054721 -0.111791
v 0.212133 -0.025279 -0.111791
v 0.182133 -0.025279 -0.111791
v 0.212133 0.054721 -0.141791
v 0.212133 -0.025279 -0.141791
v 0.182133 0.054721 -0.141791
v 0.182133 -0.025279 -0.141791
v 0.787867 -0.025279 -0.361791
v 0.787867 0.054721 -0.361791
v 0.817867 0.054721 -0.361791
v 0.817867 -0.025279 -0.361791
v 0.787867 -0.025279 -0.391791
v 0.787867 0.054721 -0.391791
v 0.817867 -0.025279 -0.391791
v 0.817867 0.054721 -0.391791
v 0.182133 0.054721 -0.361791
v 0.212133 0.054721 -0.361791
v 0.212133 -0.025279 -0.361791
v 0.182133 -0.025279 -0.361791
v 0.212133 0.054721 -0.391791
v 0.212133 -0.025279 -0.391791
v 0.182133 0.054721 -0.391791
v 0.182133 -0.025279 -0.391791
v 0.787867 -0.025279 -0.611791
v 0.787867 0.054721 -0.611791
v 0.817867 0.054721 -0.611791
v 0.817867 -0.025279 -0.611791
v 0.787867 -0.025279 -0.641791
v 0.787867 0.054721 -0.641791
v 0.817867 -0.025279 -0.641791
v 0.817867 0.054721 -0.641791
v 0.182133 0.054721 -0.611791
v 0.212133 0.054721 -0.611791
v 0.212133 -0.025279 -0.611791
v 0.182133 -0.025279 -0.611791
v 0.212133 0.054721 -0.641791
v 0.212133 -0.025279 -0.641791
v 0.182133 0.054721 -0.641791
v 0.182133 -0.025279 -0.641791
v 0.787867 -0.025279 -0.861791
v 0.787867 0.054721 -0.861791
v 0.817867 0.054721 -0.861791
v 0.817867 -0.025279 -0.861791
v 0.787867 -0.025279 -0.891791
v 0.787867 0.054721 -0.891791
v 0.817867 -0.025279 -0.891791
v 0.817867 0.054721 -0.891791
v 0.182133 0.054721 -0.861791
v 0.212133 0.054721 -0.861791
v 0.212133 -0.025279 -0.861791
v 0.182133 -0.025279 -0.861791
v 0.212133 0.054721 -0.891791
v 0.212133 -0.025279 -0.891791
v 0.182133 0.054721 -0.891791
v 0.182133 -0.025279 -0.891791
v 0.030000 -0.030000 -0.806791
v 0.030000 0.030000 -0.806791
v 0.970000 0.030000 -0.806791
v 0.970000 -0.030000 -0.806791
v 0.030000 -0.030000 -0.946791
v 0.030000 0.030000 -0.946791
v 0.970000 -0.030000 -0.946791
v 0.970000 0.030000 -0.946791
v 0.030000 -0.030000 -0.556791
v 0.030000 0.030000 -0.556791
v 0.970000 0.030000 -0.556791
v 0.970000 -0.030000 -0.556791
v 0.030000 -0.030000 -0.696791
v 0.030000 0.030000 -0.696791
v 0.970000 -0.030000 -0.696791
v 0.970000 0.030000 -0.696791
v 0.030000 -0.030000 -0.306791
v 0.030000 0.030000 -0.306791
v 0.970000 0.030000 -0.306791
v 0.970000 -0.030000 -0.306791
v 0.030000 -0.030000 -0.446791
v 0.030000 0.030000 -0.446791
v 0.970000 -0.030000 -0.446791
v 0.970000 0.030000 -0.446791
v 0.030000 -0.030000 -0.056791
v 0.030000 0.030000 -0.056791
v 0.970000 0.030000 -0.056791
v 0.970000 -0.030000 -0.056791
v 0.030000 -0.030000 -0.196791
v 0.030000 0.030000 -0.196791
v 0.970000 -0.030000 -0.196791
v 0.970000 0.030000 -0.196791
vt 0.980127 0.103062
vt 0.949641 0.115757
vt 0.949641 0.103062
vt 0.958243 0.103062
vt 0.988729 0.103062
vt 0.988729 0.115757
vt 0.958243 0.076013
vt 0.942399 0.062186
vt 0.995971 0.062186
vt 0.980127 0.076013
vt 0.000000 0.062150
vt 0.000000 0.048121
vt 0.905875 0.048121
vt 0.905875 0.062150
vt 0.980908 0.014240
vt 0.959024 0.014240
vt 0.943180 0.000413
vt 0.996752 0.000413
vt 0.980908 0.041289
vt 0.989510 0.053985
vt 0.950422 0.053985
vt 0.959024 0.041289
vt 0.000000 0.034093
vt 0.905875 0.034093
vt 0.000200 0.259595
vt 0.000200 0.219937
vt 0.906075 0.219937
vt 0.906075 0.259595
vt 0.905753 0.210448
vt -0.000122 0.210448
vt -0.000122 0.156096
vt 0.905753 0.156096
vt 0.905875 0.121202
vt 0.000000 0.121202
vt 0.000000 0.093759
vt 0.905875 0.093759
vt 0.905875 0.025761
vt 0.000000 0.025761
vt 0.000000 0.012881
vt 0.905875 0.012881
vt 0.906387 0.330358
vt 0.000512 0.330358
vt 0.000512 0.321630
vt 0.906387 0.321630
vt 0.000200 0.296828
vt 0.906075 0.296828
vt 0.906075 0.312903
vt 0.000200 0.312903
vt 0.905875 0.089593
vt 0.000000 0.089593
vt 0.000000 0.000000
vt 0.905875 0.000000
vt 0.000512 0.312903
vt 0.906387 0.312903
vt 0.000200 0.281378
vt 0.906075 0.281378
vt 0.906075 0.297453
vt 0.000200 0.297453
vt 0.995971 0.076013
vt 0.942399 0.076013
vt 0.996752 0.014240
vt 0.943180 0.014240
vt 0.950422 0.041289
vt 0.989510 0.041289
vt 0.999050 0.183297
vt 0.999050 0.342604
vt 0.939310 0.342604
vt 0.939310 0.183297
vt 0.985655 0.132863
vt 0.985655 0.179437
vt 0.939081 0.179437
vt 0.939081 0.132863
vt 0.979692 0.781451
vt 0.979692 0.844034
vt -0.000781 0.844034
vt -0.000781 0.781451
vt 0.146184 0.656284
vt 0.146184 0.718868
vt 0.000156 0.718868
vt 0.000156 0.656284
vt 0.980629 0.718868
vt 0.980629 0.781451
vt 0.000156 0.781451
vt 0.302823 0.656284
vt 0.302823 0.718868
vt 0.156795 0.718868
vt 0.156795 0.656284
vt 0.999534 0.505675
vt 0.999534 0.654611
vt -0.000466 0.654611
vt -0.000466 0.505675
vt 0.145247 0.656284
vt 0.145247 0.718868
vt -0.000781 0.718868
vt -0.000781 0.656284
vt 0.979692 0.718868
vt 1.000000 0.851064
vt 1.000000 1.000000
vt 0.000000 1.000000
vt 0.000000 0.851064
vt 0.999897 0.349106
vt 0.999897 0.498042
vt -0.000103 0.498042
vt -0.000103 0.349106
s off
f 1312/421 1311/420 1310/419 1309/418
f 1314/423 1313/422 1309/418 1310/419
f 1318/427 1317/426 1316/425 1315/424
f 1315/424 1312/421 1309/418 1318/427
f 1321/431 1320/430 1317/429 1319/428
f 1324/435 1320/434 1323/433 1322/432
f 1328/439 1327/438 1326/437 1325/436
f 1328/439 1325/436 1322/432 1323/433
f 1330/430 1316/441 1324/440 1329/429
f 1314/445 1310/444 1326/443 1327/442
f 1324/449 1316/448 1317/447 1320/446
f 1315/453 1322/452 1325/451 1312/450
f 1311/457 1331/456 1326/455 1310/454
f 1331/461 1311/460 1312/459 1325/458
f 1322/465 1315/464 1330/463 1329/462
f 1323/431 1318/428 1309/467 1328/466
f 1332/469 1313/468 1314/456 1327/457
f 1313/460 1332/461 1328/471 1309/470
f 1321/475 1319/474 1318/473 1323/472
f 1336/421 1335/418 1334/419 1333/420
f 1334/419 1335/418 1338/422 1337/423
f 1342/427 1341/424 1340/426 1339/476
f 1340/426 1341/424 1344/477 1343/425
f 1342/427 1335/418 1336/421 1341/424
f 1346/431 1339/428 1340/429 1345/430
f 1349/478 1348/432 1345/434 1347/435
f 1345/434 1348/432 1350/433 1346/479
f 1354/439 1353/436 1352/438 1351/480
f 1352/438 1353/436 1356/481 1355/437
f 1350/433 1348/432 1353/436 1354/439
f 1344/430 1349/429 1347/440 1343/441
f 1337/445 1352/442 1355/443 1334/444
f 1347/449 1345/446 1340/447 1343/448
f 1341/453 1336/450 1353/451 1348/452
f 1333/457 1334/454 1355/455 1356/456
f 1356/461 1353/458 1336/459 1333/460
f 1348/465 1349/462 1344/463 1341/464
f 1350/431 1354/466 1335/467 1342/428
f 1351/469 1352/457 1337/456 1338/468
f 1354/471 1351/461 1338/460 1335/470
f 1346/475 1350/472 1342/473 1339/474
f 1360/485 1359/484 1358/483 1357/482
f 1357/485 1358/484 1362/483 1361/482
f 1361/485 1362/484 1364/483 1363/482
f 1363/485 1364/484 1359/483 1360/482
f 1359/489 1364/488 1362/487 1358/486
f 1368/485 1367/482 1366/483 1365/484
f 1367/485 1370/482 1369/483 1366/484
f 1370/485 1372/482 1371/483 1369/484
f 1372/485 1368/482 1365/483 1371/484
f 1365/489 1366/486 1369/487 1371/488
f 1376/485 1375/484 1374/483 1373/482
f 1373/485 1374/484 1378/483 1377/482
f 1377/485 1378/484 1380/483 1379/482
f 1379/485 1380/484 1375/483 1376/482
f 1375/489 1380/488 1378/487 1374/486
f 1384/485 1383/482 1382/483 1381/484
f 1383/485 1386/482 1385/483 1382/484
f 1386/485 1388/482 1387/483 1385/484
f 1388/485 1384/482 1381/483 1387/484
f 1381/489 1382/486 1385/487 1387/488
f 1392/485 1391/484 1390/483 1389/482
f 1389/485 1390/484 1394/483 1393/482
f 1393/485 1394/484 1396/483 1395/482
f 1395/485 1396/484 1391/483 1392/482
f 1391/489 1396/488 1394/487 1390/486
f 1400/485 1399/482 1398/483 1397/484
f 1399/485 1402/482 1401/483 1398/484
f 1402/485 1404/482 1403/483 1401/484
f 1404/485 1400/482 1397/483 1403/484
f 1397/489 1398/486 1401/487 1403/488
f 1408/485 1407/484 1406/483 1405/482
f 1405/485 1406/484 1410/483 1409/482
f 1409/485 1410/484 1412/483 1411/482
f 1411/485 1412/484 1407/483 1408/482
f 1407/489 1412/488 1410/487 1406/486
f 1416/485 1415/482 1414/483 1413/484
f 1415/485 1418/482 1417/483 1414/484
f 1418/485 1420/482 1419/483 1417/484
f 1420/485 1416/482 1413/483 1419/484
f 1413/489 1414/486 1417/487 1419/488
f 1424/493 1423/492 1422/491 1421/490
f 1421/497 1422/496 1426/495 1425/494
f 1425/496 1426/500 1428/499 1427/498
f 1427/504 1428/503 1423/502 1424/501
f 1423/508 1428/507 1426/506 1422/505
f 1432/493 1431/492 1430/491 1429/490
f 1429/512 1430/511 1434/510 1433/509
f 1433/511 1434/493 1436/490 1435/513
f 1435/504 1436/503 1431/502 1432/501
f 1431/517 1436/516 1434/515 1430/514
f 1440/493 1439/492 1438/491 1437/490
f 1437/512 1438/511 1442/510 1441/509
f 1441/511 1442/493 1444/490 1443/513
f 1443/504 1444/503 1439/502 1440/501
f 1439/521 1444/520 1442/519 1438/518
f 1448/493 1447/492 1446/491 1445/490
f 1445/512 1446/511 1450/510 1449/509
f 1449/511 1450/493 1452/490 1451/513
f 1451/504 1452/503 1447/502 1448/501
f 1447/517 1452/516 1450/515 1446/514
o Track
v 0.157268 0.071584 0.997553
v 0.191412 0.085803 0.997553
v 0.191412 0.071584 0.997553
v 0.181778 0.071584 0.997553
v 0.147634 0.071584 0.997553
v 0.147634 0.085803 0.997553
v 0.181778 0.041289 0.997553
v 0.199523 0.025803 0.997553
v 0.139523 0.025803 0.997553
v 0.157268 0.041289 0.997553
v 0.139523 0.041289 0.997553
v 0.139523 0.025803 -0.002447
v 0.139523 0.041289 -0.002447
v 0.181778 0.041289 -0.002447
v 0.157268 0.041289 -0.002447
v 0.199523 0.025803 -0.002447
v 0.181778 0.071584 -0.002447
v 0.191412 0.085803 -0.002447
v 0.147634 0.085803 -0.002447
v 0.157268 0.071584 -0.002447
v 0.199523 0.041289 -0.002447
v 0.199523 0.041289 0.997553
v 0.191412 0.071584 -0.002447
v 0.147634 0.071584 -0.002447
v 0.808588 0.071584 0.997553
v 0.808588 0.085803 0.997553
v 0.842732 0.071584 0.997553
v 0.818222 0.071584 0.997553
v 0.852366 0.085803 0.997553
v 0.852366 0.071584 0.997553
v 0.860477 0.041289 0.997553
v 0.860477 0.025803 0.997553
v 0.818222 0.041289 0.997553
v 0.842732 0.041289 0.997553
v 0.800477 0.025803 0.997553
v 0.800477 0.041289 0.997553
v 0.860477 0.025803 -0.002447
v 0.860477 0.041289 -0.002447
v 0.800477 0.025803 -0.002447
v 0.818222 0.041289 -0.002447
v 0.800477 0.041289 -0.002447
v 0.842732 0.041289 -0.002447
v 0.852366 0.071584 -0.002447
v 0.852366 0.085803 -0.002447
v 0.818222 0.071584 -0.002447
v 0.842732 0.071584 -0.002447
v 0.808588 0.085803 -0.002447
v 0.808588 0.071584 -0.002447
v 0.787867 -0.025279 0.887553
v 0.787867 0.054721 0.887553
v 0.817867 0.054721 0.887553
v 0.817867 -0.025279 0.887553
v 0.787867 -0.025279 0.857553
v 0.787867 0.054721 0.857553
v 0.817867 -0.025279 0.857553
v 0.817867 0.054721 0.857553
v 0.182133 0.054721 0.887553
v 0.212133 0.054721 0.887553
v 0.212133 -0.025279 0.887553
v 0.182133 -0.025279 0.887553
v 0.212133 0.054721 0.857553
v 0.212133 -0.025279 0.857553
v 0.182133 0.054721 0.857553
v 0.182133 -0.025279 0.857553
v 0.787867 -0.025279 0.637553
v 0.787867 0.054721 0.637553
v 0.817867 0.054721 0.637553
v 0.817867 -0.025279 0.637553
v 0.787867 -0.025279 0.607553
v 0.787867 0.054721 0.607553
v 0.817867 -0.025279 0.607553
v 0.817867 0.054721 0.607553
v 0.182133 0.054721 0.637553
v 0.212133 0.054721 0.637553
v 0.212133 -0.025279 0.637553
v 0.182133 -0.025279 0.637553
v 0.212133 0.054721 0.607553
v 0.212133 -0.025279 0.607553
v 0.182133 0.054721 0.607553
v 0.182133 -0.025279 0.607553
v 0.787867 -0.025279 0.387553
v 0.787867 0.054721 0.387553
v 0.817867 0.054721 0.387553
v 0.817867 -0.025279 0.387553
v 0.787867 -0.025279 0.357553
v 0.787867 0.054721 0.357553
v 0.817867 -0.025279 0.357553
v 0.817867 0.054721 0.357553
v 0.182133 0.054721 0.387553
v 0.212133 0.054721 0.387553
v 0.212133 -0.025279 0.387553
v 0.182133 -0.025279 0.387553
v 0.212133 0.054721 0.357553
v 0.212133 -0.025279 0.357553
v 0.182133 0.054721 0.357553
v 0.182133 -0.025279 0.357553
v 0.787867 -0.025279 0.137553
v 0.787867 0.054721 0.137553
v 0.817867 0.054721 0.137553
v 0.817867 -0.025279 0.137553
v 0.787867 -0.025279 0.107553
v 0.787867 0.054721 0.107553
v 0.817867 -0.025279 0.107553
v 0.817867 0.054721 0.107553
v 0.182133 0.054721 0.137553
v 0.212133 0.054721 0.137553
v 0.212133 -0.025279 0.137553
v 0.182133 -0.025279 0.137553
v 0.212133 0.054721 0.107553
v 0.212133 -0.025279 0.107553
v 0.182133 0.054721 0.107553
v 0.182133 -0.025279 0.107553
v 0.030000 -0.030000 0.192553
v 0.030000 0.030000 0.192553
v 0.970000 0.030000 0.192553
v 0.970000 -0.030000 0.192553
v 0.030000 -0.030000 0.052553
v 0.030000 0.030000 0.052553
v 0.970000 -0.030000 0.052553
v 0.970000 0.030000 0.052553
v 0.030000 -0.030000 0.442553
v 0.030000 0.030000 0.442553
v 0.970000 0.030000 0.442553
v 0.970000 -0.030000 0.442553
v 0.030000 -0.030000 0.302553
v 0.030000 0.030000 0.302553
v 0.970000 -0.030000 0.302553
v 0.970000 0.030000 0.302553
v 0.030000 -0.030000 0.692553
v 0.030000 0.030000 0.692553
v 0.970000 0.030000 0.692553
v 0.970000 -0.030000 0.692553
v 0.030000 -0.030000 0.552553
v 0.030000 0.030000 0.552553
v 0.970000 -0.030000 0.552553
v 0.970000 0.030000 0.552553
v 0.030000 -0.030000 0.942553
v 0.030000 0.030000 0.942553
v 0.970000 0.030000 0.942553
v 0.970000 -0.030000 0.942553
v 0.030000 -0.030000 0.802553
v 0.030000 0.030000 0.802553
v 0.970000 -0.030000 0.802553
v 0.970000 0.030000 0.802553
vt 0.980127 0.103062
vt 0.949641 0.115757
vt 0.949641 0.103062
vt 0.958243 0.103062
vt 0.988729 0.103062
vt 0.988729 0.115757
vt 0.958243 0.076013
vt 0.942399 0.062186
vt 0.995971 0.062186
vt 0.980127 0.076013
vt 0.000000 0.062150
vt 0.000000 0.048121
vt 0.905875 0.048121
vt 0.905875 0.062150
vt 0.980908 0.014240
vt 0.959024 0.014240
vt 0.943180 0.000413
vt 0.996752 0.000413
vt 0.980908 0.041289
vt 0.989510 0.053985
vt 0.950422 0.053985
vt 0.959024 0.041289
vt 0.000000 0.034093
vt 0.905875 0.034093
vt 0.000200 0.259595
vt 0.000200 0.219937
vt 0.906075 0.219937
vt 0.906075 0.259595
vt 0.905753 0.210448
vt -0.000122 0.210448
vt -0.000122 0.156096
vt 0.905753 0.156096
vt 0.905875 0.121202
vt 0.000000 0.121202
vt 0.000000 0.093759
vt 0.905875 0.093759
vt 0.905875 0.025761
vt 0.000000 0.025761
vt 0.000000 0.012881
vt 0.905875 0.012881
vt 0.906387 0.330358
vt 0.000512 0.330358
vt 0.000512 0.321630
vt 0.906387 0.321630
vt 0.000200 0.296828
vt 0.906075 0.296828
vt 0.906075 0.312903
vt 0.000200 0.312903
vt 0.905875 0.089593
vt 0.000000 0.089593
vt 0.000000 0.000000
vt 0.905875 0.000000
vt 0.000512 0.312903
vt 0.906387 0.312903
vt 0.000200 0.281378
vt 0.906075 0.281378
vt 0.906075 0.297453
vt 0.000200 0.297453
vt 0.995971 0.076013
vt 0.942399 0.076013
vt 0.996752 0.014240
vt 0.943180 0.014240
vt 0.950422 0.041289
vt 0.989510 0.041289
vt 0.999050 0.183297
vt 0.999050 0.342604
vt 0.939310 0.342604
vt 0.939310 0.183297
vt 0.985655 0.132863
vt 0.985655 0.179437
vt 0.939081 0.179437
vt 0.939081 0.132863
vt 0.979692 0.781451
vt 0.979692 0.844034
vt -0.000781 0.844034
vt -0.000781 0.781451
vt 0.146184 0.656284
vt 0.146184 0.718868
vt 0.000156 0.718868
vt 0.000156 0.656284
vt 0.980629 0.718868
vt 0.980629 0.781451
vt 0.000156 0.781451
vt 0.302823 0.656284
vt 0.302823 0.718868
vt 0.156795 0.718868
vt 0.156795 0.656284
vt 0.999534 0.505675
vt 0.999534 0.654611
vt -0.000466 0.654611
vt -0.000466 0.505675
vt 0.145247 0.656284
vt 0.145247 0.718868
vt -0.000781 0.718868
vt -0.000781 0.656284
vt 0.979692 0.718868
vt 1.000000 0.851064
vt 1.000000 1.000000
vt 0.000000 1.000000
vt 0.000000 0.851064
vt 0.999897 0.349106
vt 0.999897 0.498042
vt -0.000103 0.498042
vt -0.000103 0.349106
s off
f 1456/525 1455/524 1454/523 1453/522
f 1458/527 1457/526 1453/522 1454/523
f 1462/531 1461/530 1460/529 1459/528
f 1459/528 1456/525 1453/522 1462/531
f 1465/535 1464/534 1461/533 1463/532
f 1468/539 1464/538 1467/537 1466/536
f 1472/543 1471/542 1470/541 1469/540
f 1472/543 1469/540 1466/536 1467/537
f 1474/534 1460/545 1468/544 1473/533
f 1458/549 1454/548 1470/547 1471/546
f 1468/553 1460/552 1461/551 1464/550
f 1459/557 1466/556 1469/555 1456/554
f 1455/561 1475/560 1470/559 1454/558
f 1475/565 1455/564 1456/563 1469/562
f 1466/569 1459/568 1474/567 1473/566
f 1467/535 1462/532 1453/571 1472/570
f 1476/573 1457/572 1458/560 1471/561
f 1457/564 1476/565 1472/575 1453/574
f 1465/579 1463/578 1462/577 1467/576
f 1480/525 1479/522 1478/523 1477/524
f 1478/523 1479/522 1482/526 1481/527
f 1486/531 1485/528 1484/530 1483/580
f 1484/530 1485/528 1488/581 1487/529
f 1486/531 1479/522 1480/525 1485/528
f 1490/535 1483/532 1484/533 1489/534
f 1493/582 1492/536 1489/538 1491/539
f 1489/538 1492/536 1494/537 1490/583
f 1498/543 1497/540 1496/542 1495/584
f 1496/542 1497/540 1500/585 1499/541
f 1494/537 1492/536 1497/540 1498/543
f 1488/534 1493/533 1491/544 1487/545
f 1481/549 1496/546 1499/547 1478/548
f 1491/553 1489/550 1484/551 1487/552
f 1485/557 1480/554 1497/555 1492/556
f 1477/561 1478/558 1499/559 1500/560
f 1500/565 1497/562 1480/563 1477/564
f 1492/569 1493/566 1488/567 1485/568
f 1494/535 1498/570 1479/571 1486/532
f 1495/573 1496/561 1481/560 1482/572
f 1498/575 1495/565 1482/564 1479/574
f 1490/579 1494/576 1486/577 1483/578
f 1504/589 1503/588 1502/587 1501/586
f 1501/589 1502/588 1506/587 1505/586
f 1505/589 1506/588 1508/587 1507/586
f 1507/589 1508/588 1503/587 1504/586
f 1503/593 1508/592 1506/591 1502/590
f 1512/589 1511/586 1510/587 1509/588
f 1511/589 1514/586 1513/587 1510/588
f 1514/589 1516/586 1515/587 1513/588
f 1516/589 1512/586 1509/587 1515/588
f 1509/593 1510/590 1513/591 1515/592
f 1520/589 1519/588 1518/587 1517/586
f 1517/589 1518/588 1522/587 1521/586
f 1521/589 1522/588 1524/587 1523/586
f 1523/589 1524/588 1519/587 1520/586
f 1519/593 1524/592 1522/591 1518/590
f 1528/589 1527/586 1526/587 1525/588
f 1527/589 1530/586 1529/587 1526/588
f 1530/589 1532/586 1531/587 1529/588
f 1532/589 1528/586 1525/587 1531/588
f 1525/593 1526/590 1529/591 1531/592
f 1536/589 1535/588 1534/587 1533/586
f 1533/589 1534/588 1538/587 1537/586
f 1537/589 1538/588 1540/587 1539/586
f 1539/589 1540/588 1535/587 1536/586
f 1535/593 1540/592 1538/591 1534/590
f 1544/589 1543/586 1542/587 1541/588
f 1543/589 1546/586 1545/587 1542/588
f 1546/589 1548/586 1547/587 1545/588
f 1548/589 1544/586 1541/587 1547/588
f 1541/593 1542/590 1545/591 1547/592
f 1552/589 1551/588 1550/587 1549/586
f 1549/589 1550/588 1554/587 1553/586
f 1553/589 1554/588 1556/587 1555/586
f 1555/589 1556/588 1551/587 1552/586
f 1551/593 1556/592 1554/591 1550/590
f 1560/589 1559/586 1558/587 1557/588
f 1559/589 1562/586 1561/587 1558/588
f 1562/589 1564/586 1563/587 1561/588
f 1564/589 1560/586 1557/587 1563/588
f 1557/593 1558/590 1561/591 1563/592
f 1568/597 1567/596 1566/595 1565/594
f 1565/601 1566/600 1570/599 1569/598
f 1569/600 1570/604 1572/603 1571/602
f 1571/608 1572/607 1567/606 1568/605
f 1567/612 1572/611 1570/610 1566/609
f 1576/597 1575/596 1574/595 1573/594
f 1573/616 1574/615 1578/614 1577/613
f 1577/615 1578/597 1580/594 1579/617
f 1579/608 1580/607 1575/606 1576/605
f 1575/621 1580/620 1578/619 1574/618
f 1584/597 1583/596 1582/595 1581/594
f 1581/616 1582/615 1586/614 1585/613
f 1585/615 1586/597 1588/594 1587/617
f 1587/608 1588/607 1583/606 1584/605
f 1583/625 1588/624 1586/623 1582/622
f 1592/597 1591/596 1590/595 1589/594
f 1589/616 1590/615 1594/614 1593/613
f 1593/615 1594/597 1596/594 1595/617
f 1595/608 1596/607 1591/606 1592/605
f 1591/621 1596/620 1594/619 1590/618
