mtllib track_switch_small_right_active.mtl
usemtl Mat_1
# WaveFront *.obj file (generated by CINEMA 4D)

g Switch_a
v 0.144823 0.025803 1.000000
v 0.084823 0.025803 1.000000
v 0.102568 0.041289 0.524000
v 0.084823 0.025803 0.524000
v 0.102568 0.041289 1.000000
v 0.092934 0.085803 1.000000
v 0.136712 0.085803 1.000000
v 0.127078 0.071584 0.524000
v 0.092934 0.071584 0.524000
v 0.084823 0.041289 1.000000
v 0.127078 0.071584 1.000000
v 0.092934 0.071584 1.000000
v 0.092934 0.085803 0.524000
v 0.127078 0.041289 1.000000
v 0.102568 0.071584 1.000000
v 0.102568 0.071584 0.524000
v 0.136712 0.071584 0.524000
v 0.136712 0.085803 0.524000
v 0.084823 0.041289 0.524000
v 0.136712 0.071584 1.000000
v 0.127078 0.041289 0.524000
v 0.144823 0.025803 0.524000
v 0.144823 0.041289 1.000000
v 0.144823 0.041289 0.524000
v 0.085149 0.025803 0.521941
v 0.413850 0.085803 -0.321779
v 0.404687 0.071584 -0.324756
v 0.102025 0.071584 0.527425
v 0.134499 0.071584 0.537976
v 0.092863 0.085803 0.524448
v 0.134499 0.085803 0.537976
v 0.381377 0.041289 -0.332330
v 0.085149 0.041289 0.521941
v 0.125336 0.041289 0.534999
v 0.364500 0.025803 -0.337814
v 0.142212 0.041289 0.540483
v 0.281888 0.025803 0.110605
v 0.224825 0.025803 0.092064
v 0.232538 0.085803 0.094570
v 0.274174 0.085803 0.108099
v 0.224825 0.041289 0.092064
v 0.265011 0.041289 0.105121
v 0.241701 0.041289 0.097547
v 0.265011 0.071584 0.105121
v 0.232538 0.071584 0.094570
v 0.241701 0.071584 0.097547
v 0.274174 0.071584 0.108099
v 0.281888 0.041289 0.110605
v 0.679666 0.025803 -0.670079
v 0.631125 0.025803 -0.705346
v 0.637687 0.085803 -0.700579
v 0.673105 0.085803 -0.674846
v 0.631125 0.041289 -0.705346
v 0.665310 0.041289 -0.680509
v 0.645481 0.041289 -0.694916
v 0.665310 0.071584 -0.680509
v 0.637687 0.071584 -0.700579
v 0.645481 0.071584 -0.694916
v 0.673105 0.071584 -0.674846
v 0.679666 0.041289 -0.670079
v 0.421564 0.025803 -0.319273
v 0.372214 0.071584 -0.335307
v 0.102025 0.041289 0.527425
v 0.142212 0.025803 0.540483
v 0.381377 0.071584 -0.332330
v 0.404687 0.041289 -0.324756
v 0.413850 0.071584 -0.321779
v 0.125336 0.071584 0.534999
v 0.092863 0.071584 0.524448
v 0.364500 0.041289 -0.337814
v 0.421564 0.041289 -0.319273
v 0.372214 0.085803 -0.335307
v 1.288791 0.071584 -1.303990
v 1.268721 0.071584 -1.331613
v 1.274384 0.071584 -1.323819
v 1.294454 0.071584 -1.296195
v 1.299221 0.041289 -1.289634
v 0.413987 0.025803 -0.304403
v 0.365446 0.025803 -0.339671
v 0.896804 0.025803 -1.071022
v 0.945345 0.025803 -1.035755
v 0.372008 0.085803 -0.334903
v 0.407426 0.085803 -0.309171
v 0.365446 0.041289 -0.339671
v 0.896804 0.041289 -1.071022
v 0.903366 0.085803 -1.066255
v 0.399631 0.041289 -0.314834
v 0.379802 0.041289 -0.329240
v 0.399631 0.071584 -0.314834
v 0.930989 0.071584 -1.046185
v 0.372008 0.071584 -0.334903
v 0.379802 0.071584 -0.329240
v 0.911160 0.041289 -1.060592
v 0.903366 0.071584 -1.066255
v 0.911160 0.071584 -1.060592
v 0.930989 0.041289 -1.046185
v 1.796082 -0.025279 -0.879055
v 1.796082 0.054721 -0.879055
v 1.780459 -0.025279 -0.904666
v 1.780459 0.054721 -0.904666
v 1.806070 -0.025279 -0.920289
v 1.806070 0.054721 -0.920289
v 1.821693 -0.025279 -0.894678
v 1.821693 0.054721 -0.894678
v 0.888129 -0.030000 -0.976793
v 0.888129 0.030000 -0.976793
v 0.888129 -0.030000 -1.167162
v 0.888129 0.030000 -1.167162
v 0.807939 -0.030000 -1.056768
v 1.636541 -0.030000 -1.034973
v 1.636541 0.030000 -1.034973
v 1.636541 -0.030000 -1.303800
v 1.828357 -0.030000 -0.720537
v 1.828357 0.030000 -0.720537
v 1.636541 0.030000 -1.303800
v 1.623150 -0.030000 -1.056924
v 1.623150 0.030000 -1.056924
v 1.636541 0.030000 -1.056924
v 1.947874 -0.030000 -0.793447
v 1.947874 0.030000 -0.793447
v 1.583147 -0.025279 -0.728837
v 1.583147 0.054721 -0.728837
v 1.564582 -0.025279 -0.752403
v 1.564582 0.054721 -0.752403
v 1.588148 -0.025279 -0.770968
v 1.588148 0.054721 -0.770968
v 1.606713 -0.025279 -0.747402
v 1.606713 0.054721 -0.747402
v 0.407426 0.071584 -0.309171
v 0.938784 0.071584 -1.040522
v 0.945345 0.041289 -1.035755
v 0.413987 0.041289 -0.304403
v 0.938784 0.085803 -1.040522
v 1.388905 -0.030000 -0.886525
v 1.388905 0.030000 -0.886525
v 1.388905 -0.030000 -1.112758
v 1.634088 -0.030000 -0.575297
v 1.634088 0.030000 -0.575297
v 1.388905 0.030000 -1.112758
v 1.255535 -0.030000 -1.055820
v 1.255535 0.030000 -1.055820
v 1.388905 0.030000 -1.055820
v 1.744061 -0.030000 -0.661933
v 1.744061 0.030000 -0.661933
v 1.389636 -0.025279 -0.554307
v 1.389636 0.054721 -0.554307
v 1.368395 -0.025279 -0.575492
v 1.368395 0.054721 -0.575492
v 1.389579 -0.025279 -0.596734
v 1.389579 0.054721 -0.596734
v 1.410821 -0.025279 -0.575549
v 1.410821 0.054721 -0.575549
v 0.939502 -0.025279 -1.003235
v 0.939502 0.054721 -1.003235
v 0.960743 -0.025279 -0.982050
v 0.960743 0.054721 -0.982050
v 0.981928 -0.025279 -1.003292
v 0.981928 0.054721 -1.003292
v 0.960686 -0.025279 -1.024477
v 0.960686 0.054721 -1.024477
v 1.458516 -0.030000 -0.407934
v 1.458516 0.030000 -0.407934
v 0.807939 0.030000 -1.056768
v 0.888129 0.030000 -1.056768
v 0.891806 -0.030000 -1.170850
v 0.891806 0.030000 -1.170850
v 1.557378 -0.030000 -0.507062
v 1.557378 0.030000 -0.507062
v 1.218310 -0.025279 -0.357955
v 1.218310 0.054721 -0.357955
v 1.194695 -0.025279 -0.376457
v 1.194695 0.054721 -0.376457
v 1.213196 -0.025279 -0.400072
v 1.213196 0.054721 -0.400072
v 1.236812 -0.025279 -0.381570
v 1.236812 0.054721 -0.381570
v 0.717871 -0.025279 -0.750024
v 0.717871 0.054721 -0.750024
v 0.741486 -0.025279 -0.731522
v 0.741486 0.054721 -0.731522
v 0.759988 -0.025279 -0.755138
v 0.759988 0.054721 -0.755138
v 0.736373 -0.025279 -0.773639
v 0.736373 0.054721 -0.773639
v 1.304147 -0.030000 -0.220836
v 1.304147 0.030000 -0.220836
v 0.564195 -0.030000 -0.800552
v 0.564195 0.030000 -0.800552
v 0.650535 -0.030000 -0.910758
v 0.650535 0.030000 -0.910758
v 1.390488 -0.030000 -0.331042
v 1.390488 0.030000 -0.331042
v 1.071611 -0.025279 -0.142580
v 1.071611 0.054721 -0.142580
v 1.045959 -0.025279 -0.158134
v 1.045959 0.054721 -0.158134
v 1.061513 -0.025279 -0.183787
v 1.061513 0.054721 -0.183787
v 1.087166 -0.025279 -0.168232
v 1.087166 0.054721 -0.168232
v 0.528004 -0.025279 -0.472199
v 0.528004 0.054721 -0.472199
v 0.553657 -0.025279 -0.456644
v 0.553657 0.054721 -0.456644
v 0.569212 -0.025279 -0.482297
v 0.569212 0.054721 -0.482297
v 0.543559 -0.025279 -0.497852
v 0.543559 0.054721 -0.497852
v 1.173181 -0.030000 -0.016671
v 1.173181 0.030000 -0.016671
v 0.369401 -0.030000 -0.504048
v 0.369401 0.030000 -0.504048
v 0.441989 -0.030000 -0.623760
v 0.441989 0.030000 -0.623760
v 1.245770 -0.030000 -0.136383
v 1.245770 0.030000 -0.136383
v 0.951632 -0.025279 0.088747
v 0.951632 0.054721 0.088747
v 0.924308 -0.025279 0.076361
v 0.924308 0.054721 0.076361
v 0.936694 -0.025279 0.049037
v 0.936694 0.054721 0.049037
v 0.964018 -0.025279 0.061423
v 0.964018 0.054721 0.061423
v 0.372609 -0.025279 -0.173722
v 0.372609 0.054721 -0.173722
v 0.399933 -0.025279 -0.161336
v 0.399933 0.054721 -0.161336
v 0.412319 -0.025279 -0.188660
v 0.412319 0.054721 -0.188660
v 0.384995 -0.025279 -0.201046
v 0.384995 0.054721 -0.201046
v 1.067487 -0.030000 0.201650
v 1.067487 0.030000 0.201650
v 0.211340 -0.030000 -0.186438
v 0.211340 0.030000 -0.186438
v 0.269140 -0.030000 -0.313949
v 0.269140 0.030000 -0.313949
v 1.125287 -0.030000 0.074139
v 1.125287 0.030000 0.074139
v 0.860083 -0.025279 0.332726
v 0.860083 0.054721 0.332726
v 0.831478 -0.025279 0.323685
v 0.831478 0.054721 0.323685
v 0.840518 -0.025279 0.295080
v 0.840518 0.054721 0.295080
v 0.869124 -0.025279 0.304120
v 0.869124 0.054721 0.304120
v 0.253902 -0.025279 0.141150
v 0.253902 0.054721 0.141150
v 0.282507 -0.025279 0.150190
v 0.282507 0.054721 0.150190
v 0.291548 -0.025279 0.121585
v 0.291548 0.054721 0.121585
v 0.262942 -0.025279 0.112545
v 0.262942 0.054721 0.112545
v 0.988571 -0.030000 0.431014
v 0.988571 0.030000 0.431014
v 0.092267 -0.030000 0.147749
v 0.092267 0.030000 0.147749
v 0.134455 -0.030000 0.014257
v 0.134455 0.030000 0.014257
v 1.030759 -0.030000 0.297522
v 1.030759 0.030000 0.297522
v 0.798271 -0.025279 0.585878
v 0.798271 0.054721 0.585878
v 0.768792 -0.025279 0.580312
v 0.768792 0.054721 0.580312
v 0.774358 -0.025279 0.550833
v 0.774358 0.054721 0.550833
v 0.803837 -0.025279 0.556399
v 0.803837 0.054721 0.556399
v 0.173575 -0.025279 0.467928
v 0.173575 0.054721 0.467928
v 0.203054 -0.025279 0.473494
v 0.203054 0.054721 0.473494
v 0.208620 -0.025279 0.444014
v 0.208620 0.054721 0.444014
v 0.179141 -0.025279 0.438448
v 0.179141 0.054721 0.438448
v 0.937558 -0.030000 0.668149
v 0.937558 0.030000 0.668149
v 0.013879 -0.030000 0.493747
v 0.013879 0.030000 0.493747
v 0.039853 -0.030000 0.356177
v 0.039853 0.030000 0.356177
v 0.963533 -0.030000 0.530580
v 0.963533 0.030000 0.530580
v 0.767075 -0.025279 0.844594
v 0.767075 0.054721 0.844594
v 0.737143 -0.025279 0.842582
v 0.737143 0.054721 0.842582
v 0.739155 -0.025279 0.812649
v 0.739155 0.054721 0.812649
v 0.769088 -0.025279 0.814661
v 0.769088 0.054721 0.814661
v 0.132774 -0.025279 0.801950
v 0.132774 0.054721 0.801950
v 0.162706 -0.025279 0.803963
v 0.162706 0.054721 0.803963
v 0.164718 -0.025279 0.774030
v 0.164718 0.054721 0.774030
v 0.134786 -0.025279 0.772018
v 0.134786 0.054721 0.772018
v 0.915177 -0.030000 0.909675
v 0.915177 0.030000 0.909675
v -0.022706 -0.030000 0.846622
v -0.022706 0.030000 0.846622
v -0.013315 -0.030000 0.706937
v -0.013315 0.030000 0.706937
v 0.924567 -0.030000 0.769990
v 0.924567 0.030000 0.769990
v 2.509300 0.041289 -1.163523
v 2.969300 0.025803 -1.824477
v 2.509300 0.025803 -1.223523
v 2.969300 0.025803 -1.884477
v 2.509300 0.085803 -1.171634
v 2.509300 0.041289 -1.205778
v 2.509300 0.041289 -1.181268
v 2.969300 0.085803 -1.876366
v 2.509300 0.071584 -1.205778
v 2.509300 0.071584 -1.171634
v 2.969300 0.085803 -1.832588
v 2.969300 0.041289 -1.884477
v 2.509300 0.071584 -1.181268
v 2.969300 0.041289 -1.842222
v 2.969300 0.041289 -1.866732
v 2.969300 0.071584 -1.842222
v 2.969300 0.071584 -1.876366
v 2.509300 0.025803 -1.163523
v 2.509300 0.085803 -1.215412
v 2.509300 0.071584 -1.215412
v 2.969300 0.071584 -1.866732
v 2.969300 0.071584 -1.832588
v 2.509300 0.041289 -1.223523
v 2.969300 0.041289 -1.824477
v 1.726889 0.041289 -0.835941
v 2.533093 0.041289 -1.168234
v 1.704025 0.025803 -0.891413
v 2.530003 0.085803 -1.175733
v 1.710787 0.041289 -0.875007
v 1.720127 0.041289 -0.852347
v 1.710787 0.071584 -0.875007
v 2.516991 0.071584 -1.207301
v 1.723798 0.071584 -0.843439
v 1.720127 0.071584 -0.852347
v 2.526331 0.041289 -1.184640
v 2.530003 0.071584 -1.175733
v 1.726889 0.025803 -0.835941
v 2.526331 0.071584 -1.184640
v 2.516991 0.041289 -1.207301
v 2.533093 0.025803 -1.168234
v 2.510229 0.025803 -1.223707
v 1.723798 0.085803 -0.843439
v 1.707116 0.085803 -0.883915
v 1.707116 0.071584 -0.883915
v 2.513320 0.071584 -1.216208
v 2.510229 0.041289 -1.223707
v 1.704025 0.041289 -0.891413
v 2.513320 0.085803 -1.216208
v 2.129991 0.041289 -1.002087
v 2.107127 0.025803 -1.057560
v 2.126900 0.085803 -1.009586
v 2.113889 0.041289 -1.041154
v 2.123229 0.041289 -1.018493
v 2.113889 0.071584 -1.041154
v 2.126900 0.071584 -1.009586
v 2.123229 0.071584 -1.018493
v 2.129991 0.025803 -1.002087
v 2.110218 0.085803 -1.050061
v 2.110218 0.071584 -1.050061
v 2.107127 0.041289 -1.057560
v 1.128346 0.041289 -0.234922
v 1.747092 0.041289 -0.849363
v 1.086068 0.025803 -0.277497
v 1.741377 0.085803 -0.855118
v 1.098572 0.041289 -0.264905
v 1.115842 0.041289 -0.247514
v 1.098572 0.071584 -0.264905
v 1.717318 0.071584 -0.879346
v 1.122631 0.071584 -0.240677
v 1.115842 0.071584 -0.247514
v 1.734588 0.041289 -0.861955
v 1.741377 0.071584 -0.855118
v 1.128346 0.025803 -0.234922
v 1.734588 0.071584 -0.861955
v 1.717318 0.041289 -0.879346
v 1.747092 0.025803 -0.849363
v 1.704814 0.025803 -0.891938
v 1.122631 0.085803 -0.240677
v 1.091783 0.085803 -0.271741
v 1.091783 0.071584 -0.271741
v 1.710529 0.071584 -0.886182
v 1.704814 0.041289 -0.891938
v 1.086068 0.041289 -0.277497
v 1.710529 0.085803 -0.886182
v 1.437719 0.041289 -0.542143
v 1.395441 0.025803 -0.584717
v 1.432004 0.085803 -0.547898
v 1.407945 0.041289 -0.572126
v 1.425215 0.041289 -0.554734
v 1.407945 0.071584 -0.572126
v 1.432004 0.071584 -0.547898
v 1.425215 0.071584 -0.554734
v 1.437719 0.025803 -0.542143
v 1.401156 0.085803 -0.578962
v 1.401156 0.071584 -0.578962
v 1.395441 0.041289 -0.584717
v 1.141910 0.041289 -0.255031
v 0.803996 0.041289 0.548834
v 1.134433 0.085803 -0.258174
v 0.748684 0.025803 0.525583
v 1.102956 0.071584 -0.271405
v 1.125551 0.041289 -0.261907
v 1.134433 0.071584 -0.258174
v 0.765043 0.041289 0.532459
v 1.125551 0.071584 -0.261907
v 1.102956 0.041289 -0.271405
v 0.787637 0.041289 0.541957
v 0.765043 0.071584 0.532459
v 1.141910 0.025803 -0.255031
v 0.796519 0.071584 0.545691
v 0.787637 0.071584 0.541957
v 0.803996 0.025803 0.548834
v 0.796519 0.085803 0.545691
v 1.086598 0.025803 -0.278282
v 1.094075 0.071584 -0.275139
v 1.086598 0.041289 -0.278282
v 0.756161 0.085803 0.528726
v 0.756161 0.071584 0.528726
v 1.094075 0.085803 -0.275139
v 0.748684 0.041289 0.525583
v 0.972953 0.041289 0.146902
v 0.917641 0.025803 0.123651
v 0.965476 0.085803 0.143759
v 0.933999 0.041289 0.130527
v 0.956594 0.041289 0.140025
v 0.933999 0.071584 0.130527
v 0.965476 0.071584 0.143759
v 0.956594 0.071584 0.140025
v 0.972953 0.025803 0.146902
v 0.925118 0.085803 0.126794
v 0.925118 0.071584 0.126794
v 0.917641 0.041289 0.123651
v 0.805606 0.041289 0.993063
v 0.808873 0.041289 0.525074
v 0.745607 0.025803 0.992644
v 0.748875 0.025803 0.524655
v 0.763352 0.041289 0.992768
v 0.787861 0.041289 0.992939
v 0.763352 0.071584 0.992768
v 0.800763 0.085803 0.525017
v 0.797495 0.085803 0.993006
v 0.797495 0.071584 0.993006
v 0.766619 0.041289 0.524779
v 0.791129 0.041289 0.524950
v 0.787861 0.071584 0.992939
v 0.766619 0.071584 0.524779
v 0.800763 0.071584 0.525017
v 0.791129 0.071584 0.524950
v 0.808873 0.025803 0.525074
v 0.805606 0.025803 0.993063
v 0.753718 0.085803 0.992700
v 0.753718 0.071584 0.992700
v 0.756985 0.085803 0.524712
v 0.756985 0.071584 0.524712
v 0.745607 0.041289 0.992644
v 0.748875 0.041289 0.524655
v 2.493300 0.025803 -1.824477
v 2.493300 0.025803 -1.884477
v 2.977300 0.041289 -1.163523
v 2.977300 0.025803 -1.223523
v 2.493300 0.085803 -1.876366
v 2.493300 0.085803 -1.832588
v 2.493300 0.041289 -1.884477
v 2.977300 0.085803 -1.171634
v 2.977300 0.041289 -1.205778
v 2.493300 0.041289 -1.842222
v 2.493300 0.041289 -1.866732
v 2.493300 0.071584 -1.842222
v 2.977300 0.041289 -1.181268
v 2.493300 0.071584 -1.876366
v 2.493300 0.071584 -1.866732
v 2.977300 0.071584 -1.205778
v 2.977300 0.071584 -1.171634
v 2.977300 0.071584 -1.181268
v 2.977300 0.025803 -1.163523
v 2.493300 0.071584 -1.832588
v 2.977300 0.085803 -1.215412
v 2.977300 0.071584 -1.215412
v 2.493300 0.041289 -1.824477
v 2.977300 0.041289 -1.223523
v 1.106956 0.071584 -1.171879
v 1.048866 0.071584 -1.171879
v 1.168775 0.071584 -1.204885
v 1.182574 0.041289 -1.204885
v 1.182574 0.025803 -1.204885
v 1.065257 0.071584 -1.171879
v 1.123347 0.071584 -1.171879
v 1.168775 0.085803 -1.204885
v 1.137145 0.041289 -1.171879
v 1.152385 0.041289 -1.204885
v 1.106030 0.085803 -1.171879
v 1.246605 0.071584 -1.273340
v 1.188515 0.071584 -1.273340
v 1.204906 0.071584 -1.273340
v 1.262996 0.071584 -1.273340
v 1.276794 0.041289 -1.273340
v 1.276794 0.025803 -1.273340
v 1.174716 0.025803 -1.273340
v 1.188515 0.085803 -1.273340
v 1.262996 0.085803 -1.273340
v 1.174716 0.041289 -1.273340
v 1.246605 0.041289 -1.273340
v 1.204906 0.041289 -1.273340
v 1.208261 0.041289 -1.223547
v 1.208356 0.025803 -1.223616
v 1.183419 0.071584 -1.215524
v 1.183419 0.085803 -1.215524
v 0.922830 0.085803 -1.038703
v 1.151435 0.085803 -1.204885
v 1.137145 0.025803 -1.171879
v 1.035067 0.025803 -1.171879
v 1.048866 0.085803 -1.171879
v 1.123347 0.085803 -1.171879
v 1.035067 0.041289 -1.171879
v 1.106956 0.041289 -1.171879
v 1.065257 0.041289 -1.171879
v 0.933545 0.025803 -1.023955
v 0.898278 0.025803 -1.072496
v 1.629629 0.025803 -1.603854
v 1.664897 0.025803 -1.555313
v 0.903045 0.085803 -1.065934
v 0.928778 0.085803 -1.030516
v 0.898278 0.041289 -1.072496
v 1.629629 0.041289 -1.603854
v 1.634397 0.085803 -1.597292
v 0.923115 0.041289 -1.038311
v 0.908708 0.041289 -1.058140
v 0.923115 0.071584 -1.038311
v 1.654466 0.071584 -1.569669
v 0.903045 0.071584 -1.065934
v 0.908708 0.071584 -1.058140
v 1.640060 0.041289 -1.589498
v 1.634397 0.071584 -1.597292
v 1.640060 0.071584 -1.589498
v 1.654466 0.041289 -1.569669
v 0.928778 0.071584 -1.030516
v 1.660129 0.071584 -1.561874
v 1.664897 0.041289 -1.555313
v 0.933545 0.041289 -1.023955
v 1.660129 0.085803 -1.561874
v 1.299221 0.025803 -1.289634
v 1.263954 0.025803 -1.338175
v 1.268721 0.085803 -1.331613
v 1.294454 0.085803 -1.296195
v 1.263954 0.041289 -1.338175
v 1.288791 0.041289 -1.303990
v 1.274384 0.041289 -1.323819
v 1.152385 0.071584 -1.204885
v 1.650479 0.025803 -1.547072
v 1.631624 0.025803 -1.604032
v 2.303289 0.025803 -1.826365
v 2.497450 0.025803 -1.827434
v 1.634173 0.085803 -1.596333
v 1.647930 0.085803 -1.554772
v 1.631624 0.041289 -1.604032
v 2.303289 0.041289 -1.826365
v 2.329535 0.085803 -1.826509
v 1.644903 0.041289 -1.563918
v 1.637200 0.041289 -1.587186
v 1.644903 0.071584 -1.563918
v 2.440026 0.071584 -1.827118
v 1.634173 0.071584 -1.596333
v 1.637200 0.071584 -1.587186
v 2.360712 0.041289 -1.826681
v 2.329535 0.071584 -1.826509
v 2.360712 0.071584 -1.826681
v 2.440026 0.041289 -1.827118
v 1.647930 0.071584 -1.554772
v 2.471203 0.071584 -1.827289
v 2.497450 0.041289 -1.827434
v 1.650479 0.041289 -1.547072
v 2.471203 0.085803 -1.827289
v 2.079581 0.025803 -1.689112
v 2.060726 0.025803 -1.746073
v 2.063275 0.085803 -1.738373
v 2.077032 0.085803 -1.696812
v 2.060726 0.041289 -1.746073
v 2.074005 0.041289 -1.705958
v 2.066302 0.041289 -1.729227
v 2.074005 0.071584 -1.705958
v 2.063275 0.071584 -1.738373
v 2.066302 0.071584 -1.729227
v 2.077032 0.071584 -1.696812
v 2.079581 0.041289 -1.689112
v 1.933436 0.025803 -1.221098
v 1.957156 0.025803 -1.165985
v 0.945300 0.025803 -1.163523
v 0.945300 0.025803 -1.223523
v 1.953949 0.085803 -1.173435
v 1.936643 0.085803 -1.213648
v 1.957156 0.041289 -1.165985
v 0.945300 0.041289 -1.163523
v 0.945300 0.085803 -1.171634
v 1.940451 0.041289 -1.204798
v 1.950141 0.041289 -1.182285
v 1.940451 0.071584 -1.204798
v 0.945300 0.071584 -1.205778
v 1.953949 0.071584 -1.173435
v 1.950141 0.071584 -1.182285
v 0.945300 0.041289 -1.181268
v 0.945300 0.071584 -1.171634
v 0.945300 0.071584 -1.181268
v 0.945300 0.041289 -1.205778
v 0.945300 0.071584 -1.215412
v 0.945300 0.041289 -1.223523
v 0.945300 0.085803 -1.215412
v 0.945300 0.025803 -1.884477
v 0.945300 0.025803 -1.824477
v 1.945300 0.085803 -1.876366
v 1.945300 0.085803 -1.832588
v 1.945300 0.041289 -1.884477
v 0.945300 0.041289 -1.884477
v 0.945300 0.085803 -1.876366
v 0.945300 0.071584 -1.842222
v 0.945300 0.041289 -1.866732
v 0.945300 0.071584 -1.876366
v 0.945300 0.071584 -1.866732
v 0.945300 0.041289 -1.842222
v 0.945300 0.071584 -1.832588
v 0.945300 0.041289 -1.824477
v 0.945300 0.085803 -1.832588
v 1.177406 0.025803 -1.223523
v 1.095475 0.025803 -1.163523
v 1.106550 0.085803 -1.171634
v 1.166331 0.085803 -1.215412
v 1.095475 0.041289 -1.163523
v 1.153175 0.041289 -1.205778
v 1.119706 0.041289 -1.181268
v 1.153175 0.071584 -1.205778
v 1.106550 0.071584 -1.171634
v 1.119706 0.071584 -1.181268
v 1.166331 0.071584 -1.215412
v 1.177406 0.041289 -1.223523
v 1.302762 0.025803 -1.223523
v 1.228670 0.025803 -1.163523
v 1.238686 0.085803 -1.171634
v 1.292747 0.085803 -1.215412
v 1.228670 0.041289 -1.163523
v 1.280850 0.041289 -1.205778
v 1.250583 0.041289 -1.181268
v 1.280850 0.071584 -1.205778
v 1.238686 0.071584 -1.171634
v 1.250583 0.071584 -1.181268
v 1.292747 0.071584 -1.215412
v 1.302762 0.041289 -1.223523
v 1.208137 0.025803 -1.223523
v 1.208091 0.041289 -1.223523
v 1.183339 0.085803 -1.215412
v 1.183321 0.071584 -1.215412
v 1.835300 -0.025279 -1.841867
v 1.835300 0.054721 -1.841867
v 1.835300 -0.025279 -1.811867
v 1.835300 0.054721 -1.811867
v 1.805300 -0.025279 -1.811867
v 1.805300 0.054721 -1.811867
v 1.805300 -0.025279 -1.841867
v 1.805300 0.054721 -1.841867
v 1.835300 -0.025279 -1.206133
v 1.835300 0.054721 -1.206133
v 1.835300 -0.025279 -1.236133
v 1.835300 0.054721 -1.236133
v 1.805300 -0.025279 -1.236133
v 1.805300 0.054721 -1.236133
v 1.805300 -0.025279 -1.206133
v 1.805300 0.054721 -1.206133
v 1.890300 -0.030000 -1.994000
v 1.890300 0.030000 -1.994000
v 1.890300 -0.030000 -1.054000
v 1.890300 0.030000 -1.054000
v 1.750300 -0.030000 -1.054000
v 1.750300 0.030000 -1.054000
v 1.750300 -0.030000 -1.994000
v 1.750300 0.030000 -1.994000
v 1.585300 -0.025279 -1.841867
v 1.585300 0.054721 -1.841867
v 1.585300 -0.025279 -1.811867
v 1.585300 0.054721 -1.811867
v 1.555300 -0.025279 -1.811867
v 1.555300 0.054721 -1.811867
v 1.555300 -0.025279 -1.841867
v 1.555300 0.054721 -1.841867
v 1.585300 -0.025279 -1.206133
v 1.585300 0.054721 -1.206133
v 1.585300 -0.025279 -1.236133
v 1.585300 0.054721 -1.236133
v 1.555300 -0.025279 -1.236133
v 1.555300 0.054721 -1.236133
v 1.555300 -0.025279 -1.206133
v 1.555300 0.054721 -1.206133
v 1.640300 -0.030000 -1.994000
v 1.640300 0.030000 -1.994000
v 1.640300 -0.030000 -1.054000
v 1.640300 0.030000 -1.054000
v 1.500300 -0.030000 -1.054000
v 1.500300 0.030000 -1.054000
v 1.500300 -0.030000 -1.994000
v 1.500300 0.030000 -1.994000
v 1.335300 -0.025279 -1.841867
v 1.335300 0.054721 -1.841867
v 1.335300 -0.025279 -1.811867
v 1.335300 0.054721 -1.811867
v 1.305300 -0.025279 -1.811867
v 1.305300 0.054721 -1.811867
v 1.305300 -0.025279 -1.841867
v 1.305300 0.054721 -1.841867
v 1.335300 -0.025279 -1.206133
v 1.335300 0.054721 -1.206133
v 1.335300 -0.025279 -1.236133
v 1.335300 0.054721 -1.236133
v 1.305300 -0.025279 -1.236133
v 1.305300 0.054721 -1.236133
v 1.305300 -0.025279 -1.206133
v 1.305300 0.054721 -1.206133
v 1.390300 -0.030000 -1.994000
v 1.390300 0.030000 -1.994000
v 1.390300 -0.030000 -1.054000
v 1.390300 0.030000 -1.054000
v 1.250300 -0.030000 -1.054000
v 1.250300 0.030000 -1.054000
v 1.250300 -0.030000 -1.994000
v 1.250300 0.030000 -1.994000
v 1.085300 -0.025279 -1.841867
v 1.085300 0.054721 -1.841867
v 1.085300 -0.025279 -1.811867
v 1.085300 0.054721 -1.811867
v 1.055300 -0.025279 -1.811867
v 1.055300 0.054721 -1.811867
v 1.055300 -0.025279 -1.841867
v 1.055300 0.054721 -1.841867
v 1.085300 -0.025279 -1.206133
v 1.085300 0.054721 -1.206133
v 1.085300 -0.025279 -1.236133
v 1.085300 0.054721 -1.236133
v 1.055300 -0.025279 -1.236133
v 1.055300 0.054721 -1.236133
v 1.055300 -0.025279 -1.206133
v 1.055300 0.054721 -1.206133
v 1.140300 -0.030000 -1.994000
v 1.140300 0.030000 -1.994000
v 1.140300 -0.030000 -1.054000
v 1.140300 0.030000 -1.054000
v 1.000300 -0.030000 -1.054000
v 1.000300 0.030000 -1.054000
v 1.000300 -0.030000 -1.994000
v 1.000300 0.030000 -1.994000
v 1.936643 0.071584 -1.213648
v 1.933436 0.041289 -1.221098
v 2.140300 0.030000 -1.064493
v 2.945300 0.025803 -1.824477
v 2.945300 0.025803 -1.884477
v 1.945300 0.025803 -1.884477
v 1.945300 0.025803 -1.824477
v 2.945300 0.085803 -1.876366
v 2.945300 0.085803 -1.832588
v 2.945300 0.041289 -1.884477
v 2.945300 0.041289 -1.842222
v 2.945300 0.041289 -1.866732
v 2.945300 0.071584 -1.842222
v 1.945300 0.071584 -1.842222
v 2.945300 0.071584 -1.876366
v 2.945300 0.071584 -1.866732
v 1.945300 0.041289 -1.866732
v 1.945300 0.071584 -1.876366
v 1.945300 0.071584 -1.866732
v 1.945300 0.041289 -1.842222
v 2.945300 0.071584 -1.832588
v 1.945300 0.071584 -1.832588
v 1.945300 0.041289 -1.824477
v 2.945300 0.041289 -1.824477
v 2.450746 0.025803 -1.443737
v 2.085300 -0.025279 -1.058894
v 2.055300 0.054721 -1.058894
v 2.055300 -0.025279 -1.028894
v 2.085300 0.054721 -1.028894
v 2.085300 0.054721 -1.058894
v 2.085300 -0.025279 -1.028894
v 2.055300 -0.025279 -1.058894
v 2.000300 -0.030000 -1.064493
v 2.000300 0.030000 -1.064493
v 2.055300 0.054721 -1.028894
v 2.450746 0.041289 -1.443737
v 2.339558 0.025803 -1.330563
v 2.339558 0.041289 -1.330563
v 2.354589 0.085803 -1.345862
v 2.417862 0.071584 -1.410266
v 2.372442 0.041289 -1.364034
v 2.354589 0.071584 -1.345862
v 2.372442 0.071584 -1.364034
v 2.417862 0.041289 -1.410266
v 2.435716 0.071584 -1.428438
v 2.435716 0.085803 -1.428438
v 2.835300 -0.025279 -1.841867
v 2.835300 0.054721 -1.841867
v 2.835300 -0.025279 -1.811867
v 2.835300 0.054721 -1.811867
v 2.805300 -0.025279 -1.811867
v 2.805300 0.054721 -1.811867
v 2.805300 -0.025279 -1.841867
v 2.805300 0.054721 -1.841867
v 2.835300 -0.025279 -1.206133
v 2.835300 0.054721 -1.206133
v 2.835300 -0.025279 -1.236133
v 2.835300 0.054721 -1.236133
v 2.805300 -0.025279 -1.236133
v 2.805300 0.054721 -1.236133
v 2.805300 -0.025279 -1.206133
v 2.805300 0.054721 -1.206133
v 2.890300 -0.030000 -1.994000
v 2.890300 0.030000 -1.994000
v 2.890300 -0.030000 -1.054000
v 2.890300 0.030000 -1.054000
v 2.750300 -0.030000 -1.054000
v 2.750300 0.030000 -1.054000
v 2.750300 -0.030000 -1.994000
v 2.750300 0.030000 -1.994000
v 2.585300 -0.025279 -1.841867
v 2.585300 0.054721 -1.841867
v 2.585300 -0.025279 -1.811867
v 2.585300 0.054721 -1.811867
v 2.555300 -0.025279 -1.811867
v 2.555300 0.054721 -1.811867
v 2.555300 -0.025279 -1.841867
v 2.555300 0.054721 -1.841867
v 2.585300 -0.025279 -1.206133
v 2.585300 0.054721 -1.206133
v 2.585300 -0.025279 -1.236133
v 2.585300 0.054721 -1.236133
v 2.555300 -0.025279 -1.236133
v 2.555300 0.054721 -1.236133
v 2.555300 -0.025279 -1.206133
v 2.555300 0.054721 -1.206133
v 2.640300 -0.030000 -1.994000
v 2.640300 0.030000 -1.994000
v 2.640300 -0.030000 -1.054000
v 2.640300 0.030000 -1.054000
v 2.500300 -0.030000 -1.054000
v 2.500300 0.030000 -1.054000
v 2.500300 -0.030000 -1.994000
v 2.500300 0.030000 -1.994000
v 2.335300 -0.025279 -1.841867
v 2.335300 0.054721 -1.841867
v 2.335300 -0.025279 -1.811867
v 2.335300 0.054721 -1.811867
v 2.305300 -0.025279 -1.811867
v 2.305300 0.054721 -1.811867
v 2.305300 -0.025279 -1.841867
v 2.305300 0.054721 -1.841867
v 2.000300 0.030000 -1.054000
v 2.000300 -0.030000 -1.994000
v 2.000300 0.030000 -1.994000
v 2.140300 -0.030000 -0.876761
v 2.140300 0.030000 -0.876761
v 2.000300 -0.030000 -0.876761
v 2.000300 0.030000 -0.876761
v 2.140300 -0.030000 -1.064493
v 2.390300 -0.030000 -1.994000
v 2.390300 0.030000 -1.994000
v 2.390300 -0.030000 -1.054000
v 2.390300 0.030000 -1.054000
v 2.250300 -0.030000 -1.054000
v 2.250300 0.030000 -1.054000
v 2.250300 -0.030000 -1.994000
v 2.250300 0.030000 -1.994000
v 2.390300 -0.030000 -0.968304
v 2.390300 0.030000 -0.968304
v 2.250300 -0.030000 -0.968304
v 2.250300 0.030000 -0.968304
v 2.390300 -0.030000 -1.058464
v 2.390300 0.030000 -1.058464
v 2.250300 -0.030000 -1.058464
v 2.250300 0.030000 -1.058464
v 2.335300 -0.025279 -1.120437
v 2.335300 0.054721 -1.120437
v 2.335300 -0.025279 -1.150437
v 2.335300 0.054721 -1.150437
v 2.305300 -0.025279 -1.150437
v 2.305300 0.054721 -1.150437
v 2.305300 -0.025279 -1.120437
v 2.305300 0.054721 -1.120437
v 2.085300 -0.025279 -1.841867
v 2.085300 0.054721 -1.841867
v 2.085300 -0.025279 -1.811867
v 2.085300 0.054721 -1.811867
v 2.055300 -0.025279 -1.811867
v 2.055300 0.054721 -1.811867
v 2.055300 -0.025279 -1.841867
v 2.055300 0.054721 -1.841867
v 2.140300 -0.030000 -1.994000
v 2.140300 0.030000 -1.994000
v 2.140300 -0.030000 -1.054000
v 2.140300 0.030000 -1.054000
v 2.000300 -0.030000 -1.054000

vt 0.431075 0.156096
vt 0.474678 0.034093
vt 0.431075 0.210448
vt 0.431196 0.048121
vt 0.862393 0.06215
vt 0.043682 0.281378
vt 0.862271 0.210448
vt 0.862393 0.048121
vt 0.431196 0.06215
vt 0.474878 0.281378
vt 0.474878 0.259595
vt 0.431196 0.012881
vt 0.474878 0.219937
vt 0.474678 0.025761
vt 0.043482 0.121202
vt 0.862905 0.330358
vt 0.862905 0.32163
vt 0.862393 0.0
vt 0.431196 0.06215
vt 0.474878 0.297453
vt 0.474678 0.121202
vt 0.431709 0.330358
vt 0.431709 0.32163
vt 0.431196 0.0
vt 0.043682 0.259595
vt 0.862393 0.012881
vt 0.474678 0.093759
vt 0.474878 0.312903
vt 0.431196 0.089593
vt 0.431709 0.312903
vt 0.862393 0.089593
vt 0.862905 0.312903
vt 0.862905 0.32163
vt 0.043482 0.012881
vt 0.043682 0.219937
vt 0.043482 0.025761
vt 0.862393 0.06215
vt 0.043682 0.297453
vt 0.431709 0.32163
vt 0.474678 0.012881
vt 0.043482 0.093759
vt 0.043682 0.312903
vt 0.862271 0.156096
vt 0.043482 0.034093
vt 0.474678 0.048121
vt 0.474878 0.296828
vt 0.043482 0.048121
vt 0.043682 0.296828
vt 0.043482 0.048121
vt 0.04336 0.210448
vt 0.043682 0.219937
vt 0.043482 0.025761
vt 0.862905 0.330358
vt 0.043482 0.121202
vt 0.043482 0.089593
vt 0.043994 0.312903
vt 0.862393 0.012881
vt 0.043994 0.32163
vt 0.043482 0.012881
vt 0.862593 0.259595
vt 0.862393 0.025761
vt 0.862593 0.219937
vt 0.862393 0.06215
vt 0.043682 0.281378
vt 0.862593 0.297453
vt 0.043482 0.06215
vt 0.862593 0.312903
vt 0.862393 0.093759
vt 0.862393 0.048121
vt 0.862271 0.210448
vt 0.862393 0.048121
vt 0.862593 0.296828
vt 0.452937 0.034093
vt 0.452816 0.156096
vt 0.452937 0.048121
vt 0.452816 0.210448
vt 0.453137 0.259595
vt 0.452937 0.012881
vt 0.453137 0.219937
vt 0.452937 0.025761
vt 0.452937 0.06215
vt 0.453137 0.297453
vt 0.453137 0.312903
vt 0.452937 0.093759
vt 0.452937 0.06215
vt 0.453137 0.281378
vt 0.45345 0.330358
vt 0.452937 0.121202
vt 0.45345 0.32163
vt 0.452937 0.0
vt 0.452937 0.089593
vt 0.45345 0.312903
vt 0.452937 0.012881
vt 0.45345 0.32163
vt 0.452937 0.048121
vt 0.453137 0.296828
vt 0.452816 0.156096
vt 0.452937 0.034093
vt 0.452816 0.210448
vt 0.452937 0.048121
vt 0.453137 0.259595
vt 0.452937 0.012881
vt 0.452937 0.025761
vt 0.453137 0.219937
vt 0.452937 0.06215
vt 0.453137 0.297453
vt 0.453137 0.312903
vt 0.452937 0.093759
vt 0.453137 0.281378
vt 0.452937 0.06215
vt 0.45345 0.330358
vt 0.452937 0.121202
vt 0.45345 0.32163
vt 0.452937 0.0
vt 0.45345 0.312903
vt 0.452937 0.089593
vt 0.45345 0.32163
vt 0.452937 0.012881
vt 0.453137 0.296828
vt 0.452937 0.048121
vt 0.043482 0.034093
vt 0.862271 0.156096
vt 0.862905 0.32163
vt 0.862393 0.0
vt 0.862593 0.281378
vt 0.043482 0.06215
vt 0.862393 0.034093
vt 0.04336 0.156096
vt 0.862393 0.089593
vt 0.862905 0.312903
vt 0.043682 0.312903
vt 0.043482 0.093759
vt 0.862905 0.32163
vt 0.043482 0.012881
vt 0.043994 0.330358
vt 0.862393 0.121202
vt 0.043994 0.32163
vt 0.043482 0.0
vt 0.862393 0.06215
vt 0.043682 0.297453
vt 0.043482 0.048121
vt 0.043682 0.296828
vt 0.043682 0.259595
vt 0.862393 0.012881
vt 0.452937 0.121202
vt 0.45345 0.330358
vt 0.452937 0.0
vt 0.45345 0.32163
vt 0.45345 0.312903
vt 0.452937 0.089593
vt 0.452937 0.012881
vt 0.45345 0.32163
vt 0.452937 0.048121
vt 0.453137 0.296828
vt 0.04336 0.156096
vt 0.862393 0.034093
vt 0.04336 0.210448
vt 0.043482 0.048121
vt 0.862271 0.210448
vt 0.862393 0.048121
vt 0.862271 0.156096
vt 0.043482 0.034093
vt 0.043482 0.012881
vt 0.862593 0.259595
vt 0.862393 0.025761
vt 0.862593 0.219937
vt 0.043482 0.06215
vt 0.862593 0.297453
vt 0.862393 0.06215
vt 0.043682 0.297453
vt 0.043682 0.259595
vt 0.862393 0.012881
vt 0.862593 0.312903
vt 0.862393 0.093759
vt 0.862593 0.281378
vt 0.043482 0.06215
vt 0.043994 0.330358
vt 0.862393 0.121202
vt 0.862905 0.330358
vt 0.043482 0.121202
vt 0.043994 0.32163
vt 0.043482 0.0
vt 0.043994 0.312903
vt 0.043482 0.089593
vt 0.043682 0.281378
vt 0.862393 0.06215
vt 0.862905 0.32163
vt 0.862393 0.0
vt 0.862393 0.089593
vt 0.862905 0.312903
vt 0.043682 0.312903
vt 0.043482 0.093759
vt 0.99905 0.183297
vt 0.93931 0.183297
vt 0.939081 0.132863
vt 0.99905 0.342604
vt 0.93931 0.342604
vt 0.93931 0.183297
vt 0.99905 0.183297
vt 0.985655 0.132863
vt 0.93931 0.342604
vt 0.99905 0.342604
vt 0.93931 0.183297
vt 0.99905 0.183297
vt 0.985655 0.179437
vt 0.93931 0.342604
vt 0.99905 0.342604
vt 0.93931 0.183297
vt 0.99905 0.183297
vt 0.939081 0.179437
vt 0.93931 0.342604
vt 0.99905 0.342604
vt 0.839474 0.781451
vt 0.839474 0.844034
vt 0.856989 0.851064
vt 0.139815 0.656284
vt 0.139815 0.718868
vt 1.0 0.99446
vt 0.957604 0.781451
vt 0.383403 0.781451
vt 0.391835 0.851064
vt 0.383403 0.844034
vt 0.356132 0.718868
vt 0.302823 0.656284
vt -0.000781 0.781451
vt 0.302823 0.718868
vt 0.0 0.851064
vt -0.000781 0.844034
vt 0.356132 0.781451
vt 0.635979 1.0
vt 0.410223 0.781451
vt 0.419189 0.851064
vt 0.410223 0.844034
vt 0.41177 0.863225
vt 0.156795 0.656284
vt 0.979692 0.718868
vt 0.156795 0.718868
vt 0.979692 0.781451
vt 0.0 1.0
vt 0.99905 0.183297
vt 0.93931 0.183297
vt 0.939081 0.132863
vt 0.99905 0.342604
vt 0.93931 0.342604
vt 0.93931 0.183297
vt 0.99905 0.183297
vt 0.985655 0.132863
vt 0.93931 0.342604
vt 0.99905 0.342604
vt 0.93931 0.183297
vt 0.99905 0.183297
vt 0.985655 0.179437
vt 0.93931 0.342604
vt 0.99905 0.342604
vt 0.93931 0.183297
vt 0.99905 0.183297
vt 0.939081 0.179437
vt 0.93931 0.342604
vt 0.99905 0.342604
vt 0.043994 0.32163
vt 0.862393 0.012881
vt 0.043482 0.012881
vt 0.862905 0.32163
vt 0.043482 0.048121
vt 0.043682 0.296828
vt 0.862593 0.296828
vt 0.862393 0.048121
vt 0.043482 0.025761
vt 0.043682 0.219937
vt 0.412482 0.781451
vt 0.421493 0.851064
vt 0.412482 0.844034
vt 0.381066 0.718868
vt 0.302823 0.656284
vt -0.000781 0.781451
vt 0.302823 0.718868
vt 0.0 0.851064
vt -0.000781 0.844034
vt 0.381066 0.781451
vt 0.610549 1.0
vt 0.63728 0.781451
vt 0.650768 0.851064
vt 0.63728 0.844034
vt 0.562967 0.962516
vt 0.156795 0.656284
vt 0.979692 0.718868
vt 0.156795 0.718868
vt 0.979692 0.781451
vt 0.0 1.0
vt 0.99905 0.183297
vt 0.93931 0.183297
vt 0.939081 0.132863
vt 0.99905 0.342604
vt 0.93931 0.342604
vt 0.93931 0.183297
vt 0.99905 0.183297
vt 0.985655 0.132863
vt 0.93931 0.342604
vt 0.99905 0.342604
vt 0.93931 0.183297
vt 0.99905 0.183297
vt 0.985655 0.179437
vt 0.93931 0.342604
vt 0.99905 0.342604
vt 0.93931 0.183297
vt 0.99905 0.183297
vt 0.939081 0.179437
vt 0.93931 0.342604
vt 0.99905 0.342604
vt 0.99905 0.183297
vt 0.93931 0.183297
vt 0.939081 0.132863
vt 0.99905 0.342604
vt 0.93931 0.342604
vt 0.93931 0.183297
vt 0.99905 0.183297
vt 0.985655 0.132863
vt 0.93931 0.342604
vt 0.99905 0.342604
vt 0.93931 0.183297
vt 0.99905 0.183297
vt 0.985655 0.179437
vt 0.93931 0.342604
vt 0.99905 0.342604
vt 0.93931 0.183297
vt 0.99905 0.183297
vt 0.939081 0.179437
vt 0.93931 0.342604
vt 0.99905 0.342604
vt -0.000781 0.781451
vt 0.302823 0.656284
vt -0.000781 0.844034
vt 0.302823 0.718868
vt 0.0 0.851064
vt 0.977472 0.851064
vt 0.957604 0.844034
vt 0.917068 0.911305
vt -0.000781 0.718868
vt 0.145247 0.656284
vt -0.000781 0.781451
vt 0.145247 0.718868
vt 1.0 1.0
vt 0.156795 0.656284
vt 0.979692 0.718868
vt 0.156795 0.718868
vt 0.979692 0.781451
vt 0.0 1.0
vt 0.99905 0.183297
vt 0.93931 0.183297
vt 0.939081 0.132863
vt 0.99905 0.342604
vt 0.93931 0.342604
vt 0.93931 0.183297
vt 0.99905 0.183297
vt 0.985655 0.132863
vt 0.93931 0.342604
vt 0.99905 0.342604
vt 0.93931 0.183297
vt 0.99905 0.183297
vt 0.985655 0.179437
vt 0.93931 0.342604
vt 0.99905 0.342604
vt 0.93931 0.183297
vt 0.99905 0.183297
vt 0.939081 0.179437
vt 0.93931 0.342604
vt 0.99905 0.342604
vt 0.99905 0.183297
vt 0.93931 0.183297
vt 0.939081 0.132863
vt 0.99905 0.342604
vt 0.93931 0.342604
vt 0.93931 0.183297
vt 0.99905 0.183297
vt 0.985655 0.132863
vt 0.93931 0.342604
vt 0.99905 0.342604
vt 0.93931 0.183297
vt 0.99905 0.183297
vt 0.985655 0.179437
vt 0.93931 0.342604
vt 0.99905 0.342604
vt 0.93931 0.183297
vt 0.99905 0.183297
vt 0.939081 0.179437
vt 0.93931 0.342604
vt 0.99905 0.342604
vt 0.302823 0.656284
vt -0.000781 0.781451
vt 0.0 0.851064
vt 0.302823 0.718868
vt -0.000781 0.844034
vt -0.000781 0.656284
vt 0.979692 0.781451
vt 1.0 0.851064
vt -0.000781 0.718868
vt 0.979692 0.844034
vt -0.000781 0.718868
vt 0.145247 0.656284
vt 1.0 1.0
vt -0.000781 0.781451
vt 0.145247 0.718868
vt 0.156795 0.656284
vt 0.979692 0.718868
vt 0.0 1.0
vt 0.156795 0.718868
vt 0.979692 0.781451
vt 0.99905 0.183297
vt 0.93931 0.183297
vt 0.939081 0.132863
vt 0.99905 0.342604
vt 0.93931 0.342604
vt 0.93931 0.183297
vt 0.99905 0.183297
vt 0.985655 0.132863
vt 0.93931 0.342604
vt 0.99905 0.342604
vt 0.93931 0.183297
vt 0.99905 0.183297
vt 0.985655 0.179437
vt 0.93931 0.342604
vt 0.99905 0.342604
vt 0.93931 0.183297
vt 0.99905 0.183297
vt 0.939081 0.179437
vt 0.93931 0.342604
vt 0.99905 0.342604
vt 0.99905 0.183297
vt 0.93931 0.183297
vt 0.939081 0.132863
vt 0.99905 0.342604
vt 0.93931 0.342604
vt 0.93931 0.183297
vt 0.99905 0.183297
vt 0.985655 0.132863
vt 0.93931 0.342604
vt 0.99905 0.342604
vt 0.93931 0.183297
vt 0.99905 0.183297
vt 0.985655 0.179437
vt 0.93931 0.342604
vt 0.99905 0.342604
vt 0.93931 0.183297
vt 0.99905 0.183297
vt 0.939081 0.179437
vt 0.93931 0.342604
vt 0.99905 0.342604
vt 0.302823 0.656284
vt -0.000781 0.781451
vt 0.0 0.851064
vt 0.302823 0.718868
vt -0.000781 0.844034
vt -0.000781 0.656284
vt 0.979692 0.781451
vt 1.0 0.851064
vt -0.000781 0.718868
vt 0.979692 0.844034
vt -0.000781 0.718868
vt 0.145247 0.656284
vt 1.0 1.0
vt -0.000781 0.781451
vt 0.145247 0.718868
vt 0.156795 0.656284
vt 0.979692 0.718868
vt 0.0 1.0
vt 0.156795 0.718868
vt 0.979692 0.781451
vt 0.99905 0.183297
vt 0.93931 0.183297
vt 0.939081 0.132863
vt 0.99905 0.342604
vt 0.93931 0.342604
vt 0.93931 0.183297
vt 0.99905 0.183297
vt 0.985655 0.132863
vt 0.93931 0.342604
vt 0.99905 0.342604
vt 0.93931 0.183297
vt 0.99905 0.183297
vt 0.985655 0.179437
vt 0.93931 0.342604
vt 0.99905 0.342604
vt 0.93931 0.183297
vt 0.99905 0.183297
vt 0.939081 0.179437
vt 0.93931 0.342604
vt 0.99905 0.342604
vt 0.99905 0.183297
vt 0.93931 0.183297
vt 0.939081 0.132863
vt 0.99905 0.342604
vt 0.93931 0.342604
vt 0.93931 0.183297
vt 0.99905 0.183297
vt 0.985655 0.132863
vt 0.93931 0.342604
vt 0.99905 0.342604
vt 0.93931 0.183297
vt 0.99905 0.183297
vt 0.985655 0.179437
vt 0.93931 0.342604
vt 0.99905 0.342604
vt 0.93931 0.183297
vt 0.99905 0.183297
vt 0.939081 0.179437
vt 0.93931 0.342604
vt 0.99905 0.342604
vt 0.302823 0.656284
vt -0.000781 0.781451
vt 0.0 0.851064
vt 0.302823 0.718868
vt -0.000781 0.844034
vt -0.000781 0.656284
vt 0.979692 0.781451
vt 1.0 0.851064
vt -0.000781 0.718868
vt 0.979692 0.844034
vt -0.000781 0.718868
vt 0.145247 0.656284
vt 1.0 1.0
vt -0.000781 0.781451
vt 0.145247 0.718868
vt 0.156795 0.656284
vt 0.979692 0.718868
vt 0.0 1.0
vt 0.156795 0.718868
vt 0.979692 0.781451
vt 0.99905 0.183297
vt 0.93931 0.183297
vt 0.939081 0.132863
vt 0.99905 0.342604
vt 0.93931 0.342604
vt 0.93931 0.183297
vt 0.99905 0.183297
vt 0.985655 0.132863
vt 0.93931 0.342604
vt 0.99905 0.342604
vt 0.93931 0.183297
vt 0.99905 0.183297
vt 0.985655 0.179437
vt 0.93931 0.342604
vt 0.99905 0.342604
vt 0.93931 0.183297
vt 0.99905 0.183297
vt 0.939081 0.179437
vt 0.93931 0.342604
vt 0.99905 0.342604
vt 0.99905 0.183297
vt 0.93931 0.183297
vt 0.939081 0.132863
vt 0.99905 0.342604
vt 0.93931 0.342604
vt 0.93931 0.183297
vt 0.99905 0.183297
vt 0.985655 0.132863
vt 0.93931 0.342604
vt 0.99905 0.342604
vt 0.93931 0.183297
vt 0.99905 0.183297
vt 0.985655 0.179437
vt 0.93931 0.342604
vt 0.99905 0.342604
vt 0.93931 0.183297
vt 0.99905 0.183297
vt 0.939081 0.179437
vt 0.93931 0.342604
vt 0.99905 0.342604
vt 0.302823 0.656284
vt -0.000781 0.781451
vt 0.0 0.851064
vt 0.302823 0.718868
vt -0.000781 0.844034
vt -0.000781 0.656284
vt 0.979692 0.781451
vt 1.0 0.851064
vt -0.000781 0.718868
vt 0.979692 0.844034
vt -0.000781 0.718868
vt 0.145247 0.656284
vt 1.0 1.0
vt -0.000781 0.781451
vt 0.145247 0.718868
vt 0.156795 0.656284
vt 0.979692 0.718868
vt 0.0 1.0
vt 0.156795 0.718868
vt 0.979692 0.781451
vt 0.99905 0.183297
vt 0.93931 0.183297
vt 0.939081 0.132863
vt 0.99905 0.342604
vt 0.93931 0.342604
vt 0.93931 0.183297
vt 0.99905 0.183297
vt 0.985655 0.132863
vt 0.93931 0.342604
vt 0.99905 0.342604
vt 0.93931 0.183297
vt 0.99905 0.183297
vt 0.985655 0.179437
vt 0.93931 0.342604
vt 0.99905 0.342604
vt 0.93931 0.183297
vt 0.99905 0.183297
vt 0.939081 0.179437
vt 0.93931 0.342604
vt 0.99905 0.342604
vt 0.99905 0.183297
vt 0.93931 0.183297
vt 0.939081 0.132863
vt 0.99905 0.342604
vt 0.93931 0.342604
vt 0.93931 0.183297
vt 0.99905 0.183297
vt 0.985655 0.132863
vt 0.93931 0.342604
vt 0.99905 0.342604
vt 0.93931 0.183297
vt 0.99905 0.183297
vt 0.985655 0.179437
vt 0.93931 0.342604
vt 0.99905 0.342604
vt 0.93931 0.183297
vt 0.99905 0.183297
vt 0.939081 0.179437
vt 0.93931 0.342604
vt 0.99905 0.342604
vt 0.302823 0.656284
vt -0.000781 0.781451
vt 0.0 0.851064
vt 0.302823 0.718868
vt -0.000781 0.844034
vt -0.000781 0.656284
vt 0.979692 0.781451
vt 1.0 0.851064
vt -0.000781 0.718868
vt 0.979692 0.844034
vt -0.000781 0.718868
vt 0.145247 0.656284
vt 1.0 1.0
vt -0.000781 0.781451
vt 0.145247 0.718868
vt 0.156795 0.656284
vt 0.979692 0.718868
vt 0.0 1.0
vt 0.156795 0.718868
vt 0.979692 0.781451
vt 0.99905 0.183297
vt 0.93931 0.183297
vt 0.939081 0.132863
vt 0.99905 0.342604
vt 0.93931 0.342604
vt 0.93931 0.183297
vt 0.99905 0.183297
vt 0.985655 0.132863
vt 0.93931 0.342604
vt 0.99905 0.342604
vt 0.93931 0.183297
vt 0.99905 0.183297
vt 0.985655 0.179437
vt 0.93931 0.342604
vt 0.99905 0.342604
vt 0.93931 0.183297
vt 0.99905 0.183297
vt 0.939081 0.179437
vt 0.93931 0.342604
vt 0.99905 0.342604
vt 0.99905 0.183297
vt 0.93931 0.183297
vt 0.939081 0.132863
vt 0.99905 0.342604
vt 0.93931 0.342604
vt 0.93931 0.183297
vt 0.99905 0.183297
vt 0.985655 0.132863
vt 0.93931 0.342604
vt 0.99905 0.342604
vt 0.93931 0.183297
vt 0.99905 0.183297
vt 0.985655 0.179437
vt 0.93931 0.342604
vt 0.99905 0.342604
vt 0.93931 0.183297
vt 0.99905 0.183297
vt 0.939081 0.179437
vt 0.93931 0.342604
vt 0.99905 0.342604
vt 0.302823 0.656284
vt -0.000781 0.781451
vt 0.0 0.851064
vt 0.302823 0.718868
vt -0.000781 0.844034
vt -0.000781 0.656284
vt 0.979692 0.781451
vt 1.0 0.851064
vt -0.000781 0.718868
vt 0.979692 0.844034
vt -0.000781 0.718868
vt 0.145247 0.656284
vt 1.0 1.0
vt -0.000781 0.781451
vt 0.145247 0.718868
vt 0.156795 0.656284
vt 0.979692 0.718868
vt 0.0 1.0
vt 0.156795 0.718868
vt 0.979692 0.781451
vt 0.057976 0.06215
vt 0.848099 0.297453
vt 0.474557 0.156096
vt 0.431196 0.034093
vt 0.847899 0.034093
vt 0.057854 0.156096
vt 0.474557 0.210448
vt 0.474678 0.048121
vt 0.057976 0.012881
vt 0.848099 0.259595
vt 0.847899 0.093759
vt 0.848099 0.312903
vt 0.057976 0.06215
vt 0.848099 0.281378
vt 0.474678 0.012881
vt 0.431396 0.259595
vt 0.058488 0.330358
vt 0.847899 0.121202
vt 0.058488 0.32163
vt 0.057976 0.0
vt 0.431396 0.219937
vt 0.431196 0.025761
vt 0.474678 0.06215
vt 0.431396 0.297453
vt 0.058488 0.312903
vt 0.057976 0.089593
vt 0.431196 0.093759
vt 0.431396 0.312903
vt 0.431396 0.281378
vt 0.474678 0.06215
vt 0.431196 0.121202
vt 0.475191 0.330358
vt 0.475191 0.32163
vt 0.474678 0.0
vt 0.057976 0.048121
vt 0.057854 0.210448
vt 0.847899 0.025761
vt 0.848099 0.219937
vt 0.058488 0.32163
vt 0.847899 0.012881
vt 0.475191 0.312903
vt 0.474678 0.089593
vt 0.431196 0.012881
vt 0.475191 0.32163
vt 0.848099 0.296828
vt 0.847899 0.048121
vt 0.431396 0.296828
vt 0.431196 0.048121
vt 0.057976 0.06215
vt 0.848099 0.297453
vt 0.058176 0.297453
vt 0.847899 0.06215
vt 0.847899 0.034093
vt 0.057854 0.156096
vt 0.847899 0.012881
vt 0.058176 0.259595
vt 0.847899 0.093759
vt 0.848099 0.312903
vt 0.057976 0.06215
vt 0.848099 0.281378
vt 0.058488 0.330358
vt 0.847899 0.121202
vt 0.848411 0.330358
vt 0.057976 0.121202
vt 0.058488 0.32163
vt 0.057976 0.0
vt 0.058488 0.312903
vt 0.057976 0.089593
vt 0.847899 0.06215
vt 0.058176 0.281378
vt 0.848411 0.32163
vt 0.847899 0.0
vt 0.057976 0.048121
vt 0.057854 0.210448
vt 0.847899 0.089593
vt 0.848411 0.312903
vt 0.058176 0.312903
vt 0.057976 0.093759
vt 0.847777 0.210448
vt 0.847899 0.048121
vt 0.847777 0.156096
vt 0.057976 0.034093
vt 0.057976 0.012881
vt 0.848099 0.259595
vt 0.847899 0.025761
vt 0.848099 0.219937
vt 0.058488 0.32163
vt 0.847899 0.012881
vt 0.848411 0.32163
vt 0.057976 0.012881
vt 0.058176 0.296828
vt 0.057976 0.048121
vt 0.847899 0.048121
vt 0.848099 0.296828
vt 0.057976 0.025761
vt 0.058176 0.219937
vt 0.452937 0.06215
vt 0.453137 0.297453
vt 0.452816 0.156096
vt 0.452937 0.034093
vt 0.452937 0.012881
vt 0.453137 0.259595
vt 0.453137 0.312903
vt 0.452937 0.093759
vt 0.452937 0.06215
vt 0.453137 0.281378
vt 0.45345 0.330358
vt 0.452937 0.121202
vt 0.45345 0.32163
vt 0.452937 0.0
vt 0.45345 0.312903
vt 0.452937 0.089593
vt 0.452937 0.048121
vt 0.452816 0.210448
vt 0.452937 0.025761
vt 0.453137 0.219937
vt 0.45345 0.32163
vt 0.452937 0.012881
vt 0.453137 0.296828
vt 0.452937 0.048121
vt 0.057976 0.06215
vt 0.848099 0.297453
vt 0.058176 0.297453
vt 0.847899 0.06215
vt 0.847899 0.034093
vt 0.057854 0.156096
vt 0.847899 0.012881
vt 0.058176 0.259595
vt 0.847899 0.093759
vt 0.848099 0.312903
vt 0.057976 0.06215
vt 0.848099 0.281378
vt 0.058488 0.330358
vt 0.847899 0.121202
vt 0.848411 0.330358
vt 0.057976 0.121202
vt 0.058488 0.32163
vt 0.057976 0.0
vt 0.058488 0.312903
vt 0.057976 0.089593
vt 0.847899 0.06215
vt 0.058176 0.281378
vt 0.848411 0.32163
vt 0.847899 0.0
vt 0.057976 0.048121
vt 0.057854 0.210448
vt 0.847899 0.089593
vt 0.848411 0.312903
vt 0.058176 0.312903
vt 0.057976 0.093759
vt 0.847777 0.210448
vt 0.847899 0.048121
vt 0.847777 0.156096
vt 0.057976 0.034093
vt 0.057976 0.012881
vt 0.848099 0.259595
vt 0.847899 0.025761
vt 0.848099 0.219937
vt 0.058488 0.32163
vt 0.847899 0.012881
vt 0.848411 0.32163
vt 0.057976 0.012881
vt 0.058176 0.296828
vt 0.057976 0.048121
vt 0.847899 0.048121
vt 0.848099 0.296828
vt 0.057976 0.025761
vt 0.058176 0.219937
vt 0.452937 0.06215
vt 0.453137 0.297453
vt 0.452816 0.156096
vt 0.452937 0.034093
vt 0.452937 0.012881
vt 0.453137 0.259595
vt 0.453137 0.312903
vt 0.452937 0.093759
vt 0.452937 0.06215
vt 0.453137 0.281378
vt 0.45345 0.330358
vt 0.452937 0.121202
vt 0.45345 0.32163
vt 0.452937 0.0
vt 0.45345 0.312903
vt 0.452937 0.089593
vt 0.452937 0.048121
vt 0.452816 0.210448
vt 0.452937 0.025761
vt 0.453137 0.219937
vt 0.45345 0.32163
vt 0.452937 0.012881
vt 0.453137 0.296828
vt 0.452937 0.048121
vt 0.058176 0.297453
vt 0.847899 0.06215
vt 0.057976 0.06215
vt 0.848099 0.297453
vt 0.847899 0.012881
vt 0.058176 0.259595
vt 0.847899 0.034093
vt 0.057854 0.156096
vt 0.848411 0.330358
vt 0.057976 0.121202
vt 0.847899 0.06215
vt 0.058176 0.281378
vt 0.848411 0.32163
vt 0.847899 0.0
vt 0.847899 0.093759
vt 0.848099 0.312903
vt 0.847899 0.089593
vt 0.848411 0.312903
vt 0.058176 0.312903
vt 0.057976 0.093759
vt 0.057976 0.06215
vt 0.848099 0.281378
vt 0.058488 0.330358
vt 0.847899 0.121202
vt 0.847777 0.210448
vt 0.847899 0.048121
vt 0.057976 0.0
vt 0.058488 0.32163
vt 0.058488 0.312903
vt 0.057976 0.089593
vt 0.057976 0.048121
vt 0.057854 0.210448
vt 0.057976 0.012881
vt 0.848099 0.259595
vt 0.847777 0.156096
vt 0.057976 0.034093
vt 0.057976 0.012881
vt 0.848411 0.32163
vt 0.058176 0.296828
vt 0.057976 0.048121
vt 0.847899 0.025761
vt 0.848099 0.219937
vt 0.058488 0.32163
vt 0.847899 0.012881
vt 0.057976 0.025761
vt 0.058176 0.219937
vt 0.847899 0.048121
vt 0.848099 0.296828
vt 0.452937 0.06215
vt 0.453137 0.297453
vt 0.452816 0.156096
vt 0.452937 0.034093
vt 0.452937 0.012881
vt 0.453137 0.259595
vt 0.453137 0.312903
vt 0.452937 0.093759
vt 0.452937 0.06215
vt 0.453137 0.281378
vt 0.45345 0.330358
vt 0.452937 0.121202
vt 0.452937 0.0
vt 0.45345 0.32163
vt 0.452937 0.089593
vt 0.45345 0.312903
vt 0.452937 0.048121
vt 0.452816 0.210448
vt 0.452937 0.025761
vt 0.453137 0.219937
vt 0.452937 0.012881
vt 0.45345 0.32163
vt 0.453137 0.296828
vt 0.452937 0.048121
vt 0.423949 0.06215
vt 0.482125 0.297453
vt 0.847899 0.06215
vt 0.058176 0.297453
vt 0.423828 0.156096
vt 0.481925 0.034093
vt 0.847777 0.156096
vt 0.057976 0.034093
vt 0.482125 0.312903
vt 0.481925 0.093759
vt 0.423949 0.06215
vt 0.482125 0.281378
vt 0.424462 0.330358
vt 0.481925 0.121202
vt 0.847899 0.012881
vt 0.058176 0.259595
vt 0.423949 0.012881
vt 0.482125 0.259595
vt 0.424462 0.32163
vt 0.423949 0.0
vt 0.058176 0.312903
vt 0.057976 0.093759
vt 0.847899 0.06215
vt 0.058176 0.281378
vt 0.424462 0.312903
vt 0.423949 0.089593
vt 0.848411 0.330358
vt 0.057976 0.121202
vt 0.848411 0.32163
vt 0.847899 0.0
vt 0.848411 0.312903
vt 0.847899 0.089593
vt 0.847899 0.048121
vt 0.847777 0.210448
vt 0.423949 0.048121
vt 0.423828 0.210448
vt 0.481925 0.025761
vt 0.482125 0.219937
vt 0.424462 0.32163
vt 0.481925 0.012881
vt 0.057976 0.025761
vt 0.058176 0.219937
vt 0.848411 0.32163
vt 0.057976 0.012881
vt 0.482125 0.296828
vt 0.481925 0.048121
vt 0.058176 0.296828
vt 0.057976 0.048121
vt 0.04336 0.156096
vt 0.862393 0.034093
vt 0.04336 0.210448
vt 0.043482 0.048121
vt 0.481925 0.06215
vt 0.424149 0.297453
vt 0.423949 0.034093
vt 0.481804 0.156096
vt 0.043482 0.012881
vt 0.862593 0.259595
vt 0.862593 0.219937
vt 0.862393 0.025761
vt 0.043482 0.06215
vt 0.862593 0.297453
vt 0.481925 0.012881
vt 0.424149 0.259595
vt 0.423949 0.093759
vt 0.424149 0.312903
vt 0.862393 0.093759
vt 0.862593 0.312903
vt 0.862593 0.281378
vt 0.043482 0.06215
vt 0.862393 0.121202
vt 0.043994 0.330358
vt 0.481925 0.06215
vt 0.424149 0.281378
vt 0.043994 0.32163
vt 0.043482 0.0
vt 0.043994 0.312903
vt 0.043482 0.089593
vt 0.482438 0.330358
vt 0.423949 0.121202
vt 0.482438 0.32163
vt 0.481925 0.0
vt 0.482438 0.312903
vt 0.481925 0.089593
vt 0.481925 0.048121
vt 0.481804 0.210448
vt 0.862393 0.012881
vt 0.043994 0.32163
vt 0.423949 0.025761
vt 0.424149 0.219937
vt 0.482438 0.32163
vt 0.423949 0.012881
vt 0.862593 0.296828
vt 0.862393 0.048121
vt 0.424149 0.296828
vt 0.423949 0.048121
vt 0.249845 0.330358
vt 0.656542 0.121202
vt 0.20676 0.0
vt 0.207273 0.32163
vt 0.313352 0.155216
vt 0.312725 0.32163
vt 0.593662 0.012881
vt 0.250222 0.062692
vt 0.161149 0.089762
vt 0.583749 0.296828
vt 0.583549 0.048121
vt 0.60147 0.210307
vt 0.583549 0.034093
vt 0.60147 0.186918
vt 0.218773 0.089593
vt 0.219285 0.312903
vt 0.261857 0.32163
vt 0.64453 0.012881
vt 0.047038 0.248893
vt 0.593662 0.025761
vt 0.593862 0.219937
vt 0.250222 0.093387
vt 0.634617 0.296828
vt 0.634417 0.048121
vt 0.00508 0.035577
vt 0.20126 0.089762
vt 0.605874 0.312903
vt 0.605674 0.093759
vt 0.65742 0.229157
vt 0.500174 0.121202
vt 0.636778 0.146215
vt 0.406213 0.330358
vt 0.363129 0.0
vt 0.363641 0.32163
vt 0.661518 0.146215
vt 0.375141 0.089593
vt 0.375653 0.312903
vt 0.654538 0.146215
vt 0.488161 0.012881
vt 0.629797 0.146215
vt 0.418226 0.32163
vt 0.478049 0.048121
vt 0.62392 0.133313
vt 0.478249 0.296828
vt 0.62392 0.126717
vt 0.427704 0.156096
vt 0.478049 0.034093
vt 0.352895 0.210448
vt 0.353016 0.048121
vt 0.667395 0.126717
vt 0.363129 0.012881
vt 0.542946 0.259595
vt 0.661518 0.152271
vt 0.488161 0.025761
vt 0.488361 0.219937
vt 0.629797 0.152271
vt 0.353016 0.06215
vt 0.553058 0.297453
vt 0.667395 0.133313
vt 0.636778 0.133313
vt 0.500174 0.093759
vt 0.500374 0.312903
vt 0.654538 0.133313
vt 0.530933 0.281378
vt 0.375141 0.06215
vt 0.562676 0.210307
vt 0.562532 0.186918
vt 0.273432 0.126212
vt 0.218611 0.062692
vt 0.004201 0.21777
vt 0.218611 0.093387
vt 0.862593 0.229104
vt 0.097766 0.248893
vt 0.60657 0.22917
vt 0.634417 0.034093
vt 0.271336 0.156096
vt 0.196648 0.048121
vt 0.196526 0.210448
vt 0.20676 0.012881
vt 0.699314 0.259595
vt 0.64453 0.025761
vt 0.64473 0.219937
vt 0.196648 0.06215
vt 0.709427 0.297453
vt 0.656742 0.312903
vt 0.656542 0.093759
vt 0.687302 0.281378
vt 0.218773 0.06215
vt 0.862393 0.034093
vt 0.04336 0.156096
vt 0.043482 0.048121
vt 0.04336 0.210448
vt 0.862271 0.210448
vt 0.862393 0.048121
vt 0.862271 0.156096
vt 0.043482 0.034093
vt 0.043482 0.012881
vt 0.862593 0.259595
vt 0.862393 0.025761
vt 0.862593 0.219937
vt 0.043482 0.06215
vt 0.862593 0.297453
vt 0.862393 0.06215
vt 0.043682 0.297453
vt 0.862393 0.012881
vt 0.043682 0.259595
vt 0.862593 0.312903
vt 0.862393 0.093759
vt 0.862593 0.281378
vt 0.043482 0.06215
vt 0.043994 0.330358
vt 0.862393 0.121202
vt 0.862905 0.330358
vt 0.043482 0.121202
vt 0.043482 0.0
vt 0.043994 0.32163
vt 0.043482 0.089593
vt 0.043994 0.312903
vt 0.043682 0.281378
vt 0.862393 0.06215
vt 0.862905 0.32163
vt 0.862393 0.0
vt 0.862905 0.312903
vt 0.862393 0.089593
vt 0.043682 0.312903
vt 0.043482 0.093759
vt 0.043994 0.32163
vt 0.862393 0.012881
vt 0.043482 0.012881
vt 0.862905 0.32163
vt 0.043482 0.048121
vt 0.043682 0.296828
vt 0.862593 0.296828
vt 0.862393 0.048121
vt 0.043482 0.025761
vt 0.043682 0.219937
vt 0.452816 0.156096
vt 0.452937 0.034093
vt 0.452816 0.210448
vt 0.452937 0.048121
vt 0.452937 0.012881
vt 0.453137 0.259595
vt 0.452937 0.025761
vt 0.453137 0.219937
vt 0.452937 0.06215
vt 0.453137 0.297453
vt 0.452937 0.093759
vt 0.453137 0.312903
vt 0.453137 0.281378
vt 0.452937 0.06215
vt 0.00508 0.124199
vt 0.358036 0.155216
vt 0.300713 0.330358
vt 0.605674 0.121202
vt 0.04336 0.156096
vt 0.862393 0.034093
vt 0.04336 0.210448
vt 0.043482 0.048121
vt 0.674654 0.124176
vt 0.684272 0.210448
vt 0.684394 0.048121
vt 0.767056 0.124176
vt 0.851552 0.156096
vt 0.054201 0.034093
vt 0.862593 0.259595
vt 0.043482 0.012881
vt 0.862593 0.219937
vt 0.862393 0.025761
vt 0.043482 0.06215
vt 0.862593 0.297453
vt 0.674654 0.131574
vt 0.684394 0.06215
vt 0.221681 0.297453
vt 0.687145 0.152838
vt 0.707006 0.012881
vt 0.199068 0.259595
vt 0.862593 0.312903
vt 0.862393 0.093759
vt 0.862593 0.281378
vt 0.043482 0.06215
vt 0.043994 0.330358
vt 0.862393 0.121202
vt 0.739728 0.146046
vt 0.103674 0.121202
vt 0.802713 0.330358
vt 0.043994 0.32163
vt 0.043482 0.0
vt 0.043482 0.089593
vt 0.043994 0.312903
vt 0.701982 0.131574
vt 0.172208 0.281378
vt 0.733867 0.06215
vt 0.687145 0.146046
vt 0.707519 0.32163
vt 0.707006 0.0
vt 0.701982 0.146046
vt 0.734379 0.312903
vt 0.733867 0.089593
vt 0.739728 0.131574
vt 0.103674 0.093759
vt 0.103874 0.312903
vt 0.043994 0.32163
vt 0.862393 0.012881
vt 0.754565 0.146046
vt 0.076814 0.012881
vt 0.829573 0.32163
vt 0.767056 0.131574
vt 0.054201 0.048121
vt 0.054401 0.296828
vt 0.862393 0.048121
vt 0.862593 0.296828
vt 0.754565 0.152838
vt 0.076814 0.025761
vt 0.077013 0.219937
vt 0.452816 0.156096
vt 0.452937 0.034093
vt 0.452816 0.210448
vt 0.452937 0.048121
vt 0.453137 0.259595
vt 0.452937 0.012881
vt 0.453137 0.219937
vt 0.452937 0.025761
vt 0.452937 0.06215
vt 0.453137 0.297453
vt 0.452937 0.093759
vt 0.453137 0.312903
vt 0.453137 0.281378
vt 0.452937 0.06215
vt 0.452937 0.121202
vt 0.45345 0.330358
vt 0.45345 0.32163
vt 0.452937 0.0
vt 0.45345 0.312903
vt 0.452937 0.089593
vt 0.45345 0.32163
vt 0.452937 0.012881
vt 0.452937 0.048121
vt 0.453137 0.296828
vt 0.905753 0.156096
vt 0.0 0.034093
vt 0.905875 0.034093
vt -0.000122 0.156096
vt 0.905875 0.048121
vt 0.905753 0.210448
vt 0.0 0.048121
vt -0.000122 0.210448
vt 0.905875 0.048121
vt 0.905753 0.210448
vt 0.905753 0.156096
vt 0.0 0.034093
vt 0.0002 0.259595
vt 0.905875 0.012881
vt 0.906075 0.259595
vt 0.0 0.012881
vt 0.0 0.025761
vt 0.0002 0.219937
vt 0.905875 0.025761
vt 0.906075 0.219937
vt 0.905875 0.06215
vt 0.0002 0.297453
vt 0.906075 0.297453
vt 0.0 0.06215
vt 0.905875 0.06215
vt 0.0002 0.297453
vt 0.0002 0.259595
vt 0.905875 0.012881
vt 0.0 0.093759
vt 0.0002 0.312903
vt 0.906075 0.312903
vt 0.905875 0.093759
vt 0.905875 0.06215
vt 0.0002 0.281378
vt 0.0 0.06215
vt 0.906075 0.281378
vt 0.906387 0.330358
vt 0.0 0.121202
vt 0.000512 0.330358
vt 0.905875 0.121202
vt 0.906387 0.330358
vt 0.0 0.121202
vt 0.906387 0.32163
vt 0.905875 0.0
vt 0.000512 0.32163
vt 0.0 0.0
vt 0.906387 0.312903
vt 0.905875 0.089593
vt 0.0 0.089593
vt 0.000512 0.312903
vt 0.905875 0.06215
vt 0.0002 0.281378
vt 0.906387 0.32163
vt 0.905875 0.0
vt 0.906387 0.312903
vt 0.905875 0.089593
vt 0.0002 0.312903
vt 0.0 0.093759
vt 0.906387 0.32163
vt 0.0 0.012881
vt 0.0002 0.296828
vt 0.0 0.048121
vt 0.0002 0.219937
vt 0.0 0.025761
vt 0.905875 0.048121
vt 0.905753 0.210448
vt 0.905753 0.156096
vt 0.0 0.034093
vt 0.0002 0.259595
vt 0.905875 0.012881
vt 0.906075 0.259595
vt 0.0 0.012881
vt 0.0 0.025761
vt 0.0002 0.219937
vt 0.905875 0.025761
vt 0.906075 0.219937
vt 0.905875 0.06215
vt 0.0002 0.297453
vt 0.0 0.06215
vt 0.906075 0.297453
vt 0.905875 0.06215
vt 0.0002 0.297453
vt 0.0002 0.259595
vt 0.905875 0.012881
vt 0.906387 0.330358
vt 0.0 0.121202
vt 0.905875 0.06215
vt 0.0002 0.281378
vt 0.906387 0.32163
vt 0.905875 0.0
vt 0.905875 0.089593
vt 0.906387 0.312903
vt 0.0002 0.312903
vt 0.0 0.093759
vt 0.906387 0.32163
vt 0.0 0.012881
vt 0.0002 0.296828
vt 0.0 0.048121
vt 0.0 0.025761
vt 0.0002 0.219937
vt 0.314025 0.062518
vt 0.695494 0.156096
vt 0.210259 0.034093
vt 0.769835 0.048121
vt 0.769713 0.210448
vt 0.146272 0.259595
vt 0.759802 0.012881
vt 0.05419 0.218096
vt 0.064224 0.092282
vt 0.200426 0.219937
vt 0.200226 0.025761
vt 0.769835 0.06215
vt 0.13624 0.297453
vt 0.002468 0.035577
vt 0.20021 0.088575
vt 0.188508 0.312903
vt 0.188309 0.093759
vt 0.747885 0.06215
vt 0.15819 0.281378
vt 0.002468 0.124199
vt 0.355882 0.152781
vt 0.718078 0.330358
vt 0.188309 0.121202
vt 0.760314 0.32163
vt 0.759802 0.0
vt 0.748397 0.312903
vt 0.747885 0.089593
vt 0.320017 0.126517
vt 0.064224 0.063465
vt 0.706161 0.32163
vt 0.200226 0.012881
vt 0.168016 0.064999
vt 0.314025 0.092898
vt 0.210459 0.296828
vt 0.210259 0.048121
vt 0.92638 0.124279
vt 0.323816 0.034093
vt 0.581937 0.156096
vt 0.892299 0.124279
vt 0.649177 0.048121
vt 0.649055 0.210448
vt 0.896906 0.151878
vt 0.265971 0.259595
vt 0.640104 0.012881
vt 0.921773 0.151878
vt 0.314743 0.025761
vt 0.314943 0.219937
vt 0.892299 0.131403
vt 0.256898 0.297453
vt 0.649177 0.06215
vt 0.9163 0.131403
vt 0.304166 0.312903
vt 0.303966 0.093759
vt 0.902379 0.131403
vt 0.629326 0.06215
vt 0.276748 0.281378
vt 0.9163 0.145338
vt 0.602421 0.330358
vt 0.303966 0.121202
vt 0.896906 0.145338
vt 0.640616 0.32163
vt 0.640104 0.0
vt 0.902379 0.145338
vt 0.629326 0.089593
vt 0.629839 0.312903
vt 0.921773 0.145338
vt 0.314743 0.012881
vt 0.591644 0.32163
vt 0.92638 0.131403
vt 0.323816 0.048121
vt 0.324016 0.296828
vt 0.374311 0.062518
vt 0.127246 0.064999
vt 0.37422 0.092898
vt 0.098693 0.092282
vt 0.098657 0.063465
vt 0.99905 0.183297
vt 0.93931 0.183297
vt 0.939081 0.132863
vt 0.99905 0.342604
vt 0.93931 0.342604
vt 0.93931 0.183297
vt 0.99905 0.183297
vt 0.985655 0.132863
vt 0.93931 0.342604
vt 0.99905 0.342604
vt 0.93931 0.183297
vt 0.99905 0.183297
vt 0.985655 0.179437
vt 0.93931 0.342604
vt 0.99905 0.342604
vt 0.93931 0.183297
vt 0.99905 0.183297
vt 0.939081 0.179437
vt 0.93931 0.342604
vt 0.99905 0.342604
vt 0.99905 0.183297
vt 0.93931 0.183297
vt 0.939081 0.132863
vt 0.99905 0.342604
vt 0.93931 0.342604
vt 0.93931 0.183297
vt 0.99905 0.183297
vt 0.985655 0.132863
vt 0.93931 0.342604
vt 0.99905 0.342604
vt 0.93931 0.183297
vt 0.99905 0.183297
vt 0.985655 0.179437
vt 0.93931 0.342604
vt 0.99905 0.342604
vt 0.93931 0.183297
vt 0.99905 0.183297
vt 0.939081 0.179437
vt 0.93931 0.342604
vt 0.99905 0.342604
vt 0.302823 0.656284
vt -0.000781 0.781451
vt 0.0 0.851064
vt 0.302823 0.718868
vt -0.000781 0.844034
vt -0.000781 0.656284
vt 0.979692 0.781451
vt 1.0 0.851064
vt -0.000781 0.718868
vt 0.979692 0.844034
vt -0.000781 0.718868
vt 0.145247 0.656284
vt 1.0 1.0
vt -0.000781 0.781451
vt 0.145247 0.718868
vt 0.156795 0.656284
vt 0.979692 0.718868
vt 0.0 1.0
vt 0.156795 0.718868
vt 0.979692 0.781451
vt 0.99905 0.183297
vt 0.93931 0.183297
vt 0.939081 0.132863
vt 0.99905 0.342604
vt 0.93931 0.342604
vt 0.93931 0.183297
vt 0.99905 0.183297
vt 0.985655 0.132863
vt 0.93931 0.342604
vt 0.99905 0.342604
vt 0.93931 0.183297
vt 0.99905 0.183297
vt 0.985655 0.179437
vt 0.93931 0.342604
vt 0.99905 0.342604
vt 0.93931 0.183297
vt 0.99905 0.183297
vt 0.939081 0.179437
vt 0.93931 0.342604
vt 0.99905 0.342604
vt 0.99905 0.183297
vt 0.93931 0.183297
vt 0.939081 0.132863
vt 0.99905 0.342604
vt 0.93931 0.342604
vt 0.93931 0.183297
vt 0.99905 0.183297
vt 0.985655 0.132863
vt 0.93931 0.342604
vt 0.99905 0.342604
vt 0.93931 0.183297
vt 0.99905 0.183297
vt 0.985655 0.179437
vt 0.93931 0.342604
vt 0.99905 0.342604
vt 0.93931 0.183297
vt 0.99905 0.183297
vt 0.939081 0.179437
vt 0.93931 0.342604
vt 0.99905 0.342604
vt 0.302823 0.656284
vt -0.000781 0.781451
vt 0.0 0.851064
vt 0.302823 0.718868
vt -0.000781 0.844034
vt -0.000781 0.656284
vt 0.979692 0.781451
vt 1.0 0.851064
vt -0.000781 0.718868
vt 0.979692 0.844034
vt -0.000781 0.718868
vt 0.145247 0.656284
vt 1.0 1.0
vt -0.000781 0.781451
vt 0.145247 0.718868
vt 0.156795 0.656284
vt 0.979692 0.718868
vt 0.0 1.0
vt 0.156795 0.718868
vt 0.979692 0.781451
vt 0.99905 0.183297
vt 0.93931 0.183297
vt 0.939081 0.132863
vt 0.99905 0.342604
vt 0.93931 0.342604
vt 0.93931 0.183297
vt 0.99905 0.183297
vt 0.985655 0.132863
vt 0.93931 0.342604
vt 0.99905 0.342604
vt 0.93931 0.183297
vt 0.99905 0.183297
vt 0.985655 0.179437
vt 0.93931 0.342604
vt 0.99905 0.342604
vt 0.93931 0.183297
vt 0.99905 0.183297
vt 0.939081 0.179437
vt 0.93931 0.342604
vt 0.99905 0.342604
vt 0.99905 0.183297
vt 0.93931 0.183297
vt 0.939081 0.132863
vt 0.99905 0.342604
vt 0.93931 0.342604
vt 0.93931 0.183297
vt 0.99905 0.183297
vt 0.985655 0.132863
vt 0.93931 0.342604
vt 0.99905 0.342604
vt 0.93931 0.183297
vt 0.99905 0.183297
vt 0.985655 0.179437
vt 0.93931 0.342604
vt 0.99905 0.342604
vt 0.93931 0.183297
vt 0.99905 0.183297
vt 0.939081 0.179437
vt 0.93931 0.342604
vt 0.99905 0.342604
vt 0.302823 0.656284
vt -0.000781 0.781451
vt 0.0 0.851064
vt 0.302823 0.718868
vt -0.000781 0.844034
vt -0.000781 0.656284
vt 0.979692 0.781451
vt 1.0 0.851064
vt -0.000781 0.718868
vt 0.979692 0.844034
vt -0.000781 0.718868
vt 0.145247 0.656284
vt 1.0 1.0
vt -0.000781 0.781451
vt 0.145247 0.718868
vt 0.156795 0.656284
vt 0.979692 0.718868
vt 0.0 1.0
vt 0.156795 0.718868
vt 0.979692 0.781451
vt 0.99905 0.183297
vt 0.93931 0.183297
vt 0.939081 0.132863
vt 0.99905 0.342604
vt 0.93931 0.342604
vt 0.93931 0.183297
vt 0.99905 0.183297
vt 0.985655 0.132863
vt 0.93931 0.342604
vt 0.99905 0.342604
vt 0.93931 0.183297
vt 0.99905 0.183297
vt 0.985655 0.179437
vt 0.93931 0.342604
vt 0.99905 0.342604
vt 0.93931 0.183297
vt 0.99905 0.183297
vt 0.939081 0.179437
vt 0.93931 0.342604
vt 0.99905 0.342604
vt 0.99905 0.183297
vt 0.93931 0.183297
vt 0.939081 0.132863
vt 0.99905 0.342604
vt 0.93931 0.342604
vt 0.93931 0.183297
vt 0.99905 0.183297
vt 0.985655 0.132863
vt 0.93931 0.342604
vt 0.99905 0.342604
vt 0.93931 0.183297
vt 0.99905 0.183297
vt 0.985655 0.179437
vt 0.93931 0.342604
vt 0.99905 0.342604
vt 0.93931 0.183297
vt 0.99905 0.183297
vt 0.939081 0.179437
vt 0.93931 0.342604
vt 0.99905 0.342604
vt 0.302823 0.656284
vt -0.000781 0.781451
vt 0.0 0.851064
vt 0.302823 0.718868
vt -0.000781 0.844034
vt -0.000781 0.656284
vt 0.979692 0.781451
vt 1.0 0.851064
vt -0.000781 0.718868
vt 0.979692 0.844034
vt -0.000781 0.718868
vt 0.145247 0.656284
vt 1.0 1.0
vt -0.000781 0.781451
vt 0.145247 0.718868
vt 0.156795 0.656284
vt 0.979692 0.718868
vt 0.0 1.0
vt 0.156795 0.718868
vt 0.979692 0.781451
vt 0.906387 0.32163
vt 0.0 0.012881
vt 0.905875 0.012881
vt 0.000512 0.32163
vt 0.0002 0.296828
vt 0.0 0.048121
vt 0.905875 0.048121
vt 0.906075 0.296828
vt 0.800285 0.851064
vt 0.783877 0.844034
vt -0.000122 0.156096
vt 0.905875 0.034093
vt 0.0 0.048121
vt -0.000122 0.210448
vt 0.905875 0.048121
vt 0.905753 0.210448
vt 0.0 0.048121
vt -0.000122 0.210448
vt 0.905753 0.156096
vt 0.0 0.034093
vt -0.000122 0.156096
vt 0.905875 0.034093
vt 0.906075 0.259595
vt 0.0 0.012881
vt 0.905875 0.025761
vt 0.906075 0.219937
vt 0.0 0.06215
vt 0.906075 0.297453
vt 0.906075 0.312903
vt 0.905875 0.093759
vt 0.0 0.06215
vt 0.906075 0.281378
vt 0.000512 0.330358
vt 0.905875 0.121202
vt 0.906387 0.330358
vt 0.0 0.121202
vt 0.000512 0.330358
vt 0.905875 0.121202
vt 0.000512 0.32163
vt 0.0 0.0
vt 0.0 0.089593
vt 0.000512 0.312903
vt 0.905875 0.06215
vt 0.0002 0.281378
vt 0.0 0.06215
vt 0.906075 0.281378
vt 0.906387 0.32163
vt 0.905875 0.0
vt 0.000512 0.32163
vt 0.0 0.0
vt 0.905875 0.089593
vt 0.906387 0.312903
vt 0.0 0.089593
vt 0.000512 0.312903
vt 0.0002 0.312903
vt 0.0 0.093759
vt 0.906075 0.312903
vt 0.905875 0.093759
vt 0.000512 0.32163
vt 0.905875 0.012881
vt 0.906387 0.32163
vt 0.0 0.012881
vt 0.000512 0.32163
vt 0.905875 0.012881
vt 0.0002 0.296828
vt 0.0 0.048121
vt 0.906075 0.296828
vt 0.905875 0.048121
vt 0.906075 0.296828
vt 0.905875 0.048121
vt 0.774623 0.125293
vt 0.395578 0.156096
vt 0.510175 0.034093
vt 0.99905 0.183297
vt 0.93931 0.183297
vt 0.985655 0.179437
vt 0.99905 0.342604
vt 0.93931 0.342604
vt 0.93931 0.183297
vt 0.99905 0.183297
vt 0.939081 0.132863
vt 0.93931 0.342604
vt 0.99905 0.342604
vt 0.985655 0.132863
vt 0.99905 0.342604
vt 0.93931 0.342604
vt 0.93931 0.183297
vt 0.99905 0.183297
vt 0.99905 0.183297
vt 0.93931 0.183297
vt 0.195035 0.718868
vt 0.195035 0.781451
vt 0.800285 1.0
vt 0.939081 0.179437
vt 0.93931 0.342604
vt 0.99905 0.342604
vt 0.774623 0.133236
vt 0.510375 0.296828
vt 0.510175 0.048121
vt 0.849952 0.125293
vt 0.528746 0.048121
vt 0.528624 0.210448
vt 0.849952 0.133236
vt 0.528746 0.06215
vt 0.377329 0.297453
vt 0.839769 0.156067
vt 0.395314 0.259595
vt 0.510761 0.012881
vt 0.796901 0.148774
vt 0.43556 0.330358
vt 0.470827 0.121202
vt 0.827674 0.133236
vt 0.489398 0.06215
vt 0.416677 0.281378
vt 0.839769 0.148774
vt 0.511273 0.32163
vt 0.510761 0.0
vt 0.827674 0.148774
vt 0.48991 0.312903
vt 0.489398 0.089593
vt 0.796901 0.133236
vt 0.470827 0.093759
vt 0.471026 0.312903
vt 0.784806 0.148774
vt 0.414197 0.32163
vt 0.49219 0.012881
vt 0.784806 0.156067
vt 0.49219 0.025761
vt 0.49239 0.219937
vt 0.99905 0.183297
vt 0.93931 0.183297
vt 0.939081 0.132863
vt 0.99905 0.342604
vt 0.93931 0.342604
vt 0.93931 0.183297
vt 0.99905 0.183297
vt 0.985655 0.132863
vt 0.93931 0.342604
vt 0.99905 0.342604
vt 0.93931 0.183297
vt 0.99905 0.183297
vt 0.985655 0.179437
vt 0.93931 0.342604
vt 0.99905 0.342604
vt 0.93931 0.183297
vt 0.99905 0.183297
vt 0.939081 0.179437
vt 0.93931 0.342604
vt 0.99905 0.342604
vt 0.99905 0.183297
vt 0.93931 0.183297
vt 0.939081 0.132863
vt 0.99905 0.342604
vt 0.93931 0.342604
vt 0.93931 0.183297
vt 0.99905 0.183297
vt 0.985655 0.132863
vt 0.93931 0.342604
vt 0.99905 0.342604
vt 0.93931 0.183297
vt 0.99905 0.183297
vt 0.985655 0.179437
vt 0.93931 0.342604
vt 0.99905 0.342604
vt 0.93931 0.183297
vt 0.99905 0.183297
vt 0.939081 0.179437
vt 0.93931 0.342604
vt 0.99905 0.342604
vt 0.302823 0.656284
vt -0.000781 0.781451
vt 0.0 0.851064
vt 0.302823 0.718868
vt -0.000781 0.844034
vt -0.000781 0.656284
vt 0.979692 0.781451
vt 1.0 0.851064
vt -0.000781 0.718868
vt 0.979692 0.844034
vt -0.000781 0.718868
vt 0.145247 0.656284
vt 1.0 1.0
vt -0.000781 0.781451
vt 0.145247 0.718868
vt 0.156795 0.656284
vt 0.979692 0.718868
vt 0.0 1.0
vt 0.156795 0.718868
vt 0.979692 0.781451
vt 0.99905 0.183297
vt 0.93931 0.183297
vt 0.939081 0.132863
vt 0.99905 0.342604
vt 0.93931 0.342604
vt 0.93931 0.183297
vt 0.99905 0.183297
vt 0.985655 0.132863
vt 0.93931 0.342604
vt 0.99905 0.342604
vt 0.93931 0.183297
vt 0.99905 0.183297
vt 0.985655 0.179437
vt 0.93931 0.342604
vt 0.99905 0.342604
vt 0.93931 0.183297
vt 0.99905 0.183297
vt 0.939081 0.179437
vt 0.93931 0.342604
vt 0.99905 0.342604
vt 0.99905 0.183297
vt 0.93931 0.183297
vt 0.939081 0.132863
vt 0.99905 0.342604
vt 0.93931 0.342604
vt 0.93931 0.183297
vt 0.99905 0.183297
vt 0.985655 0.132863
vt 0.93931 0.342604
vt 0.99905 0.342604
vt 0.93931 0.183297
vt 0.99905 0.183297
vt 0.985655 0.179437
vt 0.93931 0.342604
vt 0.99905 0.342604
vt 0.93931 0.183297
vt 0.99905 0.183297
vt 0.939081 0.179437
vt 0.93931 0.342604
vt 0.99905 0.342604
vt 0.302823 0.656284
vt -0.000781 0.781451
vt 0.0 0.851064
vt 0.302823 0.718868
vt -0.000781 0.844034
vt -0.000781 0.656284
vt 0.979692 0.781451
vt 1.0 0.851064
vt -0.000781 0.718868
vt 0.979692 0.844034
vt -0.000781 0.718868
vt 0.145247 0.656284
vt 1.0 1.0
vt -0.000781 0.781451
vt 0.145247 0.718868
vt 0.156795 0.656284
vt 0.979692 0.718868
vt 0.0 1.0
vt 0.156795 0.718868
vt 0.979692 0.781451
vt 0.99905 0.183297
vt 0.93931 0.183297
vt 0.939081 0.132863
vt 0.99905 0.342604
vt 0.93931 0.342604
vt 0.93931 0.183297
vt 0.99905 0.183297
vt 0.985655 0.132863
vt 0.93931 0.342604
vt 0.99905 0.342604
vt 0.93931 0.183297
vt 0.99905 0.183297
vt 0.985655 0.179437
vt 0.93931 0.342604
vt 0.99905 0.342604
vt 0.93931 0.183297
vt 0.99905 0.183297
vt 0.939081 0.179437
vt 0.93931 0.342604
vt 0.99905 0.342604
vt 1.0 1.0
vt -0.000781 0.781451
vt 0.145247 0.718868
vt 0.156795 0.656284
vt 0.979692 0.718868
vt 0.0 1.0
vt 0.156795 0.718868
vt 0.979692 0.781451
vt -0.000781 0.656284
vt 0.979692 0.781451
vt 1.0 0.851064
vt -0.000781 0.718868
vt 0.979692 0.844034
vt -0.000781 0.718868
vt 0.145247 0.656284
vt -0.000781 0.781451
vt 1.0 1.0
vt 0.145247 0.718868
vt 0.783877 0.781451
vt 0.302823 0.656284
vt -0.000781 0.781451
vt 0.0 0.851064
vt 0.302823 0.718868
vt -0.000781 0.844034
vt -0.000781 0.656284
vt 0.979692 0.781451
vt 1.0 0.851064
vt -0.000781 0.718868
vt 0.979692 0.844034
vt -0.000781 0.718868
vt 0.145247 0.656284
vt 1.0 1.0
vt -0.000781 0.781451
vt 0.145247 0.718868
vt 0.156795 0.656284
vt 0.979692 0.718868
vt 0.0 1.0
vt 0.156795 0.718868
vt 0.979692 0.781451
vt -0.000781 0.656284
vt 0.979692 0.781451
vt 1.0 0.851064
vt -0.000781 0.718868
vt 0.979692 0.844034
vt -0.000781 0.718868
vt 0.145247 0.656284
vt -0.000781 0.781451
vt 1.0 1.0
vt 0.145247 0.718868
vt 0.885651 0.781451
vt 0.904086 0.851064
vt 0.885651 0.844034
vt 0.09326 0.718868
vt 0.09326 0.781451
vt 0.904086 1.0
vt 0.99905 0.183297
vt 0.93931 0.183297
vt 0.99905 0.342604
vt 0.93931 0.342604
vt 0.939081 0.132863
vt 0.93931 0.183297
vt 0.99905 0.183297
vt 0.93931 0.342604
vt 0.99905 0.342604
vt 0.985655 0.132863
vt 0.93931 0.183297
vt 0.99905 0.183297
vt 0.93931 0.342604
vt 0.99905 0.342604
vt 0.985655 0.179437
vt 0.93931 0.183297
vt 0.99905 0.183297
vt 0.93931 0.342604
vt 0.99905 0.342604
vt 0.939081 0.179437
vt 0.99905 0.183297
vt 0.93931 0.183297
vt 0.939081 0.132863
vt 0.99905 0.342604
vt 0.93931 0.342604
vt 0.93931 0.183297
vt 0.99905 0.183297
vt 0.985655 0.132863
vt 0.93931 0.342604
vt 0.99905 0.342604
vt 0.93931 0.183297
vt 0.99905 0.183297
vt 0.985655 0.179437
vt 0.93931 0.342604
vt 0.99905 0.342604
vt 0.93931 0.183297
vt 0.99905 0.183297
vt 0.939081 0.179437
vt 0.93931 0.342604
vt 0.99905 0.342604
vt -0.000781 0.781451
vt 0.302823 0.656284
vt -0.000781 0.844034
vt 0.0 0.851064
vt 0.302823 0.718868
vt 0.979692 0.781451
vt -0.000781 0.656284
vt 0.979692 0.844034
vt 1.0 0.851064
vt -0.000781 0.718868
vt -0.000781 0.718868
vt 0.145247 0.656284

f 39/77 30/60 31/62 40/79
f 37/74 64/128 25/50 38/76
f 34/68 42/84 44/88 68/136
f 20/40 17/34 18/36 7/14
f 11/22 8/16 17/33 20/39
f 23/46 24/48 21/42 14/28
f 19/38 10/20 5/10 3/6
f 6/12 13/26 9/18 12/24
f 12/23 9/17 16/32 15/30
f 4/8 2/4 10/19 19/37
f 1/2 22/44 24/47 23/45
f 3/5 5/9 15/29 16/31
f 7/13 18/35 13/25 6/11
f 22/43 1/1 2/3 4/7
f 14/27 21/41 8/15 11/21
f 70/140 41/82 43/86 32/64
f 62/124 45/90 39/78 72/144
f 30/59 39/78 45/90 69/138
f 33/66 41/81 38/75 25/49
f 61/122 37/74 38/76 35/70
f 69/137 45/89 46/92 28/56
f 47/93 67/134 26/52 40/80
f 47/94 29/58 68/135 44/87
f 42/83 34/67 36/72 48/96
f 43/85 63/126 28/55 46/91
f 64/127 37/73 48/95 36/71
f 45/89 62/123 65/130 46/92
f 41/82 33/65 63/125 43/86
f 27/54 44/88 42/84 66/132
f 66/131 42/83 48/96 71/142
f 55/110 88/176 92/184 58/116
f 94/188 57/114 51/102 86/172
f 57/113 94/187 95/190 58/115
f 53/106 84/168 88/175 55/109
f 84/167 53/105 50/100 79/158
f 78/156 49/98 60/120 132/267
f 51/101 82/164 83/166 52/104
f 49/97 78/155 79/157 50/99
f 90/180 56/112 54/108 96/192
f 35/69 38/75 41/81 70/139
f 67/133 47/94 44/87 27/53
f 29/57 47/93 40/80 31/61
f 32/63 43/85 46/91 65/129
f 71/141 48/95 37/73 61/121
f 72/143 39/77 40/79 26/51
f 498/1083 543/1185 542/1183 494/1071
f 522/1143 529/1157 530/1159 523/1145
f 541/1181 73/145 558/1214 547/1193
f 129/261 59/118 52/103 83/165
f 130/263 59/117 56/111 90/179
f 96/191 54/107 60/119 131/265
f 93/186 55/110 58/116 95/189
f 82/163 51/102 57/114 91/182
f 91/181 57/113 58/115 92/183
f 85/170 53/106 55/109 93/185
f 80/160 50/100 53/105 85/169
f 131/264 60/120 49/98 81/162
f 86/171 51/101 52/104 133/269
f 81/161 49/97 50/99 80/159
f 87/174 54/108 56/112 89/178
f 97/194 98/197 100/202 99/199
f 99/198 100/201 102/207 101/204
f 101/203 102/206 104/212 103/209
f 103/208 104/211 98/196 97/193
f 98/195 104/210 102/205 100/200
f 109/219 105/213 106/214 163/336
f 166/342 108/218 164/337 168/347
f 106/215 162/334 168/347 164/337
f 110/220 113/225 114/228 111/222
f 120/239 115/230 118/234 111/221
f 111/221 111/221 114/227 120/239
f 116/231 110/220 111/222 117/233
f 115/229 120/238 119/236 112/223
f 119/235 120/237 114/226 113/224
f 117/232 117/232 111/221 118/234
f 121/241 122/244 124/249 123/246
f 123/245 124/248 126/254 125/251
f 125/250 126/253 128/259 127/256
f 127/255 128/258 122/243 121/240
f 122/242 128/257 126/252 124/247
f 59/118 130/262 133/268 52/103
f 59/117 129/260 89/177 56/111
f 54/107 87/173 132/266 60/119
f 134/270 137/275 138/278 135/272
f 144/289 139/280 142/284 135/271
f 135/271 135/271 138/277 144/289
f 140/281 134/270 135/272 141/283
f 139/279 144/288 143/286 136/273
f 143/285 144/287 138/276 137/274
f 141/282 141/282 135/271 142/284
f 145/291 146/294 148/299 147/296
f 147/295 148/298 150/304 149/301
f 149/300 150/303 152/309 151/306
f 151/305 152/308 146/293 145/290
f 146/292 152/307 150/302 148/297
f 153/311 155/316 156/319 154/314
f 155/315 157/321 158/324 156/318
f 157/320 159/326 160/329 158/323
f 159/325 153/310 154/313 160/328
f 154/312 156/317 158/322 160/327
f 108/217 166/341 165/339 107/216
f 165/338 166/340 168/346 167/344
f 167/343 168/345 162/333 161/331
f 163/335 163/335 106/215 164/337
f 169/349 170/352 172/357 171/354
f 171/353 172/356 174/362 173/359
f 173/358 174/361 176/367 175/364
f 175/363 176/366 170/351 169/348
f 170/350 176/365 174/360 172/355
f 177/369 179/374 180/377 178/372
f 179/373 181/379 182/382 180/376
f 181/378 183/384 184/387 182/381
f 183/383 177/368 178/371 184/386
f 178/370 180/375 182/380 184/385
f 185/389 186/392 188/397 187/394
f 187/393 188/396 190/402 189/399
f 189/398 190/401 192/407 191/404
f 191/403 192/406 186/391 185/388
f 186/390 192/405 190/400 188/395
f 193/409 194/412 196/417 195/414
f 195/413 196/416 198/422 197/419
f 197/418 198/421 200/427 199/424
f 199/423 200/426 194/411 193/408
f 194/410 200/425 198/420 196/415
f 201/429 203/434 204/437 202/432
f 203/433 205/439 206/442 204/436
f 205/438 207/444 208/447 206/441
f 207/443 201/428 202/431 208/446
f 202/430 204/435 206/440 208/445
f 209/449 210/452 212/457 211/454
f 211/453 212/456 214/462 213/459
f 213/458 214/461 216/467 215/464
f 215/463 216/466 210/451 209/448
f 210/450 216/465 214/460 212/455
f 217/469 218/472 220/477 219/474
f 219/473 220/476 222/482 221/479
f 221/478 222/481 224/487 223/484
f 223/483 224/486 218/471 217/468
f 218/470 224/485 222/480 220/475
f 225/489 227/494 228/497 226/492
f 227/493 229/499 230/502 228/496
f 229/498 231/504 232/507 230/501
f 231/503 225/488 226/491 232/506
f 226/490 228/495 230/500 232/505
f 233/509 234/512 236/517 235/514
f 235/513 236/516 238/522 237/519
f 237/518 238/521 240/527 239/524
f 239/523 240/526 234/511 233/508
f 234/510 240/525 238/520 236/515
f 241/529 242/532 244/537 243/534
f 243/533 244/536 246/542 245/539
f 245/538 246/541 248/547 247/544
f 247/543 248/546 242/531 241/528
f 242/530 248/545 246/540 244/535
f 249/549 251/554 252/557 250/552
f 251/553 253/559 254/562 252/556
f 253/558 255/564 256/567 254/561
f 255/563 249/548 250/551 256/566
f 250/550 252/555 254/560 256/565
f 257/569 258/572 260/577 259/574
f 259/573 260/576 262/582 261/579
f 261/578 262/581 264/587 263/584
f 263/583 264/586 258/571 257/568
f 258/570 264/585 262/580 260/575
f 265/589 266/592 268/597 267/594
f 267/593 268/596 270/602 269/599
f 269/598 270/601 272/607 271/604
f 271/603 272/606 266/591 265/588
f 266/590 272/605 270/600 268/595
f 273/609 275/614 276/617 274/612
f 275/613 277/619 278/622 276/616
f 277/618 279/624 280/627 278/621
f 279/623 273/608 274/611 280/626
f 274/610 276/615 278/620 280/625
f 281/629 282/632 284/637 283/634
f 283/633 284/636 286/642 285/639
f 285/638 286/641 288/647 287/644
f 287/643 288/646 282/631 281/628
f 282/630 288/645 286/640 284/635
f 289/649 290/652 292/657 291/654
f 291/653 292/656 294/662 293/659
f 293/658 294/661 296/667 295/664
f 295/663 296/666 290/651 289/648
f 290/650 296/665 294/660 292/655
f 297/669 299/674 300/677 298/672
f 299/673 301/679 302/682 300/676
f 301/678 303/684 304/687 302/681
f 303/683 297/668 298/671 304/686
f 298/670 300/675 302/680 304/685
f 305/689 306/692 308/697 307/694
f 307/693 308/696 310/702 309/699
f 309/698 310/701 312/707 311/704
f 311/703 312/706 306/691 305/688
f 306/690 312/705 310/700 308/695
f 313/709 471/1025 481/1045 319/721
f 336/755 491/1065 469/1021 314/711
f 334/751 488/1059 480/1043 328/739
f 315/713 472/1027 487/1057 330/743
f 326/735 478/1039 491/1064 336/754
f 327/737 479/1041 483/1049 333/749
f 472/1026 315/712 335/753 492/1067
f 489/1061 331/745 317/717 476/1035
f 318/719 477/1037 492/1066 335/752
f 319/720 481/1044 486/1055 325/733
f 324/731 475/1033 479/1040 327/736
f 316/715 470/1023 475/1032 324/730
f 337/757 361/805 365/813 342/767
f 353/789 362/807 372/827 358/799
f 363/809 340/763 360/803 370/823
f 339/761 362/806 369/821 349/781
f 366/815 344/771 351/785 364/811
f 338/759 361/804 369/820 352/787
f 357/797 371/825 370/822 360/802
f 344/770 366/814 371/824 357/796
f 341/765 364/810 372/826 359/801
f 368/819 346/775 342/766 365/812
f 340/762 363/808 367/817 348/779
f 348/778 367/816 368/818 350/783
f 361/805 338/758 347/777 365/813
f 362/807 339/760 359/800 372/827
f 354/791 363/809 370/823 355/793
f 362/806 353/788 352/786 369/821
f 364/811 341/764 343/769 366/815
f 361/804 337/756 349/780 369/820
f 371/825 356/795 355/792 370/822
f 366/814 343/768 356/794 371/824
f 364/810 351/784 358/798 372/826
f 365/812 347/776 350/782 368/819
f 363/808 354/790 345/773 367/817
f 346/774 368/818 367/816 345/772
f 373/829 397/877 401/885 378/839
f 389/861 398/879 408/899 394/871
f 399/881 376/835 396/875 406/895
f 375/833 398/878 405/893 385/853
f 402/887 380/843 387/857 400/883
f 374/831 397/876 405/892 388/859
f 393/869 407/897 406/894 396/874
f 380/842 402/886 407/896 393/868
f 377/837 400/882 408/898 395/873
f 404/891 382/847 378/838 401/884
f 376/834 399/880 403/889 384/851
f 384/850 403/888 404/890 386/855
f 397/877 374/830 383/849 401/885
f 398/879 375/832 395/872 408/899
f 390/863 399/881 406/895 391/865
f 398/878 389/860 388/858 405/893
f 400/883 377/836 379/841 402/887
f 397/876 373/828 385/852 405/892
f 407/897 392/867 391/864 406/894
f 402/886 379/840 392/866 407/896
f 400/882 387/856 394/870 408/898
f 401/884 383/848 386/854 404/891
f 399/880 390/862 381/845 403/889
f 382/846 404/890 403/888 381/844
f 426/935 434/951 444/971 428/939
f 410/903 433/949 437/957 419/921
f 435/953 411/905 431/945 442/967
f 412/907 434/950 441/965 424/931
f 438/959 413/909 418/919 436/955
f 409/901 433/948 441/964 421/925
f 416/915 436/954 444/970 432/947
f 413/908 438/958 443/969 427/937
f 411/904 435/952 439/960 415/913
f 440/962 423/929 419/920 437/956
f 425/933 435/953 442/967 429/941
f 415/912 439/961 440/963 417/917
f 433/949 409/900 414/911 437/957
f 434/951 412/906 432/946 444/971
f 423/928 440/963 439/961 422/927
f 434/950 426/934 421/924 441/965
f 436/955 416/914 420/923 438/959
f 433/948 410/902 424/930 441/964
f 443/968 430/943 429/940 442/966
f 438/958 420/922 430/942 443/969
f 436/954 418/918 428/938 444/970
f 437/956 414/910 417/916 440/962
f 435/952 425/932 422/926 439/960
f 427/936 443/968 442/966 431/944
f 445/973 446/975 456/995 450/983
f 448/979 447/977 467/1017 468/1019
f 453/989 452/987 465/1013 463/1009
f 461/1005 462/1007 447/976 448/978
f 455/993 449/981 451/985 458/999
f 446/974 445/972 462/1006 461/1004
f 463/1008 465/1012 466/1015 464/1011
f 458/998 451/984 464/1010 466/1014
f 449/980 455/992 468/1018 467/1016
f 450/982 456/994 460/1003 457/997
f 454/991 459/1001 452/986 453/988
f 459/1000 454/990 457/996 460/1002
f 488/1058 334/750 323/729 474/1031
f 320/723 473/1029 474/1030 323/728
f 477/1036 318/718 321/725 484/1051
f 471/1024 313/708 330/742 487/1056
f 473/1028 320/722 329/741 482/1047
f 482/1046 329/740 333/748 483/1048
f 490/1063 332/747 331/744 489/1060
f 484/1050 321/724 332/746 490/1062
f 314/710 469/1020 470/1022 316/714
f 476/1034 317/716 322/727 485/1053
f 485/1052 322/726 325/732 486/1054
f 478/1038 326/734 328/738 480/1042
f 493/1069 540/1179 538/1175 527/1153
f 560/1221 493/1069 527/1153 502/1095
f 504/1099 73/146 76/152 507/1108
f 508/1111 77/154 558/1215 514/1129
f 528/1155 539/1177 543/1184 498/1082
f 526/1151 535/1169 539/1176 528/1154
f 523/1144 530/1158 535/1168 526/1150
f 501/1091 551/1201 529/1156 522/1142
f 504/1098 507/1107 512/1123 511/1120
f 506/1105 515/1130 514/1127 504/1098
f 511/1120 505/1102 506/1105 504/1098
f 515/1130 513/1126 510/1117 509/1112
f 509/1112 509/1112 508/1110 514/1127
f 516/1133 496/1079 497/1081 517/1134
f 495/1075 518/1136 519/1138 500/1089
f 520/1139 534/1167 525/1149 503/1096
f 524/1147 533/1165 520/1139 503/1096
f 522/1142 497/1080 496/1078 501/1091
f 525/1148 534/1166 548/1195 499/1085
f 525/1149 500/1088 521/1141 503/1096
f 499/1084 548/1194 540/1178 493/1068
f 527/1152 538/1174 551/1200 501/1090
f 499/1085 495/1074 500/1087 525/1148
f 549/1197 76/152 73/146 541/1180
f 547/1192 558/1215 77/154 550/1199
f 544/1187 559/1217 75/150 546/1191
f 533/1164 524/1146 494/1070 542/1182
f 505/1101 74/148 75/149 506/1104
f 536/1171 557/1213 559/1216 544/1186
f 531/1161 554/1207 557/1212 536/1170
f 550/1198 77/153 553/1205 532/1163
f 537/1173 555/1209 556/1211 552/1203
f 532/1162 553/1204 554/1206 531/1160
f 514/1128 558/1214 73/145 504/1097
f 76/151 549/1196 552/1202 556/1210
f 495/1073 499/1084 493/1068 560/1220
f 502/1094 527/1152 501/1090 496/1077
f 506/1103 75/150 559/1217 515/1132
f 545/1189 74/147 555/1208 537/1172
f 74/148 545/1188 546/1190 75/149
f 557/1213 513/1125 515/1131 559/1216
f 513/1124 557/1212 554/1207 510/1116
f 509/1114 553/1205 77/153 508/1109
f 105/213 161/330 162/332 106/214
f 512/1122 556/1211 555/1209 511/1119
f 510/1115 554/1206 553/1204 509/1113
f 507/1106 76/151 556/1210 512/1121
f 511/1118 555/1208 74/147 505/1100
f 580/1270 595/1303 588/1289 566/1235
f 581/1273 595/1302 592/1297 573/1252
f 579/1268 590/1293 596/1305 582/1276
f 576/1259 591/1295 594/1301 578/1265
f 565/1233 587/1287 593/1299 574/1254
f 574/1253 593/1298 594/1300 575/1256
f 568/1240 589/1291 591/1294 576/1258
f 563/1228 586/1285 589/1290 568/1239
f 582/1275 596/1304 585/1283 564/1231
f 569/1243 587/1286 588/1288 584/1281
f 564/1230 585/1282 586/1284 563/1227
f 570/1245 590/1292 592/1296 572/1249
f 595/1303 581/1272 584/1280 588/1289
f 595/1302 580/1269 572/1248 592/1297
f 590/1293 570/1244 583/1278 596/1305
f 591/1295 571/1247 575/1255 594/1301
f 577/1262 593/1299 587/1287 569/1242
f 593/1298 577/1261 578/1264 594/1300
f 589/1291 567/1237 571/1246 591/1294
f 567/1236 589/1290 586/1285 562/1225
f 561/1223 585/1283 596/1304 583/1277
f 587/1286 565/1232 566/1234 588/1288
f 585/1282 561/1222 562/1224 586/1284
f 573/1251 592/1296 590/1292 579/1267
f 563/1226 568/1238 576/1257 564/1229
f 576/1257 578/1263 573/1250 579/1266
f 579/1266 582/1274 564/1229 576/1257
f 578/1263 577/1260 569/1241 584/1279
f 584/1279 581/1271 573/1250 578/1263
f 654/1467 610/1351 601/1321 648/1449
f 655/1470 611/1355 610/1350 654/1466
f 604/1331 638/1418 640/1424 612/1357
f 634/1408 600/1317 617/1367 645/1440
f 601/1320 602/1325 649/1452 648/1448
f 646/1443 597/1309 598/1313 647/1446
f 606/1337 651/1458 653/1464 608/1345
f 647/1445 598/1312 603/1329 650/1455
f 644/1436 616/1365 618/1369 637/1416
f 656/1473 758/1725 608/1344 653/1463
f 651/1457 606/1336 759/1729 657/1476
f 612/1356 640/1423 643/1432 614/1361
f 628/1395 625/1389 621/1377 775/1771
f 629/1397 628/1394 775/1770 776/1775
f 624/1387 627/1393 774/1767 623/1385
f 780/1789 632/1403 620/1373 764/1743
f 621/1376 625/1388 633/1405 622/1381
f 620/1372 619/1371 763/1739 764/1742
f 777/1779 771/1759 626/1391 630/1399
f 624/1386 623/1384 763/1738 619/1370
f 779/1785 622/1380 633/1404 631/1401
f 631/1400 626/1390 771/1758 779/1784
f 630/1398 632/1402 780/1788 777/1778
f 627/1392 629/1396 776/1774 774/1766
f 636/1412 605/1333 613/1359 642/1430
f 642/1429 613/1358 614/1360 643/1431
f 650/1454 603/1328 607/1341 652/1461
f 657/1475 759/1728 597/1308 646/1442
f 637/1415 618/1368 605/1332 636/1411
f 635/1410 599/1315 600/1316 634/1407
f 639/1422 615/1363 609/1347 641/1428
f 638/1417 604/1330 599/1314 635/1409
f 649/1451 602/1324 758/1724 656/1472
f 641/1427 609/1346 616/1364 644/1435
f 645/1439 617/1366 615/1362 639/1421
f 652/1460 607/1340 611/1354 655/1469
f 647/1444 650/1453 652/1459 646/1441
f 652/1459 655/1468 653/1462 651/1456
f 651/1456 651/1456 657/1474 646/1441
f 655/1468 654/1465 648/1447 649/1450
f 649/1450 649/1450 656/1471 653/1462
f 658/1477 634/1406 645/1438 659/1479
f 637/1414 660/1480 661/1481 644/1434
f 662/1483 663/1486 665/1491 664/1488
f 664/1487 665/1490 667/1496 666/1493
f 666/1492 667/1495 669/1501 668/1498
f 668/1497 669/1500 663/1485 662/1482
f 663/1484 669/1499 667/1494 665/1489
f 670/1503 672/1508 673/1511 671/1506
f 672/1507 674/1513 675/1516 673/1510
f 674/1512 676/1518 677/1521 675/1515
f 676/1517 670/1502 671/1505 677/1520
f 671/1504 673/1509 675/1514 677/1519
f 678/1523 679/1526 681/1531 680/1528
f 680/1527 681/1530 683/1536 682/1533
f 682/1532 683/1535 685/1541 684/1538
f 684/1537 685/1540 679/1525 678/1522
f 679/1524 685/1539 683/1534 681/1529
f 686/1543 687/1546 689/1551 688/1548
f 688/1547 689/1550 691/1556 690/1553
f 690/1552 691/1555 693/1561 692/1558
f 692/1557 693/1560 687/1545 686/1542
f 687/1544 693/1559 691/1554 689/1549
f 694/1563 696/1568 697/1571 695/1566
f 696/1567 698/1573 699/1576 697/1570
f 698/1572 700/1578 701/1581 699/1575
f 700/1577 694/1562 695/1565 701/1580
f 695/1564 697/1569 699/1574 701/1579
f 702/1583 703/1586 705/1591 704/1588
f 704/1587 705/1590 707/1596 706/1593
f 706/1592 707/1595 709/1601 708/1598
f 708/1597 709/1600 703/1585 702/1582
f 703/1584 709/1599 707/1594 705/1589
f 710/1603 711/1606 713/1611 712/1608
f 712/1607 713/1610 715/1616 714/1613
f 714/1612 715/1615 717/1621 716/1618
f 716/1617 717/1620 711/1605 710/1602
f 711/1604 717/1619 715/1614 713/1609
f 718/1623 720/1628 721/1631 719/1626
f 720/1627 722/1633 723/1636 721/1630
f 722/1632 724/1638 725/1641 723/1635
f 724/1637 718/1622 719/1625 725/1640
f 719/1624 721/1629 723/1634 725/1639
f 726/1643 727/1646 729/1651 728/1648
f 728/1647 729/1650 731/1656 730/1653
f 730/1652 731/1655 733/1661 732/1658
f 732/1657 733/1660 727/1645 726/1642
f 727/1644 733/1659 731/1654 729/1649
f 734/1663 735/1666 737/1671 736/1668
f 736/1667 737/1670 739/1676 738/1673
f 738/1672 739/1675 741/1681 740/1678
f 740/1677 741/1680 735/1665 734/1662
f 735/1664 741/1679 739/1674 737/1669
f 742/1683 744/1688 745/1691 743/1686
f 744/1687 746/1693 747/1696 745/1690
f 746/1692 748/1698 749/1701 747/1695
f 748/1697 742/1682 743/1685 749/1700
f 743/1684 745/1689 747/1694 749/1699
f 750/1703 751/1706 753/1711 752/1708
f 752/1707 753/1710 755/1716 754/1713
f 754/1712 755/1715 757/1721 756/1718
f 756/1717 757/1720 751/1705 750/1702
f 751/1704 757/1719 755/1714 753/1709
f 495/1072 495/1072 560/1219 641/1426
f 789/1811 785/1801 792/1817 784/1799
f 603/1327 795/1826 798/1835 607/1339
f 782/1794 597/1307 759/1727 793/1820
f 515/1130 515/1130 509/1112 514/1127
f 496/1076 659/1478 645/1437 502/1093
f 644/1433 518/1135 495/1072 641/1426
f 645/1437 645/1437 639/1420 502/1093
f 646/1441 646/1441 652/1459 651/1456
f 655/1468 655/1468 649/1450 653/1462
f 794/1823 598/1311 597/1306 782/1793
f 607/1338 798/1834 800/1841 611/1353
f 775/1769 621/1375 765/1745 772/1761
f 776/1773 775/1768 772/1760 773/1763
f 623/1383 774/1765 769/1753 767/1749
f 781/1791 780/1787 764/1741 761/1733
f 765/1744 621/1374 622/1379 766/1747
f 764/1740 763/1737 762/1735 761/1732
f 768/1751 770/1755 771/1757 777/1777
f 623/1382 767/1748 762/1734 763/1736
f 778/1781 766/1746 622/1378 779/1783
f 779/1782 771/1756 770/1754 778/1780
f 777/1776 780/1786 781/1790 768/1750
f 774/1764 776/1772 773/1762 769/1752
f 796/1829 601/1319 610/1349 799/1838
f 799/1837 610/1348 611/1352 800/1840
f 500/1086 519/1137 637/1413 521/1140
f 783/1796 789/1810 784/1798 787/1807
f 803/1850 602/1323 601/1318 796/1828
f 793/1819 759/1726 606/1335 801/1844
f 801/1843 606/1334 608/1343 797/1832
f 795/1825 603/1326 598/1310 794/1822
f 802/1847 758/1723 602/1322 803/1849
f 797/1831 608/1342 758/1722 802/1846
f 639/1419 641/1425 560/1218 502/1092
f 785/1800 788/1809 786/1804 792/1816
f 796/1827 800/1839 797/1830 803/1848
f 782/1792 793/1818 801/1842 794/1821
f 797/1830 797/1830 802/1845 803/1848
f 800/1839 798/1833 801/1842 797/1830
f 796/1827 796/1827 799/1836 800/1839
f 798/1833 798/1833 795/1824 794/1821
f 801/1842 801/1842 798/1833 794/1821
f 804/1852 805/1855 807/1860 806/1857
f 806/1856 807/1859 809/1865 808/1862
f 808/1861 809/1864 811/1870 810/1867
f 810/1866 811/1869 805/1854 804/1851
f 805/1853 811/1868 809/1863 807/1858
f 812/1872 814/1877 815/1880 813/1875
f 814/1876 816/1882 817/1885 815/1879
f 816/1881 818/1887 819/1890 817/1884
f 818/1886 812/1871 813/1874 819/1889
f 813/1873 815/1878 817/1883 819/1888
f 820/1892 821/1895 823/1900 822/1897
f 822/1896 823/1899 825/1905 824/1902
f 824/1901 825/1904 827/1910 826/1907
f 826/1906 827/1909 821/1894 820/1891
f 821/1893 827/1908 825/1903 823/1898
f 828/1912 829/1915 831/1920 830/1917
f 830/1916 831/1919 833/1925 832/1922
f 832/1921 833/1924 835/1930 834/1927
f 834/1926 835/1929 829/1914 828/1911
f 829/1913 835/1928 833/1923 831/1918
f 836/1932 838/1937 839/1940 837/1935
f 838/1936 840/1942 841/1945 839/1939
f 840/1941 842/1947 843/1950 841/1944
f 842/1946 836/1931 837/1934 843/1949
f 837/1933 839/1938 841/1943 843/1948
f 844/1952 845/1955 847/1960 846/1957
f 846/1956 847/1959 849/1965 848/1962
f 848/1961 849/1964 851/1970 850/1967
f 850/1966 851/1969 845/1954 844/1951
f 845/1953 851/1968 849/1963 847/1958
f 852/1972 853/1975 855/1980 854/1977
f 854/1976 855/1979 857/1985 856/1982
f 856/1981 857/1984 859/1990 858/1987
f 858/1986 859/1989 853/1974 852/1971
f 853/1973 859/1988 857/1983 855/1978
f 760/1731 864/2003 863/2000 867/2009
f 863/1999 864/2002 866/2008 865/2005
f 791/1814 866/2007 864/2001 760/1730
f 790/1812 865/2004 866/2006 791/1813
f 788/1808 783/1795 787/1806 786/1803
f 868/2011 869/2014 871/2019 870/2016
f 870/2015 871/2018 873/2024 872/2021
f 872/2020 873/2023 875/2029 874/2026
f 874/2025 875/2028 869/2013 868/2010
f 869/2012 875/2027 873/2022 871/2017
f 885/2050 887/2055 889/2060 891/2065
f 881/2042 877/2034 876/2031 880/2040
f 876/2030 877/2033 879/2039 878/2036
f 883/2045 879/2038 877/2032 881/2041
f 882/2043 878/2035 879/2037 883/2044
f 884/2047 886/2052 887/2054 885/2049
f 886/2051 888/2057 889/2059 887/2053
f 888/2056 890/2062 891/2064 889/2058
f 890/2061 884/2046 885/2048 891/2063
f 892/2067 893/2070 895/2075 894/2072
f 894/2071 895/2074 897/2080 896/2077
f 896/2076 897/2079 899/2085 898/2082
f 898/2081 899/2084 893/2069 892/2066
f 893/2068 899/2083 897/2078 895/2073
f 902/2092 903/2095 860/1993 904/2097
f 904/2096 860/1992 862/1998 861/1995
f 861/1994 862/1997 901/2090 900/2087
f 901/2089 862/1996 860/1991 903/2094
f 786/1802 787/1805 784/1797 792/1815
f 900/2086 901/2088 903/2093 902/2091
