# Blender 4.0.1
# www.blender.org
mtllib legacy_track_curve_1x.mtl
o track_normal.001
v 0.416318 0.071584 0.271650
v 0.399838 0.085803 0.301554
v 0.399838 0.071584 0.301554
v 0.404488 0.071584 0.293116
v 0.420968 0.071584 0.263213
v 0.420968 0.085803 0.263213
v 0.395923 0.025803 0.308657
v 0.424883 0.025803 0.256109
v 0.424883 0.041289 0.256109
v 0.416318 0.041289 0.271650
v 0.404488 0.041289 0.293116
v 0.395923 0.041289 0.308657
v 0.002329 0.025803 0.139542
v 0.002329 0.041289 0.139542
v 0.002215 0.041289 0.181796
v 0.002281 0.041289 0.157286
v 0.002168 0.025803 0.199541
v 0.002168 0.041289 0.199541
v 0.002281 0.071584 0.157286
v 0.002215 0.071584 0.181796
v 0.002190 0.071584 0.191430
v 0.002190 0.085803 0.191430
v 0.002307 0.085803 0.147653
v 0.002307 0.071584 0.147653
v 0.098054 0.071584 0.835582
v 0.098054 0.085803 0.835582
v 0.081574 0.071584 0.865486
v 0.093404 0.071584 0.844020
v 0.076924 0.085803 0.873924
v 0.076924 0.071584 0.873924
v 0.073009 0.041289 0.881027
v 0.073009 0.025803 0.881027
v 0.093404 0.041289 0.844020
v 0.081574 0.041289 0.865486
v 0.101969 0.025803 0.828479
v 0.101969 0.041289 0.828479
v 0.000397 0.025803 0.860493
v 0.000397 0.041289 0.860493
v 0.000558 0.025803 0.800493
v 0.000510 0.041289 0.818238
v 0.000558 0.041289 0.800493
v 0.000444 0.041289 0.842748
v 0.000418 0.071584 0.852382
v 0.000419 0.085803 0.852382
v 0.000510 0.071584 0.818238
v 0.000444 0.071584 0.842748
v 0.000536 0.085803 0.808604
v 0.000536 0.071584 0.808604
v 0.059288 -0.025279 0.796227
v 0.059288 0.054721 0.796227
v 0.050929 0.054721 0.825039
v 0.050929 -0.025279 0.825039
v 0.047094 -0.025279 0.793084
v 0.047094 0.054721 0.793084
v 0.040490 -0.025279 0.822348
v 0.040490 0.054721 0.822348
v 0.228070 0.054721 0.214483
v 0.219711 0.054721 0.243295
v 0.219711 -0.025279 0.243295
v 0.228071 -0.025279 0.214483
v 0.173815 0.054721 0.231469
v 0.173815 -0.025279 0.231469
v 0.180418 0.054721 0.202204
v 0.180418 -0.025279 0.202204
v 0.371449 -0.030000 0.103855
v 0.371449 0.030000 0.103855
v 0.011274 0.030000 0.972114
v 0.011274 -0.030000 0.972114
v 0.108573 -0.030000 0.036092
v 0.108573 0.030000 0.036092
v 0.003915 -0.030000 0.970248
v 0.003915 0.030000 0.970248
v 0.733607 0.071584 0.585390
v 0.704220 0.085803 0.602774
v 0.704220 0.071584 0.602774
v 0.712512 0.071584 0.597869
v 0.741899 0.071584 0.580485
v 0.741899 0.085803 0.580485
v 0.697239 0.025803 0.606903
v 0.748880 0.025803 0.576355
v 0.748880 0.041289 0.576355
v 0.733607 0.041289 0.585390
v 0.712512 0.041289 0.597869
v 0.697239 0.041289 0.606903
v 0.425007 0.025803 0.256113
v 0.425007 0.041289 0.256113
v 0.403329 0.041289 0.292384
v 0.415904 0.041289 0.271345
v 0.394225 0.025803 0.307615
v 0.394225 0.041289 0.307615
v 0.415904 0.071584 0.271345
v 0.403329 0.071584 0.292384
v 0.398386 0.071584 0.300653
v 0.398386 0.085803 0.300653
v 0.420846 0.085803 0.263075
v 0.420846 0.071584 0.263075
v 0.165023 0.071584 0.902998
v 0.165023 0.085803 0.902998
v 0.135636 0.071584 0.920382
v 0.156732 0.071584 0.907903
v 0.127344 0.085803 0.925287
v 0.127344 0.071584 0.925287
v 0.120363 0.041289 0.929416
v 0.120363 0.025803 0.929416
v 0.156732 0.041289 0.907903
v 0.135636 0.041289 0.920382
v 0.172005 0.025803 0.898868
v 0.172004 0.041289 0.898868
v 0.071131 0.025803 0.879956
v 0.071131 0.041289 0.879956
v 0.101913 0.025803 0.828454
v 0.092809 0.041289 0.843686
v 0.101913 0.041289 0.828454
v 0.080235 0.041289 0.864724
v 0.075292 0.071584 0.872994
v 0.075292 0.085803 0.872994
v 0.092809 0.071584 0.843686
v 0.080235 0.071584 0.864724
v 0.097752 0.085803 0.835416
v 0.097752 0.071584 0.835416
v 0.154753 -0.025279 0.855013
v 0.154753 0.054721 0.855013
v 0.132870 0.054721 0.875536
v 0.132870 -0.025279 0.875536
v 0.145704 -0.025279 0.845904
v 0.145704 0.054721 0.845904
v 0.125083 -0.025279 0.867694
v 0.125083 0.054721 0.867694
v 0.596579 0.054721 0.440643
v 0.574697 0.054721 0.461165
v 0.574697 -0.025279 0.461165
v 0.596579 -0.025279 0.440643
v 0.541442 0.054721 0.427741
v 0.541442 -0.025279 0.427741
v 0.562063 0.054721 0.405951
v 0.562063 -0.025279 0.405951
v 0.775972 -0.030000 0.417996
v 0.775972 0.030000 0.417996
v 0.024229 0.030000 0.982338
v 0.024229 -0.030000 0.982338
v 0.585503 -0.030000 0.226690
v 0.585503 0.030000 0.226690
v 0.017768 -0.030000 0.975874
v 0.017768 0.030000 0.975874
v 0.842720 0.071584 1.001521
v 0.808576 0.085803 1.001460
v 0.808576 0.071584 1.001460
v 0.818210 0.071584 1.001477
v 0.852354 0.071584 1.001538
v 0.852354 0.085803 1.001538
v 0.800465 0.025803 1.001446
v 0.860465 0.025803 1.001553
v 0.860465 0.041289 1.001553
v 0.842720 0.041289 1.001521
v 0.818210 0.041289 1.001477
v 0.800465 0.041289 1.001446
v 0.748788 0.025803 0.575538
v 0.748788 0.041289 0.575538
v 0.711688 0.041289 0.595764
v 0.733208 0.041289 0.584032
v 0.696108 0.025803 0.604258
v 0.696108 0.041289 0.604258
v 0.733208 0.071584 0.584032
v 0.711688 0.071584 0.595764
v 0.703230 0.071584 0.600375
v 0.703230 0.085803 0.600375
v 0.741666 0.085803 0.579420
v 0.741666 0.071584 0.579420
v 0.191401 0.071584 1.000357
v 0.191401 0.085803 1.000357
v 0.157257 0.071584 1.000296
v 0.181767 0.071584 1.000340
v 0.147623 0.085803 1.000278
v 0.147623 0.071584 1.000278
v 0.139512 0.041289 1.000264
v 0.139512 0.025803 1.000264
v 0.181767 0.041289 1.000340
v 0.157257 0.041289 1.000296
v 0.199512 0.025803 1.000371
v 0.199512 0.041289 1.000371
v 0.119293 0.025803 0.927535
v 0.119293 0.041289 0.927535
v 0.171973 0.025803 0.898815
v 0.156393 0.041289 0.907309
v 0.171973 0.041289 0.898815
v 0.134873 0.041289 0.919041
v 0.126415 0.071584 0.923653
v 0.126415 0.085803 0.923653
v 0.156393 0.071584 0.907309
v 0.134873 0.071584 0.919042
v 0.164852 0.085803 0.902698
v 0.164852 0.071584 0.902698
v 0.207113 -0.025279 0.953841
v 0.207113 0.054721 0.953841
v 0.177819 0.054721 0.960311
v 0.177819 -0.025279 0.960311
v 0.204056 -0.025279 0.941622
v 0.204056 0.054721 0.941622
v 0.175206 -0.025279 0.949849
v 0.175206 0.054721 0.949849
v 0.798596 0.054721 0.823219
v 0.769301 0.054721 0.829688
v 0.769301 -0.025279 0.829688
v 0.798596 -0.025279 0.823219
v 0.757717 0.054721 0.783732
v 0.757717 -0.025279 0.783732
v 0.786567 0.054721 0.775505
v 0.786567 -0.025279 0.775505
v 0.964399 -0.030000 0.895803
v 0.964399 0.030000 0.895803
v 0.029778 0.030000 0.996223
v 0.029778 -0.030000 0.996223
v 0.897823 -0.030000 0.632640
v 0.897823 0.030000 0.632640
v 0.027926 -0.030000 0.988842
v 0.027926 0.030000 0.988842
vn 0.8758 -0.0000 0.4827
vn 0.2659 -0.0000 -0.9640
vn -1.0000 -0.0000 -0.0027
vn -0.2671 -0.0000 0.9637
vn -0.0000 1.0000 -0.0000
vn -0.0000 -1.0000 -0.0000
vn -0.2667 -0.0000 0.9638
vn -0.2669 -0.0000 0.9637
vn 0.2662 -0.0000 -0.9639
vn 0.2661 -0.0000 -0.9640
vn -0.2721 -0.0000 0.9623
vn -1.0000 0.0001 -0.0027
vn 0.2660 -0.0000 -0.9640
vn 0.2674 -0.0000 -0.9636
vn 0.2666 -0.0000 -0.9638
vn -0.2699 -0.0000 0.9629
vn -0.2710 -0.0000 0.9626
vn 0.9604 -0.0000 0.2786
vn 0.2496 -0.0000 -0.9684
vn -0.9755 -0.0000 -0.2201
vn -0.2496 -0.0000 0.9683
vn -0.2495 -0.0000 0.9684
vn 0.2495 -0.0000 -0.9684
vn 0.9237 -0.0000 0.3832
vn 0.2496 -0.0000 -0.9683
vn -0.9938 -0.0000 -0.1113
vn -0.2458 -0.0000 0.9693
vn 0.5091 -0.0000 0.8607
vn 0.7031 -0.0000 -0.7111
vn -0.8584 -0.0000 -0.5130
vn -0.8584 -0.0000 -0.5131
vn -0.7027 -0.0000 0.7115
vn -0.7028 -0.0000 0.7113
vn -0.7028 -0.0000 0.7114
vn 0.7030 -0.0000 -0.7112
vn -0.7087 -0.0000 0.7055
vn 0.7087 -0.0000 -0.7055
vn 0.6841 -0.0000 0.7294
vn 0.7094 -0.0000 -0.7048
vn -0.7263 -0.0000 -0.6874
vn -0.7096 -0.0000 0.7046
vn -0.7089 -0.0000 0.7053
vn 0.7089 -0.0000 -0.7053
vn 0.6004 -0.0000 0.7997
vn 0.7087 -0.0000 -0.7056
vn -0.7970 -0.0000 -0.6040
vn -0.7073 -0.0000 0.7069
vn -0.0018 -0.0000 1.0000
vn 0.9673 -0.0000 -0.2536
vn -0.4787 -0.0000 -0.8780
vn -0.9672 -0.0000 0.2541
vn -0.9672 -0.0000 0.2539
vn -0.9672 -0.0000 0.2540
vn 0.9673 -0.0000 -0.2537
vn -0.9635 -0.0000 0.2678
vn 0.9651 -0.0000 -0.2617
vn 0.9648 -0.0000 -0.2631
vn 0.9650 -0.0000 -0.2623
vn -0.9641 -0.0000 0.2656
vn -0.9638 -0.0000 0.2667
vn 0.2157 -0.0000 0.9765
vn 0.9701 -0.0000 -0.2427
vn -0.2742 -0.0000 -0.9617
vn -0.9702 -0.0000 0.2423
vn 0.2156 -0.0000 0.9765
vn -0.9697 -0.0000 0.2444
vn 0.9697 -0.0000 -0.2445
vn 0.1068 -0.0000 0.9943
vn 0.9695 -0.0000 -0.2453
vn -0.3789 -0.0000 -0.9254
vn -0.9699 -0.0000 0.2434
vt 0.980127 0.103062
vt 0.949641 0.115757
vt 0.949641 0.103062
vt 0.958243 0.103062
vt 0.988729 0.103062
vt 0.988729 0.115757
vt 0.942399 0.062186
vt 0.995971 0.062186
vt 0.995971 0.076013
vt 0.980127 0.076013
vt 0.958243 0.076013
vt 0.942399 0.076013
vt 0.000000 0.062150
vt 0.000000 0.048121
vt 0.905875 0.048121
vt 0.905875 0.062150
vt 0.980908 0.014240
vt 0.959024 0.014240
vt 0.943180 0.014240
vt 0.943180 0.000413
vt 0.996752 0.000413
vt 0.996752 0.014240
vt 0.959024 0.041289
vt 0.980908 0.041289
vt 0.989510 0.041289
vt 0.989510 0.053985
vt 0.950422 0.053985
vt 0.950422 0.041289
vt 0.000000 0.034093
vt 0.905875 0.034093
vt 0.000200 0.259595
vt 0.000200 0.219937
vt 0.906075 0.219937
vt 0.906075 0.259595
vt 0.905753 0.210448
vt -0.000122 0.210448
vt -0.000122 0.156096
vt 0.905753 0.156096
vt 0.905875 0.121202
vt 0.000000 0.121202
vt 0.000000 0.093759
vt 0.905875 0.093759
vt 0.905875 0.025761
vt 0.000000 0.025761
vt 0.000000 0.012881
vt 0.905875 0.012881
vt 0.906387 0.330358
vt 0.000512 0.330358
vt 0.000512 0.321630
vt 0.906387 0.321630
vt 0.000200 0.296828
vt 0.906075 0.296828
vt 0.906075 0.312903
vt 0.000200 0.312903
vt 0.905875 0.089593
vt 0.000000 0.089593
vt 0.000000 0.000000
vt 0.905875 0.000000
vt 0.000512 0.312903
vt 0.906387 0.312903
vt 0.000200 0.281378
vt 0.906075 0.281378
vt 0.906075 0.297453
vt 0.000200 0.297453
vt 0.999050 0.183297
vt 0.999050 0.342604
vt 0.939310 0.342604
vt 0.939310 0.183297
vt 0.985655 0.132863
vt 0.985655 0.179437
vt 0.939081 0.179437
vt 0.939081 0.132863
vt 0.979692 0.781451
vt 0.979692 0.844034
vt -0.000781 0.844034
vt -0.000781 0.781451
vt 0.145247 0.656284
vt 0.145247 0.718868
vt -0.000781 0.718868
vt -0.000781 0.656284
vt 0.979692 0.718868
vt 0.302823 0.656284
vt 0.302823 0.718868
vt 0.156795 0.718868
vt 0.156795 0.656284
vt 1.000000 0.851064
vt 1.000000 1.000000
vt 0.000000 1.000000
vt 0.000000 0.851064
vt 0.998987 0.504118
vt 0.998987 0.652658
vt 0.001647 0.652658
vt 0.001647 0.504118
s 1
usemtl Default_OBJ.004
f 1/1/1 2/2/1 3/3/1 4/4/1
f 2/2/1 1/1/1 5/5/1 6/6/1
f 7/7/1 8/8/1 9/9/1 10/10/1
f 10/10/1 11/11/1 12/12/1 7/7/1
f 4/4/1 11/11/1 10/10/1 1/1/1
f 9/13/2 8/14/2 13/15/2 14/16/2
f 15/17/3 16/18/3 14/19/3 13/20/3
f 13/20/3 17/21/3 18/22/3 15/17/3
f 19/23/3 20/24/3 21/25/3 22/26/3
f 22/26/3 23/27/3 24/28/3 19/23/3
f 16/18/3 15/17/3 20/24/3 19/23/3
f 18/14/4 17/29/4 7/30/4 12/15/4
f 23/31/5 22/32/5 2/33/5 6/34/5
f 13/35/6 8/36/6 7/37/6 17/38/6
f 4/39/7 20/40/7 15/41/7 11/42/7
f 2/43/8 22/44/8 21/45/8 3/46/8
f 20/47/6 4/48/6 3/49/6 21/50/6
f 18/51/5 12/52/5 11/53/5 15/54/5
f 19/55/9 1/56/9 10/13/9 16/16/9
f 23/46/10 6/45/10 5/57/10 24/58/10
f 24/50/6 5/49/6 1/59/6 19/60/6
f 16/61/5 10/62/5 9/63/5 14/64/5
f 25/3/1 26/2/1 27/1/1 28/4/1
f 29/6/1 30/5/1 27/1/1 26/2/1
f 31/9/1 32/8/1 33/11/1 34/10/1
f 35/7/1 36/12/1 33/11/1 32/8/1
f 33/11/1 28/4/1 27/1/1 34/10/1
f 37/15/11 32/14/11 31/13/11 38/16/11
f 39/21/3 37/20/3 40/17/3 41/22/3
f 38/19/3 42/18/3 40/17/3 37/20/3
f 43/28/12 44/27/12 45/24/3 46/23/3
f 47/26/3 48/25/3 45/24/3 44/27/12
f 46/23/3 45/24/3 40/17/3 42/18/3
f 35/30/13 39/29/13 41/14/13 36/15/13
f 26/33/5 47/32/5 44/31/5 29/34/5
f 35/37/6 32/36/6 37/35/6 39/38/6
f 40/41/14 45/40/14 28/39/14 33/42/14
f 48/45/15 47/44/15 26/43/15 25/46/15
f 25/49/6 28/48/6 45/47/6 48/50/6
f 33/53/5 36/52/5 41/51/5 40/54/5
f 34/13/16 27/56/16 46/55/16 42/16/16
f 30/57/17 29/45/17 44/46/17 43/58/17
f 27/59/6 30/49/6 43/50/6 46/60/6
f 31/63/5 34/62/5 42/61/5 38/64/5
f 49/65/18 50/66/18 51/67/18 52/68/18
f 53/65/19 54/66/19 50/67/19 49/68/19
f 55/65/20 56/66/20 54/67/20 53/68/20
f 52/65/21 51/66/21 56/67/21 55/68/21
f 50/69/5 54/70/5 56/71/5 51/72/5
f 57/67/18 58/66/18 59/65/18 60/68/18
f 58/67/22 61/66/22 62/65/22 59/68/22
f 61/67/20 63/66/20 64/65/20 62/68/20
f 63/67/23 57/66/23 60/65/23 64/68/23
f 63/71/5 61/70/5 58/69/5 57/72/5
f 65/73/24 66/74/24 67/75/24 68/76/24
f 69/77/25 70/78/25 66/79/25 65/80/25
f 71/81/26 72/73/26 70/76/26 69/79/26
f 68/82/27 67/83/27 72/84/27 71/85/27
f 66/86/5 70/87/5 72/88/5 67/89/5
f 69/90/6 65/91/6 68/92/6 71/93/6
f 73/1/28 74/2/28 75/3/28 76/4/28
f 74/2/28 73/1/28 77/5/28 78/6/28
f 79/7/28 80/8/28 81/9/28 82/10/28
f 82/10/28 83/11/28 84/12/28 79/7/28
f 76/4/28 83/11/28 82/10/28 73/1/28
f 81/13/29 80/14/29 85/15/29 86/16/29
f 87/17/30 88/18/30 86/19/30 85/20/30
f 85/20/30 89/21/30 90/22/30 87/17/30
f 91/23/30 92/24/31 93/25/31 94/26/30
f 94/26/30 95/27/30 96/28/30 91/23/30
f 88/18/30 87/17/30 92/24/31 91/23/30
f 90/14/32 89/29/32 79/30/32 84/15/32
f 95/31/5 94/32/5 74/33/5 78/34/5
f 85/35/6 80/36/6 79/37/6 89/38/6
f 76/39/33 92/40/33 87/41/33 83/42/33
f 74/43/34 94/44/34 93/45/34 75/46/34
f 92/47/6 76/48/6 75/49/6 93/50/6
f 90/51/5 84/52/5 83/53/5 87/54/5
f 91/55/35 73/56/35 82/13/35 88/16/35
f 95/46/29 78/45/29 77/57/29 96/58/29
f 96/50/6 77/49/6 73/59/6 91/60/6
f 88/61/5 82/62/5 81/63/5 86/64/5
f 97/3/28 98/2/28 99/1/28 100/4/28
f 101/6/28 102/5/28 99/1/28 98/2/28
f 103/9/28 104/8/28 105/11/28 106/10/28
f 107/7/28 108/12/28 105/11/28 104/8/28
f 105/11/28 100/4/28 99/1/28 106/10/28
f 109/15/36 104/14/36 103/13/36 110/16/36
f 111/21/30 109/20/30 112/17/30 113/22/30
f 110/19/30 114/18/30 112/17/30 109/20/30
f 115/28/30 116/27/30 117/24/30 118/23/30
f 119/26/30 120/25/30 117/24/30 116/27/30
f 118/23/30 117/24/30 112/17/30 114/18/30
f 107/30/37 111/29/37 113/14/37 108/15/37
f 98/33/5 119/32/5 116/31/5 101/34/5
f 107/37/6 104/36/6 109/35/6 111/38/6
f 112/41/37 117/40/37 100/39/37 105/42/37
f 120/45/37 119/44/37 98/43/37 97/46/37
f 97/49/6 100/48/6 117/47/6 120/50/6
f 105/53/5 108/52/5 113/51/5 112/54/5
f 106/13/36 99/56/36 118/55/36 114/16/36
f 102/57/36 101/45/36 116/46/36 115/58/36
f 99/59/6 102/49/6 115/50/6 118/60/6
f 103/63/5 106/62/5 114/61/5 110/64/5
f 121/65/38 122/66/38 123/67/38 124/68/38
f 125/65/39 126/66/39 122/67/39 121/68/39
f 127/65/40 128/66/40 126/67/40 125/68/40
f 124/65/41 123/66/41 128/67/41 127/68/41
f 122/69/5 126/70/5 128/71/5 123/72/5
f 129/67/38 130/66/38 131/65/38 132/68/38
f 130/67/42 133/66/42 134/65/42 131/68/42
f 133/67/40 135/66/40 136/65/40 134/68/40
f 135/67/43 129/66/43 132/65/43 136/68/43
f 135/71/5 133/70/5 130/69/5 129/72/5
f 137/73/44 138/74/44 139/75/44 140/76/44
f 141/77/45 142/78/45 138/79/45 137/80/45
f 143/81/46 144/73/46 142/76/46 141/79/46
f 140/82/47 139/83/47 144/84/47 143/85/47
f 138/86/5 142/87/5 144/88/5 139/89/5
f 141/90/6 137/91/6 140/92/6 143/93/6
f 145/1/48 146/2/48 147/3/48 148/4/48
f 146/2/48 145/1/48 149/5/48 150/6/48
f 151/7/48 152/8/48 153/9/48 154/10/48
f 154/10/48 155/11/48 156/12/48 151/7/48
f 148/4/48 155/11/48 154/10/48 145/1/48
f 153/13/49 152/14/49 157/15/49 158/16/49
f 159/17/50 160/18/50 158/19/50 157/20/50
f 157/20/50 161/21/50 162/22/50 159/17/50
f 163/23/50 164/24/50 165/25/50 166/26/50
f 166/26/50 167/27/50 168/28/50 163/23/50
f 160/18/50 159/17/50 164/24/50 163/23/50
f 162/14/51 161/29/51 151/30/51 156/15/51
f 167/31/5 166/32/5 146/33/5 150/34/5
f 157/35/6 152/36/6 151/37/6 161/38/6
f 148/39/52 164/40/52 159/41/52 155/42/52
f 146/43/53 166/44/53 165/45/53 147/46/53
f 164/47/6 148/48/6 147/49/6 165/50/6
f 162/51/5 156/52/5 155/53/5 159/54/5
f 163/55/54 145/56/54 154/13/54 160/16/54
f 167/46/49 150/45/49 149/57/49 168/58/49
f 168/50/6 149/49/6 145/59/6 163/60/6
f 160/61/5 154/62/5 153/63/5 158/64/5
f 169/3/48 170/2/48 171/1/48 172/4/48
f 173/6/48 174/5/48 171/1/48 170/2/48
f 175/9/48 176/8/48 177/11/48 178/10/48
f 179/7/48 180/12/48 177/11/48 176/8/48
f 177/11/48 172/4/48 171/1/48 178/10/48
f 181/15/55 176/14/55 175/13/55 182/16/55
f 183/21/50 181/20/50 184/17/50 185/22/50
f 182/19/50 186/18/50 184/17/50 181/20/50
f 187/28/50 188/27/50 189/24/50 190/23/50
f 191/26/50 192/25/50 189/24/50 188/27/50
f 190/23/50 189/24/50 184/17/50 186/18/50
f 179/30/56 183/29/56 185/14/56 180/15/56
f 170/33/5 191/32/5 188/31/5 173/34/5
f 179/37/6 176/36/6 181/35/6 183/38/6
f 184/41/57 189/40/57 172/39/57 177/42/57
f 192/45/58 191/44/58 170/43/58 169/46/58
f 169/49/6 172/48/6 189/47/6 192/50/6
f 177/53/5 180/52/5 185/51/5 184/54/5
f 178/13/59 171/56/59 190/55/59 186/16/59
f 174/57/60 173/45/60 188/46/60 187/58/60
f 171/59/6 174/49/6 187/50/6 190/60/6
f 175/63/5 178/62/5 186/61/5 182/64/5
f 193/65/61 194/66/61 195/67/61 196/68/61
f 197/65/62 198/66/62 194/67/62 193/68/62
f 199/65/63 200/66/63 198/67/63 197/68/63
f 196/65/64 195/66/64 200/67/64 199/68/64
f 194/69/5 198/70/5 200/71/5 195/72/5
f 201/67/65 202/66/65 203/65/65 204/68/65
f 202/67/66 205/66/66 206/65/66 203/68/66
f 205/67/63 207/66/63 208/65/63 206/68/63
f 207/67/67 201/66/67 204/65/67 208/68/67
f 207/71/5 205/70/5 202/69/5 201/72/5
f 209/73/68 210/74/68 211/75/68 212/76/68
f 213/77/69 214/78/69 210/79/69 209/80/69
f 215/81/70 216/73/70 214/76/70 213/79/70
f 212/82/71 211/83/71 216/84/71 215/85/71
f 210/86/5 214/87/5 216/88/5 211/89/5
f 213/90/6 209/91/6 212/92/6 215/93/6
