mtllib legacy_track_curve_medium_east.mtl
# WaveFront *.obj file (generated by CINEMA 4D)

g Cube_2
usemtl Mat_1
v 0.185985 -0.025279 0.181139
v 0.185985 0.054721 0.181139
v 0.215912 -0.025279 0.183232
v 0.215912 0.054721 0.183232
v 0.218005 -0.025279 0.153305
v 0.218005 0.054721 0.153305
v 0.188078 -0.025279 0.151212
v 0.188078 0.054721 0.151212
v 0.820170 -0.025279 0.225486
v 0.820170 0.054721 0.225486
v 0.790243 -0.025279 0.223393
v 0.790243 0.054721 0.223393
v 0.792336 -0.025279 0.193466
v 0.792336 0.054721 0.193466
v 0.822263 -0.025279 0.195559
v 0.822263 0.054721 0.195559
v 0.030386 -0.03 0.225393
v 0.030386 0.03 0.225393
v 0.968096 -0.03 0.290964
v 0.968096 0.03 0.290964
v 0.977862 -0.03 0.151305
v 0.977862 0.03 0.151305
v 0.040152 -0.03 0.085734
v 0.040152 0.03 0.085734
v 0.150543 -0.025279 0.439308
v 0.150543 0.054721 0.439308
v 0.180007 -0.025279 0.444953
v 0.180007 0.054721 0.444953
v 0.185652 -0.025279 0.415489
v 0.185652 0.054721 0.415489
v 0.156188 -0.025279 0.409843
v 0.156188 0.054721 0.409843
v 0.774920 -0.025279 0.558935
v 0.774920 0.054721 0.558935
v 0.745456 -0.025279 0.553290
v 0.745456 0.054721 0.553290
v 0.751101 -0.025279 0.523826
v 0.751101 0.054721 0.523826
v 0.780565 -0.025279 0.529471
v 0.780565 0.054721 0.529471
v -0.009222 -0.03 0.464698
v -0.009222 0.03 0.464698
v 0.913986 -0.03 0.641580
v 0.913986 0.03 0.641580
v 0.940330 -0.03 0.504081
v 0.940330 0.03 0.504081
v 0.017122 -0.03 0.327199
v 0.017122 0.03 0.327199
v 0.084579 -0.025279 0.691410
v 0.084579 0.054721 0.691410
v 0.113160 -0.025279 0.700527
v 0.113160 0.054721 0.700527
v 0.122277 -0.025279 0.671946
v 0.122277 0.054721 0.671946
v 0.093696 -0.025279 0.662829
v 0.093696 0.054721 0.662829
v 0.690244 -0.025279 0.884613
v 0.690244 0.054721 0.884613
v 0.661663 -0.025279 0.875496
v 0.661663 0.054721 0.875496
v 0.670780 -0.025279 0.846915
v 0.670780 0.054721 0.846915
v 0.699361 -0.025279 0.856032
v 0.699361 0.054721 0.856032
v -0.077074 -0.03 0.697575
v -0.077074 0.03 0.697575
v 0.818466 -0.03 0.983245
v 0.818466 0.03 0.983245
v 0.861013 -0.03 0.849867
v 0.861013 0.03 0.849867
v -0.034527 -0.03 0.564196
v -0.034527 0.03 0.564196
v -0.010967 -0.025279 0.933852
v -0.010967 0.054721 0.933852
v 0.016324 -0.025279 0.946311
v 0.016324 0.054721 0.946311
v 0.028783 -0.025279 0.919020
v 0.028783 0.054721 0.919020
v 0.001492 -0.025279 0.906561
v 0.001492 0.054721 0.906561
v 0.567349 -0.025279 1.197875
v 0.567349 0.054721 1.197875
v 0.540059 -0.025279 1.185415
v 0.540059 0.054721 1.185415
v 0.552518 -0.025279 1.158125
v 0.552518 0.054721 1.158125
v 0.579808 -0.025279 1.170584
v 0.579808 0.054721 1.170584
v -0.172201 -0.03 0.920703
v -0.172201 0.03 0.920703
v 0.682900 -0.03 1.311089
v 0.682900 0.03 1.311089
v 0.741043 -0.03 1.183733
v 0.741043 0.03 1.183733
v -0.114059 -0.03 0.793347
v -0.114059 0.03 0.793347
v -0.134731 -0.025279 1.163176
v -0.134731 0.054721 1.163176
v -0.109120 -0.025279 1.178799
v -0.109120 0.054721 1.178799
v -0.093497 -0.025279 1.153188
v -0.093497 0.054721 1.153188
v -0.119108 -0.025279 1.137565
v -0.119108 0.054721 1.137565
v 0.407989 -0.025279 1.494253
v 0.407989 0.054721 1.494253
v 0.382378 -0.025279 1.478630
v 0.382378 0.054721 1.478630
v 0.398002 -0.025279 1.453019
v 0.398002 0.054721 1.453019
v 0.423612 -0.025279 1.468643
v 0.423612 0.054721 1.468643
v -0.293249 -0.03 1.130901
v -0.293249 0.03 1.130901
v 0.509221 -0.03 1.620434
v 0.509221 0.03 1.620434
v 0.582130 -0.03 1.500918
v 0.582130 0.03 1.500918
v -0.220339 -0.03 1.011384
v -0.220339 0.03 1.011384
v -0.284949 -0.025279 1.376111
v -0.284949 0.054721 1.376111
v -0.261383 -0.025279 1.394676
v -0.261383 0.054721 1.394676
v -0.242818 -0.025279 1.371110
v -0.242818 0.054721 1.371110
v -0.266384 -0.025279 1.352545
v -0.266384 0.054721 1.352545
v 0.214435 -0.025279 1.769522
v 0.214435 0.054721 1.769522
v 0.190870 -0.025279 1.750957
v 0.190870 0.054721 1.750957
v 0.209435 -0.025279 1.727392
v 0.209435 0.054721 1.727392
v 0.233000 -0.025279 1.745957
v 0.233000 0.054721 1.745957
v -0.438489 -0.03 1.325170
v -0.438489 0.03 1.325170
v 0.299904 -0.03 1.906871
v 0.299904 0.03 1.906871
v 0.386540 -0.03 1.796897
v 0.386540 0.03 1.796897
v -0.351853 -0.03 1.215197
v -0.351853 0.03 1.215197
v -0.459479 -0.025279 1.569622
v -0.459479 0.054721 1.569622
v -0.438294 -0.025279 1.590863
v -0.438294 0.054721 1.590863
v -0.417052 -0.025279 1.569679
v -0.417052 0.054721 1.569679
v -0.438237 -0.025279 1.548437
v -0.438237 0.054721 1.548437
v -0.010551 -0.025279 2.019756
v -0.010551 0.054721 2.019756
v -0.031736 -0.025279 1.998515
v -0.031736 0.054721 1.998515
v -0.010494 -0.025279 1.977330
v -0.010494 0.054721 1.977330
v 0.010691 -0.025279 1.998572
v 0.010691 0.054721 1.998572
v -0.605856 -0.03 1.500742
v -0.605856 0.03 1.500742
v 0.057936 -0.03 2.166314
v 0.057936 0.03 2.166314
v 0.157064 -0.03 2.067452
v 0.157064 0.03 2.067452
v -0.506726 -0.03 1.401880
v -0.506726 0.03 1.401880
v -0.655826 -0.025279 1.740948
v -0.655826 0.054721 1.740948
v -0.637326 -0.025279 1.764563
v -0.637326 0.054721 1.764563
v -0.613716 -0.025279 1.746062
v -0.613716 0.054721 1.746062
v -0.632216 -0.025279 1.722446
v -0.632216 0.054721 1.722446
v -0.263762 -0.025279 2.241387
v -0.263762 0.054721 2.241387
v -0.282264 -0.025279 2.217772
v -0.282264 0.054721 2.217772
v -0.258648 -0.025279 2.199270
v -0.258648 0.054721 2.199270
v -0.240147 -0.025279 2.222885
v -0.240147 0.054721 2.222885
v -0.792946 -0.03 1.655111
v -0.792946 0.03 1.655111
v -0.213234 -0.03 2.395063
v -0.213234 0.03 2.395063
v -0.103028 -0.03 2.308723
v -0.103028 0.03 2.308723
v -0.682746 -0.03 1.568770
v -0.682746 0.03 1.568770
v -0.871206 -0.025279 1.887647
v -0.871206 0.054721 1.887647
v -0.855656 -0.025279 1.913299
v -0.855656 0.054721 1.913299
v -0.829996 -0.025279 1.897745
v -0.829996 0.054721 1.897745
v -0.845556 -0.025279 1.872092
v -0.845556 0.054721 1.872092
v -0.541586 -0.025279 2.431254
v -0.541586 0.054721 2.431254
v -0.557146 -0.025279 2.405601
v -0.557146 0.054721 2.405601
v -0.531486 -0.025279 2.390046
v -0.531486 0.054721 2.390046
v -0.515936 -0.025279 2.415699
v -0.515936 0.054721 2.415699
v -0.997116 -0.03 1.786077
v -0.997116 0.03 1.786077
v -0.509736 -0.03 2.589857
v -0.509736 0.03 2.589857
v -0.390026 -0.03 2.517269
v -0.390026 0.03 2.517269
v -0.877406 -0.03 1.713488
v -0.877406 0.03 1.713488
v -1.102536 -0.025279 2.007626
v -1.102536 0.054721 2.007626
v -1.090146 -0.025279 2.034950
v -1.090146 0.054721 2.034950
v -1.062826 -0.025279 2.022564
v -1.062826 0.054721 2.022564
v -1.075206 -0.025279 1.995240
v -1.075206 0.054721 1.995240
v -0.840066 -0.025279 2.586649
v -0.840066 0.054721 2.586649
v -0.852446 -0.025279 2.559325
v -0.852446 0.054721 2.559325
v -0.825126 -0.025279 2.546939
v -0.825126 0.054721 2.546939
v -0.812736 -0.025279 2.574263
v -0.812736 0.054721 2.574263
v -1.215436 -0.03 1.891771
v -1.215436 0.03 1.891771
v -0.827346 -0.03 2.747918
v -0.827346 0.03 2.747918
v -0.699836 -0.03 2.690118
v -0.699836 0.03 2.690118
v -1.087926 -0.03 1.833971
v -1.087926 0.03 1.833971
v -1.346516 -0.025279 2.099175
v -1.346516 0.054721 2.099175
v -1.337476 -0.025279 2.127780
v -1.337476 0.054721 2.127780
v -1.308866 -0.025279 2.118740
v -1.308866 0.054721 2.118740
v -1.317906 -0.025279 2.090134
v -1.317906 0.054721 2.090134
v -1.154936 -0.025279 2.705356
v -1.154936 0.054721 2.705356
v -1.163976 -0.025279 2.676751
v -1.163976 0.054721 2.676751
v -1.135376 -0.025279 2.667710
v -1.135376 0.054721 2.667710
v -1.126326 -0.025279 2.696316
v -1.126326 0.054721 2.696316
v -1.444796 -0.03 1.970687
v -1.444796 0.03 1.970687
v -1.161536 -0.03 2.866991
v -1.161536 0.03 2.866991
v -1.028046 -0.03 2.824803
v -1.028046 0.03 2.824803
v -1.311306 -0.03 1.928499
v -1.311306 0.03 1.928499
v -1.599666 -0.025279 2.160987
v -1.599666 0.054721 2.160987
v -1.594096 -0.025279 2.190466
v -1.594096 0.054721 2.190466
v -1.564616 -0.025279 2.184900
v -1.564616 0.054721 2.184900
v -1.570186 -0.025279 2.155421
v -1.570186 0.054721 2.155421
v -1.481716 -0.025279 2.785683
v -1.481716 0.054721 2.785683
v -1.487276 -0.025279 2.756204
v -1.487276 0.054721 2.756204
v -1.457796 -0.025279 2.750638
v -1.457796 0.054721 2.750638
v -1.452236 -0.025279 2.780117
v -1.452236 0.054721 2.780117
v -1.681936 -0.03 2.021700
v -1.681936 0.03 2.021700
v -1.507536 -0.03 2.945379
v -1.507536 0.03 2.945379
v -1.369966 -0.03 2.919405
v -1.369966 0.03 2.919405
v -1.544366 -0.03 1.995725
v -1.544366 0.03 1.995725
v -1.858376 -0.025279 2.192183
v -1.858376 0.054721 2.192183
v -1.856366 -0.025279 2.222115
v -1.856366 0.054721 2.222115
v -1.826436 -0.025279 2.220103
v -1.826436 0.054721 2.220103
v -1.828446 -0.025279 2.190170
v -1.828446 0.054721 2.190170
v -1.815736 -0.025279 2.826484
v -1.815736 0.054721 2.826484
v -1.817746 -0.025279 2.796552
v -1.817746 0.054721 2.796552
v -1.787816 -0.025279 2.794540
v -1.787816 0.054721 2.794540
v -1.785806 -0.025279 2.824472
v -1.785806 0.054721 2.824472
v -1.923466 -0.03 2.044081
v -1.923466 0.03 2.044081
v -1.860406 -0.03 2.981964
v -1.860406 0.03 2.981964
v -1.720726 -0.03 2.972573
v -1.720726 0.03 2.972573
v -1.783776 -0.03 2.034691
v -1.783776 0.03 2.034691
v 0.149737 0.041289 0.449958
v 0.810691 0.025803 -0.010043
v 0.209737 0.025803 0.449958
v 0.870691 0.025803 -0.010043
v 0.157848 0.085803 0.449958
v 0.191992 0.041289 0.449958
v 0.167482 0.041289 0.449958
v 0.862580 0.085803 -0.010043
v 0.191992 0.071584 0.449958
v 0.157848 0.071584 0.449958
v 0.818802 0.085803 -0.010043
v 0.870691 0.041289 -0.010043
v 0.167482 0.071584 0.449958
v 0.828436 0.041289 -0.010043
v 0.852946 0.041289 -0.010043
v 0.828436 0.071584 -0.010043
v 0.862580 0.071584 -0.010043
v 0.149737 0.025803 0.449958
v 0.201626 0.085803 0.449958
v 0.201626 0.071584 0.449958
v 0.852946 0.071584 -0.010043
v 0.818802 0.071584 -0.010043
v 0.209737 0.041289 0.449958
v 0.810691 0.041289 -0.010043
v -0.177845 0.041289 1.232369
v 0.154448 0.041289 0.426165
v -0.122373 0.025803 1.255233
v 0.161947 0.085803 0.429255
v -0.138779 0.041289 1.248471
v -0.161439 0.041289 1.239131
v -0.138779 0.071584 1.248471
v 0.193515 0.071584 0.442267
v -0.170347 0.071584 1.235460
v -0.161439 0.071584 1.239131
v 0.170854 0.041289 0.432927
v 0.161947 0.071584 0.429255
v -0.177845 0.025803 1.232369
v 0.170854 0.071584 0.432927
v 0.193515 0.041289 0.442267
v 0.154448 0.025803 0.426165
v 0.209921 0.025803 0.449029
v -0.170347 0.085803 1.235460
v -0.129871 0.085803 1.252142
v -0.129871 0.071584 1.252142
v 0.202422 0.071584 0.445938
v 0.209921 0.041289 0.449029
v -0.122373 0.041289 1.255233
v 0.202422 0.085803 0.445938
v -0.011699 0.041289 0.829267
v 0.043774 0.025803 0.852131
v -0.004200 0.085803 0.832358
v 0.027368 0.041289 0.845369
v 0.004707 0.041289 0.836029
v 0.027368 0.071584 0.845369
v -0.004200 0.071584 0.832358
v 0.004707 0.071584 0.836029
v -0.011699 0.025803 0.829267
v 0.036275 0.085803 0.849040
v 0.036275 0.071584 0.849040
v 0.043774 0.041289 0.852131
v -0.778866 0.041289 1.830912
v -0.164423 0.041289 1.212166
v -0.736286 0.025803 1.873190
v -0.158668 0.085803 1.217881
v -0.748886 0.041289 1.860686
v -0.766276 0.041289 1.843416
v -0.748886 0.071584 1.860686
v -0.134440 0.071584 1.241940
v -0.773106 0.071584 1.836627
v -0.766276 0.071584 1.843416
v -0.151831 0.041289 1.224670
v -0.158668 0.071584 1.217881
v -0.778866 0.025803 1.830912
v -0.151831 0.071584 1.224670
v -0.134440 0.041289 1.241940
v -0.164423 0.025803 1.212166
v -0.121848 0.025803 1.254444
v -0.773106 0.085803 1.836627
v -0.742046 0.085803 1.867475
v -0.742046 0.071584 1.867475
v -0.127604 0.071584 1.248729
v -0.121848 0.041289 1.254444
v -0.736286 0.041289 1.873190
v -0.127604 0.085803 1.248729
v -0.471643 0.041289 1.521539
v -0.429069 0.025803 1.563817
v -0.465888 0.085803 1.527254
v -0.441660 0.041289 1.551313
v -0.459052 0.041289 1.534043
v -0.441660 0.071584 1.551313
v -0.465888 0.071584 1.527254
v -0.459052 0.071584 1.534043
v -0.471643 0.025803 1.521539
v -0.434824 0.085803 1.558102
v -0.434824 0.071584 1.558102
v -0.429069 0.041289 1.563817
v -0.758756 0.041289 1.817348
v -1.562616 0.041289 2.155262
v -0.755616 0.085803 1.824825
v -1.539366 0.025803 2.210574
v -0.742376 0.071584 1.856302
v -0.751876 0.041289 1.833707
v -0.755616 0.071584 1.824825
v -1.546246 0.041289 2.194215
v -0.751876 0.071584 1.833707
v -0.742376 0.041289 1.856302
v -1.555746 0.041289 2.171621
v -1.546246 0.071584 2.194215
v -0.758756 0.025803 1.817348
v -1.559476 0.071584 2.162739
v -1.555746 0.071584 2.171621
v -1.562616 0.025803 2.155262
v -1.559476 0.085803 2.162739
v -0.735506 0.025803 1.872660
v -0.738646 0.071584 1.865183
v -0.735506 0.041289 1.872660
v -1.542516 0.085803 2.203097
v -1.542516 0.071584 2.203097
v -0.738646 0.085803 1.865183
v -1.539366 0.041289 2.210574
v -1.160686 0.041289 1.986305
v -1.137436 0.025803 2.041617
v -1.157546 0.085803 1.993782
v -1.144316 0.041289 2.025259
v -1.153816 0.041289 2.002664
v -1.144316 0.071584 2.025259
v -1.157546 0.071584 1.993782
v -1.153816 0.071584 2.002664
v -1.160686 0.025803 1.986305
v -1.140576 0.085803 2.034140
v -1.140576 0.071584 2.034140
v -1.137436 0.041289 2.041617
v -2.006846 0.041289 2.153652
v -1.538856 0.041289 2.150385
v -2.006426 0.025803 2.213651
v -1.538446 0.025803 2.210383
v -2.006556 0.041289 2.195906
v -2.006726 0.041289 2.171397
v -2.006556 0.071584 2.195906
v -1.538806 0.085803 2.158495
v -2.006796 0.085803 2.161763
v -2.006796 0.071584 2.161763
v -1.538566 0.041289 2.192639
v -1.538736 0.041289 2.168129
v -2.006726 0.071584 2.171397
v -1.538566 0.071584 2.192639
v -1.538806 0.071584 2.158495
v -1.538736 0.071584 2.168129
v -1.538856 0.025803 2.150385
v -2.006846 0.025803 2.153652
v -2.006486 0.085803 2.205540
v -2.006486 0.071584 2.205540
v -1.538496 0.085803 2.202273
v -1.538496 0.071584 2.202273
v -2.006426 0.041289 2.213651
v -1.538446 0.041289 2.210383
v 0.810691 0.025803 0.465958
v 0.870691 0.025803 0.465958
v 0.149737 0.041289 -0.018043
v 0.209737 0.025803 -0.018043
v 0.862580 0.085803 0.465958
v 0.818802 0.085803 0.465958
v 0.870691 0.041289 0.465958
v 0.157848 0.085803 -0.018043
v 0.191992 0.041289 -0.018043
v 0.828436 0.041289 0.465958
v 0.852946 0.041289 0.465958
v 0.828436 0.071584 0.465958
v 0.167482 0.041289 -0.018043
v 0.862580 0.071584 0.465958
v 0.852946 0.071584 0.465958
v 0.191992 0.071584 -0.018043
v 0.157848 0.071584 -0.018043
v 0.167482 0.071584 -0.018043
v 0.149737 0.025803 -0.018043
v 0.818802 0.071584 0.465958
v 0.201626 0.085803 -0.018043
v 0.201626 0.071584 -0.018043
v 0.810691 0.041289 0.465958
v 0.209737 0.041289 -0.018043
v 0.533950 0.025803 1.309231
v 0.591014 0.025803 1.327772
v 0.870365 0.025803 0.468017
v 0.813302 0.025803 0.449475
v 0.583300 0.085803 1.325265
v 0.541664 0.085803 1.311737
v 0.591014 0.041289 1.327772
v 0.870365 0.041289 0.468017
v 0.862651 0.085803 0.465510
v 0.550827 0.041289 1.314714
v 0.574137 0.041289 1.322288
v 0.550827 0.071584 1.314714
v 0.830178 0.071584 0.454959
v 0.583300 0.071584 1.325265
v 0.574137 0.071584 1.322288
v 0.853489 0.041289 0.462533
v 0.862651 0.071584 0.465510
v 0.853489 0.071584 0.462533
v 0.830178 0.041289 0.454959
v 0.541664 0.071584 1.311737
v 0.821015 0.071584 0.451982
v 0.813302 0.041289 0.449475
v 0.533950 0.041289 1.309231
v 0.821015 0.085803 0.451982
v 0.673626 0.025803 0.879353
v 0.730689 0.025803 0.897894
v 0.722976 0.085803 0.895388
v 0.681340 0.085803 0.881859
v 0.730689 0.041289 0.897894
v 0.690503 0.041289 0.884837
v 0.713813 0.041289 0.892411
v 0.690503 0.071584 0.884837
v 0.722976 0.071584 0.895388
v 0.713813 0.071584 0.892411
v 0.681340 0.071584 0.881859
v 0.673626 0.041289 0.879353
v 0.010169 0.025803 2.025713
v 0.058710 0.025803 2.060980
v 0.590068 0.025803 1.329629
v 0.541527 0.025803 1.294361
v 0.052148 0.085803 2.056213
v 0.016730 0.085803 2.030480
v 0.058710 0.041289 2.060980
v 0.590068 0.041289 1.329629
v 0.583506 0.085803 1.324861
v 0.024525 0.041289 2.036143
v 0.044354 0.041289 2.050550
v 0.024525 0.071584 2.036143
v 0.555883 0.071584 1.304792
v 0.052148 0.071584 2.056213
v 0.044354 0.071584 2.050550
v 0.575712 0.041289 1.319198
v 0.583506 0.071584 1.324861
v 0.575712 0.071584 1.319198
v 0.555883 0.041289 1.304792
v 0.016730 0.071584 2.030480
v 0.548088 0.071584 1.299129
v 0.541527 0.041289 1.294361
v 0.010169 0.041289 2.025713
v 0.548088 0.085803 1.299129
v 0.275848 0.025803 1.660037
v 0.324389 0.025803 1.695304
v 0.317827 0.085803 1.690537
v 0.282409 0.085803 1.664804
v 0.324389 0.041289 1.695304
v 0.290204 0.041289 1.670467
v 0.310033 0.041289 1.684874
v 0.290204 0.071584 1.670467
v 0.317827 0.071584 1.690537
v 0.310033 0.071584 1.684874
v 0.282409 0.071584 1.664804
v 0.275848 0.041289 1.660037
v -0.709386 0.025803 2.545271
v -0.674116 0.025803 2.593812
v 0.057236 0.025803 2.062454
v 0.021969 0.025803 2.013913
v -0.678886 0.085803 2.587250
v -0.704616 0.085803 2.551832
v -0.674116 0.041289 2.593812
v 0.057236 0.041289 2.062454
v 0.052469 0.085803 2.055892
v -0.698956 0.041289 2.559627
v -0.684546 0.041289 2.579456
v -0.698956 0.071584 2.559627
v 0.032399 0.071584 2.028269
v -0.678886 0.071584 2.587250
v -0.684546 0.071584 2.579456
v 0.046806 0.041289 2.048098
v 0.052469 0.071584 2.055892
v 0.046806 0.071584 2.048098
v 0.032399 0.041289 2.028269
v -0.704616 0.071584 2.551832
v 0.026736 0.071584 2.020474
v 0.021969 0.041289 2.013913
v -0.709386 0.041289 2.545271
v 0.026736 0.085803 2.020474
v -0.343707 0.025803 2.279592
v -0.308440 0.025803 2.328133
v -0.313207 0.085803 2.321571
v -0.338940 0.085803 2.286153
v -0.308440 0.041289 2.328133
v -0.333277 0.041289 2.293948
v -0.318870 0.041289 2.313777
v -0.333277 0.071584 2.293948
v -0.313207 0.071584 2.321571
v -0.318870 0.071584 2.313777
v -0.338940 0.071584 2.286153
v -0.343707 0.041289 2.279592
v -0.694516 0.025803 2.537694
v -0.678476 0.071584 2.587044
v -1.541216 0.041289 2.857233
v -1.554266 0.025803 2.817046
v -0.681456 0.071584 2.577881
v -0.689026 0.041289 2.554571
v -0.692006 0.071584 2.545408
v -1.548786 0.071584 2.833922
v -1.538236 0.071584 2.866395
v -0.675976 0.041289 2.594758
v -0.694516 0.041289 2.537694
v -0.678476 0.085803 2.587044
v -1.535726 0.025803 2.874109
v -0.692006 0.085803 2.545408
v -0.689026 0.071584 2.554571
v -1.541216 0.071584 2.857233
v -1.551766 0.071584 2.824759
v -1.538236 0.085803 2.866395
v -1.551766 0.085803 2.824759
v -0.681456 0.041289 2.577881
v -1.535726 0.041289 2.874109
v -1.548786 0.041289 2.833922
v -0.675976 0.025803 2.594758
v -1.554266 0.041289 2.817046
v -1.124396 0.025803 2.677370
v -1.105846 0.025803 2.734433
v -1.108356 0.085803 2.726720
v -1.121886 0.085803 2.685084
v -1.105846 0.041289 2.734433
v -1.118906 0.041289 2.694247
v -1.111336 0.041289 2.717557
v -1.118906 0.071584 2.694247
v -1.108356 0.071584 2.726720
v -1.111336 0.071584 2.717557
v -1.121886 0.071584 2.685084
v -1.124396 0.041289 2.677370
v -2.013786 0.025803 2.814435
v -2.013786 0.025803 2.874435
v -1.537786 0.041289 2.856690
v -1.537786 0.025803 2.874435
v -2.013786 0.041289 2.856690
v -2.013786 0.085803 2.866324
v -2.013786 0.085803 2.822546
v -1.537786 0.071584 2.832180
v -1.537786 0.071584 2.866324
v -2.013786 0.041289 2.874435
v -2.013786 0.071584 2.832180
v -2.013786 0.071584 2.866324
v -1.537786 0.085803 2.866324
v -2.013786 0.041289 2.832180
v -2.013786 0.071584 2.856690
v -1.537786 0.071584 2.856690
v -1.537786 0.071584 2.822546
v -1.537786 0.085803 2.822546
v -1.537786 0.041289 2.874435
v -2.013786 0.071584 2.822546
v -1.537786 0.041289 2.832180
v -1.537786 0.025803 2.814435
v -2.013786 0.041289 2.814435
v -1.537786 0.041289 2.814435

vt 0.99905 0.183297
vt 0.93931 0.183297
vt 0.939081 0.132863
vt 0.99905 0.342604
vt 0.93931 0.342604
vt 0.93931 0.183297
vt 0.99905 0.183297
vt 0.985655 0.132863
vt 0.93931 0.342604
vt 0.99905 0.342604
vt 0.93931 0.183297
vt 0.99905 0.183297
vt 0.985655 0.179437
vt 0.93931 0.342604
vt 0.99905 0.342604
vt 0.93931 0.183297
vt 0.99905 0.183297
vt 0.939081 0.179437
vt 0.93931 0.342604
vt 0.99905 0.342604
vt 0.99905 0.183297
vt 0.93931 0.183297
vt 0.939081 0.132863
vt 0.99905 0.342604
vt 0.93931 0.342604
vt 0.93931 0.183297
vt 0.99905 0.183297
vt 0.985655 0.132863
vt 0.93931 0.342604
vt 0.99905 0.342604
vt 0.93931 0.183297
vt 0.99905 0.183297
vt 0.985655 0.179437
vt 0.93931 0.342604
vt 0.99905 0.342604
vt 0.93931 0.183297
vt 0.99905 0.183297
vt 0.939081 0.179437
vt 0.93931 0.342604
vt 0.99905 0.342604
vt 0.302823 0.656284
vt -0.000781 0.781451
vt 0.0 0.851064
vt 0.302823 0.718868
vt -0.000781 0.844034
vt -0.000781 0.656284
vt 0.979692 0.781451
vt 1.0 0.851064
vt -0.000781 0.718868
vt 0.979692 0.844034
vt -0.000781 0.718868
vt 0.145247 0.656284
vt 1.0 1.0
vt -0.000781 0.781451
vt 0.145247 0.718868
vt 0.156795 0.656284
vt 0.979692 0.718868
vt 0.0 1.0
vt 0.156795 0.718868
vt 0.979692 0.781451
vt 0.99905 0.183297
vt 0.93931 0.183297
vt 0.939081 0.132863
vt 0.99905 0.342604
vt 0.93931 0.342604
vt 0.93931 0.183297
vt 0.99905 0.183297
vt 0.985655 0.132863
vt 0.93931 0.342604
vt 0.99905 0.342604
vt 0.93931 0.183297
vt 0.99905 0.183297
vt 0.985655 0.179437
vt 0.93931 0.342604
vt 0.99905 0.342604
vt 0.93931 0.183297
vt 0.99905 0.183297
vt 0.939081 0.179437
vt 0.93931 0.342604
vt 0.99905 0.342604
vt 0.99905 0.183297
vt 0.93931 0.183297
vt 0.939081 0.132863
vt 0.99905 0.342604
vt 0.93931 0.342604
vt 0.93931 0.183297
vt 0.99905 0.183297
vt 0.985655 0.132863
vt 0.93931 0.342604
vt 0.99905 0.342604
vt 0.93931 0.183297
vt 0.99905 0.183297
vt 0.985655 0.179437
vt 0.93931 0.342604
vt 0.99905 0.342604
vt 0.93931 0.183297
vt 0.99905 0.183297
vt 0.939081 0.179437
vt 0.93931 0.342604
vt 0.99905 0.342604
vt 0.302823 0.656284
vt -0.000781 0.781451
vt 0.0 0.851064
vt 0.302823 0.718868
vt -0.000781 0.844034
vt -0.000781 0.656284
vt 0.979692 0.781451
vt 1.0 0.851064
vt -0.000781 0.718868
vt 0.979692 0.844034
vt -0.000781 0.718868
vt 0.145247 0.656284
vt 1.0 1.0
vt -0.000781 0.781451
vt 0.145247 0.718868
vt 0.156795 0.656284
vt 0.979692 0.718868
vt 0.0 1.0
vt 0.156795 0.718868
vt 0.979692 0.781451
vt 0.99905 0.183297
vt 0.93931 0.183297
vt 0.939081 0.132863
vt 0.99905 0.342604
vt 0.93931 0.342604
vt 0.93931 0.183297
vt 0.99905 0.183297
vt 0.985655 0.132863
vt 0.93931 0.342604
vt 0.99905 0.342604
vt 0.93931 0.183297
vt 0.99905 0.183297
vt 0.985655 0.179437
vt 0.93931 0.342604
vt 0.99905 0.342604
vt 0.93931 0.183297
vt 0.99905 0.183297
vt 0.939081 0.179437
vt 0.93931 0.342604
vt 0.99905 0.342604
vt 0.99905 0.183297
vt 0.93931 0.183297
vt 0.939081 0.132863
vt 0.99905 0.342604
vt 0.93931 0.342604
vt 0.93931 0.183297
vt 0.99905 0.183297
vt 0.985655 0.132863
vt 0.93931 0.342604
vt 0.99905 0.342604
vt 0.93931 0.183297
vt 0.99905 0.183297
vt 0.985655 0.179437
vt 0.93931 0.342604
vt 0.99905 0.342604
vt 0.93931 0.183297
vt 0.99905 0.183297
vt 0.939081 0.179437
vt 0.93931 0.342604
vt 0.99905 0.342604
vt 0.302823 0.656284
vt -0.000781 0.781451
vt 0.0 0.851064
vt 0.302823 0.718868
vt -0.000781 0.844034
vt -0.000781 0.656284
vt 0.979692 0.781451
vt 1.0 0.851064
vt -0.000781 0.718868
vt 0.979692 0.844034
vt -0.000781 0.718868
vt 0.145247 0.656284
vt 1.0 1.0
vt -0.000781 0.781451
vt 0.145247 0.718868
vt 0.156795 0.656284
vt 0.979692 0.718868
vt 0.0 1.0
vt 0.156795 0.718868
vt 0.979692 0.781451
vt 0.99905 0.183297
vt 0.93931 0.183297
vt 0.939081 0.132863
vt 0.99905 0.342604
vt 0.93931 0.342604
vt 0.93931 0.183297
vt 0.99905 0.183297
vt 0.985655 0.132863
vt 0.93931 0.342604
vt 0.99905 0.342604
vt 0.93931 0.183297
vt 0.99905 0.183297
vt 0.985655 0.179437
vt 0.93931 0.342604
vt 0.99905 0.342604
vt 0.93931 0.183297
vt 0.99905 0.183297
vt 0.939081 0.179437
vt 0.93931 0.342604
vt 0.99905 0.342604
vt 0.99905 0.183297
vt 0.93931 0.183297
vt 0.939081 0.132863
vt 0.99905 0.342604
vt 0.93931 0.342604
vt 0.93931 0.183297
vt 0.99905 0.183297
vt 0.985655 0.132863
vt 0.93931 0.342604
vt 0.99905 0.342604
vt 0.93931 0.183297
vt 0.99905 0.183297
vt 0.985655 0.179437
vt 0.93931 0.342604
vt 0.99905 0.342604
vt 0.93931 0.183297
vt 0.99905 0.183297
vt 0.939081 0.179437
vt 0.93931 0.342604
vt 0.99905 0.342604
vt 0.302823 0.656284
vt -0.000781 0.781451
vt 0.0 0.851064
vt 0.302823 0.718868
vt -0.000781 0.844034
vt -0.000781 0.656284
vt 0.979692 0.781451
vt 1.0 0.851064
vt -0.000781 0.718868
vt 0.979692 0.844034
vt -0.000781 0.718868
vt 0.145247 0.656284
vt 1.0 1.0
vt -0.000781 0.781451
vt 0.145247 0.718868
vt 0.156795 0.656284
vt 0.979692 0.718868
vt 0.0 1.0
vt 0.156795 0.718868
vt 0.979692 0.781451
vt 0.99905 0.183297
vt 0.93931 0.183297
vt 0.939081 0.132863
vt 0.99905 0.342604
vt 0.93931 0.342604
vt 0.93931 0.183297
vt 0.99905 0.183297
vt 0.985655 0.132863
vt 0.93931 0.342604
vt 0.99905 0.342604
vt 0.93931 0.183297
vt 0.99905 0.183297
vt 0.985655 0.179437
vt 0.93931 0.342604
vt 0.99905 0.342604
vt 0.93931 0.183297
vt 0.99905 0.183297
vt 0.939081 0.179437
vt 0.93931 0.342604
vt 0.99905 0.342604
vt 0.99905 0.183297
vt 0.93931 0.183297
vt 0.939081 0.132863
vt 0.99905 0.342604
vt 0.93931 0.342604
vt 0.93931 0.183297
vt 0.99905 0.183297
vt 0.985655 0.132863
vt 0.93931 0.342604
vt 0.99905 0.342604
vt 0.93931 0.183297
vt 0.99905 0.183297
vt 0.985655 0.179437
vt 0.93931 0.342604
vt 0.99905 0.342604
vt 0.93931 0.183297
vt 0.99905 0.183297
vt 0.939081 0.179437
vt 0.93931 0.342604
vt 0.99905 0.342604
vt 0.302823 0.656284
vt -0.000781 0.781451
vt 0.0 0.851064
vt 0.302823 0.718868
vt -0.000781 0.844034
vt -0.000781 0.656284
vt 0.979692 0.781451
vt 1.0 0.851064
vt -0.000781 0.718868
vt 0.979692 0.844034
vt -0.000781 0.718868
vt 0.145247 0.656284
vt 1.0 1.0
vt -0.000781 0.781451
vt 0.145247 0.718868
vt 0.156795 0.656284
vt 0.979692 0.718868
vt 0.0 1.0
vt 0.156795 0.718868
vt 0.979692 0.781451
vt 0.99905 0.183297
vt 0.93931 0.183297
vt 0.939081 0.132863
vt 0.99905 0.342604
vt 0.93931 0.342604
vt 0.93931 0.183297
vt 0.99905 0.183297
vt 0.985655 0.132863
vt 0.93931 0.342604
vt 0.99905 0.342604
vt 0.93931 0.183297
vt 0.99905 0.183297
vt 0.985655 0.179437
vt 0.93931 0.342604
vt 0.99905 0.342604
vt 0.93931 0.183297
vt 0.99905 0.183297
vt 0.939081 0.179437
vt 0.93931 0.342604
vt 0.99905 0.342604
vt 0.99905 0.183297
vt 0.93931 0.183297
vt 0.939081 0.132863
vt 0.99905 0.342604
vt 0.93931 0.342604
vt 0.93931 0.183297
vt 0.99905 0.183297
vt 0.985655 0.132863
vt 0.93931 0.342604
vt 0.99905 0.342604
vt 0.93931 0.183297
vt 0.99905 0.183297
vt 0.985655 0.179437
vt 0.93931 0.342604
vt 0.99905 0.342604
vt 0.93931 0.183297
vt 0.99905 0.183297
vt 0.939081 0.179437
vt 0.93931 0.342604
vt 0.99905 0.342604
vt 0.302823 0.656284
vt -0.000781 0.781451
vt 0.0 0.851064
vt 0.302823 0.718868
vt -0.000781 0.844034
vt -0.000781 0.656284
vt 0.979692 0.781451
vt 1.0 0.851064
vt -0.000781 0.718868
vt 0.979692 0.844034
vt -0.000781 0.718868
vt 0.145247 0.656284
vt 1.0 1.0
vt -0.000781 0.781451
vt 0.145247 0.718868
vt 0.156795 0.656284
vt 0.979692 0.718868
vt 0.0 1.0
vt 0.156795 0.718868
vt 0.979692 0.781451
vt 0.99905 0.183297
vt 0.93931 0.183297
vt 0.939081 0.132863
vt 0.99905 0.342604
vt 0.93931 0.342604
vt 0.93931 0.183297
vt 0.99905 0.183297
vt 0.985655 0.132863
vt 0.93931 0.342604
vt 0.99905 0.342604
vt 0.93931 0.183297
vt 0.99905 0.183297
vt 0.985655 0.179437
vt 0.93931 0.342604
vt 0.99905 0.342604
vt 0.93931 0.183297
vt 0.99905 0.183297
vt 0.939081 0.179437
vt 0.93931 0.342604
vt 0.99905 0.342604
vt 0.99905 0.183297
vt 0.93931 0.183297
vt 0.939081 0.132863
vt 0.99905 0.342604
vt 0.93931 0.342604
vt 0.93931 0.183297
vt 0.99905 0.183297
vt 0.985655 0.132863
vt 0.93931 0.342604
vt 0.99905 0.342604
vt 0.93931 0.183297
vt 0.99905 0.183297
vt 0.985655 0.179437
vt 0.93931 0.342604
vt 0.99905 0.342604
vt 0.93931 0.183297
vt 0.99905 0.183297
vt 0.939081 0.179437
vt 0.93931 0.342604
vt 0.99905 0.342604
vt 0.302823 0.656284
vt -0.000781 0.781451
vt 0.0 0.851064
vt 0.302823 0.718868
vt -0.000781 0.844034
vt -0.000781 0.656284
vt 0.979692 0.781451
vt 1.0 0.851064
vt -0.000781 0.718868
vt 0.979692 0.844034
vt -0.000781 0.718868
vt 0.145247 0.656284
vt 1.0 1.0
vt -0.000781 0.781451
vt 0.145247 0.718868
vt 0.156795 0.656284
vt 0.979692 0.718868
vt 0.0 1.0
vt 0.156795 0.718868
vt 0.979692 0.781451
vt 0.99905 0.183297
vt 0.93931 0.183297
vt 0.939081 0.132863
vt 0.99905 0.342604
vt 0.93931 0.342604
vt 0.93931 0.183297
vt 0.99905 0.183297
vt 0.985655 0.132863
vt 0.93931 0.342604
vt 0.99905 0.342604
vt 0.93931 0.183297
vt 0.99905 0.183297
vt 0.985655 0.179437
vt 0.93931 0.342604
vt 0.99905 0.342604
vt 0.93931 0.183297
vt 0.99905 0.183297
vt 0.939081 0.179437
vt 0.93931 0.342604
vt 0.99905 0.342604
vt 0.99905 0.183297
vt 0.93931 0.183297
vt 0.939081 0.132863
vt 0.99905 0.342604
vt 0.93931 0.342604
vt 0.93931 0.183297
vt 0.99905 0.183297
vt 0.985655 0.132863
vt 0.93931 0.342604
vt 0.99905 0.342604
vt 0.93931 0.183297
vt 0.99905 0.183297
vt 0.985655 0.179437
vt 0.93931 0.342604
vt 0.99905 0.342604
vt 0.93931 0.183297
vt 0.99905 0.183297
vt 0.939081 0.179437
vt 0.93931 0.342604
vt 0.99905 0.342604
vt 0.302823 0.656284
vt -0.000781 0.781451
vt 0.0 0.851064
vt 0.302823 0.718868
vt -0.000781 0.844034
vt -0.000781 0.656284
vt 0.979692 0.781451
vt 1.0 0.851064
vt -0.000781 0.718868
vt 0.979692 0.844034
vt -0.000781 0.718868
vt 0.145247 0.656284
vt 1.0 1.0
vt -0.000781 0.781451
vt 0.145247 0.718868
vt 0.156795 0.656284
vt 0.979692 0.718868
vt 0.0 1.0
vt 0.156795 0.718868
vt 0.979692 0.781451
vt 0.99905 0.183297
vt 0.93931 0.183297
vt 0.939081 0.132863
vt 0.99905 0.342604
vt 0.93931 0.342604
vt 0.93931 0.183297
vt 0.99905 0.183297
vt 0.985655 0.132863
vt 0.93931 0.342604
vt 0.99905 0.342604
vt 0.93931 0.183297
vt 0.99905 0.183297
vt 0.985655 0.179437
vt 0.93931 0.342604
vt 0.99905 0.342604
vt 0.93931 0.183297
vt 0.99905 0.183297
vt 0.939081 0.179437
vt 0.93931 0.342604
vt 0.99905 0.342604
vt 0.99905 0.183297
vt 0.93931 0.183297
vt 0.939081 0.132863
vt 0.99905 0.342604
vt 0.93931 0.342604
vt 0.93931 0.183297
vt 0.99905 0.183297
vt 0.985655 0.132863
vt 0.93931 0.342604
vt 0.99905 0.342604
vt 0.93931 0.183297
vt 0.99905 0.183297
vt 0.985655 0.179437
vt 0.93931 0.342604
vt 0.99905 0.342604
vt 0.93931 0.183297
vt 0.99905 0.183297
vt 0.939081 0.179437
vt 0.93931 0.342604
vt 0.99905 0.342604
vt 0.302823 0.656284
vt -0.000781 0.781451
vt 0.0 0.851064
vt 0.302823 0.718868
vt -0.000781 0.844034
vt -0.000781 0.656284
vt 0.979692 0.781451
vt 1.0 0.851064
vt -0.000781 0.718868
vt 0.979692 0.844034
vt -0.000781 0.718868
vt 0.145247 0.656284
vt 1.0 1.0
vt -0.000781 0.781451
vt 0.145247 0.718868
vt 0.156795 0.656284
vt 0.979692 0.718868
vt 0.0 1.0
vt 0.156795 0.718868
vt 0.979692 0.781451
vt 0.99905 0.183297
vt 0.93931 0.183297
vt 0.939081 0.132863
vt 0.99905 0.342604
vt 0.93931 0.342604
vt 0.93931 0.183297
vt 0.99905 0.183297
vt 0.985655 0.132863
vt 0.93931 0.342604
vt 0.99905 0.342604
vt 0.93931 0.183297
vt 0.99905 0.183297
vt 0.985655 0.179437
vt 0.93931 0.342604
vt 0.99905 0.342604
vt 0.93931 0.183297
vt 0.99905 0.183297
vt 0.939081 0.179437
vt 0.93931 0.342604
vt 0.99905 0.342604
vt 0.99905 0.183297
vt 0.93931 0.183297
vt 0.939081 0.132863
vt 0.99905 0.342604
vt 0.93931 0.342604
vt 0.93931 0.183297
vt 0.99905 0.183297
vt 0.985655 0.132863
vt 0.93931 0.342604
vt 0.99905 0.342604
vt 0.93931 0.183297
vt 0.99905 0.183297
vt 0.985655 0.179437
vt 0.93931 0.342604
vt 0.99905 0.342604
vt 0.93931 0.183297
vt 0.99905 0.183297
vt 0.939081 0.179437
vt 0.93931 0.342604
vt 0.99905 0.342604
vt 0.302823 0.656284
vt -0.000781 0.781451
vt 0.0 0.851064
vt 0.302823 0.718868
vt -0.000781 0.844034
vt -0.000781 0.656284
vt 0.979692 0.781451
vt 1.0 0.851064
vt -0.000781 0.718868
vt 0.979692 0.844034
vt -0.000781 0.718868
vt 0.145247 0.656284
vt 1.0 1.0
vt -0.000781 0.781451
vt 0.145247 0.718868
vt 0.156795 0.656284
vt 0.979692 0.718868
vt 0.0 1.0
vt 0.156795 0.718868
vt 0.979692 0.781451
vt 0.99905 0.183297
vt 0.93931 0.183297
vt 0.939081 0.132863
vt 0.99905 0.342604
vt 0.93931 0.342604
vt 0.93931 0.183297
vt 0.99905 0.183297
vt 0.985655 0.132863
vt 0.93931 0.342604
vt 0.99905 0.342604
vt 0.93931 0.183297
vt 0.99905 0.183297
vt 0.985655 0.179437
vt 0.93931 0.342604
vt 0.99905 0.342604
vt 0.93931 0.183297
vt 0.99905 0.183297
vt 0.939081 0.179437
vt 0.93931 0.342604
vt 0.99905 0.342604
vt 0.99905 0.183297
vt 0.93931 0.183297
vt 0.939081 0.132863
vt 0.99905 0.342604
vt 0.93931 0.342604
vt 0.93931 0.183297
vt 0.99905 0.183297
vt 0.985655 0.132863
vt 0.93931 0.342604
vt 0.99905 0.342604
vt 0.93931 0.183297
vt 0.99905 0.183297
vt 0.985655 0.179437
vt 0.93931 0.342604
vt 0.99905 0.342604
vt 0.93931 0.183297
vt 0.99905 0.183297
vt 0.939081 0.179437
vt 0.93931 0.342604
vt 0.99905 0.342604
vt 0.302823 0.656284
vt -0.000781 0.781451
vt 0.0 0.851064
vt 0.302823 0.718868
vt -0.000781 0.844034
vt -0.000781 0.656284
vt 0.979692 0.781451
vt 1.0 0.851064
vt -0.000781 0.718868
vt 0.979692 0.844034
vt -0.000781 0.718868
vt 0.145247 0.656284
vt 1.0 1.0
vt -0.000781 0.781451
vt 0.145247 0.718868
vt 0.156795 0.656284
vt 0.979692 0.718868
vt 0.0 1.0
vt 0.156795 0.718868
vt 0.979692 0.781451
vt 0.99905 0.183297
vt 0.93931 0.183297
vt 0.939081 0.132863
vt 0.99905 0.342604
vt 0.93931 0.342604
vt 0.93931 0.183297
vt 0.99905 0.183297
vt 0.985655 0.132863
vt 0.93931 0.342604
vt 0.99905 0.342604
vt 0.93931 0.183297
vt 0.99905 0.183297
vt 0.985655 0.179437
vt 0.93931 0.342604
vt 0.99905 0.342604
vt 0.93931 0.183297
vt 0.99905 0.183297
vt 0.939081 0.179437
vt 0.93931 0.342604
vt 0.99905 0.342604
vt 0.99905 0.183297
vt 0.93931 0.183297
vt 0.939081 0.132863
vt 0.99905 0.342604
vt 0.93931 0.342604
vt 0.93931 0.183297
vt 0.99905 0.183297
vt 0.985655 0.132863
vt 0.93931 0.342604
vt 0.99905 0.342604
vt 0.93931 0.183297
vt 0.99905 0.183297
vt 0.985655 0.179437
vt 0.93931 0.342604
vt 0.99905 0.342604
vt 0.93931 0.183297
vt 0.99905 0.183297
vt 0.939081 0.179437
vt 0.93931 0.342604
vt 0.99905 0.342604
vt 0.302823 0.656284
vt -0.000781 0.781451
vt 0.0 0.851064
vt 0.302823 0.718868
vt -0.000781 0.844034
vt -0.000781 0.656284
vt 0.979692 0.781451
vt 1.0 0.851064
vt -0.000781 0.718868
vt 0.979692 0.844034
vt -0.000781 0.718868
vt 0.145247 0.656284
vt 1.0 1.0
vt -0.000781 0.781451
vt 0.145247 0.718868
vt 0.156795 0.656284
vt 0.979692 0.718868
vt 0.0 1.0
vt 0.156795 0.718868
vt 0.979692 0.781451
vt 0.99905 0.183297
vt 0.93931 0.183297
vt 0.939081 0.132863
vt 0.99905 0.342604
vt 0.93931 0.342604
vt 0.93931 0.183297
vt 0.99905 0.183297
vt 0.985655 0.132863
vt 0.93931 0.342604
vt 0.99905 0.342604
vt 0.93931 0.183297
vt 0.99905 0.183297
vt 0.985655 0.179437
vt 0.93931 0.342604
vt 0.99905 0.342604
vt 0.93931 0.183297
vt 0.99905 0.183297
vt 0.939081 0.179437
vt 0.93931 0.342604
vt 0.99905 0.342604
vt 0.99905 0.183297
vt 0.93931 0.183297
vt 0.939081 0.132863
vt 0.99905 0.342604
vt 0.93931 0.342604
vt 0.93931 0.183297
vt 0.99905 0.183297
vt 0.985655 0.132863
vt 0.93931 0.342604
vt 0.99905 0.342604
vt 0.93931 0.183297
vt 0.99905 0.183297
vt 0.985655 0.179437
vt 0.93931 0.342604
vt 0.99905 0.342604
vt 0.93931 0.183297
vt 0.99905 0.183297
vt 0.939081 0.179437
vt 0.93931 0.342604
vt 0.99905 0.342604
vt 0.302823 0.656284
vt -0.000781 0.781451
vt 0.0 0.851064
vt 0.302823 0.718868
vt -0.000781 0.844034
vt -0.000781 0.656284
vt 0.979692 0.781451
vt 1.0 0.851064
vt -0.000781 0.718868
vt 0.979692 0.844034
vt -0.000781 0.718868
vt 0.145247 0.656284
vt 1.0 1.0
vt -0.000781 0.781451
vt 0.145247 0.718868
vt 0.156795 0.656284
vt 0.979692 0.718868
vt 0.0 1.0
vt 0.156795 0.718868
vt 0.979692 0.781451
vt 0.057976 0.06215
vt 0.848099 0.297453
vt 0.474557 0.156096
vt 0.431196 0.034093
vt 0.847899 0.034093
vt 0.057854 0.156096
vt 0.474557 0.210448
vt 0.474678 0.048121
vt 0.057976 0.012881
vt 0.848099 0.259595
vt 0.847899 0.093759
vt 0.848099 0.312903
vt 0.057976 0.06215
vt 0.848099 0.281378
vt 0.474678 0.012881
vt 0.431396 0.259595
vt 0.058488 0.330358
vt 0.847899 0.121202
vt 0.058488 0.32163
vt 0.057976 0.0
vt 0.431396 0.219937
vt 0.431196 0.025761
vt 0.474678 0.06215
vt 0.431396 0.297453
vt 0.058488 0.312903
vt 0.057976 0.089593
vt 0.431196 0.093759
vt 0.431396 0.312903
vt 0.431396 0.281378
vt 0.474678 0.06215
vt 0.431196 0.121202
vt 0.475191 0.330358
vt 0.475191 0.32163
vt 0.474678 0.0
vt 0.057976 0.048121
vt 0.057854 0.210448
vt 0.847899 0.025761
vt 0.848099 0.219937
vt 0.058488 0.32163
vt 0.847899 0.012881
vt 0.475191 0.312903
vt 0.474678 0.089593
vt 0.431196 0.012881
vt 0.475191 0.32163
vt 0.848099 0.296828
vt 0.847899 0.048121
vt 0.431396 0.296828
vt 0.431196 0.048121
vt 0.057976 0.06215
vt 0.848099 0.297453
vt 0.058176 0.297453
vt 0.847899 0.06215
vt 0.847899 0.034093
vt 0.057854 0.156096
vt 0.847899 0.012881
vt 0.058176 0.259595
vt 0.847899 0.093759
vt 0.848099 0.312903
vt 0.057976 0.06215
vt 0.848099 0.281378
vt 0.058488 0.330358
vt 0.847899 0.121202
vt 0.848411 0.330358
vt 0.057976 0.121202
vt 0.058488 0.32163
vt 0.057976 0.0
vt 0.058488 0.312903
vt 0.057976 0.089593
vt 0.847899 0.06215
vt 0.058176 0.281378
vt 0.848411 0.32163
vt 0.847899 0.0
vt 0.057976 0.048121
vt 0.057854 0.210448
vt 0.847899 0.089593
vt 0.848411 0.312903
vt 0.058176 0.312903
vt 0.057976 0.093759
vt 0.847777 0.210448
vt 0.847899 0.048121
vt 0.847777 0.156096
vt 0.057976 0.034093
vt 0.057976 0.012881
vt 0.848099 0.259595
vt 0.847899 0.025761
vt 0.848099 0.219937
vt 0.058488 0.32163
vt 0.847899 0.012881
vt 0.848411 0.32163
vt 0.057976 0.012881
vt 0.058176 0.296828
vt 0.057976 0.048121
vt 0.847899 0.048121
vt 0.848099 0.296828
vt 0.057976 0.025761
vt 0.058176 0.219937
vt 0.452937 0.06215
vt 0.453137 0.297453
vt 0.452816 0.156096
vt 0.452937 0.034093
vt 0.452937 0.012881
vt 0.453137 0.259595
vt 0.453137 0.312903
vt 0.452937 0.093759
vt 0.452937 0.06215
vt 0.453137 0.281378
vt 0.45345 0.330358
vt 0.452937 0.121202
vt 0.45345 0.32163
vt 0.452937 0.0
vt 0.45345 0.312903
vt 0.452937 0.089593
vt 0.452937 0.048121
vt 0.452816 0.210448
vt 0.452937 0.025761
vt 0.453137 0.219937
vt 0.45345 0.32163
vt 0.452937 0.012881
vt 0.453137 0.296828
vt 0.452937 0.048121
vt 0.057976 0.06215
vt 0.848099 0.297453
vt 0.058176 0.297453
vt 0.847899 0.06215
vt 0.847899 0.034093
vt 0.057854 0.156096
vt 0.847899 0.012881
vt 0.058176 0.259595
vt 0.847899 0.093759
vt 0.848099 0.312903
vt 0.057976 0.06215
vt 0.848099 0.281378
vt 0.058488 0.330358
vt 0.847899 0.121202
vt 0.848411 0.330358
vt 0.057976 0.121202
vt 0.058488 0.32163
vt 0.057976 0.0
vt 0.058488 0.312903
vt 0.057976 0.089593
vt 0.847899 0.06215
vt 0.058176 0.281378
vt 0.848411 0.32163
vt 0.847899 0.0
vt 0.057976 0.048121
vt 0.057854 0.210448
vt 0.847899 0.089593
vt 0.848411 0.312903
vt 0.058176 0.312903
vt 0.057976 0.093759
vt 0.847777 0.210448
vt 0.847899 0.048121
vt 0.847777 0.156096
vt 0.057976 0.034093
vt 0.057976 0.012881
vt 0.848099 0.259595
vt 0.847899 0.025761
vt 0.848099 0.219937
vt 0.058488 0.32163
vt 0.847899 0.012881
vt 0.848411 0.32163
vt 0.057976 0.012881
vt 0.058176 0.296828
vt 0.057976 0.048121
vt 0.847899 0.048121
vt 0.848099 0.296828
vt 0.057976 0.025761
vt 0.058176 0.219937
vt 0.452937 0.06215
vt 0.453137 0.297453
vt 0.452816 0.156096
vt 0.452937 0.034093
vt 0.452937 0.012881
vt 0.453137 0.259595
vt 0.453137 0.312903
vt 0.452937 0.093759
vt 0.452937 0.06215
vt 0.453137 0.281378
vt 0.45345 0.330358
vt 0.452937 0.121202
vt 0.45345 0.32163
vt 0.452937 0.0
vt 0.45345 0.312903
vt 0.452937 0.089593
vt 0.452937 0.048121
vt 0.452816 0.210448
vt 0.452937 0.025761
vt 0.453137 0.219937
vt 0.45345 0.32163
vt 0.452937 0.012881
vt 0.453137 0.296828
vt 0.452937 0.048121
vt 0.058176 0.297453
vt 0.847899 0.06215
vt 0.057976 0.06215
vt 0.848099 0.297453
vt 0.847899 0.012881
vt 0.058176 0.259595
vt 0.847899 0.034093
vt 0.057854 0.156096
vt 0.848411 0.330358
vt 0.057976 0.121202
vt 0.847899 0.06215
vt 0.058176 0.281378
vt 0.848411 0.32163
vt 0.847899 0.0
vt 0.847899 0.093759
vt 0.848099 0.312903
vt 0.847899 0.089593
vt 0.848411 0.312903
vt 0.058176 0.312903
vt 0.057976 0.093759
vt 0.057976 0.06215
vt 0.848099 0.281378
vt 0.058488 0.330358
vt 0.847899 0.121202
vt 0.847777 0.210448
vt 0.847899 0.048121
vt 0.057976 0.0
vt 0.058488 0.32163
vt 0.058488 0.312903
vt 0.057976 0.089593
vt 0.057976 0.048121
vt 0.057854 0.210448
vt 0.057976 0.012881
vt 0.848099 0.259595
vt 0.847777 0.156096
vt 0.057976 0.034093
vt 0.057976 0.012881
vt 0.848411 0.32163
vt 0.058176 0.296828
vt 0.057976 0.048121
vt 0.847899 0.025761
vt 0.848099 0.219937
vt 0.058488 0.32163
vt 0.847899 0.012881
vt 0.057976 0.025761
vt 0.058176 0.219937
vt 0.847899 0.048121
vt 0.848099 0.296828
vt 0.452937 0.06215
vt 0.453137 0.297453
vt 0.452816 0.156096
vt 0.452937 0.034093
vt 0.452937 0.012881
vt 0.453137 0.259595
vt 0.453137 0.312903
vt 0.452937 0.093759
vt 0.452937 0.06215
vt 0.453137 0.281378
vt 0.45345 0.330358
vt 0.452937 0.121202
vt 0.452937 0.0
vt 0.45345 0.32163
vt 0.452937 0.089593
vt 0.45345 0.312903
vt 0.452937 0.048121
vt 0.452816 0.210448
vt 0.452937 0.025761
vt 0.453137 0.219937
vt 0.452937 0.012881
vt 0.45345 0.32163
vt 0.453137 0.296828
vt 0.452937 0.048121
vt 0.423949 0.06215
vt 0.482125 0.297453
vt 0.847899 0.06215
vt 0.058176 0.297453
vt 0.423828 0.156096
vt 0.481925 0.034093
vt 0.847777 0.156096
vt 0.057976 0.034093
vt 0.482125 0.312903
vt 0.481925 0.093759
vt 0.423949 0.06215
vt 0.482125 0.281378
vt 0.424462 0.330358
vt 0.481925 0.121202
vt 0.847899 0.012881
vt 0.058176 0.259595
vt 0.423949 0.012881
vt 0.482125 0.259595
vt 0.424462 0.32163
vt 0.423949 0.0
vt 0.058176 0.312903
vt 0.057976 0.093759
vt 0.847899 0.06215
vt 0.058176 0.281378
vt 0.424462 0.312903
vt 0.423949 0.089593
vt 0.848411 0.330358
vt 0.057976 0.121202
vt 0.848411 0.32163
vt 0.847899 0.0
vt 0.848411 0.312903
vt 0.847899 0.089593
vt 0.847899 0.048121
vt 0.847777 0.210448
vt 0.423949 0.048121
vt 0.423828 0.210448
vt 0.481925 0.025761
vt 0.482125 0.219937
vt 0.424462 0.32163
vt 0.481925 0.012881
vt 0.057976 0.025761
vt 0.058176 0.219937
vt 0.848411 0.32163
vt 0.057976 0.012881
vt 0.482125 0.296828
vt 0.481925 0.048121
vt 0.058176 0.296828
vt 0.057976 0.048121
vt 0.04336 0.156096
vt 0.862393 0.034093
vt 0.04336 0.210448
vt 0.043482 0.048121
vt 0.481925 0.06215
vt 0.424149 0.297453
vt 0.423949 0.034093
vt 0.481804 0.156096
vt 0.043482 0.012881
vt 0.862593 0.259595
vt 0.862593 0.219937
vt 0.862393 0.025761
vt 0.043482 0.06215
vt 0.862593 0.297453
vt 0.481925 0.012881
vt 0.424149 0.259595
vt 0.423949 0.093759
vt 0.424149 0.312903
vt 0.862393 0.093759
vt 0.862593 0.312903
vt 0.862593 0.281378
vt 0.043482 0.06215
vt 0.862393 0.121202
vt 0.043994 0.330358
vt 0.481925 0.06215
vt 0.424149 0.281378
vt 0.043994 0.32163
vt 0.043482 0.0
vt 0.043994 0.312903
vt 0.043482 0.089593
vt 0.482438 0.330358
vt 0.423949 0.121202
vt 0.482438 0.32163
vt 0.481925 0.0
vt 0.482438 0.312903
vt 0.481925 0.089593
vt 0.481925 0.048121
vt 0.481804 0.210448
vt 0.862393 0.012881
vt 0.043994 0.32163
vt 0.423949 0.025761
vt 0.424149 0.219937
vt 0.482438 0.32163
vt 0.423949 0.012881
vt 0.862593 0.296828
vt 0.862393 0.048121
vt 0.424149 0.296828
vt 0.423949 0.048121
vt 0.04336 0.156096
vt 0.862393 0.034093
vt 0.04336 0.210448
vt 0.043482 0.048121
vt 0.862271 0.210448
vt 0.862393 0.048121
vt 0.862271 0.156096
vt 0.043482 0.034093
vt 0.862593 0.259595
vt 0.043482 0.012881
vt 0.862593 0.219937
vt 0.862393 0.025761
vt 0.043482 0.06215
vt 0.862593 0.297453
vt 0.862393 0.06215
vt 0.043682 0.297453
vt 0.862393 0.012881
vt 0.043682 0.259595
vt 0.862593 0.312903
vt 0.862393 0.093759
vt 0.862593 0.281378
vt 0.043482 0.06215
vt 0.043994 0.330358
vt 0.862393 0.121202
vt 0.043482 0.121202
vt 0.862905 0.330358
vt 0.043994 0.32163
vt 0.043482 0.0
vt 0.043482 0.089593
vt 0.043994 0.312903
vt 0.043682 0.281378
vt 0.862393 0.06215
vt 0.862905 0.32163
vt 0.862393 0.0
vt 0.862905 0.312903
vt 0.862393 0.089593
vt 0.043482 0.093759
vt 0.043682 0.312903
vt 0.043994 0.32163
vt 0.862393 0.012881
vt 0.043482 0.012881
vt 0.862905 0.32163
vt 0.043482 0.048121
vt 0.043682 0.296828
vt 0.862393 0.048121
vt 0.862593 0.296828
vt 0.043482 0.025761
vt 0.043682 0.219937
vt 0.452816 0.156096
vt 0.452937 0.034093
vt 0.452816 0.210448
vt 0.452937 0.048121
vt 0.453137 0.259595
vt 0.452937 0.012881
vt 0.453137 0.219937
vt 0.452937 0.025761
vt 0.452937 0.06215
vt 0.453137 0.297453
vt 0.452937 0.093759
vt 0.453137 0.312903
vt 0.453137 0.281378
vt 0.452937 0.06215
vt 0.452937 0.121202
vt 0.45345 0.330358
vt 0.45345 0.32163
vt 0.452937 0.0
vt 0.45345 0.312903
vt 0.452937 0.089593
vt 0.45345 0.32163
vt 0.452937 0.012881
vt 0.452937 0.048121
vt 0.453137 0.296828
vt 0.04336 0.156096
vt 0.862393 0.034093
vt 0.04336 0.210448
vt 0.043482 0.048121
vt 0.862271 0.210448
vt 0.862393 0.048121
vt 0.862271 0.156096
vt 0.043482 0.034093
vt 0.862593 0.259595
vt 0.043482 0.012881
vt 0.862593 0.219937
vt 0.862393 0.025761
vt 0.043482 0.06215
vt 0.862593 0.297453
vt 0.862393 0.06215
vt 0.043682 0.297453
vt 0.862393 0.012881
vt 0.043682 0.259595
vt 0.862593 0.312903
vt 0.862393 0.093759
vt 0.862593 0.281378
vt 0.043482 0.06215
vt 0.043994 0.330358
vt 0.862393 0.121202
vt 0.043482 0.121202
vt 0.862905 0.330358
vt 0.043994 0.32163
vt 0.043482 0.0
vt 0.043482 0.089593
vt 0.043994 0.312903
vt 0.043682 0.281378
vt 0.862393 0.06215
vt 0.862905 0.32163
vt 0.862393 0.0
vt 0.862905 0.312903
vt 0.862393 0.089593
vt 0.043482 0.093759
vt 0.043682 0.312903
vt 0.043994 0.32163
vt 0.862393 0.012881
vt 0.043482 0.012881
vt 0.862905 0.32163
vt 0.043482 0.048121
vt 0.043682 0.296828
vt 0.862393 0.048121
vt 0.862593 0.296828
vt 0.043482 0.025761
vt 0.043682 0.219937
vt 0.452816 0.156096
vt 0.452937 0.034093
vt 0.452816 0.210448
vt 0.452937 0.048121
vt 0.453137 0.259595
vt 0.452937 0.012881
vt 0.453137 0.219937
vt 0.452937 0.025761
vt 0.452937 0.06215
vt 0.453137 0.297453
vt 0.452937 0.093759
vt 0.453137 0.312903
vt 0.453137 0.281378
vt 0.452937 0.06215
vt 0.452937 0.121202
vt 0.45345 0.330358
vt 0.45345 0.32163
vt 0.452937 0.0
vt 0.45345 0.312903
vt 0.452937 0.089593
vt 0.45345 0.32163
vt 0.452937 0.012881
vt 0.452937 0.048121
vt 0.453137 0.296828
vt 0.04336 0.156096
vt 0.862393 0.034093
vt 0.04336 0.210448
vt 0.043482 0.048121
vt 0.862271 0.210448
vt 0.862393 0.048121
vt 0.862271 0.156096
vt 0.043482 0.034093
vt 0.862593 0.259595
vt 0.043482 0.012881
vt 0.862593 0.219937
vt 0.862393 0.025761
vt 0.043482 0.06215
vt 0.862593 0.297453
vt 0.862393 0.06215
vt 0.043682 0.297453
vt 0.862393 0.012881
vt 0.043682 0.259595
vt 0.862593 0.312903
vt 0.862393 0.093759
vt 0.862593 0.281378
vt 0.043482 0.06215
vt 0.043994 0.330358
vt 0.862393 0.121202
vt 0.043482 0.121202
vt 0.862905 0.330358
vt 0.043994 0.32163
vt 0.043482 0.0
vt 0.043482 0.089593
vt 0.043994 0.312903
vt 0.043682 0.281378
vt 0.862393 0.06215
vt 0.862905 0.32163
vt 0.862393 0.0
vt 0.862905 0.312903
vt 0.862393 0.089593
vt 0.043482 0.093759
vt 0.043682 0.312903
vt 0.043994 0.32163
vt 0.862393 0.012881
vt 0.043482 0.012881
vt 0.862905 0.32163
vt 0.043482 0.048121
vt 0.043682 0.296828
vt 0.862393 0.048121
vt 0.862593 0.296828
vt 0.043482 0.025761
vt 0.043682 0.219937
vt 0.452816 0.156096
vt 0.452937 0.034093
vt 0.452816 0.210448
vt 0.452937 0.048121
vt 0.453137 0.259595
vt 0.452937 0.012881
vt 0.453137 0.219937
vt 0.452937 0.025761
vt 0.452937 0.06215
vt 0.453137 0.297453
vt 0.452937 0.093759
vt 0.453137 0.312903
vt 0.453137 0.281378
vt 0.452937 0.06215
vt 0.452937 0.121202
vt 0.45345 0.330358
vt 0.45345 0.32163
vt 0.452937 0.0
vt 0.45345 0.312903
vt 0.452937 0.089593
vt 0.45345 0.32163
vt 0.452937 0.012881
vt 0.452937 0.048121
vt 0.453137 0.296828
vt 0.862271 0.156096
vt 0.043482 0.034093
vt 0.862905 0.32163
vt 0.862393 0.0
vt 0.862593 0.281378
vt 0.043482 0.06215
vt 0.04336 0.156096
vt 0.862393 0.034093
vt 0.862905 0.312903
vt 0.862393 0.089593
vt 0.043682 0.312903
vt 0.043482 0.093759
vt 0.043482 0.012881
vt 0.862905 0.32163
vt 0.862393 0.121202
vt 0.043994 0.330358
vt 0.043994 0.32163
vt 0.043482 0.0
vt 0.043682 0.297453
vt 0.862393 0.06215
vt 0.043682 0.296828
vt 0.043482 0.048121
vt 0.862393 0.012881
vt 0.043682 0.259595
vt 0.04336 0.210448
vt 0.043482 0.048121
vt 0.043482 0.025761
vt 0.043682 0.219937
vt 0.043482 0.121202
vt 0.862905 0.330358
vt 0.043482 0.089593
vt 0.043994 0.312903
vt 0.043994 0.32163
vt 0.862393 0.012881
vt 0.862593 0.259595
vt 0.043482 0.012881
vt 0.862593 0.219937
vt 0.862393 0.025761
vt 0.043682 0.281378
vt 0.862393 0.06215
vt 0.862593 0.297453
vt 0.043482 0.06215
vt 0.862393 0.093759
vt 0.862593 0.312903
vt 0.862271 0.210448
vt 0.862393 0.048121
vt 0.862393 0.048121
vt 0.862593 0.296828
vt 0.452816 0.156096
vt 0.452937 0.034093
vt 0.452816 0.210448
vt 0.452937 0.048121
vt 0.453137 0.259595
vt 0.452937 0.012881
vt 0.453137 0.219937
vt 0.452937 0.025761
vt 0.453137 0.297453
vt 0.452937 0.06215
vt 0.452937 0.093759
vt 0.453137 0.312903
vt 0.453137 0.281378
vt 0.452937 0.06215
vt 0.452937 0.121202
vt 0.45345 0.330358
vt 0.45345 0.32163
vt 0.452937 0.0
vt 0.45345 0.312903
vt 0.452937 0.089593
vt 0.45345 0.32163
vt 0.452937 0.012881
vt 0.453137 0.296828
vt 0.452937 0.048121
vt 0.431075 0.156096
vt 0.474678 0.034093
vt 0.431075 0.210448
vt 0.431196 0.048121
vt 0.862393 0.06215
vt 0.043682 0.281378
vt 0.862271 0.210448
vt 0.862393 0.048121
vt 0.431196 0.06215
vt 0.474878 0.281378
vt 0.474878 0.259595
vt 0.431196 0.012881
vt 0.474878 0.219937
vt 0.474678 0.025761
vt 0.043482 0.121202
vt 0.862905 0.330358
vt 0.862905 0.32163
vt 0.862393 0.0
vt 0.431196 0.06215
vt 0.474878 0.297453
vt 0.474678 0.121202
vt 0.431709 0.330358
vt 0.431709 0.32163
vt 0.431196 0.0
vt 0.043682 0.259595
vt 0.862393 0.012881
vt 0.474678 0.093759
vt 0.474878 0.312903
vt 0.431196 0.089593
vt 0.431709 0.312903
vt 0.862393 0.089593
vt 0.862905 0.312903
vt 0.862905 0.32163
vt 0.043482 0.012881
vt 0.043682 0.219937
vt 0.043482 0.025761
vt 0.862393 0.06215
vt 0.043682 0.297453
vt 0.431709 0.32163
vt 0.474678 0.012881
vt 0.043482 0.093759
vt 0.043682 0.312903
vt 0.862271 0.156096
vt 0.043482 0.034093
vt 0.474678 0.048121
vt 0.474878 0.296828
vt 0.043482 0.048121
vt 0.043682 0.296828

f 3/7 4/10 2/5 1/2 
f 5/12 6/15 4/9 3/6 
f 7/17 8/20 6/14 5/11 
f 1/1 2/4 8/19 7/16 
f 4/8 6/13 8/18 2/3 
f 10/25 12/30 11/27 9/22 
f 12/29 14/35 13/32 11/26 
f 14/34 16/40 15/37 13/31 
f 16/39 10/24 9/21 15/36 
f 16/38 14/33 12/28 10/23 
f 19/47 20/50 18/45 17/42 
f 21/52 22/55 20/49 19/46 
f 23/57 24/60 22/54 21/51 
f 17/41 18/44 24/59 23/56 
f 20/48 22/53 24/58 18/43 
f 27/67 28/70 26/65 25/62 
f 29/72 30/75 28/69 27/66 
f 31/77 32/80 30/74 29/71 
f 25/61 26/64 32/79 31/76 
f 28/68 30/73 32/78 26/63 
f 34/85 36/90 35/87 33/82 
f 36/89 38/95 37/92 35/86 
f 38/94 40/100 39/97 37/91 
f 40/99 34/84 33/81 39/96 
f 40/98 38/93 36/88 34/83 
f 43/107 44/110 42/105 41/102 
f 45/112 46/115 44/109 43/106 
f 47/117 48/120 46/114 45/111 
f 41/101 42/104 48/119 47/116 
f 44/108 46/113 48/118 42/103 
f 51/127 52/130 50/125 49/122 
f 53/132 54/135 52/129 51/126 
f 55/137 56/140 54/134 53/131 
f 49/121 50/124 56/139 55/136 
f 52/128 54/133 56/138 50/123 
f 58/145 60/150 59/147 57/142 
f 60/149 62/155 61/152 59/146 
f 62/154 64/160 63/157 61/151 
f 64/159 58/144 57/141 63/156 
f 64/158 62/153 60/148 58/143 
f 67/167 68/170 66/165 65/162 
f 69/172 70/175 68/169 67/166 
f 71/177 72/180 70/174 69/171 
f 65/161 66/164 72/179 71/176 
f 68/168 70/173 72/178 66/163 
f 75/187 76/190 74/185 73/182 
f 77/192 78/195 76/189 75/186 
f 79/197 80/200 78/194 77/191 
f 73/181 74/184 80/199 79/196 
f 76/188 78/193 80/198 74/183 
f 82/205 84/210 83/207 81/202 
f 84/209 86/215 85/212 83/206 
f 86/214 88/220 87/217 85/211 
f 88/219 82/204 81/201 87/216 
f 88/218 86/213 84/208 82/203 
f 91/227 92/230 90/225 89/222 
f 93/232 94/235 92/229 91/226 
f 95/237 96/240 94/234 93/231 
f 89/221 90/224 96/239 95/236 
f 92/228 94/233 96/238 90/223 
f 99/247 100/250 98/245 97/242 
f 101/252 102/255 100/249 99/246 
f 103/257 104/260 102/254 101/251 
f 97/241 98/244 104/259 103/256 
f 100/248 102/253 104/258 98/243 
f 106/265 108/270 107/267 105/262 
f 108/269 110/275 109/272 107/266 
f 110/274 112/280 111/277 109/271 
f 112/279 106/264 105/261 111/276 
f 112/278 110/273 108/268 106/263 
f 115/287 116/290 114/285 113/282 
f 117/292 118/295 116/289 115/286 
f 119/297 120/300 118/294 117/291 
f 113/281 114/284 120/299 119/296 
f 116/288 118/293 120/298 114/283 
f 123/307 124/310 122/305 121/302 
f 125/312 126/315 124/309 123/306 
f 127/317 128/320 126/314 125/311 
f 121/301 122/304 128/319 127/316 
f 124/308 126/313 128/318 122/303 
f 130/325 132/330 131/327 129/322 
f 132/329 134/335 133/332 131/326 
f 134/334 136/340 135/337 133/331 
f 136/339 130/324 129/321 135/336 
f 136/338 134/333 132/328 130/323 
f 139/347 140/350 138/345 137/342 
f 141/352 142/355 140/349 139/346 
f 143/357 144/360 142/354 141/351 
f 137/341 138/344 144/359 143/356 
f 140/348 142/353 144/358 138/343 
f 147/367 148/370 146/365 145/362 
f 149/372 150/375 148/369 147/366 
f 151/377 152/380 150/374 149/371 
f 145/361 146/364 152/379 151/376 
f 148/368 150/373 152/378 146/363 
f 154/385 156/390 155/387 153/382 
f 156/389 158/395 157/392 155/386 
f 158/394 160/400 159/397 157/391 
f 160/399 154/384 153/381 159/396 
f 160/398 158/393 156/388 154/383 
f 163/407 164/410 162/405 161/402 
f 165/412 166/415 164/409 163/406 
f 167/417 168/420 166/414 165/411 
f 161/401 162/404 168/419 167/416 
f 164/408 166/413 168/418 162/403 
f 171/427 172/430 170/425 169/422 
f 173/432 174/435 172/429 171/426 
f 175/437 176/440 174/434 173/431 
f 169/421 170/424 176/439 175/436 
f 172/428 174/433 176/438 170/423 
f 178/445 180/450 179/447 177/442 
f 180/449 182/455 181/452 179/446 
f 182/454 184/460 183/457 181/451 
f 184/459 178/444 177/441 183/456 
f 184/458 182/453 180/448 178/443 
f 187/467 188/470 186/465 185/462 
f 189/472 190/475 188/469 187/466 
f 191/477 192/480 190/474 189/471 
f 185/461 186/464 192/479 191/476 
f 188/468 190/473 192/478 186/463 
f 195/487 196/490 194/485 193/482 
f 197/492 198/495 196/489 195/486 
f 199/497 200/500 198/494 197/491 
f 193/481 194/484 200/499 199/496 
f 196/488 198/493 200/498 194/483 
f 202/505 204/510 203/507 201/502 
f 204/509 206/515 205/512 203/506 
f 206/514 208/520 207/517 205/511 
f 208/519 202/504 201/501 207/516 
f 208/518 206/513 204/508 202/503 
f 211/527 212/530 210/525 209/522 
f 213/532 214/535 212/529 211/526 
f 215/537 216/540 214/534 213/531 
f 209/521 210/524 216/539 215/536 
f 212/528 214/533 216/538 210/523 
f 219/547 220/550 218/545 217/542 
f 221/552 222/555 220/549 219/546 
f 223/557 224/560 222/554 221/551 
f 217/541 218/544 224/559 223/556 
f 220/548 222/553 224/558 218/543 
f 226/565 228/570 227/567 225/562 
f 228/569 230/575 229/572 227/566 
f 230/574 232/580 231/577 229/571 
f 232/579 226/564 225/561 231/576 
f 232/578 230/573 228/568 226/563 
f 235/587 236/590 234/585 233/582 
f 237/592 238/595 236/589 235/586 
f 239/597 240/600 238/594 237/591 
f 233/581 234/584 240/599 239/596 
f 236/588 238/593 240/598 234/583 
f 243/607 244/610 242/605 241/602 
f 245/612 246/615 244/609 243/606 
f 247/617 248/620 246/614 245/611 
f 241/601 242/604 248/619 247/616 
f 244/608 246/613 248/618 242/603 
f 250/625 252/630 251/627 249/622 
f 252/629 254/635 253/632 251/626 
f 254/634 256/640 255/637 253/631 
f 256/639 250/624 249/621 255/636 
f 256/638 254/633 252/628 250/623 
f 259/647 260/650 258/645 257/642 
f 261/652 262/655 260/649 259/646 
f 263/657 264/660 262/654 261/651 
f 257/641 258/644 264/659 263/656 
f 260/648 262/653 264/658 258/643 
f 267/667 268/670 266/665 265/662 
f 269/672 270/675 268/669 267/666 
f 271/677 272/680 270/674 269/671 
f 265/661 266/664 272/679 271/676 
f 268/668 270/673 272/678 266/663 
f 274/685 276/690 275/687 273/682 
f 276/689 278/695 277/692 275/686 
f 278/694 280/700 279/697 277/691 
f 280/699 274/684 273/681 279/696 
f 280/698 278/693 276/688 274/683 
f 283/707 284/710 282/705 281/702 
f 285/712 286/715 284/709 283/706 
f 287/717 288/720 286/714 285/711 
f 281/701 282/704 288/719 287/716 
f 284/708 286/713 288/718 282/703 
f 291/727 292/730 290/725 289/722 
f 293/732 294/735 292/729 291/726 
f 295/737 296/740 294/734 293/731 
f 289/721 290/724 296/739 295/736 
f 292/728 294/733 296/738 290/723 
f 298/745 300/750 299/747 297/742 
f 300/749 302/755 301/752 299/746 
f 302/754 304/760 303/757 301/751 
f 304/759 298/744 297/741 303/756 
f 304/758 302/753 300/748 298/743 
f 307/767 308/770 306/765 305/762 
f 309/772 310/775 308/769 307/766 
f 311/777 312/780 310/774 309/771 
f 305/761 306/764 312/779 311/776 
f 308/768 310/773 312/778 306/763 
f 319/794 481/1118 471/1098 313/782 
f 314/784 469/1094 491/1138 336/828 
f 328/812 480/1116 488/1132 334/824 
f 330/816 487/1130 472/1100 315/786 
f 336/827 491/1137 478/1112 326/808 
f 333/822 483/1122 479/1114 327/810 
f 492/1140 335/826 315/785 472/1099 
f 476/1108 317/790 331/818 489/1134 
f 335/825 492/1139 477/1110 318/792 
f 325/806 486/1128 481/1117 319/793 
f 327/809 479/1113 475/1106 324/804 
f 324/803 475/1105 470/1096 316/788 
f 342/840 365/886 361/878 337/830 
f 358/872 372/900 362/880 353/862 
f 370/896 360/876 340/836 363/882 
f 349/854 369/894 362/879 339/834 
f 364/884 351/858 344/844 366/888 
f 352/860 369/893 361/877 338/832 
f 360/875 370/895 371/898 357/870 
f 357/869 371/897 366/887 344/843 
f 359/874 372/899 364/883 341/838 
f 365/885 342/839 346/848 368/892 
f 348/852 367/890 363/881 340/835 
f 350/856 368/891 367/889 348/851 
f 365/886 347/850 338/831 361/878 
f 372/900 359/873 339/833 362/880 
f 355/866 370/896 363/882 354/864 
f 369/894 352/859 353/861 362/879 
f 366/888 343/842 341/837 364/884 
f 369/893 349/853 337/829 361/877 
f 370/895 355/865 356/868 371/898 
f 371/897 356/867 343/841 366/887 
f 372/899 358/871 351/857 364/883 
f 368/892 350/855 347/849 365/885 
f 367/890 345/846 354/863 363/881 
f 345/845 367/889 368/891 346/847 
f 378/912 401/958 397/950 373/902 
f 394/944 408/972 398/952 389/934 
f 406/968 396/948 376/908 399/954 
f 385/926 405/966 398/951 375/906 
f 400/956 387/930 380/916 402/960 
f 388/932 405/965 397/949 374/904 
f 396/947 406/967 407/970 393/942 
f 393/941 407/969 402/959 380/915 
f 395/946 408/971 400/955 377/910 
f 401/957 378/911 382/920 404/964 
f 384/924 403/962 399/953 376/907 
f 386/928 404/963 403/961 384/923 
f 401/958 383/922 374/903 397/950 
f 408/972 395/945 375/905 398/952 
f 391/938 406/968 399/954 390/936 
f 405/966 388/931 389/933 398/951 
f 402/960 379/914 377/909 400/956 
f 405/965 385/925 373/901 397/949 
f 406/967 391/937 392/940 407/970 
f 407/969 392/939 379/913 402/959 
f 408/971 394/943 387/929 400/955 
f 404/964 386/927 383/921 401/957 
f 403/962 381/918 390/935 399/953 
f 381/917 403/961 404/963 382/919 
f 428/1012 444/1044 434/1024 426/1008 
f 419/994 437/1030 433/1022 410/976 
f 442/1040 431/1018 411/978 435/1026 
f 424/1004 441/1038 434/1023 412/980 
f 436/1028 418/992 413/982 438/1032 
f 421/998 441/1037 433/1021 409/974 
f 432/1020 444/1043 436/1027 416/988 
f 427/1010 443/1042 438/1031 413/981 
f 415/986 439/1033 435/1025 411/977 
f 437/1029 419/993 423/1002 440/1035 
f 429/1014 442/1040 435/1026 425/1006 
f 417/990 440/1036 439/1034 415/985 
f 437/1030 414/984 409/973 433/1022 
f 444/1044 432/1019 412/979 434/1024 
f 422/1000 439/1034 440/1036 423/1001 
f 441/1038 421/997 426/1007 434/1023 
f 438/1032 420/996 416/987 436/1028 
f 441/1037 424/1003 410/975 433/1021 
f 442/1039 429/1013 430/1016 443/1041 
f 443/1042 430/1015 420/995 438/1031 
f 444/1043 428/1011 418/991 436/1027 
f 440/1035 417/989 414/983 437/1029 
f 439/1033 422/999 425/1005 435/1025 
f 431/1017 442/1039 443/1041 427/1009 
f 450/1056 456/1068 446/1048 445/1046 
f 468/1092 467/1090 447/1050 448/1052 
f 463/1082 465/1086 452/1060 453/1062 
f 448/1051 447/1049 462/1080 461/1078 
f 458/1072 451/1058 449/1054 455/1066 
f 461/1077 462/1079 445/1045 446/1047 
f 464/1084 466/1088 465/1085 463/1081 
f 466/1087 464/1083 451/1057 458/1071 
f 467/1089 468/1091 455/1065 449/1053 
f 457/1070 460/1076 456/1067 450/1055 
f 453/1061 452/1059 459/1074 454/1064 
f 460/1075 457/1069 454/1063 459/1073 
f 474/1104 323/802 334/823 488/1131 
f 323/801 474/1103 473/1102 320/796 
f 484/1124 321/798 318/791 477/1109 
f 487/1129 330/815 313/781 471/1097 
f 482/1120 329/814 320/795 473/1101 
f 483/1121 333/821 329/813 482/1119 
f 489/1133 331/817 332/820 490/1136 
f 490/1135 332/819 321/797 484/1123 
f 316/787 470/1095 469/1093 314/783 
f 485/1126 322/800 317/789 476/1107 
f 486/1127 325/805 322/799 485/1125 
f 480/1115 328/811 326/807 478/1111 
f 498/1152 520/1196 527/1210 512/1180 
f 505/1166 524/1204 527/1209 513/1182 
f 514/1184 528/1212 522/1200 511/1178 
f 510/1176 526/1208 523/1202 508/1172 
f 506/1168 525/1206 519/1194 497/1150 
f 507/1170 526/1207 525/1205 506/1167 
f 508/1171 523/1201 521/1198 500/1156 
f 500/1155 521/1197 518/1192 495/1146 
f 496/1148 517/1190 528/1211 514/1183 
f 516/1188 520/1195 519/1193 501/1158 
f 495/1145 518/1191 517/1189 496/1147 
f 504/1164 524/1203 522/1199 502/1160 
f 520/1196 516/1187 513/1181 527/1210 
f 524/1204 504/1163 512/1179 527/1209 
f 528/1212 515/1186 502/1159 522/1200 
f 526/1208 507/1169 503/1162 523/1202 
f 501/1157 519/1194 525/1206 509/1174 
f 526/1207 510/1175 509/1173 525/1205 
f 523/1201 503/1161 499/1154 521/1198 
f 494/1144 518/1192 521/1197 499/1153 
f 515/1185 528/1211 517/1190 493/1142 
f 520/1195 498/1151 497/1149 519/1193 
f 518/1191 494/1143 493/1141 517/1189 
f 511/1177 522/1199 524/1203 505/1165 
f 534/1224 556/1268 563/1282 548/1252 
f 541/1238 560/1276 563/1281 549/1254 
f 550/1256 564/1284 558/1272 547/1250 
f 546/1248 562/1280 559/1274 544/1244 
f 542/1240 561/1278 555/1266 533/1222 
f 543/1242 562/1279 561/1277 542/1239 
f 544/1243 559/1273 557/1270 536/1228 
f 536/1227 557/1269 554/1264 531/1218 
f 532/1220 553/1262 564/1283 550/1255 
f 552/1260 556/1267 555/1265 537/1230 
f 531/1217 554/1263 553/1261 532/1219 
f 540/1236 560/1275 558/1271 538/1232 
f 556/1268 552/1259 549/1253 563/1282 
f 560/1276 540/1235 548/1251 563/1281 
f 564/1284 551/1258 538/1231 558/1272 
f 562/1280 543/1241 539/1234 559/1274 
f 537/1229 555/1266 561/1278 545/1246 
f 562/1279 546/1247 545/1245 561/1277 
f 559/1273 539/1233 535/1226 557/1270 
f 530/1216 554/1264 557/1269 535/1225 
f 551/1257 564/1283 553/1262 529/1214 
f 556/1267 534/1223 533/1221 555/1265 
f 554/1263 530/1215 529/1213 553/1261 
f 547/1249 558/1271 560/1275 541/1237 
f 570/1296 592/1340 599/1354 584/1324 
f 577/1310 596/1348 599/1353 585/1326 
f 586/1328 600/1356 594/1344 583/1322 
f 582/1320 598/1352 595/1346 580/1316 
f 578/1312 597/1350 591/1338 569/1294 
f 579/1314 598/1351 597/1349 578/1311 
f 580/1315 595/1345 593/1342 572/1300 
f 572/1299 593/1341 590/1336 567/1290 
f 568/1292 589/1334 600/1355 586/1327 
f 588/1332 592/1339 591/1337 573/1302 
f 567/1289 590/1335 589/1333 568/1291 
f 576/1308 596/1347 594/1343 574/1304 
f 592/1340 588/1331 585/1325 599/1354 
f 596/1348 576/1307 584/1323 599/1353 
f 600/1356 587/1330 574/1303 594/1344 
f 598/1352 579/1313 575/1306 595/1346 
f 573/1301 591/1338 597/1350 581/1318 
f 598/1351 582/1319 581/1317 597/1349 
f 595/1345 575/1305 571/1298 593/1342 
f 566/1288 590/1336 593/1341 571/1297 
f 587/1329 600/1355 589/1334 565/1286 
f 592/1339 570/1295 569/1293 591/1337 
f 590/1335 566/1287 565/1285 589/1333 
f 583/1321 594/1343 596/1347 577/1309 
f 610/1376 629/1414 626/1408 623/1402 
f 615/1386 632/1420 635/1425 607/1370 
f 619/1394 628/1412 635/1426 617/1390 
f 605/1366 634/1424 631/1418 620/1396 
f 601/1358 625/1406 636/1428 611/1378 
f 614/1384 628/1411 627/1409 612/1380 
f 620/1395 631/1417 629/1413 610/1375 
f 612/1379 627/1410 633/1422 602/1360 
f 609/1374 633/1422 627/1410 618/1392 
f 613/1382 626/1408 629/1414 621/1398 
f 623/1401 626/1407 625/1405 601/1357 
f 616/1388 634/1423 633/1421 609/1373 
f 628/1412 614/1383 607/1369 635/1426 
f 632/1420 608/1372 617/1389 635/1425 
f 636/1427 624/1404 622/1400 630/1416 
f 634/1424 616/1387 603/1362 631/1418 
f 624/1403 636/1428 625/1406 604/1364 
f 634/1423 605/1365 602/1359 633/1421 
f 631/1417 603/1361 621/1397 629/1413 
f 606/1368 630/1415 632/1419 615/1385 
f 611/1377 636/1427 630/1416 606/1367 
f 628/1411 619/1393 618/1391 627/1409 
f 626/1407 613/1381 604/1363 625/1405 
f 608/1371 632/1419 630/1415 622/1399 
f 643/1442 654/1464 653/1462 656/1468 
f 656/1467 653/1461 644/1444 647/1450 
f 650/1456 657/1470 660/1476 659/1474 
f 639/1434 641/1438 646/1448 655/1466 
f 648/1452 645/1446 649/1454 642/1440 
f 651/1458 652/1460 645/1445 648/1451 
f 655/1465 646/1447 638/1432 640/1436 
f 659/1473 660/1475 658/1472 637/1430 
f 652/1459 651/1457 641/1437 639/1433 
f 642/1439 649/1453 654/1463 643/1441 
f 640/1435 638/1431 637/1429 658/1471 
f 647/1449 644/1443 657/1469 650/1455 
